<?xml version="1.0" encoding="UTF-8" standalone="no"?><svg xmlns="http://www.w3.org/2000/svg" xmlns:xlink="http://www.w3.org/1999/xlink" clip-rule="evenodd" stroke-miterlimit="10" viewBox="0 0 588 253"><desc>SVG generated by Keynote</desc><defs></defs><g transform="matrix(1.00, 0.00, -0.00, -1.00, 0.0, 253.0)"><image xlink:href="9F78BEB20784BD112F7D5D27AC9D6925.png" width="586.00" height="246.00" transform="matrix(1.00, 0.00, -0.00, -1.00, 1.0, 247.9)" opacity="0.50"></image><path d="M 5.0 29.3 L 5.0 224.3 C 5.0 236.2 14.7 246.0 26.6 246.0 L 561.4 246.0 C 573.3 246.0 583.0 236.2 583.0 224.3 L 583.0 29.3 C 583.0 17.4 573.3 8.0 561.4 8.0 L 26.6 8.0 C 14.7 8.0 5.0 17.4 5.0 29.3 Z M 5.0 29.3 " fill="#CE7123"></path><image xlink:href="A6EF2633D583C6FB982BF20F9A3DB6ED.png" width="165.00" height="29.00" transform="matrix(1.00, 0.00, -0.00, -1.00, 212.0, 236.0)"></image><g><clipPath id="clip0x6000012a7d40"><path d="M 5.0 7.8 L 583.0 7.8 L 583.0 252.8 L 5.0 252.8 Z M 5.0 7.8 "></path></clipPath><g clip-path="url(#clip0x6000012a7d40)"><text xml:space="preserve" font-family="HelveticaNeue-Medium,Helvetica Neue" font-size="30.0" fill="#FEFFFE" transform="matrix(1.00, 0.00, -0.00, -1.00, 213.4, 212.3)">M</text><text xml:space="preserve" font-family="HelveticaNeue-Medium,Helvetica Neue" font-size="30.0" fill="#FEFFFE" transform="matrix(1.00, 0.00, -0.00, -1.00, 240.1, 212.3)">i</text><text xml:space="preserve" font-family="HelveticaNeue-Medium,Helvetica Neue" font-size="30.0" fill="#FEFFFE" transform="matrix(1.00, 0.00, -0.00, -1.00, 247.3, 212.3)">d</text><text xml:space="preserve" font-family="HelveticaNeue-Medium,Helvetica Neue" font-size="30.0" fill="#FEFFFE" transform="matrix(1.00, 0.00, -0.00, -1.00, 265.6, 212.3)">d</text><text xml:space="preserve" font-family="HelveticaNeue-Medium,Helvetica Neue" font-size="30.0" fill="#FEFFFE" transform="matrix(1.00, 0.00, -0.00, -1.00, 284.0, 212.3)">l</text><text xml:space="preserve" font-family="HelveticaNeue-Medium,Helvetica Neue" font-size="30.0" fill="#FEFFFE" transform="matrix(1.00, 0.00, -0.00, -1.00, 291.2, 212.3)">e</text><text xml:space="preserve" font-family="HelveticaNeue-Medium,Helvetica Neue" font-size="30.0" fill="#FEFFFE" transform="matrix(1.00, 0.00, -0.00, -1.00, 307.9, 212.3)">w</text><text xml:space="preserve" font-family="HelveticaNeue-Medium,Helvetica Neue" font-size="30.0" fill="#FEFFFE" transform="matrix(1.00, 0.00, -0.00, -1.00, 331.2, 212.3)">a</text><text xml:space="preserve" font-family="HelveticaNeue-Medium,Helvetica Neue" font-size="30.0" fill="#FEFFFE" transform="matrix(1.00, 0.00, -0.00, -1.00, 347.9, 212.3)">r</text><text xml:space="preserve" font-family="HelveticaNeue-Medium,Helvetica Neue" font-size="30.0" fill="#FEFFFE" transform="matrix(1.00, 0.00, -0.00, -1.00, 357.9, 212.3)">e</text></g></g></g></svg>