<?xml version="1.0" encoding="UTF-8" standalone="no"?><svg xmlns="http://www.w3.org/2000/svg" xmlns:xlink="http://www.w3.org/1999/xlink" clip-rule="evenodd" stroke-miterlimit="10" viewBox="0 0 164 61"><desc>SVG generated by Keynote</desc><defs></defs><g transform="matrix(1.00, 0.00, -0.00, -1.00, 0.0, 61.0)"><image xlink:href="3345C46FA45B84474DEDC45D29C94792.png" width="161.00" height="54.00" transform="matrix(1.00, 0.00, -0.00, -1.00, 1.5, 55.4)" opacity="0.50"></image><path d="M 5.5 20.2 L 6.0 40.5 C 6.0 47.6 11.3 53.0 18.3 53.0 L 146.2 53.0 C 153.2 53.0 159.0 47.6 159.0 40.5 L 159.0 20.2 C 159.0 13.1 153.2 7.0 146.2 7.0 L 18.3 7.0 C 11.3 7.0 5.5 13.1 5.5 20.2 Z M 5.5 20.2 " fill="#A11414"></path><image xlink:href="5F6FCBA23C63B07CEA9528A7090ABF9E.png" width="124.00" height="31.00" transform="matrix(1.00, 0.00, -0.00, -1.00, 21.0, 42.0)"></image><g><clipPath id="clip0x6000012ab6a0"><path d="M 1.1 3.4 L 163.4 3.4 L 163.4 56.1 L 1.1 56.1 Z M 1.1 3.4 "></path></clipPath><g clip-path="url(#clip0x6000012ab6a0)"><text xml:space="preserve" font-family="HelveticaNeue-Medium,Helvetica Neue" font-size="26.0" fill="#FEFFFE" transform="matrix(1.00, 0.00, -0.00, -1.00, 22.0, 20.8)">R</text><text xml:space="preserve" font-family="HelveticaNeue-Medium,Helvetica Neue" font-size="26.0" fill="#FEFFFE" transform="matrix(1.00, 0.00, -0.00, -1.00, 40.3, 20.8)">e</text><text xml:space="preserve" font-family="HelveticaNeue-Medium,Helvetica Neue" font-size="26.0" fill="#FEFFFE" transform="matrix(1.00, 0.00, -0.00, -1.00, 54.8, 20.8)">s</text><text xml:space="preserve" font-family="HelveticaNeue-Medium,Helvetica Neue" font-size="26.0" fill="#FEFFFE" transform="matrix(1.00, 0.00, -0.00, -1.00, 68.3, 20.8)">p</text><text xml:space="preserve" font-family="HelveticaNeue-Medium,Helvetica Neue" font-size="26.0" fill="#FEFFFE" transform="matrix(1.00, 0.00, -0.00, -1.00, 84.2, 20.8)">o</text><text xml:space="preserve" font-family="HelveticaNeue-Medium,Helvetica Neue" font-size="26.0" fill="#FEFFFE" transform="matrix(1.00, 0.00, -0.00, -1.00, 99.6, 20.8)">n</text><text xml:space="preserve" font-family="HelveticaNeue-Medium,Helvetica Neue" font-size="26.0" fill="#FEFFFE" transform="matrix(1.00, 0.00, -0.00, -1.00, 114.5, 20.8)">s</text><text xml:space="preserve" font-family="HelveticaNeue-Medium,Helvetica Neue" font-size="26.0" fill="#FEFFFE" transform="matrix(1.00, 0.00, -0.00, -1.00, 128.0, 20.8)">e</text></g></g></g></svg>