<?xml version="1.0" encoding="UTF-8" standalone="no"?><svg xmlns="http://www.w3.org/2000/svg" xmlns:xlink="http://www.w3.org/1999/xlink" clip-rule="evenodd" stroke-miterlimit="10" viewBox="0 0 164 61"><desc>SVG generated by Keynote</desc><defs></defs><g transform="matrix(1.00, 0.00, -0.00, -1.00, 0.0, 61.0)"><image xlink:href="54329A76D1D8D7ECF6FB2B87508DC139.png" width="161.00" height="54.00" transform="matrix(1.00, 0.00, -0.00, -1.00, 1.0, 55.4)" opacity="0.50"></image><path d="M 5.0 20.2 L 5.0 40.5 C 5.0 47.6 10.8 53.0 17.8 53.0 L 145.7 53.0 C 152.7 53.0 158.0 47.6 158.0 40.5 L 158.0 20.2 C 158.0 13.1 152.7 7.0 145.7 7.0 L 17.8 7.0 C 10.8 7.0 5.0 13.1 5.0 20.2 Z M 5.0 20.2 " fill="#A11414"></path><image xlink:href="FB258201670A3A096DFB174067475A21.png" width="105.00" height="31.00" transform="matrix(1.00, 0.00, -0.00, -1.00, 30.0, 42.0)"></image><g><clipPath id="clip0x6000012acba0"><path d="M 0.6 3.4 L 162.9 3.4 L 162.9 56.1 L 0.6 56.1 Z M 0.6 3.4 "></path></clipPath><g clip-path="url(#clip0x6000012acba0)"><text xml:space="preserve" font-family="HelveticaNeue-Medium,Helvetica Neue" font-size="26.0" fill="#FEFFFE" transform="matrix(1.00, 0.00, -0.00, -1.00, 31.7, 20.8)">R</text><text xml:space="preserve" font-family="HelveticaNeue-Medium,Helvetica Neue" font-size="26.0" fill="#FEFFFE" transform="matrix(1.00, 0.00, -0.00, -1.00, 50.0, 20.8)">e</text><text xml:space="preserve" font-family="HelveticaNeue-Medium,Helvetica Neue" font-size="26.0" fill="#FEFFFE" transform="matrix(1.00, 0.00, -0.00, -1.00, 64.4, 20.8)">q</text><text xml:space="preserve" font-family="HelveticaNeue-Medium,Helvetica Neue" font-size="26.0" fill="#FEFFFE" transform="matrix(1.00, 0.00, -0.00, -1.00, 80.3, 20.8)">u</text><text xml:space="preserve" font-family="HelveticaNeue-Medium,Helvetica Neue" font-size="26.0" fill="#FEFFFE" transform="matrix(1.00, 0.00, -0.00, -1.00, 95.2, 20.8)">e</text><text xml:space="preserve" font-family="HelveticaNeue-Medium,Helvetica Neue" font-size="26.0" fill="#FEFFFE" transform="matrix(1.00, 0.00, -0.00, -1.00, 109.7, 20.8)">s</text><text xml:space="preserve" font-family="HelveticaNeue-Medium,Helvetica Neue" font-size="26.0" fill="#FEFFFE" transform="matrix(1.00, 0.00, -0.00, -1.00, 123.2, 20.8)">t</text></g></g></g></svg>