<?xml version="1.0" encoding="UTF-8" standalone="no"?><svg xmlns="http://www.w3.org/2000/svg" xmlns:xlink="http://www.w3.org/1999/xlink" clip-rule="evenodd" stroke-miterlimit="10" viewBox="0 0 259 96"><desc>SVG generated by Keynote</desc><defs></defs><g transform="matrix(1.00, 0.00, -0.00, -1.00, 0.0, 96.0)"><image xlink:href="27D04841EDE885142187C35F0798E71E.png" width="256.00" height="90.00" transform="matrix(1.00, 0.00, -0.00, -1.00, 1.1, 90.9)" opacity="0.50"></image><g><clipPath id="clip0x6080032bb5a0"><path d="M 53.6 89.0 C 51.6 88.9 49.9 87.7 49.1 86.1 L 5.1 76.0 L 49.0 66.0 L 49.0 12.1 C 49.0 9.3 50.8 7.0 53.6 7.0 L 248.5 7.0 C 251.3 7.0 254.0 9.3 254.0 12.1 L 254.0 83.9 C 254.0 86.7 251.3 89.0 248.5 89.0 L 53.6 89.0 Z M 53.6 88.9 "></path></clipPath><g clip-path="url(#clip0x6080032bb5a0)"><image xlink:href="../../AC264CEF-AE8D-43F0-A92B-1A5A6C63C05C/assets/66812298EC73D46BADCACA9889D2977F.png" width="512.00" height="512.00" transform="matrix(0.50, 0.00, -0.00, -0.50, 5.1, 89.0)"></image></g></g><image xlink:href="398424000A8CABB85BCA2D272DF24825.png" width="62.00" height="29.00" transform="matrix(1.00, 0.00, -0.00, -1.00, 119.0, 79.0)"></image><g><clipPath id="clip0x6000044b42e0"><path d="M 40.9 -1.1 L 261.2 -1.1 L 261.2 95.9 L 40.9 95.9 Z M 40.9 -1.1 "></path></clipPath><g clip-path="url(#clip0x6000044b42e0)"><text xml:space="preserve" font-family="HelveticaNeue-Medium,Helvetica Neue" font-size="30.0" fill="#FEFFFE" transform="matrix(1.00, 0.00, -0.00, -1.00, 122.7, 55.3)">A</text><text xml:space="preserve" font-family="HelveticaNeue-Medium,Helvetica Neue" font-size="30.0" fill="#FEFFFE" transform="matrix(1.00, 0.00, -0.00, -1.00, 142.7, 55.3)">d</text><text xml:space="preserve" font-family="HelveticaNeue-Medium,Helvetica Neue" font-size="30.0" fill="#FEFFFE" transform="matrix(1.00, 0.00, -0.00, -1.00, 161.0, 55.3)">d</text><text xml:space="preserve" font-family="HelveticaNeue-Medium,Helvetica Neue" font-size="30.0" fill="#FEFFFE" transform="matrix(1.00, 0.00, -0.00, -1.00, 179.4, 55.3)"> </text></g></g><image xlink:href="D6FDF7152CCF161B9A25EF6B7C578C23.png" width="165.00" height="29.00" transform="matrix(1.00, 0.00, -0.00, -1.00, 69.0, 42.0)"></image><g><clipPath id="clip0x6080032bb6c0"><path d="M 40.9 -1.1 L 261.2 -1.1 L 261.2 95.9 L 40.9 95.9 Z M 40.9 -1.1 "></path></clipPath><g clip-path="url(#clip0x6080032bb6c0)"><text xml:space="preserve" font-family="HelveticaNeue-Medium,Helvetica Neue" font-size="30.0" fill="#FEFFFE" transform="matrix(1.00, 0.00, -0.00, -1.00, 70.4, 18.3)">M</text><text xml:space="preserve" font-family="HelveticaNeue-Medium,Helvetica Neue" font-size="30.0" fill="#FEFFFE" transform="matrix(1.00, 0.00, -0.00, -1.00, 97.1, 18.3)">i</text><text xml:space="preserve" font-family="HelveticaNeue-Medium,Helvetica Neue" font-size="30.0" fill="#FEFFFE" transform="matrix(1.00, 0.00, -0.00, -1.00, 104.3, 18.3)">d</text><text xml:space="preserve" font-family="HelveticaNeue-Medium,Helvetica Neue" font-size="30.0" fill="#FEFFFE" transform="matrix(1.00, 0.00, -0.00, -1.00, 122.7, 18.3)">d</text><text xml:space="preserve" font-family="HelveticaNeue-Medium,Helvetica Neue" font-size="30.0" fill="#FEFFFE" transform="matrix(1.00, 0.00, -0.00, -1.00, 141.0, 18.3)">l</text><text xml:space="preserve" font-family="HelveticaNeue-Medium,Helvetica Neue" font-size="30.0" fill="#FEFFFE" transform="matrix(1.00, 0.00, -0.00, -1.00, 148.2, 18.3)">e</text><text xml:space="preserve" font-family="HelveticaNeue-Medium,Helvetica Neue" font-size="30.0" fill="#FEFFFE" transform="matrix(1.00, 0.00, -0.00, -1.00, 164.9, 18.3)">w</text><text xml:space="preserve" font-family="HelveticaNeue-Medium,Helvetica Neue" font-size="30.0" fill="#FEFFFE" transform="matrix(1.00, 0.00, -0.00, -1.00, 188.2, 18.3)">a</text><text xml:space="preserve" font-family="HelveticaNeue-Medium,Helvetica Neue" font-size="30.0" fill="#FEFFFE" transform="matrix(1.00, 0.00, -0.00, -1.00, 204.9, 18.3)">r</text><text xml:space="preserve" font-family="HelveticaNeue-Medium,Helvetica Neue" font-size="30.0" fill="#FEFFFE" transform="matrix(1.00, 0.00, -0.00, -1.00, 214.9, 18.3)">e</text></g></g></g></svg>