<?xml version="1.0" encoding="UTF-8" standalone="no"?><svg xmlns="http://www.w3.org/2000/svg" xmlns:xlink="http://www.w3.org/1999/xlink" clip-rule="evenodd" stroke-miterlimit="10" viewBox="0 0 682 288"><desc>SVG generated by Keynote</desc><defs></defs><g transform="matrix(1.00, 0.00, -0.00, -1.00, 0.0, 288.0)"><path d="M 1.0 287.0 L 681.0 287.0 L 681.0 1.0 L 1.0 1.0 Z M 1.0 286.9 " fill="#242424"></path><image xlink:href="../../4E3FFF75-1320-45A8-B60E-1258C930F3ED/assets/89A59BBC7A5B30685AA3B7739CDCA1F0.png" width="130.00" height="30.00" transform="matrix(1.00, 0.00, -0.00, -1.00, 3.0, 280.0)"></image><g><clipPath id="clip0x6080028a5160"><path d="M -7.1 -9.0 L 1345.6 -9.0 L 1345.6 293.0 L -7.1 293.0 Z M -7.1 -9.0 "></path></clipPath><g clip-path="url(#clip0x6080028a5160)"><text xml:space="preserve" font-family="Monaco,Monaco" font-size="26.0" fill="#83D6EB" transform="matrix(1.00, 0.00, -0.00, -1.00, 5.0, 256.6)">f</text><text xml:space="preserve" font-family="Monaco,Monaco" font-size="26.0" fill="#83D6EB" transform="matrix(1.00, 0.00, -0.00, -1.00, 20.7, 256.6)">u</text><text xml:space="preserve" font-family="Monaco,Monaco" font-size="26.0" fill="#83D6EB" transform="matrix(1.00, 0.00, -0.00, -1.00, 36.3, 256.6)">n</text><text xml:space="preserve" font-family="Monaco,Monaco" font-size="26.0" fill="#83D6EB" transform="matrix(1.00, 0.00, -0.00, -1.00, 51.9, 256.6)">c</text><text xml:space="preserve" font-family="Monaco,Monaco" font-size="26.0" fill="#83D6EB" transform="matrix(1.00, 0.00, -0.00, -1.00, 67.5, 256.6)">t</text><text xml:space="preserve" font-family="Monaco,Monaco" font-size="26.0" fill="#83D6EB" transform="matrix(1.00, 0.00, -0.00, -1.00, 83.1, 256.6)">i</text><text xml:space="preserve" font-family="Monaco,Monaco" font-size="26.0" fill="#83D6EB" transform="matrix(1.00, 0.00, -0.00, -1.00, 98.7, 256.6)">o</text><text xml:space="preserve" font-family="Monaco,Monaco" font-size="26.0" fill="#83D6EB" transform="matrix(1.00, 0.00, -0.00, -1.00, 114.3, 256.6)">n</text></g></g><image xlink:href="../../4E3FFF75-1320-45A8-B60E-1258C930F3ED/assets/5406C55E0D517D49D06F24D290FCF451.png" width="317.00" height="36.00" transform="matrix(1.00, 0.00, -0.00, -1.00, 143.0, 280.0)"></image><g><clipPath id="clip0x6000038be780"><path d="M -7.1 -9.0 L 1345.6 -9.0 L 1345.6 293.0 L -7.1 293.0 Z M -7.1 -9.0 "></path></clipPath><g clip-path="url(#clip0x6000038be780)"><text xml:space="preserve" font-family="Monaco,Monaco" font-size="26.0" fill="#EAEAEA" transform="matrix(1.00, 0.00, -0.00, -1.00, 129.9, 256.6)"> </text><text xml:space="preserve" font-family="Monaco,Monaco" font-size="26.0" fill="#EAEAEA" transform="matrix(1.00, 0.00, -0.00, -1.00, 145.5, 256.6)">b</text><text xml:space="preserve" font-family="Monaco,Monaco" font-size="26.0" fill="#EAEAEA" transform="matrix(1.00, 0.00, -0.00, -1.00, 161.1, 256.6)">u</text><text xml:space="preserve" font-family="Monaco,Monaco" font-size="26.0" fill="#EAEAEA" transform="matrix(1.00, 0.00, -0.00, -1.00, 176.7, 256.6)">i</text><text xml:space="preserve" font-family="Monaco,Monaco" font-size="26.0" fill="#EAEAEA" transform="matrix(1.00, 0.00, -0.00, -1.00, 192.3, 256.6)">l</text><text xml:space="preserve" font-family="Monaco,Monaco" font-size="26.0" fill="#EAEAEA" transform="matrix(1.00, 0.00, -0.00, -1.00, 207.9, 256.6)">d</text><text xml:space="preserve" font-family="Monaco,Monaco" font-size="26.0" fill="#EAEAEA" transform="matrix(1.00, 0.00, -0.00, -1.00, 223.5, 256.6)">G</text><text xml:space="preserve" font-family="Monaco,Monaco" font-size="26.0" fill="#EAEAEA" transform="matrix(1.00, 0.00, -0.00, -1.00, 239.1, 256.6)">r</text><text xml:space="preserve" font-family="Monaco,Monaco" font-size="26.0" fill="#EAEAEA" transform="matrix(1.00, 0.00, -0.00, -1.00, 254.7, 256.6)">e</text><text xml:space="preserve" font-family="Monaco,Monaco" font-size="26.0" fill="#EAEAEA" transform="matrix(1.00, 0.00, -0.00, -1.00, 270.3, 256.6)">e</text><text xml:space="preserve" font-family="Monaco,Monaco" font-size="26.0" fill="#EAEAEA" transform="matrix(1.00, 0.00, -0.00, -1.00, 285.9, 256.6)">t</text><text xml:space="preserve" font-family="Monaco,Monaco" font-size="26.0" fill="#EAEAEA" transform="matrix(1.00, 0.00, -0.00, -1.00, 301.5, 256.6)">(</text><text xml:space="preserve" font-family="Monaco,Monaco" font-size="26.0" fill="#EAEAEA" transform="matrix(1.00, 0.00, -0.00, -1.00, 317.1, 256.6)">c</text><text xml:space="preserve" font-family="Monaco,Monaco" font-size="26.0" fill="#EAEAEA" transform="matrix(1.00, 0.00, -0.00, -1.00, 332.7, 256.6)">o</text><text xml:space="preserve" font-family="Monaco,Monaco" font-size="26.0" fill="#EAEAEA" transform="matrix(1.00, 0.00, -0.00, -1.00, 348.3, 256.6)">n</text><text xml:space="preserve" font-family="Monaco,Monaco" font-size="26.0" fill="#EAEAEA" transform="matrix(1.00, 0.00, -0.00, -1.00, 363.9, 256.6)">f</text><text xml:space="preserve" font-family="Monaco,Monaco" font-size="26.0" fill="#EAEAEA" transform="matrix(1.00, 0.00, -0.00, -1.00, 379.5, 256.6)">i</text><text xml:space="preserve" font-family="Monaco,Monaco" font-size="26.0" fill="#EAEAEA" transform="matrix(1.00, 0.00, -0.00, -1.00, 395.2, 256.6)">g</text><text xml:space="preserve" font-family="Monaco,Monaco" font-size="26.0" fill="#EAEAEA" transform="matrix(1.00, 0.00, -0.00, -1.00, 410.8, 256.6)">)</text><text xml:space="preserve" font-family="Monaco,Monaco" font-size="26.0" fill="#EAEAEA" transform="matrix(1.00, 0.00, -0.00, -1.00, 426.4, 256.6)"> </text><text xml:space="preserve" font-family="Monaco,Monaco" font-size="26.0" fill="#EAEAEA" transform="matrix(1.00, 0.00, -0.00, -1.00, 442.0, 256.6)">{</text></g></g><g><clipPath id="clip0x6080028a5ac0"><path d="M -7.1 -9.0 L 1345.6 -9.0 L 1345.6 293.0 L -7.1 293.0 Z M -7.1 -9.0 "></path></clipPath><g clip-path="url(#clip0x6080028a5ac0)"><text xml:space="preserve" font-family="Monaco,Monaco" font-size="26.0" fill="#EAEAEA" transform="matrix(1.00, 0.00, -0.00, -1.00, 5.0, 221.6)"> </text><text xml:space="preserve" font-family="Monaco,Monaco" font-size="26.0" fill="#EAEAEA" transform="matrix(1.00, 0.00, -0.00, -1.00, 20.7, 221.6)"> </text></g></g><image xlink:href="../../4E3FFF75-1320-45A8-B60E-1258C930F3ED/assets/571E5C7A853E35CA3D9B67329350F19D.png" width="54.00" height="24.00" transform="matrix(1.00, 0.00, -0.00, -1.00, 32.0, 239.0)"></image><g><clipPath id="clip0x6080028a5c40"><path d="M -7.1 -9.0 L 1345.6 -9.0 L 1345.6 293.0 L -7.1 293.0 Z M -7.1 -9.0 "></path></clipPath><g clip-path="url(#clip0x6080028a5c40)"><text xml:space="preserve" font-family="Monaco,Monaco" font-size="26.0" fill="#83D6EB" transform="matrix(1.00, 0.00, -0.00, -1.00, 36.3, 221.6)">v</text><text xml:space="preserve" font-family="Monaco,Monaco" font-size="26.0" fill="#83D6EB" transform="matrix(1.00, 0.00, -0.00, -1.00, 51.9, 221.6)">a</text><text xml:space="preserve" font-family="Monaco,Monaco" font-size="26.0" fill="#83D6EB" transform="matrix(1.00, 0.00, -0.00, -1.00, 67.5, 221.6)">r</text></g></g><image xlink:href="../../4E3FFF75-1320-45A8-B60E-1258C930F3ED/assets/0E4C453B6ED8F860284A207566D9E0EF.png" width="83.00" height="34.00" transform="matrix(1.00, 0.00, -0.00, -1.00, 96.0, 243.0)"></image><g><clipPath id="clip0x6000038be420"><path d="M -7.1 -9.0 L 1345.6 -9.0 L 1345.6 293.0 L -7.1 293.0 Z M -7.1 -9.0 "></path></clipPath><g clip-path="url(#clip0x6000038be420)"><text xml:space="preserve" font-family="Monaco,Monaco" font-size="26.0" fill="#EAEAEA" transform="matrix(1.00, 0.00, -0.00, -1.00, 83.1, 221.6)"> </text><text xml:space="preserve" font-family="Monaco,Monaco" font-size="26.0" fill="#EAEAEA" transform="matrix(1.00, 0.00, -0.00, -1.00, 98.7, 221.6)">g</text><text xml:space="preserve" font-family="Monaco,Monaco" font-size="26.0" fill="#EAEAEA" transform="matrix(1.00, 0.00, -0.00, -1.00, 114.3, 221.6)">r</text><text xml:space="preserve" font-family="Monaco,Monaco" font-size="26.0" fill="#EAEAEA" transform="matrix(1.00, 0.00, -0.00, -1.00, 129.9, 221.6)">e</text><text xml:space="preserve" font-family="Monaco,Monaco" font-size="26.0" fill="#EAEAEA" transform="matrix(1.00, 0.00, -0.00, -1.00, 145.5, 221.6)">e</text><text xml:space="preserve" font-family="Monaco,Monaco" font-size="26.0" fill="#EAEAEA" transform="matrix(1.00, 0.00, -0.00, -1.00, 161.1, 221.6)">t</text><text xml:space="preserve" font-family="Monaco,Monaco" font-size="26.0" fill="#EAEAEA" transform="matrix(1.00, 0.00, -0.00, -1.00, 176.7, 221.6)"> </text></g></g><image xlink:href="../../4E3FFF75-1320-45A8-B60E-1258C930F3ED/assets/8246B9755CB945AD6AC6A45ECD13A2CB.png" width="22.00" height="15.00" transform="matrix(1.00, 0.00, -0.00, -1.00, 189.0, 234.0)"></image><g><clipPath id="clip0x6080028a64e0"><path d="M -7.1 -9.0 L 1345.6 -9.0 L 1345.6 293.0 L -7.1 293.0 Z M -7.1 -9.0 "></path></clipPath><g clip-path="url(#clip0x6080028a64e0)"><text xml:space="preserve" font-family="Monaco,Monaco" font-size="26.0" fill="#E34D77" transform="matrix(1.00, 0.00, -0.00, -1.00, 192.3, 221.6)">=</text></g></g><image xlink:href="../../4E3FFF75-1320-45A8-B60E-1258C930F3ED/assets/696234784347141E72EFE6F2F76DF296.png" width="192.00" height="36.00" transform="matrix(1.00, 0.00, -0.00, -1.00, 221.0, 245.0)"></image><g><clipPath id="clip0x6080028a6660"><path d="M -7.1 -9.0 L 1345.6 -9.0 L 1345.6 293.0 L -7.1 293.0 Z M -7.1 -9.0 "></path></clipPath><g clip-path="url(#clip0x6080028a6660)"><text xml:space="preserve" font-family="Monaco,Monaco" font-size="26.0" fill="#EAEAEA" transform="matrix(1.00, 0.00, -0.00, -1.00, 207.9, 221.6)"> </text><text xml:space="preserve" font-family="Monaco,Monaco" font-size="26.0" fill="#EAEAEA" transform="matrix(1.00, 0.00, -0.00, -1.00, 223.5, 221.6)">c</text><text xml:space="preserve" font-family="Monaco,Monaco" font-size="26.0" fill="#EAEAEA" transform="matrix(1.00, 0.00, -0.00, -1.00, 239.1, 221.6)">o</text><text xml:space="preserve" font-family="Monaco,Monaco" font-size="26.0" fill="#EAEAEA" transform="matrix(1.00, 0.00, -0.00, -1.00, 254.7, 221.6)">n</text><text xml:space="preserve" font-family="Monaco,Monaco" font-size="26.0" fill="#EAEAEA" transform="matrix(1.00, 0.00, -0.00, -1.00, 270.3, 221.6)">f</text><text xml:space="preserve" font-family="Monaco,Monaco" font-size="26.0" fill="#EAEAEA" transform="matrix(1.00, 0.00, -0.00, -1.00, 285.9, 221.6)">i</text><text xml:space="preserve" font-family="Monaco,Monaco" font-size="26.0" fill="#EAEAEA" transform="matrix(1.00, 0.00, -0.00, -1.00, 301.5, 221.6)">g</text><text xml:space="preserve" font-family="Monaco,Monaco" font-size="26.0" fill="#EAEAEA" transform="matrix(1.00, 0.00, -0.00, -1.00, 317.1, 221.6)">.</text><text xml:space="preserve" font-family="Monaco,Monaco" font-size="26.0" fill="#EAEAEA" transform="matrix(1.00, 0.00, -0.00, -1.00, 332.7, 221.6)">g</text><text xml:space="preserve" font-family="Monaco,Monaco" font-size="26.0" fill="#EAEAEA" transform="matrix(1.00, 0.00, -0.00, -1.00, 348.3, 221.6)">r</text><text xml:space="preserve" font-family="Monaco,Monaco" font-size="26.0" fill="#EAEAEA" transform="matrix(1.00, 0.00, -0.00, -1.00, 363.9, 221.6)">e</text><text xml:space="preserve" font-family="Monaco,Monaco" font-size="26.0" fill="#EAEAEA" transform="matrix(1.00, 0.00, -0.00, -1.00, 379.5, 221.6)">e</text><text xml:space="preserve" font-family="Monaco,Monaco" font-size="26.0" fill="#EAEAEA" transform="matrix(1.00, 0.00, -0.00, -1.00, 395.1, 221.6)">t</text><text xml:space="preserve" font-family="Monaco,Monaco" font-size="26.0" fill="#EAEAEA" transform="matrix(1.00, 0.00, -0.00, -1.00, 410.7, 221.6)"> </text></g></g><image xlink:href="../../4E3FFF75-1320-45A8-B60E-1258C930F3ED/assets/FECC3AD32890898C2965998E689EDD71.png" width="26.00" height="30.00" transform="matrix(1.00, 0.00, -0.00, -1.00, 429.0, 244.0)"></image><g><clipPath id="clip0x6080028a6ba0"><path d="M -7.1 -9.0 L 1345.6 -9.0 L 1345.6 293.0 L -7.1 293.0 Z M -7.1 -9.0 "></path></clipPath><g clip-path="url(#clip0x6080028a6ba0)"><text xml:space="preserve" font-family="Monaco,Monaco" font-size="26.0" fill="#E34D77" transform="matrix(1.00, 0.00, -0.00, -1.00, 426.3, 221.6)">|</text><text xml:space="preserve" font-family="Monaco,Monaco" font-size="26.0" fill="#E34D77" transform="matrix(1.00, 0.00, -0.00, -1.00, 441.9, 221.6)">|</text></g></g><g><clipPath id="clip0x6000038be180"><path d="M -7.1 -9.0 L 1345.6 -9.0 L 1345.6 293.0 L -7.1 293.0 Z M -7.1 -9.0 "></path></clipPath><g clip-path="url(#clip0x6000038be180)"><text xml:space="preserve" font-family="Monaco,Monaco" font-size="26.0" fill="#EAEAEA" transform="matrix(1.00, 0.00, -0.00, -1.00, 457.5, 221.6)"> </text></g></g><image xlink:href="../../4E3FFF75-1320-45A8-B60E-1258C930F3ED/assets/339F726958DCF5A694B44682F3990976.png" width="107.00" height="30.00" transform="matrix(1.00, 0.00, -0.00, -1.00, 474.0, 245.0)"></image><g><clipPath id="clip0x6000038be2a0"><path d="M -7.1 -9.0 L 1345.6 -9.0 L 1345.6 293.0 L -7.1 293.0 Z M -7.1 -9.0 "></path></clipPath><g clip-path="url(#clip0x6000038be2a0)"><text xml:space="preserve" font-family="Monaco,Monaco" font-size="26.0" fill="#E6D679" transform="matrix(1.00, 0.00, -0.00, -1.00, 473.1, 221.6)">'</text><text xml:space="preserve" font-family="Monaco,Monaco" font-size="26.0" fill="#E6D679" transform="matrix(1.00, 0.00, -0.00, -1.00, 488.7, 221.6)">H</text><text xml:space="preserve" font-family="Monaco,Monaco" font-size="26.0" fill="#E6D679" transform="matrix(1.00, 0.00, -0.00, -1.00, 504.3, 221.6)">e</text><text xml:space="preserve" font-family="Monaco,Monaco" font-size="26.0" fill="#E6D679" transform="matrix(1.00, 0.00, -0.00, -1.00, 519.9, 221.6)">l</text><text xml:space="preserve" font-family="Monaco,Monaco" font-size="26.0" fill="#E6D679" transform="matrix(1.00, 0.00, -0.00, -1.00, 535.5, 221.6)">l</text><text xml:space="preserve" font-family="Monaco,Monaco" font-size="26.0" fill="#E6D679" transform="matrix(1.00, 0.00, -0.00, -1.00, 551.1, 221.6)">o</text><text xml:space="preserve" font-family="Monaco,Monaco" font-size="26.0" fill="#E6D679" transform="matrix(1.00, 0.00, -0.00, -1.00, 566.8, 221.6)">'</text></g></g><g><clipPath id="clip0x6000038bf380"><path d="M -7.1 -9.0 L 1345.6 -9.0 L 1345.6 293.0 L -7.1 293.0 Z M -7.1 -9.0 "></path></clipPath><g clip-path="url(#clip0x6000038bf380)"><text xml:space="preserve" font-family="Monaco,Monaco" font-size="26.0" fill="#EAEAEA" transform="matrix(1.00, 0.00, -0.00, -1.00, 5.0, 186.6)"> </text><text xml:space="preserve" font-family="Monaco,Monaco" font-size="26.0" fill="#EAEAEA" transform="matrix(1.00, 0.00, -0.00, -1.00, 20.7, 186.6)"> </text><text xml:space="preserve" font-family="Monaco,Monaco" font-size="26.0" fill="#EAEAEA" transform="matrix(1.00, 0.00, -0.00, -1.00, 5.0, 151.6)"> </text><text xml:space="preserve" font-family="Monaco,Monaco" font-size="26.0" fill="#EAEAEA" transform="matrix(1.00, 0.00, -0.00, -1.00, 20.7, 151.6)"> </text></g></g><image xlink:href="../../4E3FFF75-1320-45A8-B60E-1258C930F3ED/assets/AA178C7F6616439CD6ACCFDCCFBE9388.png" width="98.00" height="28.00" transform="matrix(1.00, 0.00, -0.00, -1.00, 35.0, 173.0)"></image><g><clipPath id="clip0x6000038bf500"><path d="M -7.1 -9.0 L 1345.6 -9.0 L 1345.6 293.0 L -7.1 293.0 Z M -7.1 -9.0 "></path></clipPath><g clip-path="url(#clip0x6000038bf500)"><text xml:space="preserve" font-family="Monaco,Monaco" font-size="26.0" fill="#E34D77" transform="matrix(1.00, 0.00, -0.00, -1.00, 36.3, 151.6)">r</text><text xml:space="preserve" font-family="Monaco,Monaco" font-size="26.0" fill="#E34D77" transform="matrix(1.00, 0.00, -0.00, -1.00, 51.9, 151.6)">e</text><text xml:space="preserve" font-family="Monaco,Monaco" font-size="26.0" fill="#E34D77" transform="matrix(1.00, 0.00, -0.00, -1.00, 67.5, 151.6)">t</text><text xml:space="preserve" font-family="Monaco,Monaco" font-size="26.0" fill="#E34D77" transform="matrix(1.00, 0.00, -0.00, -1.00, 83.1, 151.6)">u</text><text xml:space="preserve" font-family="Monaco,Monaco" font-size="26.0" fill="#E34D77" transform="matrix(1.00, 0.00, -0.00, -1.00, 98.7, 151.6)">r</text><text xml:space="preserve" font-family="Monaco,Monaco" font-size="26.0" fill="#E34D77" transform="matrix(1.00, 0.00, -0.00, -1.00, 114.3, 151.6)">n</text></g></g><g><clipPath id="clip0x6000038bfaa0"><path d="M -7.1 -9.0 L 1345.6 -9.0 L 1345.6 293.0 L -7.1 293.0 Z M -7.1 -9.0 "></path></clipPath><g clip-path="url(#clip0x6000038bfaa0)"><text xml:space="preserve" font-family="Monaco,Monaco" font-size="26.0" fill="#EAEAEA" transform="matrix(1.00, 0.00, -0.00, -1.00, 129.9, 151.6)"> </text></g></g><image xlink:href="../../4E3FFF75-1320-45A8-B60E-1258C930F3ED/assets/0E9B49A94274A7F7D9059FA5C3EFC089.png" width="130.00" height="30.00" transform="matrix(1.00, 0.00, -0.00, -1.00, 143.0, 175.0)"></image><g><clipPath id="clip0x6000038bfbc0"><path d="M -7.1 -9.0 L 1345.6 -9.0 L 1345.6 293.0 L -7.1 293.0 Z M -7.1 -9.0 "></path></clipPath><g clip-path="url(#clip0x6000038bfbc0)"><text xml:space="preserve" font-family="Monaco,Monaco" font-size="26.0" fill="#83D6EB" transform="matrix(1.00, 0.00, -0.00, -1.00, 145.5, 151.6)">f</text><text xml:space="preserve" font-family="Monaco,Monaco" font-size="26.0" fill="#83D6EB" transform="matrix(1.00, 0.00, -0.00, -1.00, 161.1, 151.6)">u</text><text xml:space="preserve" font-family="Monaco,Monaco" font-size="26.0" fill="#83D6EB" transform="matrix(1.00, 0.00, -0.00, -1.00, 176.7, 151.6)">n</text><text xml:space="preserve" font-family="Monaco,Monaco" font-size="26.0" fill="#83D6EB" transform="matrix(1.00, 0.00, -0.00, -1.00, 192.3, 151.6)">c</text><text xml:space="preserve" font-family="Monaco,Monaco" font-size="26.0" fill="#83D6EB" transform="matrix(1.00, 0.00, -0.00, -1.00, 207.9, 151.6)">t</text><text xml:space="preserve" font-family="Monaco,Monaco" font-size="26.0" fill="#83D6EB" transform="matrix(1.00, 0.00, -0.00, -1.00, 223.5, 151.6)">i</text><text xml:space="preserve" font-family="Monaco,Monaco" font-size="26.0" fill="#83D6EB" transform="matrix(1.00, 0.00, -0.00, -1.00, 239.1, 151.6)">o</text><text xml:space="preserve" font-family="Monaco,Monaco" font-size="26.0" fill="#83D6EB" transform="matrix(1.00, 0.00, -0.00, -1.00, 254.7, 151.6)">n</text></g></g><image xlink:href="../../4E3FFF75-1320-45A8-B60E-1258C930F3ED/assets/1C58B913FCD463D7DA5BA194C0DCFD17.png" width="395.00" height="36.00" transform="matrix(1.00, 0.00, -0.00, -1.00, 268.0, 175.0)"></image><g><clipPath id="clip0x600003aa0120"><path d="M -7.1 -9.0 L 1345.6 -9.0 L 1345.6 293.0 L -7.1 293.0 Z M -7.1 -9.0 "></path></clipPath><g clip-path="url(#clip0x600003aa0120)"><text xml:space="preserve" font-family="Monaco,Monaco" font-size="26.0" fill="#EAEAEA" transform="matrix(1.00, 0.00, -0.00, -1.00, 270.3, 151.6)">(</text><text xml:space="preserve" font-family="Monaco,Monaco" font-size="26.0" fill="#EAEAEA" transform="matrix(1.00, 0.00, -0.00, -1.00, 285.9, 151.6)">a</text><text xml:space="preserve" font-family="Monaco,Monaco" font-size="26.0" fill="#EAEAEA" transform="matrix(1.00, 0.00, -0.00, -1.00, 301.5, 151.6)">r</text><text xml:space="preserve" font-family="Monaco,Monaco" font-size="26.0" fill="#EAEAEA" transform="matrix(1.00, 0.00, -0.00, -1.00, 317.1, 151.6)">g</text><text xml:space="preserve" font-family="Monaco,Monaco" font-size="26.0" fill="#EAEAEA" transform="matrix(1.00, 0.00, -0.00, -1.00, 332.7, 151.6)">s</text><text xml:space="preserve" font-family="Monaco,Monaco" font-size="26.0" fill="#EAEAEA" transform="matrix(1.00, 0.00, -0.00, -1.00, 348.3, 151.6)">,</text><text xml:space="preserve" font-family="Monaco,Monaco" font-size="26.0" fill="#EAEAEA" transform="matrix(1.00, 0.00, -0.00, -1.00, 363.9, 151.6)"> </text><text xml:space="preserve" font-family="Monaco,Monaco" font-size="26.0" fill="#EAEAEA" transform="matrix(1.00, 0.00, -0.00, -1.00, 379.5, 151.6)">i</text><text xml:space="preserve" font-family="Monaco,Monaco" font-size="26.0" fill="#EAEAEA" transform="matrix(1.00, 0.00, -0.00, -1.00, 395.1, 151.6)">n</text><text xml:space="preserve" font-family="Monaco,Monaco" font-size="26.0" fill="#EAEAEA" transform="matrix(1.00, 0.00, -0.00, -1.00, 410.7, 151.6)">p</text><text xml:space="preserve" font-family="Monaco,Monaco" font-size="26.0" fill="#EAEAEA" transform="matrix(1.00, 0.00, -0.00, -1.00, 426.3, 151.6)">u</text><text xml:space="preserve" font-family="Monaco,Monaco" font-size="26.0" fill="#EAEAEA" transform="matrix(1.00, 0.00, -0.00, -1.00, 441.9, 151.6)">t</text><text xml:space="preserve" font-family="Monaco,Monaco" font-size="26.0" fill="#EAEAEA" transform="matrix(1.00, 0.00, -0.00, -1.00, 457.6, 151.6)">S</text><text xml:space="preserve" font-family="Monaco,Monaco" font-size="26.0" fill="#EAEAEA" transform="matrix(1.00, 0.00, -0.00, -1.00, 473.2, 151.6)">t</text><text xml:space="preserve" font-family="Monaco,Monaco" font-size="26.0" fill="#EAEAEA" transform="matrix(1.00, 0.00, -0.00, -1.00, 488.8, 151.6)">r</text><text xml:space="preserve" font-family="Monaco,Monaco" font-size="26.0" fill="#EAEAEA" transform="matrix(1.00, 0.00, -0.00, -1.00, 504.4, 151.6)">e</text><text xml:space="preserve" font-family="Monaco,Monaco" font-size="26.0" fill="#EAEAEA" transform="matrix(1.00, 0.00, -0.00, -1.00, 520.0, 151.6)">a</text><text xml:space="preserve" font-family="Monaco,Monaco" font-size="26.0" fill="#EAEAEA" transform="matrix(1.00, 0.00, -0.00, -1.00, 535.6, 151.6)">m</text><text xml:space="preserve" font-family="Monaco,Monaco" font-size="26.0" fill="#EAEAEA" transform="matrix(1.00, 0.00, -0.00, -1.00, 551.2, 151.6)">a</text><text xml:space="preserve" font-family="Monaco,Monaco" font-size="26.0" fill="#EAEAEA" transform="matrix(1.00, 0.00, -0.00, -1.00, 566.8, 151.6)">b</text><text xml:space="preserve" font-family="Monaco,Monaco" font-size="26.0" fill="#EAEAEA" transform="matrix(1.00, 0.00, -0.00, -1.00, 582.4, 151.6)">l</text><text xml:space="preserve" font-family="Monaco,Monaco" font-size="26.0" fill="#EAEAEA" transform="matrix(1.00, 0.00, -0.00, -1.00, 598.0, 151.6)">e</text><text xml:space="preserve" font-family="Monaco,Monaco" font-size="26.0" fill="#EAEAEA" transform="matrix(1.00, 0.00, -0.00, -1.00, 613.6, 151.6)">)</text><text xml:space="preserve" font-family="Monaco,Monaco" font-size="26.0" fill="#EAEAEA" transform="matrix(1.00, 0.00, -0.00, -1.00, 629.2, 151.6)"> </text><text xml:space="preserve" font-family="Monaco,Monaco" font-size="26.0" fill="#EAEAEA" transform="matrix(1.00, 0.00, -0.00, -1.00, 644.8, 151.6)">{</text></g></g><g><clipPath id="clip0x6080028a76e0"><path d="M -7.1 -9.0 L 1345.6 -9.0 L 1345.6 293.0 L -7.1 293.0 Z M -7.1 -9.0 "></path></clipPath><g clip-path="url(#clip0x6080028a76e0)"><text xml:space="preserve" font-family="Monaco,Monaco" font-size="26.0" fill="#EAEAEA" transform="matrix(1.00, 0.00, -0.00, -1.00, 5.0, 116.6)"> </text><text xml:space="preserve" font-family="Monaco,Monaco" font-size="26.0" fill="#EAEAEA" transform="matrix(1.00, 0.00, -0.00, -1.00, 20.7, 116.6)"> </text><text xml:space="preserve" font-family="Monaco,Monaco" font-size="26.0" fill="#EAEAEA" transform="matrix(1.00, 0.00, -0.00, -1.00, 36.3, 116.6)"> </text><text xml:space="preserve" font-family="Monaco,Monaco" font-size="26.0" fill="#EAEAEA" transform="matrix(1.00, 0.00, -0.00, -1.00, 51.9, 116.6)"> </text></g></g><image xlink:href="../../4E3FFF75-1320-45A8-B60E-1258C930F3ED/assets/BB77AACB1F2944A79C377ADDBC155525.png" width="54.00" height="24.00" transform="matrix(1.00, 0.00, -0.00, -1.00, 63.0, 134.0)"></image><g><clipPath id="clip0x6080028a7860"><path d="M -7.1 -9.0 L 1345.6 -9.0 L 1345.6 293.0 L -7.1 293.0 Z M -7.1 -9.0 "></path></clipPath><g clip-path="url(#clip0x6080028a7860)"><text xml:space="preserve" font-family="Monaco,Monaco" font-size="26.0" fill="#83D6EB" transform="matrix(1.00, 0.00, -0.00, -1.00, 67.5, 116.6)">v</text><text xml:space="preserve" font-family="Monaco,Monaco" font-size="26.0" fill="#83D6EB" transform="matrix(1.00, 0.00, -0.00, -1.00, 83.1, 116.6)">a</text><text xml:space="preserve" font-family="Monaco,Monaco" font-size="26.0" fill="#83D6EB" transform="matrix(1.00, 0.00, -0.00, -1.00, 98.7, 116.6)">r</text></g></g><image xlink:href="../../4E3FFF75-1320-45A8-B60E-1258C930F3ED/assets/939E6FB1EE1117E1A8C42197D2BF2031.png" width="97.00" height="30.00" transform="matrix(1.00, 0.00, -0.00, -1.00, 129.0, 140.0)"></image><g><clipPath id="clip0x6080028a7aa0"><path d="M -7.1 -9.0 L 1345.6 -9.0 L 1345.6 293.0 L -7.1 293.0 Z M -7.1 -9.0 "></path></clipPath><g clip-path="url(#clip0x6080028a7aa0)"><text xml:space="preserve" font-family="Monaco,Monaco" font-size="26.0" fill="#EAEAEA" transform="matrix(1.00, 0.00, -0.00, -1.00, 114.3, 116.6)"> </text><text xml:space="preserve" font-family="Monaco,Monaco" font-size="26.0" fill="#EAEAEA" transform="matrix(1.00, 0.00, -0.00, -1.00, 129.9, 116.6)">r</text><text xml:space="preserve" font-family="Monaco,Monaco" font-size="26.0" fill="#EAEAEA" transform="matrix(1.00, 0.00, -0.00, -1.00, 145.5, 116.6)">e</text><text xml:space="preserve" font-family="Monaco,Monaco" font-size="26.0" fill="#EAEAEA" transform="matrix(1.00, 0.00, -0.00, -1.00, 161.1, 116.6)">s</text><text xml:space="preserve" font-family="Monaco,Monaco" font-size="26.0" fill="#EAEAEA" transform="matrix(1.00, 0.00, -0.00, -1.00, 176.7, 116.6)">u</text><text xml:space="preserve" font-family="Monaco,Monaco" font-size="26.0" fill="#EAEAEA" transform="matrix(1.00, 0.00, -0.00, -1.00, 192.3, 116.6)">l</text><text xml:space="preserve" font-family="Monaco,Monaco" font-size="26.0" fill="#EAEAEA" transform="matrix(1.00, 0.00, -0.00, -1.00, 207.9, 116.6)">t</text><text xml:space="preserve" font-family="Monaco,Monaco" font-size="26.0" fill="#EAEAEA" transform="matrix(1.00, 0.00, -0.00, -1.00, 223.5, 116.6)"> </text></g></g><image xlink:href="../../37859C58-3FA1-4996-8EC0-129FF4802801/assets/0DF3ED343EAA3411E5AB8AA9DEC9D9C8.png" width="23.00" height="15.00" transform="matrix(1.00, 0.00, -0.00, -1.00, 235.0, 129.0)"></image><g><clipPath id="clip0x6080028a81c0"><path d="M -7.1 -9.0 L 1345.6 -9.0 L 1345.6 293.0 L -7.1 293.0 Z M -7.1 -9.0 "></path></clipPath><g clip-path="url(#clip0x6080028a81c0)"><text xml:space="preserve" font-family="Monaco,Monaco" font-size="26.0" fill="#E34D77" transform="matrix(1.00, 0.00, -0.00, -1.00, 239.1, 116.6)">=</text></g></g><image xlink:href="../../4E3FFF75-1320-45A8-B60E-1258C930F3ED/assets/DDE2B93DCE051ECA009171F0F5121533.png" width="84.00" height="34.00" transform="matrix(1.00, 0.00, -0.00, -1.00, 267.0, 138.0)"></image><g><clipPath id="clip0x6080028a8340"><path d="M -7.1 -9.0 L 1345.6 -9.0 L 1345.6 293.0 L -7.1 293.0 Z M -7.1 -9.0 "></path></clipPath><g clip-path="url(#clip0x6080028a8340)"><text xml:space="preserve" font-family="Monaco,Monaco" font-size="26.0" fill="#EAEAEA" transform="matrix(1.00, 0.00, -0.00, -1.00, 254.7, 116.6)"> </text><text xml:space="preserve" font-family="Monaco,Monaco" font-size="26.0" fill="#EAEAEA" transform="matrix(1.00, 0.00, -0.00, -1.00, 270.3, 116.6)">g</text><text xml:space="preserve" font-family="Monaco,Monaco" font-size="26.0" fill="#EAEAEA" transform="matrix(1.00, 0.00, -0.00, -1.00, 285.9, 116.6)">r</text><text xml:space="preserve" font-family="Monaco,Monaco" font-size="26.0" fill="#EAEAEA" transform="matrix(1.00, 0.00, -0.00, -1.00, 301.5, 116.6)">e</text><text xml:space="preserve" font-family="Monaco,Monaco" font-size="26.0" fill="#EAEAEA" transform="matrix(1.00, 0.00, -0.00, -1.00, 317.1, 116.6)">e</text><text xml:space="preserve" font-family="Monaco,Monaco" font-size="26.0" fill="#EAEAEA" transform="matrix(1.00, 0.00, -0.00, -1.00, 332.7, 116.6)">t</text><text xml:space="preserve" font-family="Monaco,Monaco" font-size="26.0" fill="#EAEAEA" transform="matrix(1.00, 0.00, -0.00, -1.00, 348.3, 116.6)"> </text></g></g><image xlink:href="../../927851B3-8C03-44C6-9032-0A37AF56E8DE/assets/FAB9EC81CF88BB3D5A4853FCEDB92D76.png" width="23.00" height="23.00" transform="matrix(1.00, 0.00, -0.00, -1.00, 360.0, 133.0)"></image><g><clipPath id="clip0x6080028a88e0"><path d="M -7.1 -9.0 L 1345.6 -9.0 L 1345.6 293.0 L -7.1 293.0 Z M -7.1 -9.0 "></path></clipPath><g clip-path="url(#clip0x6080028a88e0)"><text xml:space="preserve" font-family="Monaco,Monaco" font-size="26.0" fill="#E34D77" transform="matrix(1.00, 0.00, -0.00, -1.00, 363.9, 116.6)">+</text></g></g><g><clipPath id="clip0x6080028a8b80"><path d="M -7.1 -9.0 L 1345.6 -9.0 L 1345.6 293.0 L -7.1 293.0 Z M -7.1 -9.0 "></path></clipPath><g clip-path="url(#clip0x6080028a8b80)"><text xml:space="preserve" font-family="Monaco,Monaco" font-size="26.0" fill="#EAEAEA" transform="matrix(1.00, 0.00, -0.00, -1.00, 379.5, 116.6)"> </text></g></g><image xlink:href="../../4E3FFF75-1320-45A8-B60E-1258C930F3ED/assets/39E29DAE6992249269B6635B03CB384F.png" width="60.00" height="35.00" transform="matrix(1.00, 0.00, -0.00, -1.00, 396.0, 140.0)"></image><g><clipPath id="clip0x6080028a8ca0"><path d="M -7.1 -9.0 L 1345.6 -9.0 L 1345.6 293.0 L -7.1 293.0 Z M -7.1 -9.0 "></path></clipPath><g clip-path="url(#clip0x6080028a8ca0)"><text xml:space="preserve" font-family="Monaco,Monaco" font-size="26.0" fill="#E6D679" transform="matrix(1.00, 0.00, -0.00, -1.00, 395.1, 116.6)">'</text><text xml:space="preserve" font-family="Monaco,Monaco" font-size="26.0" fill="#E6D679" transform="matrix(1.00, 0.00, -0.00, -1.00, 410.7, 116.6)">,</text><text xml:space="preserve" font-family="Monaco,Monaco" font-size="26.0" fill="#E6D679" transform="matrix(1.00, 0.00, -0.00, -1.00, 426.3, 116.6)"> </text><text xml:space="preserve" font-family="Monaco,Monaco" font-size="26.0" fill="#E6D679" transform="matrix(1.00, 0.00, -0.00, -1.00, 441.9, 116.6)">'</text></g></g><g><clipPath id="clip0x6080028a91e0"><path d="M -7.1 -9.0 L 1345.6 -9.0 L 1345.6 293.0 L -7.1 293.0 Z M -7.1 -9.0 "></path></clipPath><g clip-path="url(#clip0x6080028a91e0)"><text xml:space="preserve" font-family="Monaco,Monaco" font-size="26.0" fill="#EAEAEA" transform="matrix(1.00, 0.00, -0.00, -1.00, 457.5, 116.6)"> </text></g></g><image xlink:href="../../4E3FFF75-1320-45A8-B60E-1258C930F3ED/assets/373A35280B31CAF6F74212CE3C09F8CB.png" width="22.00" height="23.00" transform="matrix(1.00, 0.00, -0.00, -1.00, 470.0, 133.0)"></image><g><clipPath id="clip0x6080028a9480"><path d="M -7.1 -9.0 L 1345.6 -9.0 L 1345.6 293.0 L -7.1 293.0 Z M -7.1 -9.0 "></path></clipPath><g clip-path="url(#clip0x6080028a9480)"><text xml:space="preserve" font-family="Monaco,Monaco" font-size="26.0" fill="#E34D77" transform="matrix(1.00, 0.00, -0.00, -1.00, 473.1, 116.6)">+</text></g></g><image xlink:href="../../4E3FFF75-1320-45A8-B60E-1258C930F3ED/assets/0153657D9242D47B9AAB459A8B033B3B.png" width="80.00" height="30.00" transform="matrix(1.00, 0.00, -0.00, -1.00, 501.0, 134.0)"></image><g><clipPath id="clip0x6080028a9600"><path d="M -7.1 -9.0 L 1345.6 -9.0 L 1345.6 293.0 L -7.1 293.0 Z M -7.1 -9.0 "></path></clipPath><g clip-path="url(#clip0x6080028a9600)"><text xml:space="preserve" font-family="Monaco,Monaco" font-size="26.0" fill="#EAEAEA" transform="matrix(1.00, 0.00, -0.00, -1.00, 488.7, 116.6)"> </text><text xml:space="preserve" font-family="Monaco,Monaco" font-size="26.0" fill="#EAEAEA" transform="matrix(1.00, 0.00, -0.00, -1.00, 504.3, 116.6)">a</text><text xml:space="preserve" font-family="Monaco,Monaco" font-size="26.0" fill="#EAEAEA" transform="matrix(1.00, 0.00, -0.00, -1.00, 519.9, 116.6)">r</text><text xml:space="preserve" font-family="Monaco,Monaco" font-size="26.0" fill="#EAEAEA" transform="matrix(1.00, 0.00, -0.00, -1.00, 535.5, 116.6)">g</text><text xml:space="preserve" font-family="Monaco,Monaco" font-size="26.0" fill="#EAEAEA" transform="matrix(1.00, 0.00, -0.00, -1.00, 551.1, 116.6)">s</text><text xml:space="preserve" font-family="Monaco,Monaco" font-size="26.0" fill="#EAEAEA" transform="matrix(1.00, 0.00, -0.00, -1.00, 566.7, 116.6)">.</text></g></g><image xlink:href="../../4E3FFF75-1320-45A8-B60E-1258C930F3ED/assets/2CF6F56F7DEFC0B1C4F7AFA70CEA76DF.png" width="68.00" height="24.00" transform="matrix(1.00, 0.00, -0.00, -1.00, 580.0, 134.0)"></image><g><clipPath id="clip0x6080028a9ae0"><path d="M -7.1 -9.0 L 1345.6 -9.0 L 1345.6 293.0 L -7.1 293.0 Z M -7.1 -9.0 "></path></clipPath><g clip-path="url(#clip0x6080028a9ae0)"><text xml:space="preserve" font-family="Monaco,Monaco" font-size="26.0" fill="#EAEAEA" transform="matrix(1.00, 0.00, -0.00, -1.00, 582.3, 116.6)">n</text><text xml:space="preserve" font-family="Monaco,Monaco" font-size="26.0" fill="#EAEAEA" transform="matrix(1.00, 0.00, -0.00, -1.00, 597.9, 116.6)">a</text><text xml:space="preserve" font-family="Monaco,Monaco" font-size="26.0" fill="#EAEAEA" transform="matrix(1.00, 0.00, -0.00, -1.00, 613.5, 116.6)">m</text><text xml:space="preserve" font-family="Monaco,Monaco" font-size="26.0" fill="#EAEAEA" transform="matrix(1.00, 0.00, -0.00, -1.00, 629.2, 116.6)">e</text></g></g><g><clipPath id="clip0x6080028aa020"><path d="M -7.1 -9.0 L 1345.6 -9.0 L 1345.6 293.0 L -7.1 293.0 Z M -7.1 -9.0 "></path></clipPath><g clip-path="url(#clip0x6080028aa020)"><text xml:space="preserve" font-family="Monaco,Monaco" font-size="26.0" fill="#EAEAEA" transform="matrix(1.00, 0.00, -0.00, -1.00, 5.0, 81.6)"> </text><text xml:space="preserve" font-family="Monaco,Monaco" font-size="26.0" fill="#EAEAEA" transform="matrix(1.00, 0.00, -0.00, -1.00, 20.7, 81.6)"> </text><text xml:space="preserve" font-family="Monaco,Monaco" font-size="26.0" fill="#EAEAEA" transform="matrix(1.00, 0.00, -0.00, -1.00, 36.3, 81.6)"> </text><text xml:space="preserve" font-family="Monaco,Monaco" font-size="26.0" fill="#EAEAEA" transform="matrix(1.00, 0.00, -0.00, -1.00, 51.9, 81.6)"> </text></g></g><image xlink:href="../../4E3FFF75-1320-45A8-B60E-1258C930F3ED/assets/3AF9A8AA04CDA5F52A009F94C1AF8474.png" width="98.00" height="28.00" transform="matrix(1.00, 0.00, -0.00, -1.00, 66.0, 103.0)"></image><g><clipPath id="clip0x6080028aa200"><path d="M -7.1 -9.0 L 1345.6 -9.0 L 1345.6 293.0 L -7.1 293.0 Z M -7.1 -9.0 "></path></clipPath><g clip-path="url(#clip0x6080028aa200)"><text xml:space="preserve" font-family="Monaco,Monaco" font-size="26.0" fill="#E34D77" transform="matrix(1.00, 0.00, -0.00, -1.00, 67.5, 81.6)">r</text><text xml:space="preserve" font-family="Monaco,Monaco" font-size="26.0" fill="#E34D77" transform="matrix(1.00, 0.00, -0.00, -1.00, 83.1, 81.6)">e</text><text xml:space="preserve" font-family="Monaco,Monaco" font-size="26.0" fill="#E34D77" transform="matrix(1.00, 0.00, -0.00, -1.00, 98.7, 81.6)">t</text><text xml:space="preserve" font-family="Monaco,Monaco" font-size="26.0" fill="#E34D77" transform="matrix(1.00, 0.00, -0.00, -1.00, 114.3, 81.6)">u</text><text xml:space="preserve" font-family="Monaco,Monaco" font-size="26.0" fill="#E34D77" transform="matrix(1.00, 0.00, -0.00, -1.00, 129.9, 81.6)">r</text><text xml:space="preserve" font-family="Monaco,Monaco" font-size="26.0" fill="#E34D77" transform="matrix(1.00, 0.00, -0.00, -1.00, 145.5, 81.6)">n</text></g></g><g><clipPath id="clip0x6080028aa800"><path d="M -7.1 -9.0 L 1345.6 -9.0 L 1345.6 293.0 L -7.1 293.0 Z M -7.1 -9.0 "></path></clipPath><g clip-path="url(#clip0x6080028aa800)"><text xml:space="preserve" font-family="Monaco,Monaco" font-size="26.0" fill="#EAEAEA" transform="matrix(1.00, 0.00, -0.00, -1.00, 161.1, 81.6)"> </text></g></g><image xlink:href="../../4E3FFF75-1320-45A8-B60E-1258C930F3ED/assets/1E12BCC5A5B9E946D9ECCBAE1920B49F.png" width="256.00" height="31.00" transform="matrix(1.00, 0.00, -0.00, -1.00, 173.0, 105.0)"></image><g><clipPath id="clip0x600003aa0a20"><path d="M -7.1 -9.0 L 1345.6 -9.0 L 1345.6 293.0 L -7.1 293.0 Z M -7.1 -9.0 "></path></clipPath><g clip-path="url(#clip0x600003aa0a20)"><text xml:space="preserve" font-family="Monaco,Monaco" font-size="26.0" fill="#B7D936" transform="matrix(1.00, 0.00, -0.00, -1.00, 176.7, 81.6)">t</text><text xml:space="preserve" font-family="Monaco,Monaco" font-size="26.0" fill="#B7D936" transform="matrix(1.00, 0.00, -0.00, -1.00, 192.3, 81.6)">e</text><text xml:space="preserve" font-family="Monaco,Monaco" font-size="26.0" fill="#B7D936" transform="matrix(1.00, 0.00, -0.00, -1.00, 207.9, 81.6)">x</text><text xml:space="preserve" font-family="Monaco,Monaco" font-size="26.0" fill="#B7D936" transform="matrix(1.00, 0.00, -0.00, -1.00, 223.5, 81.6)">t</text><text xml:space="preserve" font-family="Monaco,Monaco" font-size="26.0" fill="#B7D936" transform="matrix(1.00, 0.00, -0.00, -1.00, 239.1, 81.6)">T</text><text xml:space="preserve" font-family="Monaco,Monaco" font-size="26.0" fill="#B7D936" transform="matrix(1.00, 0.00, -0.00, -1.00, 254.7, 81.6)">o</text><text xml:space="preserve" font-family="Monaco,Monaco" font-size="26.0" fill="#B7D936" transform="matrix(1.00, 0.00, -0.00, -1.00, 270.3, 81.6)">S</text><text xml:space="preserve" font-family="Monaco,Monaco" font-size="26.0" fill="#B7D936" transform="matrix(1.00, 0.00, -0.00, -1.00, 285.9, 81.6)">t</text><text xml:space="preserve" font-family="Monaco,Monaco" font-size="26.0" fill="#B7D936" transform="matrix(1.00, 0.00, -0.00, -1.00, 301.5, 81.6)">r</text><text xml:space="preserve" font-family="Monaco,Monaco" font-size="26.0" fill="#B7D936" transform="matrix(1.00, 0.00, -0.00, -1.00, 317.1, 81.6)">e</text><text xml:space="preserve" font-family="Monaco,Monaco" font-size="26.0" fill="#B7D936" transform="matrix(1.00, 0.00, -0.00, -1.00, 332.7, 81.6)">a</text><text xml:space="preserve" font-family="Monaco,Monaco" font-size="26.0" fill="#B7D936" transform="matrix(1.00, 0.00, -0.00, -1.00, 348.3, 81.6)">m</text><text xml:space="preserve" font-family="Monaco,Monaco" font-size="26.0" fill="#B7D936" transform="matrix(1.00, 0.00, -0.00, -1.00, 363.9, 81.6)">a</text><text xml:space="preserve" font-family="Monaco,Monaco" font-size="26.0" fill="#B7D936" transform="matrix(1.00, 0.00, -0.00, -1.00, 379.5, 81.6)">b</text><text xml:space="preserve" font-family="Monaco,Monaco" font-size="26.0" fill="#B7D936" transform="matrix(1.00, 0.00, -0.00, -1.00, 395.1, 81.6)">l</text><text xml:space="preserve" font-family="Monaco,Monaco" font-size="26.0" fill="#B7D936" transform="matrix(1.00, 0.00, -0.00, -1.00, 410.8, 81.6)">e</text></g></g><image xlink:href="../../4E3FFF75-1320-45A8-B60E-1258C930F3ED/assets/74CF0CFD0134A4870109314BECCE8F75.png" width="129.00" height="35.00" transform="matrix(1.00, 0.00, -0.00, -1.00, 424.0, 105.0)"></image><g><clipPath id="clip0x6080028aab60"><path d="M -7.1 -9.0 L 1345.6 -9.0 L 1345.6 293.0 L -7.1 293.0 Z M -7.1 -9.0 "></path></clipPath><g clip-path="url(#clip0x6080028aab60)"><text xml:space="preserve" font-family="Monaco,Monaco" font-size="26.0" fill="#EAEAEA" transform="matrix(1.00, 0.00, -0.00, -1.00, 426.3, 81.6)">(</text><text xml:space="preserve" font-family="Monaco,Monaco" font-size="26.0" fill="#EAEAEA" transform="matrix(1.00, 0.00, -0.00, -1.00, 441.9, 81.6)">r</text><text xml:space="preserve" font-family="Monaco,Monaco" font-size="26.0" fill="#EAEAEA" transform="matrix(1.00, 0.00, -0.00, -1.00, 457.5, 81.6)">e</text><text xml:space="preserve" font-family="Monaco,Monaco" font-size="26.0" fill="#EAEAEA" transform="matrix(1.00, 0.00, -0.00, -1.00, 473.1, 81.6)">s</text><text xml:space="preserve" font-family="Monaco,Monaco" font-size="26.0" fill="#EAEAEA" transform="matrix(1.00, 0.00, -0.00, -1.00, 488.7, 81.6)">u</text><text xml:space="preserve" font-family="Monaco,Monaco" font-size="26.0" fill="#EAEAEA" transform="matrix(1.00, 0.00, -0.00, -1.00, 504.3, 81.6)">l</text><text xml:space="preserve" font-family="Monaco,Monaco" font-size="26.0" fill="#EAEAEA" transform="matrix(1.00, 0.00, -0.00, -1.00, 519.9, 81.6)">t</text><text xml:space="preserve" font-family="Monaco,Monaco" font-size="26.0" fill="#EAEAEA" transform="matrix(1.00, 0.00, -0.00, -1.00, 535.5, 81.6)">)</text></g></g><image xlink:href="../../4E3FFF75-1320-45A8-B60E-1258C930F3ED/assets/3B2316323C29C27718FEC2F5390666A9.png" width="21.00" height="35.00" transform="matrix(1.00, 0.00, -0.00, -1.00, 33.0, 70.0)"></image><g><clipPath id="clip0x6080028ab0a0"><path d="M -7.1 -9.0 L 1345.6 -9.0 L 1345.6 293.0 L -7.1 293.0 Z M -7.1 -9.0 "></path></clipPath><g clip-path="url(#clip0x6080028ab0a0)"><text xml:space="preserve" font-family="Monaco,Monaco" font-size="26.0" fill="#EAEAEA" transform="matrix(1.00, 0.00, -0.00, -1.00, 5.0, 46.6)"> </text><text xml:space="preserve" font-family="Monaco,Monaco" font-size="26.0" fill="#EAEAEA" transform="matrix(1.00, 0.00, -0.00, -1.00, 20.7, 46.6)"> </text><text xml:space="preserve" font-family="Monaco,Monaco" font-size="26.0" fill="#EAEAEA" transform="matrix(1.00, 0.00, -0.00, -1.00, 36.3, 46.6)">}</text></g></g><image xlink:href="../../37859C58-3FA1-4996-8EC0-129FF4802801/assets/AF299C8878F8976548CED0E1D3B9B764.png" width="20.00" height="35.00" transform="matrix(1.00, 0.00, -0.00, -1.00, 2.0, 35.0)"></image><g><clipPath id="clip0x6080028ab460"><path d="M -7.1 -9.0 L 1345.6 -9.0 L 1345.6 293.0 L -7.1 293.0 Z M -7.1 -9.0 "></path></clipPath><g clip-path="url(#clip0x6080028ab460)"><text xml:space="preserve" font-family="Monaco,Monaco" font-size="26.0" fill="#EAEAEA" transform="matrix(1.00, 0.00, -0.00, -1.00, 5.0, 11.6)">}</text></g></g></g></svg>