<?xml version="1.0" encoding="UTF-8" standalone="no"?><svg xmlns="http://www.w3.org/2000/svg" xmlns:xlink="http://www.w3.org/1999/xlink" clip-rule="evenodd" stroke-miterlimit="10" viewBox="0 0 289 112"><desc>SVG generated by Keynote</desc><defs><pattern id="7106C442-6E9A-4AC4-B001-7C3003273858" patternUnits="userSpaceOnUse" width="512" height="512" viewBox="0 0 512 512"><image xlink:href="../../82A921EE-8E53-40EE-A95B-4C038CB6B5A6/assets/D80EC8B1EF239560EB871BFEE640DE30.png" width="512.00" height="512.00"></image></pattern></defs><g transform="matrix(1.00, 0.00, -0.00, -1.00, 0.0, 112.0)"><image xlink:href="4F09F6F3B79A1765F5E809A8F31ACFD0.png" width="287.00" height="106.00" transform="matrix(1.00, 0.00, -0.00, -1.00, 1.2, 106.8)" opacity="0.50"></image><g><clipPath id="clip0x600003aa1440"><path d="M 44.0 105.0 C 41.2 104.8 39.0 102.6 39.0 99.8 L 39.0 40.3 L 5.2 7.2 L 65.6 25.0 L 278.8 25.0 C 281.5 25.0 284.0 27.2 284.0 29.9 L 284.0 99.8 C 284.0 102.6 281.5 105.0 278.8 105.0 L 44.0 105.0 Z M 44.0 104.8 "></path></clipPath><g clip-path="url(#clip0x600003aa1440)"><path d="M 5.2 7.2 L 284.0 7.2 L 284.0 105.0 L 5.2 105.0 Z M 5.2 7.2 " fill="url(#7106C442-6E9A-4AC4-B001-7C3003273858)"></path></g></g><image xlink:href="DCF27F0E629A8AB4445EAB987FADD854.png" width="152.00" height="28.00" transform="matrix(1.00, 0.00, -0.00, -1.00, 85.0, 94.0)"></image><g><clipPath id="clip0x600003aa1680"><path d="M 31.7 19.0 L 291.1 19.0 L 291.1 108.9 L 31.7 108.9 Z M 31.7 19.0 "></path></clipPath><g clip-path="url(#clip0x600003aa1680)"><text xml:space="preserve" font-family="HelveticaNeue-Medium,Helvetica Neue" font-size="28.0" fill="#FEFFFE" transform="matrix(1.00, 0.00, -0.00, -1.00, 87.5, 71.5)">G</text><text xml:space="preserve" font-family="HelveticaNeue-Medium,Helvetica Neue" font-size="28.0" fill="#FEFFFE" transform="matrix(1.00, 0.00, -0.00, -1.00, 108.7, 71.5)">r</text><text xml:space="preserve" font-family="HelveticaNeue-Medium,Helvetica Neue" font-size="28.0" fill="#FEFFFE" transform="matrix(1.00, 0.00, -0.00, -1.00, 118.1, 71.5)">e</text><text xml:space="preserve" font-family="HelveticaNeue-Medium,Helvetica Neue" font-size="28.0" fill="#FEFFFE" transform="matrix(1.00, 0.00, -0.00, -1.00, 133.6, 71.5)">e</text><text xml:space="preserve" font-family="HelveticaNeue-Medium,Helvetica Neue" font-size="28.0" fill="#FEFFFE" transform="matrix(1.00, 0.00, -0.00, -1.00, 149.2, 71.5)">t</text><text xml:space="preserve" font-family="HelveticaNeue-Medium,Helvetica Neue" font-size="28.0" fill="#FEFFFE" transform="matrix(1.00, 0.00, -0.00, -1.00, 158.5, 71.5)"> </text><text xml:space="preserve" font-family="HelveticaNeue-Medium,Helvetica Neue" font-size="28.0" fill="#FEFFFE" transform="matrix(1.00, 0.00, -0.00, -1.00, 166.3, 71.5)">W</text><text xml:space="preserve" font-family="HelveticaNeue-Medium,Helvetica Neue" font-size="28.0" fill="#FEFFFE" transform="matrix(1.00, 0.00, -0.00, -1.00, 192.2, 71.5)">o</text><text xml:space="preserve" font-family="HelveticaNeue-Medium,Helvetica Neue" font-size="28.0" fill="#FEFFFE" transform="matrix(1.00, 0.00, -0.00, -1.00, 208.8, 71.5)">r</text><text xml:space="preserve" font-family="HelveticaNeue-Medium,Helvetica Neue" font-size="28.0" fill="#FEFFFE" transform="matrix(1.00, 0.00, -0.00, -1.00, 218.2, 71.5)">d</text><text xml:space="preserve" font-family="HelveticaNeue-Medium,Helvetica Neue" font-size="28.0" fill="#FEFFFE" transform="matrix(1.00, 0.00, -0.00, -1.00, 235.3, 71.5)"> </text></g></g><image xlink:href="F17EBEF0B7469EC4783789B12D40070E.png" width="171.00" height="33.00" transform="matrix(1.00, 0.00, -0.00, -1.00, 76.0, 60.0)"></image><g><clipPath id="clip0x600003aa1e00"><path d="M 31.7 19.0 L 291.1 19.0 L 291.1 108.9 L 31.7 108.9 Z M 31.7 19.0 "></path></clipPath><g clip-path="url(#clip0x600003aa1e00)"><text xml:space="preserve" font-family="HelveticaNeue-Medium,Helvetica Neue" font-size="28.0" fill="#FEFFFE" transform="matrix(1.00, 0.00, -0.00, -1.00, 78.4, 37.5)">C</text><text xml:space="preserve" font-family="HelveticaNeue-Medium,Helvetica Neue" font-size="28.0" fill="#FEFFFE" transform="matrix(1.00, 0.00, -0.00, -1.00, 98.6, 37.5)">o</text><text xml:space="preserve" font-family="HelveticaNeue-Medium,Helvetica Neue" font-size="28.0" fill="#FEFFFE" transform="matrix(1.00, 0.00, -0.00, -1.00, 115.2, 37.5)">n</text><text xml:space="preserve" font-family="HelveticaNeue-Medium,Helvetica Neue" font-size="28.0" fill="#FEFFFE" transform="matrix(1.00, 0.00, -0.00, -1.00, 131.3, 37.5)">ï¬</text><text xml:space="preserve" font-family="HelveticaNeue-Medium,Helvetica Neue" font-size="28.0" fill="#FEFFFE" transform="matrix(1.00, 0.00, -0.00, -1.00, 146.9, 37.5)">g</text><text xml:space="preserve" font-family="HelveticaNeue-Medium,Helvetica Neue" font-size="28.0" fill="#FEFFFE" transform="matrix(1.00, 0.00, -0.00, -1.00, 163.5, 37.5)">u</text><text xml:space="preserve" font-family="HelveticaNeue-Medium,Helvetica Neue" font-size="28.0" fill="#FEFFFE" transform="matrix(1.00, 0.00, -0.00, -1.00, 179.5, 37.5)">r</text><text xml:space="preserve" font-family="HelveticaNeue-Medium,Helvetica Neue" font-size="28.0" fill="#FEFFFE" transform="matrix(1.00, 0.00, -0.00, -1.00, 189.4, 37.5)">a</text><text xml:space="preserve" font-family="HelveticaNeue-Medium,Helvetica Neue" font-size="28.0" fill="#FEFFFE" transform="matrix(1.00, 0.00, -0.00, -1.00, 205.0, 37.5)">b</text><text xml:space="preserve" font-family="HelveticaNeue-Medium,Helvetica Neue" font-size="28.0" fill="#FEFFFE" transform="matrix(1.00, 0.00, -0.00, -1.00, 222.1, 37.5)">l</text><text xml:space="preserve" font-family="HelveticaNeue-Medium,Helvetica Neue" font-size="28.0" fill="#FEFFFE" transform="matrix(1.00, 0.00, -0.00, -1.00, 228.8, 37.5)">e</text></g></g></g></svg>