<?xml version="1.0" encoding="UTF-8" standalone="no"?><svg xmlns="http://www.w3.org/2000/svg" xmlns:xlink="http://www.w3.org/1999/xlink" clip-rule="evenodd" stroke-miterlimit="10" viewBox="0 0 1024 768"><desc>SVG generated by Keynote</desc><defs></defs><g transform="matrix(1.00, 0.00, -0.00, -1.00, 0.0, 768.0)"><g><clipPath id="clip0x6080028b5300"><path d="M 0.0 768.0 L 1024.0 768.0 L 1024.0 0.0 L 0.0 0.0 Z M 0.0 768.0 "></path></clipPath><g clip-path="url(#clip0x6080028b5300)"><image xlink:href="../../384E26B0-0AD0-495F-BA75-267B55ABD0BD/assets/31D284A5C75E14674D2A89FDB99F8048.jpeg" width="2048.00" height="1536.00" transform="matrix(0.50, 0.00, -0.00, -0.50, 0.0, 768.0)"></image></g></g><image xlink:href="F38E1ECA5325279C85CA7C53C3091028.png" width="160.00" height="56.00" transform="matrix(1.00, 0.00, -0.00, -1.00, 434.0, 692.0)"></image><text xml:space="preserve" font-family="HelveticaNeue-Bold,Helvetica Neue" font-weight="bold" font-size="64.0" fill="#FEFFFE" transform="matrix(1.00, 0.00, -0.00, -1.00, 434.4, 643.7)">F</text><text xml:space="preserve" font-family="HelveticaNeue-Bold,Helvetica Neue" font-weight="bold" font-size="64.0" fill="#FEFFFE" transform="matrix(1.00, 0.00, -0.00, -1.00, 472.4, 643.7)">i</text><text xml:space="preserve" font-family="HelveticaNeue-Bold,Helvetica Neue" font-weight="bold" font-size="64.0" fill="#FEFFFE" transform="matrix(1.00, 0.00, -0.00, -1.00, 488.9, 643.7)">l</text><text xml:space="preserve" font-family="HelveticaNeue-Bold,Helvetica Neue" font-weight="bold" font-size="64.0" fill="#FEFFFE" transform="matrix(1.00, 0.00, -0.00, -1.00, 505.4, 643.7)">t</text><text xml:space="preserve" font-family="HelveticaNeue-Bold,Helvetica Neue" font-weight="bold" font-size="64.0" fill="#FEFFFE" transform="matrix(1.00, 0.00, -0.00, -1.00, 527.9, 643.7)">e</text><text xml:space="preserve" font-family="HelveticaNeue-Bold,Helvetica Neue" font-weight="bold" font-size="64.0" fill="#FEFFFE" transform="matrix(1.00, 0.00, -0.00, -1.00, 564.7, 643.7)">r</text><path d="M 172.0 544.0 L 883.0 544.0 L 883.0 224.0 L 172.0 224.0 Z M 172.0 544.4 " fill="#242424"></path><image xlink:href="E76E96DE9877E11BFE8D80637EB5D1A8.png" width="130.00" height="30.00" transform="matrix(1.00, 0.00, -0.00, -1.00, 174.0, 537.0)"></image><g><clipPath id="clip0x600003aaa740"><path d="M 163.9 213.5 L 1579.0 213.5 L 1579.0 550.5 L 163.9 550.5 Z M 163.9 213.5 "></path></clipPath><g clip-path="url(#clip0x600003aaa740)"><text xml:space="preserve" font-family="Monaco,Monaco" font-size="26.0" fill="#83D6EB" transform="matrix(1.00, 0.00, -0.00, -1.00, 176.0, 514.1)">f</text><text xml:space="preserve" font-family="Monaco,Monaco" font-size="26.0" fill="#83D6EB" transform="matrix(1.00, 0.00, -0.00, -1.00, 191.7, 514.1)">u</text><text xml:space="preserve" font-family="Monaco,Monaco" font-size="26.0" fill="#83D6EB" transform="matrix(1.00, 0.00, -0.00, -1.00, 207.3, 514.1)">n</text><text xml:space="preserve" font-family="Monaco,Monaco" font-size="26.0" fill="#83D6EB" transform="matrix(1.00, 0.00, -0.00, -1.00, 222.9, 514.1)">c</text><text xml:space="preserve" font-family="Monaco,Monaco" font-size="26.0" fill="#83D6EB" transform="matrix(1.00, 0.00, -0.00, -1.00, 238.5, 514.1)">t</text><text xml:space="preserve" font-family="Monaco,Monaco" font-size="26.0" fill="#83D6EB" transform="matrix(1.00, 0.00, -0.00, -1.00, 254.1, 514.1)">i</text><text xml:space="preserve" font-family="Monaco,Monaco" font-size="26.0" fill="#83D6EB" transform="matrix(1.00, 0.00, -0.00, -1.00, 269.7, 514.1)">o</text><text xml:space="preserve" font-family="Monaco,Monaco" font-size="26.0" fill="#83D6EB" transform="matrix(1.00, 0.00, -0.00, -1.00, 285.3, 514.1)">n</text></g></g><image xlink:href="8C0AC5585384E0A6365D54CDF3F1799D.png" width="551.00" height="35.00" transform="matrix(1.00, 0.00, -0.00, -1.00, 314.0, 537.0)"></image><g><clipPath id="clip0x600003aaa260"><path d="M 163.9 213.5 L 1579.0 213.5 L 1579.0 550.5 L 163.9 550.5 Z M 163.9 213.5 "></path></clipPath><g clip-path="url(#clip0x600003aaa260)"><text xml:space="preserve" font-family="Monaco,Monaco" font-size="26.0" fill="#EAEAEA" transform="matrix(1.00, 0.00, -0.00, -1.00, 300.9, 514.1)"> </text><text xml:space="preserve" font-family="Monaco,Monaco" font-size="26.0" fill="#EAEAEA" transform="matrix(1.00, 0.00, -0.00, -1.00, 316.5, 514.1)">p</text><text xml:space="preserve" font-family="Monaco,Monaco" font-size="26.0" fill="#EAEAEA" transform="matrix(1.00, 0.00, -0.00, -1.00, 332.1, 514.1)">e</text><text xml:space="preserve" font-family="Monaco,Monaco" font-size="26.0" fill="#EAEAEA" transform="matrix(1.00, 0.00, -0.00, -1.00, 347.7, 514.1)">r</text><text xml:space="preserve" font-family="Monaco,Monaco" font-size="26.0" fill="#EAEAEA" transform="matrix(1.00, 0.00, -0.00, -1.00, 363.3, 514.1)">m</text><text xml:space="preserve" font-family="Monaco,Monaco" font-size="26.0" fill="#EAEAEA" transform="matrix(1.00, 0.00, -0.00, -1.00, 378.9, 514.1)">i</text><text xml:space="preserve" font-family="Monaco,Monaco" font-size="26.0" fill="#EAEAEA" transform="matrix(1.00, 0.00, -0.00, -1.00, 394.5, 514.1)">s</text><text xml:space="preserve" font-family="Monaco,Monaco" font-size="26.0" fill="#EAEAEA" transform="matrix(1.00, 0.00, -0.00, -1.00, 410.1, 514.1)">s</text><text xml:space="preserve" font-family="Monaco,Monaco" font-size="26.0" fill="#EAEAEA" transform="matrix(1.00, 0.00, -0.00, -1.00, 425.7, 514.1)">i</text><text xml:space="preserve" font-family="Monaco,Monaco" font-size="26.0" fill="#EAEAEA" transform="matrix(1.00, 0.00, -0.00, -1.00, 441.3, 514.1)">o</text><text xml:space="preserve" font-family="Monaco,Monaco" font-size="26.0" fill="#EAEAEA" transform="matrix(1.00, 0.00, -0.00, -1.00, 456.9, 514.1)">n</text><text xml:space="preserve" font-family="Monaco,Monaco" font-size="26.0" fill="#EAEAEA" transform="matrix(1.00, 0.00, -0.00, -1.00, 472.5, 514.1)">F</text><text xml:space="preserve" font-family="Monaco,Monaco" font-size="26.0" fill="#EAEAEA" transform="matrix(1.00, 0.00, -0.00, -1.00, 488.1, 514.1)">i</text><text xml:space="preserve" font-family="Monaco,Monaco" font-size="26.0" fill="#EAEAEA" transform="matrix(1.00, 0.00, -0.00, -1.00, 503.7, 514.1)">l</text><text xml:space="preserve" font-family="Monaco,Monaco" font-size="26.0" fill="#EAEAEA" transform="matrix(1.00, 0.00, -0.00, -1.00, 519.3, 514.1)">t</text><text xml:space="preserve" font-family="Monaco,Monaco" font-size="26.0" fill="#EAEAEA" transform="matrix(1.00, 0.00, -0.00, -1.00, 534.9, 514.1)">e</text><text xml:space="preserve" font-family="Monaco,Monaco" font-size="26.0" fill="#EAEAEA" transform="matrix(1.00, 0.00, -0.00, -1.00, 550.5, 514.1)">r</text><text xml:space="preserve" font-family="Monaco,Monaco" font-size="26.0" fill="#EAEAEA" transform="matrix(1.00, 0.00, -0.00, -1.00, 566.2, 514.1)">(</text><text xml:space="preserve" font-family="Monaco,Monaco" font-size="26.0" fill="#EAEAEA" transform="matrix(1.00, 0.00, -0.00, -1.00, 581.8, 514.1)">c</text><text xml:space="preserve" font-family="Monaco,Monaco" font-size="26.0" fill="#EAEAEA" transform="matrix(1.00, 0.00, -0.00, -1.00, 597.4, 514.1)">o</text><text xml:space="preserve" font-family="Monaco,Monaco" font-size="26.0" fill="#EAEAEA" transform="matrix(1.00, 0.00, -0.00, -1.00, 613.0, 514.1)">n</text><text xml:space="preserve" font-family="Monaco,Monaco" font-size="26.0" fill="#EAEAEA" transform="matrix(1.00, 0.00, -0.00, -1.00, 628.6, 514.1)">f</text><text xml:space="preserve" font-family="Monaco,Monaco" font-size="26.0" fill="#EAEAEA" transform="matrix(1.00, 0.00, -0.00, -1.00, 644.2, 514.1)">i</text><text xml:space="preserve" font-family="Monaco,Monaco" font-size="26.0" fill="#EAEAEA" transform="matrix(1.00, 0.00, -0.00, -1.00, 659.8, 514.1)">g</text><text xml:space="preserve" font-family="Monaco,Monaco" font-size="26.0" fill="#EAEAEA" transform="matrix(1.00, 0.00, -0.00, -1.00, 675.4, 514.1)">,</text><text xml:space="preserve" font-family="Monaco,Monaco" font-size="26.0" fill="#EAEAEA" transform="matrix(1.00, 0.00, -0.00, -1.00, 691.0, 514.1)"> </text><text xml:space="preserve" font-family="Monaco,Monaco" font-size="26.0" fill="#EAEAEA" transform="matrix(1.00, 0.00, -0.00, -1.00, 706.6, 514.1)">h</text><text xml:space="preserve" font-family="Monaco,Monaco" font-size="26.0" fill="#EAEAEA" transform="matrix(1.00, 0.00, -0.00, -1.00, 722.2, 514.1)">a</text><text xml:space="preserve" font-family="Monaco,Monaco" font-size="26.0" fill="#EAEAEA" transform="matrix(1.00, 0.00, -0.00, -1.00, 737.8, 514.1)">n</text><text xml:space="preserve" font-family="Monaco,Monaco" font-size="26.0" fill="#EAEAEA" transform="matrix(1.00, 0.00, -0.00, -1.00, 753.4, 514.1)">d</text><text xml:space="preserve" font-family="Monaco,Monaco" font-size="26.0" fill="#EAEAEA" transform="matrix(1.00, 0.00, -0.00, -1.00, 769.0, 514.1)">l</text><text xml:space="preserve" font-family="Monaco,Monaco" font-size="26.0" fill="#EAEAEA" transform="matrix(1.00, 0.00, -0.00, -1.00, 784.6, 514.1)">e</text><text xml:space="preserve" font-family="Monaco,Monaco" font-size="26.0" fill="#EAEAEA" transform="matrix(1.00, 0.00, -0.00, -1.00, 800.2, 514.1)">r</text><text xml:space="preserve" font-family="Monaco,Monaco" font-size="26.0" fill="#EAEAEA" transform="matrix(1.00, 0.00, -0.00, -1.00, 815.8, 514.1)">)</text><text xml:space="preserve" font-family="Monaco,Monaco" font-size="26.0" fill="#EAEAEA" transform="matrix(1.00, 0.00, -0.00, -1.00, 831.4, 514.1)"> </text><text xml:space="preserve" font-family="Monaco,Monaco" font-size="26.0" fill="#EAEAEA" transform="matrix(1.00, 0.00, -0.00, -1.00, 847.0, 514.1)">{</text></g></g><g><clipPath id="clip0x600003aab220"><path d="M 163.9 213.5 L 1579.0 213.5 L 1579.0 550.5 L 163.9 550.5 Z M 163.9 213.5 "></path></clipPath><g clip-path="url(#clip0x600003aab220)"><text xml:space="preserve" font-family="Monaco,Monaco" font-size="26.0" fill="#EAEAEA" transform="matrix(1.00, 0.00, -0.00, -1.00, 176.0, 479.1)"> </text><text xml:space="preserve" font-family="Monaco,Monaco" font-size="26.0" fill="#EAEAEA" transform="matrix(1.00, 0.00, -0.00, -1.00, 191.7, 479.1)"> </text></g></g><image xlink:href="E67ED1153E80309CD8FC816BB19F52B6.png" width="98.00" height="28.00" transform="matrix(1.00, 0.00, -0.00, -1.00, 206.0, 500.0)"></image><g><clipPath id="clip0x600003aab3a0"><path d="M 163.9 213.5 L 1579.0 213.5 L 1579.0 550.5 L 163.9 550.5 Z M 163.9 213.5 "></path></clipPath><g clip-path="url(#clip0x600003aab3a0)"><text xml:space="preserve" font-family="Monaco,Monaco" font-size="26.0" fill="#E34D77" transform="matrix(1.00, 0.00, -0.00, -1.00, 207.3, 479.1)">r</text><text xml:space="preserve" font-family="Monaco,Monaco" font-size="26.0" fill="#E34D77" transform="matrix(1.00, 0.00, -0.00, -1.00, 222.9, 479.1)">e</text><text xml:space="preserve" font-family="Monaco,Monaco" font-size="26.0" fill="#E34D77" transform="matrix(1.00, 0.00, -0.00, -1.00, 238.5, 479.1)">t</text><text xml:space="preserve" font-family="Monaco,Monaco" font-size="26.0" fill="#E34D77" transform="matrix(1.00, 0.00, -0.00, -1.00, 254.1, 479.1)">u</text><text xml:space="preserve" font-family="Monaco,Monaco" font-size="26.0" fill="#E34D77" transform="matrix(1.00, 0.00, -0.00, -1.00, 269.7, 479.1)">r</text><text xml:space="preserve" font-family="Monaco,Monaco" font-size="26.0" fill="#E34D77" transform="matrix(1.00, 0.00, -0.00, -1.00, 285.3, 479.1)">n</text></g></g><g><clipPath id="clip0x600003aab9a0"><path d="M 163.9 213.5 L 1579.0 213.5 L 1579.0 550.5 L 163.9 550.5 Z M 163.9 213.5 "></path></clipPath><g clip-path="url(#clip0x600003aab9a0)"><text xml:space="preserve" font-family="Monaco,Monaco" font-size="26.0" fill="#EAEAEA" transform="matrix(1.00, 0.00, -0.00, -1.00, 300.9, 479.1)"> </text></g></g><image xlink:href="C7A285F7C1D953D3DC63B0A98D07CCA0.png" width="130.00" height="30.00" transform="matrix(1.00, 0.00, -0.00, -1.00, 314.0, 502.0)"></image><g><clipPath id="clip0x6080028b5c00"><path d="M 163.9 213.5 L 1579.0 213.5 L 1579.0 550.5 L 163.9 550.5 Z M 163.9 213.5 "></path></clipPath><g clip-path="url(#clip0x6080028b5c00)"><text xml:space="preserve" font-family="Monaco,Monaco" font-size="26.0" fill="#83D6EB" transform="matrix(1.00, 0.00, -0.00, -1.00, 316.5, 479.1)">f</text><text xml:space="preserve" font-family="Monaco,Monaco" font-size="26.0" fill="#83D6EB" transform="matrix(1.00, 0.00, -0.00, -1.00, 332.1, 479.1)">u</text><text xml:space="preserve" font-family="Monaco,Monaco" font-size="26.0" fill="#83D6EB" transform="matrix(1.00, 0.00, -0.00, -1.00, 347.7, 479.1)">n</text><text xml:space="preserve" font-family="Monaco,Monaco" font-size="26.0" fill="#83D6EB" transform="matrix(1.00, 0.00, -0.00, -1.00, 363.3, 479.1)">c</text><text xml:space="preserve" font-family="Monaco,Monaco" font-size="26.0" fill="#83D6EB" transform="matrix(1.00, 0.00, -0.00, -1.00, 378.9, 479.1)">t</text><text xml:space="preserve" font-family="Monaco,Monaco" font-size="26.0" fill="#83D6EB" transform="matrix(1.00, 0.00, -0.00, -1.00, 394.5, 479.1)">i</text><text xml:space="preserve" font-family="Monaco,Monaco" font-size="26.0" fill="#83D6EB" transform="matrix(1.00, 0.00, -0.00, -1.00, 410.1, 479.1)">o</text><text xml:space="preserve" font-family="Monaco,Monaco" font-size="26.0" fill="#83D6EB" transform="matrix(1.00, 0.00, -0.00, -1.00, 425.7, 479.1)">n</text></g></g><image xlink:href="B1E1F0F2245101E8227A54E841390D47.png" width="317.00" height="35.00" transform="matrix(1.00, 0.00, -0.00, -1.00, 439.0, 502.0)"></image><g><clipPath id="clip0x600003aabdc0"><path d="M 163.9 213.5 L 1579.0 213.5 L 1579.0 550.5 L 163.9 550.5 Z M 163.9 213.5 "></path></clipPath><g clip-path="url(#clip0x600003aabdc0)"><text xml:space="preserve" font-family="Monaco,Monaco" font-size="26.0" fill="#EAEAEA" transform="matrix(1.00, 0.00, -0.00, -1.00, 441.3, 479.1)">(</text><text xml:space="preserve" font-family="Monaco,Monaco" font-size="26.0" fill="#EAEAEA" transform="matrix(1.00, 0.00, -0.00, -1.00, 456.9, 479.1)">a</text><text xml:space="preserve" font-family="Monaco,Monaco" font-size="26.0" fill="#EAEAEA" transform="matrix(1.00, 0.00, -0.00, -1.00, 472.5, 479.1)">r</text><text xml:space="preserve" font-family="Monaco,Monaco" font-size="26.0" fill="#EAEAEA" transform="matrix(1.00, 0.00, -0.00, -1.00, 488.1, 479.1)">g</text><text xml:space="preserve" font-family="Monaco,Monaco" font-size="26.0" fill="#EAEAEA" transform="matrix(1.00, 0.00, -0.00, -1.00, 503.7, 479.1)">s</text><text xml:space="preserve" font-family="Monaco,Monaco" font-size="26.0" fill="#EAEAEA" transform="matrix(1.00, 0.00, -0.00, -1.00, 519.3, 479.1)">,</text><text xml:space="preserve" font-family="Monaco,Monaco" font-size="26.0" fill="#EAEAEA" transform="matrix(1.00, 0.00, -0.00, -1.00, 534.9, 479.1)"> </text><text xml:space="preserve" font-family="Monaco,Monaco" font-size="26.0" fill="#EAEAEA" transform="matrix(1.00, 0.00, -0.00, -1.00, 550.5, 479.1)">s</text><text xml:space="preserve" font-family="Monaco,Monaco" font-size="26.0" fill="#EAEAEA" transform="matrix(1.00, 0.00, -0.00, -1.00, 566.1, 479.1)">t</text><text xml:space="preserve" font-family="Monaco,Monaco" font-size="26.0" fill="#EAEAEA" transform="matrix(1.00, 0.00, -0.00, -1.00, 581.7, 479.1)">r</text><text xml:space="preserve" font-family="Monaco,Monaco" font-size="26.0" fill="#EAEAEA" transform="matrix(1.00, 0.00, -0.00, -1.00, 597.3, 479.1)">e</text><text xml:space="preserve" font-family="Monaco,Monaco" font-size="26.0" fill="#EAEAEA" transform="matrix(1.00, 0.00, -0.00, -1.00, 612.9, 479.1)">a</text><text xml:space="preserve" font-family="Monaco,Monaco" font-size="26.0" fill="#EAEAEA" transform="matrix(1.00, 0.00, -0.00, -1.00, 628.6, 479.1)">m</text><text xml:space="preserve" font-family="Monaco,Monaco" font-size="26.0" fill="#EAEAEA" transform="matrix(1.00, 0.00, -0.00, -1.00, 644.2, 479.1)">a</text><text xml:space="preserve" font-family="Monaco,Monaco" font-size="26.0" fill="#EAEAEA" transform="matrix(1.00, 0.00, -0.00, -1.00, 659.8, 479.1)">b</text><text xml:space="preserve" font-family="Monaco,Monaco" font-size="26.0" fill="#EAEAEA" transform="matrix(1.00, 0.00, -0.00, -1.00, 675.4, 479.1)">l</text><text xml:space="preserve" font-family="Monaco,Monaco" font-size="26.0" fill="#EAEAEA" transform="matrix(1.00, 0.00, -0.00, -1.00, 691.0, 479.1)">e</text><text xml:space="preserve" font-family="Monaco,Monaco" font-size="26.0" fill="#EAEAEA" transform="matrix(1.00, 0.00, -0.00, -1.00, 706.6, 479.1)">)</text><text xml:space="preserve" font-family="Monaco,Monaco" font-size="26.0" fill="#EAEAEA" transform="matrix(1.00, 0.00, -0.00, -1.00, 722.2, 479.1)"> </text><text xml:space="preserve" font-family="Monaco,Monaco" font-size="26.0" fill="#EAEAEA" transform="matrix(1.00, 0.00, -0.00, -1.00, 737.8, 479.1)">{</text></g></g><g><clipPath id="clip0x600003aac360"><path d="M 163.9 213.5 L 1579.0 213.5 L 1579.0 550.5 L 163.9 550.5 Z M 163.9 213.5 "></path></clipPath><g clip-path="url(#clip0x600003aac360)"><text xml:space="preserve" font-family="Monaco,Monaco" font-size="26.0" fill="#EAEAEA" transform="matrix(1.00, 0.00, -0.00, -1.00, 176.0, 444.1)"> </text><text xml:space="preserve" font-family="Monaco,Monaco" font-size="26.0" fill="#EAEAEA" transform="matrix(1.00, 0.00, -0.00, -1.00, 191.7, 444.1)"> </text><text xml:space="preserve" font-family="Monaco,Monaco" font-size="26.0" fill="#EAEAEA" transform="matrix(1.00, 0.00, -0.00, -1.00, 207.3, 444.1)"> </text><text xml:space="preserve" font-family="Monaco,Monaco" font-size="26.0" fill="#EAEAEA" transform="matrix(1.00, 0.00, -0.00, -1.00, 222.9, 444.1)"> </text></g></g><image xlink:href="55D260ABAD6227EFBAF883F94E0B08FC.png" width="37.00" height="29.00" transform="matrix(1.00, 0.00, -0.00, -1.00, 236.0, 467.0)"></image><g><clipPath id="clip0x6080028b6620"><path d="M 163.9 213.5 L 1579.0 213.5 L 1579.0 550.5 L 163.9 550.5 Z M 163.9 213.5 "></path></clipPath><g clip-path="url(#clip0x6080028b6620)"><text xml:space="preserve" font-family="Monaco,Monaco" font-size="26.0" fill="#83D6EB" transform="matrix(1.00, 0.00, -0.00, -1.00, 238.5, 444.1)">i</text><text xml:space="preserve" font-family="Monaco,Monaco" font-size="26.0" fill="#83D6EB" transform="matrix(1.00, 0.00, -0.00, -1.00, 254.1, 444.1)">f</text></g></g><image xlink:href="81F5BCDAB1ACEEAA3E15E3479F85431F.png" width="192.00" height="35.00" transform="matrix(1.00, 0.00, -0.00, -1.00, 268.0, 467.0)"></image><g><clipPath id="clip0x6080028b69e0"><path d="M 163.9 213.5 L 1579.0 213.5 L 1579.0 550.5 L 163.9 550.5 Z M 163.9 213.5 "></path></clipPath><g clip-path="url(#clip0x6080028b69e0)"><text xml:space="preserve" font-family="Monaco,Monaco" font-size="26.0" fill="#EAEAEA" transform="matrix(1.00, 0.00, -0.00, -1.00, 269.7, 444.1)">(</text><text xml:space="preserve" font-family="Monaco,Monaco" font-size="26.0" fill="#EAEAEA" transform="matrix(1.00, 0.00, -0.00, -1.00, 285.3, 444.1)">a</text><text xml:space="preserve" font-family="Monaco,Monaco" font-size="26.0" fill="#EAEAEA" transform="matrix(1.00, 0.00, -0.00, -1.00, 300.9, 444.1)">r</text><text xml:space="preserve" font-family="Monaco,Monaco" font-size="26.0" fill="#EAEAEA" transform="matrix(1.00, 0.00, -0.00, -1.00, 316.5, 444.1)">g</text><text xml:space="preserve" font-family="Monaco,Monaco" font-size="26.0" fill="#EAEAEA" transform="matrix(1.00, 0.00, -0.00, -1.00, 332.1, 444.1)">s</text><text xml:space="preserve" font-family="Monaco,Monaco" font-size="26.0" fill="#EAEAEA" transform="matrix(1.00, 0.00, -0.00, -1.00, 347.7, 444.1)">.</text><text xml:space="preserve" font-family="Monaco,Monaco" font-size="26.0" fill="#EAEAEA" transform="matrix(1.00, 0.00, -0.00, -1.00, 363.3, 444.1)">u</text><text xml:space="preserve" font-family="Monaco,Monaco" font-size="26.0" fill="#EAEAEA" transform="matrix(1.00, 0.00, -0.00, -1.00, 378.9, 444.1)">s</text><text xml:space="preserve" font-family="Monaco,Monaco" font-size="26.0" fill="#EAEAEA" transform="matrix(1.00, 0.00, -0.00, -1.00, 394.5, 444.1)">e</text><text xml:space="preserve" font-family="Monaco,Monaco" font-size="26.0" fill="#EAEAEA" transform="matrix(1.00, 0.00, -0.00, -1.00, 410.1, 444.1)">r</text><text xml:space="preserve" font-family="Monaco,Monaco" font-size="26.0" fill="#EAEAEA" transform="matrix(1.00, 0.00, -0.00, -1.00, 425.7, 444.1)">I</text><text xml:space="preserve" font-family="Monaco,Monaco" font-size="26.0" fill="#EAEAEA" transform="matrix(1.00, 0.00, -0.00, -1.00, 441.3, 444.1)">d</text><text xml:space="preserve" font-family="Monaco,Monaco" font-size="26.0" fill="#EAEAEA" transform="matrix(1.00, 0.00, -0.00, -1.00, 456.9, 444.1)"> </text></g></g><image xlink:href="7C7E787740794D8F3E9E8105F78BEA7D.png" width="33.00" height="29.00" transform="matrix(1.00, 0.00, -0.00, -1.00, 474.0, 466.0)"></image><g><clipPath id="clip0x600003aac5a0"><path d="M 163.9 213.5 L 1579.0 213.5 L 1579.0 550.5 L 163.9 550.5 Z M 163.9 213.5 "></path></clipPath><g clip-path="url(#clip0x600003aac5a0)"><text xml:space="preserve" font-family="Monaco,Monaco" font-size="26.0" fill="#E34D77" transform="matrix(1.00, 0.00, -0.00, -1.00, 472.5, 444.1)">!</text><text xml:space="preserve" font-family="Monaco,Monaco" font-size="26.0" fill="#E34D77" transform="matrix(1.00, 0.00, -0.00, -1.00, 488.1, 444.1)">=</text></g></g><g><clipPath id="clip0x600003aac840"><path d="M 163.9 213.5 L 1579.0 213.5 L 1579.0 550.5 L 163.9 550.5 Z M 163.9 213.5 "></path></clipPath><g clip-path="url(#clip0x600003aac840)"><text xml:space="preserve" font-family="Monaco,Monaco" font-size="26.0" fill="#EAEAEA" transform="matrix(1.00, 0.00, -0.00, -1.00, 503.7, 444.1)"> </text></g></g><image xlink:href="E8279BF1513855553C34B9E86C92379C.png" width="107.00" height="30.00" transform="matrix(1.00, 0.00, -0.00, -1.00, 520.0, 467.0)"></image><g><clipPath id="clip0x600003aac960"><path d="M 163.9 213.5 L 1579.0 213.5 L 1579.0 550.5 L 163.9 550.5 Z M 163.9 213.5 "></path></clipPath><g clip-path="url(#clip0x600003aac960)"><text xml:space="preserve" font-family="Monaco,Monaco" font-size="26.0" fill="#E6D679" transform="matrix(1.00, 0.00, -0.00, -1.00, 519.3, 444.1)">'</text><text xml:space="preserve" font-family="Monaco,Monaco" font-size="26.0" fill="#E6D679" transform="matrix(1.00, 0.00, -0.00, -1.00, 534.9, 444.1)">a</text><text xml:space="preserve" font-family="Monaco,Monaco" font-size="26.0" fill="#E6D679" transform="matrix(1.00, 0.00, -0.00, -1.00, 550.5, 444.1)">d</text><text xml:space="preserve" font-family="Monaco,Monaco" font-size="26.0" fill="#E6D679" transform="matrix(1.00, 0.00, -0.00, -1.00, 566.1, 444.1)">m</text><text xml:space="preserve" font-family="Monaco,Monaco" font-size="26.0" fill="#E6D679" transform="matrix(1.00, 0.00, -0.00, -1.00, 581.7, 444.1)">i</text><text xml:space="preserve" font-family="Monaco,Monaco" font-size="26.0" fill="#E6D679" transform="matrix(1.00, 0.00, -0.00, -1.00, 597.3, 444.1)">n</text><text xml:space="preserve" font-family="Monaco,Monaco" font-size="26.0" fill="#E6D679" transform="matrix(1.00, 0.00, -0.00, -1.00, 612.9, 444.1)">'</text></g></g><image xlink:href="035BB04538527BF1B459ACBC132126F0.png" width="52.00" height="34.00" transform="matrix(1.00, 0.00, -0.00, -1.00, 626.0, 467.0)"></image><g><clipPath id="clip0x6080028b70a0"><path d="M 163.9 213.5 L 1579.0 213.5 L 1579.0 550.5 L 163.9 550.5 Z M 163.9 213.5 "></path></clipPath><g clip-path="url(#clip0x6080028b70a0)"><text xml:space="preserve" font-family="Monaco,Monaco" font-size="26.0" fill="#EAEAEA" transform="matrix(1.00, 0.00, -0.00, -1.00, 628.5, 444.1)">)</text><text xml:space="preserve" font-family="Monaco,Monaco" font-size="26.0" fill="#EAEAEA" transform="matrix(1.00, 0.00, -0.00, -1.00, 644.1, 444.1)"> </text><text xml:space="preserve" font-family="Monaco,Monaco" font-size="26.0" fill="#EAEAEA" transform="matrix(1.00, 0.00, -0.00, -1.00, 659.7, 444.1)">{</text></g></g><g><clipPath id="clip0x6080028b7580"><path d="M 163.9 213.5 L 1579.0 213.5 L 1579.0 550.5 L 163.9 550.5 Z M 163.9 213.5 "></path></clipPath><g clip-path="url(#clip0x6080028b7580)"><text xml:space="preserve" font-family="Monaco,Monaco" font-size="26.0" fill="#EAEAEA" transform="matrix(1.00, 0.00, -0.00, -1.00, 176.0, 409.1)"> </text><text xml:space="preserve" font-family="Monaco,Monaco" font-size="26.0" fill="#EAEAEA" transform="matrix(1.00, 0.00, -0.00, -1.00, 191.7, 409.1)"> </text><text xml:space="preserve" font-family="Monaco,Monaco" font-size="26.0" fill="#EAEAEA" transform="matrix(1.00, 0.00, -0.00, -1.00, 207.3, 409.1)"> </text><text xml:space="preserve" font-family="Monaco,Monaco" font-size="26.0" fill="#EAEAEA" transform="matrix(1.00, 0.00, -0.00, -1.00, 222.9, 409.1)"> </text><text xml:space="preserve" font-family="Monaco,Monaco" font-size="26.0" fill="#EAEAEA" transform="matrix(1.00, 0.00, -0.00, -1.00, 238.5, 409.1)"> </text><text xml:space="preserve" font-family="Monaco,Monaco" font-size="26.0" fill="#EAEAEA" transform="matrix(1.00, 0.00, -0.00, -1.00, 254.1, 409.1)"> </text></g></g><image xlink:href="7906818B777A6E1F8E475996E8DA4876.png" width="86.00" height="30.00" transform="matrix(1.00, 0.00, -0.00, -1.00, 266.0, 432.0)"></image><g><clipPath id="clip0x6080028b78e0"><path d="M 163.9 213.5 L 1579.0 213.5 L 1579.0 550.5 L 163.9 550.5 Z M 163.9 213.5 "></path></clipPath><g clip-path="url(#clip0x6080028b78e0)"><text xml:space="preserve" font-family="Monaco,Monaco" font-size="26.0" fill="#E34D77" transform="matrix(1.00, 0.00, -0.00, -1.00, 269.7, 409.1)">t</text><text xml:space="preserve" font-family="Monaco,Monaco" font-size="26.0" fill="#E34D77" transform="matrix(1.00, 0.00, -0.00, -1.00, 285.3, 409.1)">h</text><text xml:space="preserve" font-family="Monaco,Monaco" font-size="26.0" fill="#E34D77" transform="matrix(1.00, 0.00, -0.00, -1.00, 300.9, 409.1)">r</text><text xml:space="preserve" font-family="Monaco,Monaco" font-size="26.0" fill="#E34D77" transform="matrix(1.00, 0.00, -0.00, -1.00, 316.5, 409.1)">o</text><text xml:space="preserve" font-family="Monaco,Monaco" font-size="26.0" fill="#E34D77" transform="matrix(1.00, 0.00, -0.00, -1.00, 332.1, 409.1)">w</text></g></g><g><clipPath id="clip0x600003aad2c0"><path d="M 163.9 213.5 L 1579.0 213.5 L 1579.0 550.5 L 163.9 550.5 Z M 163.9 213.5 "></path></clipPath><g clip-path="url(#clip0x600003aad2c0)"><text xml:space="preserve" font-family="Monaco,Monaco" font-size="26.0" fill="#EAEAEA" transform="matrix(1.00, 0.00, -0.00, -1.00, 347.7, 409.1)"> </text></g></g><image xlink:href="72713399F36F1AC375E65ECD26C473CA.png" width="84.00" height="24.00" transform="matrix(1.00, 0.00, -0.00, -1.00, 360.0, 426.0)"></image><g><clipPath id="clip0x6080028b7c40"><path d="M 163.9 213.5 L 1579.0 213.5 L 1579.0 550.5 L 163.9 550.5 Z M 163.9 213.5 "></path></clipPath><g clip-path="url(#clip0x6080028b7c40)"><text xml:space="preserve" font-family="Monaco,Monaco" font-size="26.0" fill="#B7D936" transform="matrix(1.00, 0.00, -0.00, -1.00, 363.3, 409.1)">e</text><text xml:space="preserve" font-family="Monaco,Monaco" font-size="26.0" fill="#B7D936" transform="matrix(1.00, 0.00, -0.00, -1.00, 378.9, 409.1)">r</text><text xml:space="preserve" font-family="Monaco,Monaco" font-size="26.0" fill="#B7D936" transform="matrix(1.00, 0.00, -0.00, -1.00, 394.5, 409.1)">r</text><text xml:space="preserve" font-family="Monaco,Monaco" font-size="26.0" fill="#B7D936" transform="matrix(1.00, 0.00, -0.00, -1.00, 410.1, 409.1)">o</text><text xml:space="preserve" font-family="Monaco,Monaco" font-size="26.0" fill="#B7D936" transform="matrix(1.00, 0.00, -0.00, -1.00, 425.7, 409.1)">r</text></g></g><image xlink:href="6CFEEBDB319E3239A0071F7C841D8897.png" width="20.00" height="34.00" transform="matrix(1.00, 0.00, -0.00, -1.00, 439.0, 432.0)"></image><g><clipPath id="clip0x6080028b7fa0"><path d="M 163.9 213.5 L 1579.0 213.5 L 1579.0 550.5 L 163.9 550.5 Z M 163.9 213.5 "></path></clipPath><g clip-path="url(#clip0x6080028b7fa0)"><text xml:space="preserve" font-family="Monaco,Monaco" font-size="26.0" fill="#EAEAEA" transform="matrix(1.00, 0.00, -0.00, -1.00, 441.3, 409.1)">(</text></g></g><image xlink:href="C3A8487EB037F03437FD00325AE7CD7D.png" width="54.00" height="30.00" transform="matrix(1.00, 0.00, -0.00, -1.00, 453.0, 432.0)"></image><g><clipPath id="clip0x6080028b81e0"><path d="M 163.9 213.5 L 1579.0 213.5 L 1579.0 550.5 L 163.9 550.5 Z M 163.9 213.5 "></path></clipPath><g clip-path="url(#clip0x6080028b81e0)"><text xml:space="preserve" font-family="Monaco,Monaco" font-size="26.0" fill="#83D6EB" transform="matrix(1.00, 0.00, -0.00, -1.00, 456.9, 409.1)">4</text><text xml:space="preserve" font-family="Monaco,Monaco" font-size="26.0" fill="#83D6EB" transform="matrix(1.00, 0.00, -0.00, -1.00, 472.5, 409.1)">0</text><text xml:space="preserve" font-family="Monaco,Monaco" font-size="26.0" fill="#83D6EB" transform="matrix(1.00, 0.00, -0.00, -1.00, 488.1, 409.1)">3</text></g></g><image xlink:href="E5374CD827311EECC22AE626FFDED2FA.png" width="13.00" height="18.00" transform="matrix(1.00, 0.00, -0.00, -1.00, 505.0, 415.0)"></image><g><clipPath id="clip0x6080028b85a0"><path d="M 163.9 213.5 L 1579.0 213.5 L 1579.0 550.5 L 163.9 550.5 Z M 163.9 213.5 "></path></clipPath><g clip-path="url(#clip0x6080028b85a0)"><text xml:space="preserve" font-family="Monaco,Monaco" font-size="26.0" fill="#EAEAEA" transform="matrix(1.00, 0.00, -0.00, -1.00, 503.7, 409.1)">,</text><text xml:space="preserve" font-family="Monaco,Monaco" font-size="26.0" fill="#EAEAEA" transform="matrix(1.00, 0.00, -0.00, -1.00, 519.3, 409.1)"> </text></g></g><image xlink:href="260C7534644601DF0146435EFBAA0664.png" width="169.00" height="30.00" transform="matrix(1.00, 0.00, -0.00, -1.00, 536.0, 432.0)"></image><g><clipPath id="clip0x6080028b8960"><path d="M 163.9 213.5 L 1579.0 213.5 L 1579.0 550.5 L 163.9 550.5 Z M 163.9 213.5 "></path></clipPath><g clip-path="url(#clip0x6080028b8960)"><text xml:space="preserve" font-family="Monaco,Monaco" font-size="26.0" fill="#E6D679" transform="matrix(1.00, 0.00, -0.00, -1.00, 534.9, 409.1)">'</text><text xml:space="preserve" font-family="Monaco,Monaco" font-size="26.0" fill="#E6D679" transform="matrix(1.00, 0.00, -0.00, -1.00, 550.5, 409.1)">F</text><text xml:space="preserve" font-family="Monaco,Monaco" font-size="26.0" fill="#E6D679" transform="matrix(1.00, 0.00, -0.00, -1.00, 566.1, 409.1)">o</text><text xml:space="preserve" font-family="Monaco,Monaco" font-size="26.0" fill="#E6D679" transform="matrix(1.00, 0.00, -0.00, -1.00, 581.7, 409.1)">r</text><text xml:space="preserve" font-family="Monaco,Monaco" font-size="26.0" fill="#E6D679" transform="matrix(1.00, 0.00, -0.00, -1.00, 597.3, 409.1)">b</text><text xml:space="preserve" font-family="Monaco,Monaco" font-size="26.0" fill="#E6D679" transform="matrix(1.00, 0.00, -0.00, -1.00, 612.9, 409.1)">i</text><text xml:space="preserve" font-family="Monaco,Monaco" font-size="26.0" fill="#E6D679" transform="matrix(1.00, 0.00, -0.00, -1.00, 628.5, 409.1)">d</text><text xml:space="preserve" font-family="Monaco,Monaco" font-size="26.0" fill="#E6D679" transform="matrix(1.00, 0.00, -0.00, -1.00, 644.1, 409.1)">d</text><text xml:space="preserve" font-family="Monaco,Monaco" font-size="26.0" fill="#E6D679" transform="matrix(1.00, 0.00, -0.00, -1.00, 659.7, 409.1)">e</text><text xml:space="preserve" font-family="Monaco,Monaco" font-size="26.0" fill="#E6D679" transform="matrix(1.00, 0.00, -0.00, -1.00, 675.4, 409.1)">n</text><text xml:space="preserve" font-family="Monaco,Monaco" font-size="26.0" fill="#E6D679" transform="matrix(1.00, 0.00, -0.00, -1.00, 691.0, 409.1)">'</text></g></g><image xlink:href="B8F24AC973D8A1E45A3A7C2946CE4724.png" width="20.00" height="34.00" transform="matrix(1.00, 0.00, -0.00, -1.00, 704.0, 432.0)"></image><g><clipPath id="clip0x600003aad440"><path d="M 163.9 213.5 L 1579.0 213.5 L 1579.0 550.5 L 163.9 550.5 Z M 163.9 213.5 "></path></clipPath><g clip-path="url(#clip0x600003aad440)"><text xml:space="preserve" font-family="Monaco,Monaco" font-size="26.0" fill="#EAEAEA" transform="matrix(1.00, 0.00, -0.00, -1.00, 706.5, 409.1)">)</text></g></g><image xlink:href="03C50C70482A981DB241C8750A7B0735.png" width="20.00" height="34.00" transform="matrix(1.00, 0.00, -0.00, -1.00, 236.0, 397.0)"></image><g><clipPath id="clip0x6080028b9080"><path d="M 163.9 213.5 L 1579.0 213.5 L 1579.0 550.5 L 163.9 550.5 Z M 163.9 213.5 "></path></clipPath><g clip-path="url(#clip0x6080028b9080)"><text xml:space="preserve" font-family="Monaco,Monaco" font-size="26.0" fill="#EAEAEA" transform="matrix(1.00, 0.00, -0.00, -1.00, 176.0, 374.1)"> </text><text xml:space="preserve" font-family="Monaco,Monaco" font-size="26.0" fill="#EAEAEA" transform="matrix(1.00, 0.00, -0.00, -1.00, 191.7, 374.1)"> </text><text xml:space="preserve" font-family="Monaco,Monaco" font-size="26.0" fill="#EAEAEA" transform="matrix(1.00, 0.00, -0.00, -1.00, 207.3, 374.1)"> </text><text xml:space="preserve" font-family="Monaco,Monaco" font-size="26.0" fill="#EAEAEA" transform="matrix(1.00, 0.00, -0.00, -1.00, 222.9, 374.1)"> </text><text xml:space="preserve" font-family="Monaco,Monaco" font-size="26.0" fill="#EAEAEA" transform="matrix(1.00, 0.00, -0.00, -1.00, 238.5, 374.1)">}</text></g></g><g><clipPath id="clip0x600003aad9e0"><path d="M 163.9 213.5 L 1579.0 213.5 L 1579.0 550.5 L 163.9 550.5 Z M 163.9 213.5 "></path></clipPath><g clip-path="url(#clip0x600003aad9e0)"><text xml:space="preserve" font-family="Monaco,Monaco" font-size="26.0" fill="#EAEAEA" transform="matrix(1.00, 0.00, -0.00, -1.00, 176.0, 304.1)"> </text><text xml:space="preserve" font-family="Monaco,Monaco" font-size="26.0" fill="#EAEAEA" transform="matrix(1.00, 0.00, -0.00, -1.00, 191.7, 304.1)"> </text><text xml:space="preserve" font-family="Monaco,Monaco" font-size="26.0" fill="#EAEAEA" transform="matrix(1.00, 0.00, -0.00, -1.00, 207.3, 304.1)"> </text><text xml:space="preserve" font-family="Monaco,Monaco" font-size="26.0" fill="#EAEAEA" transform="matrix(1.00, 0.00, -0.00, -1.00, 222.9, 304.1)"> </text></g></g><image xlink:href="48168EC6FC9DB959FF34E1384336D728.png" width="98.00" height="28.00" transform="matrix(1.00, 0.00, -0.00, -1.00, 237.0, 325.0)"></image><g><clipPath id="clip0x600003aadc80"><path d="M 163.9 213.5 L 1579.0 213.5 L 1579.0 550.5 L 163.9 550.5 Z M 163.9 213.5 "></path></clipPath><g clip-path="url(#clip0x600003aadc80)"><text xml:space="preserve" font-family="Monaco,Monaco" font-size="26.0" fill="#E34D77" transform="matrix(1.00, 0.00, -0.00, -1.00, 238.5, 304.1)">r</text><text xml:space="preserve" font-family="Monaco,Monaco" font-size="26.0" fill="#E34D77" transform="matrix(1.00, 0.00, -0.00, -1.00, 254.1, 304.1)">e</text><text xml:space="preserve" font-family="Monaco,Monaco" font-size="26.0" fill="#E34D77" transform="matrix(1.00, 0.00, -0.00, -1.00, 269.7, 304.1)">t</text><text xml:space="preserve" font-family="Monaco,Monaco" font-size="26.0" fill="#E34D77" transform="matrix(1.00, 0.00, -0.00, -1.00, 285.3, 304.1)">u</text><text xml:space="preserve" font-family="Monaco,Monaco" font-size="26.0" fill="#E34D77" transform="matrix(1.00, 0.00, -0.00, -1.00, 300.9, 304.1)">r</text><text xml:space="preserve" font-family="Monaco,Monaco" font-size="26.0" fill="#E34D77" transform="matrix(1.00, 0.00, -0.00, -1.00, 316.5, 304.1)">n</text></g></g><g><clipPath id="clip0x600003aae160"><path d="M 163.9 213.5 L 1579.0 213.5 L 1579.0 550.5 L 163.9 550.5 Z M 163.9 213.5 "></path></clipPath><g clip-path="url(#clip0x600003aae160)"><text xml:space="preserve" font-family="Monaco,Monaco" font-size="26.0" fill="#EAEAEA" transform="matrix(1.00, 0.00, -0.00, -1.00, 332.1, 304.1)"> </text></g></g><image xlink:href="9B291800A4417FB1502E5BAD208028FA.png" width="115.00" height="30.00" transform="matrix(1.00, 0.00, -0.00, -1.00, 345.0, 327.0)"></image><g><clipPath id="clip0x600003aae2e0"><path d="M 163.9 213.5 L 1579.0 213.5 L 1579.0 550.5 L 163.9 550.5 Z M 163.9 213.5 "></path></clipPath><g clip-path="url(#clip0x600003aae2e0)"><text xml:space="preserve" font-family="Monaco,Monaco" font-size="26.0" fill="#B7D936" transform="matrix(1.00, 0.00, -0.00, -1.00, 347.7, 304.1)">h</text><text xml:space="preserve" font-family="Monaco,Monaco" font-size="26.0" fill="#B7D936" transform="matrix(1.00, 0.00, -0.00, -1.00, 363.3, 304.1)">a</text><text xml:space="preserve" font-family="Monaco,Monaco" font-size="26.0" fill="#B7D936" transform="matrix(1.00, 0.00, -0.00, -1.00, 378.9, 304.1)">n</text><text xml:space="preserve" font-family="Monaco,Monaco" font-size="26.0" fill="#B7D936" transform="matrix(1.00, 0.00, -0.00, -1.00, 394.5, 304.1)">d</text><text xml:space="preserve" font-family="Monaco,Monaco" font-size="26.0" fill="#B7D936" transform="matrix(1.00, 0.00, -0.00, -1.00, 410.1, 304.1)">l</text><text xml:space="preserve" font-family="Monaco,Monaco" font-size="26.0" fill="#B7D936" transform="matrix(1.00, 0.00, -0.00, -1.00, 425.7, 304.1)">e</text><text xml:space="preserve" font-family="Monaco,Monaco" font-size="26.0" fill="#B7D936" transform="matrix(1.00, 0.00, -0.00, -1.00, 441.3, 304.1)">r</text></g></g><image xlink:href="8E6B6EA445794D62FE530AD20C36E4F1.png" width="285.00" height="35.00" transform="matrix(1.00, 0.00, -0.00, -1.00, 455.0, 327.0)"></image><g><clipPath id="clip0x6080028b9620"><path d="M 163.9 213.5 L 1579.0 213.5 L 1579.0 550.5 L 163.9 550.5 Z M 163.9 213.5 "></path></clipPath><g clip-path="url(#clip0x6080028b9620)"><text xml:space="preserve" font-family="Monaco,Monaco" font-size="26.0" fill="#EAEAEA" transform="matrix(1.00, 0.00, -0.00, -1.00, 456.9, 304.1)">(</text><text xml:space="preserve" font-family="Monaco,Monaco" font-size="26.0" fill="#EAEAEA" transform="matrix(1.00, 0.00, -0.00, -1.00, 472.5, 304.1)">a</text><text xml:space="preserve" font-family="Monaco,Monaco" font-size="26.0" fill="#EAEAEA" transform="matrix(1.00, 0.00, -0.00, -1.00, 488.1, 304.1)">r</text><text xml:space="preserve" font-family="Monaco,Monaco" font-size="26.0" fill="#EAEAEA" transform="matrix(1.00, 0.00, -0.00, -1.00, 503.7, 304.1)">g</text><text xml:space="preserve" font-family="Monaco,Monaco" font-size="26.0" fill="#EAEAEA" transform="matrix(1.00, 0.00, -0.00, -1.00, 519.3, 304.1)">s</text><text xml:space="preserve" font-family="Monaco,Monaco" font-size="26.0" fill="#EAEAEA" transform="matrix(1.00, 0.00, -0.00, -1.00, 534.9, 304.1)">,</text><text xml:space="preserve" font-family="Monaco,Monaco" font-size="26.0" fill="#EAEAEA" transform="matrix(1.00, 0.00, -0.00, -1.00, 550.5, 304.1)"> </text><text xml:space="preserve" font-family="Monaco,Monaco" font-size="26.0" fill="#EAEAEA" transform="matrix(1.00, 0.00, -0.00, -1.00, 566.1, 304.1)">s</text><text xml:space="preserve" font-family="Monaco,Monaco" font-size="26.0" fill="#EAEAEA" transform="matrix(1.00, 0.00, -0.00, -1.00, 581.7, 304.1)">t</text><text xml:space="preserve" font-family="Monaco,Monaco" font-size="26.0" fill="#EAEAEA" transform="matrix(1.00, 0.00, -0.00, -1.00, 597.3, 304.1)">r</text><text xml:space="preserve" font-family="Monaco,Monaco" font-size="26.0" fill="#EAEAEA" transform="matrix(1.00, 0.00, -0.00, -1.00, 612.9, 304.1)">e</text><text xml:space="preserve" font-family="Monaco,Monaco" font-size="26.0" fill="#EAEAEA" transform="matrix(1.00, 0.00, -0.00, -1.00, 628.5, 304.1)">a</text><text xml:space="preserve" font-family="Monaco,Monaco" font-size="26.0" fill="#EAEAEA" transform="matrix(1.00, 0.00, -0.00, -1.00, 644.2, 304.1)">m</text><text xml:space="preserve" font-family="Monaco,Monaco" font-size="26.0" fill="#EAEAEA" transform="matrix(1.00, 0.00, -0.00, -1.00, 659.8, 304.1)">a</text><text xml:space="preserve" font-family="Monaco,Monaco" font-size="26.0" fill="#EAEAEA" transform="matrix(1.00, 0.00, -0.00, -1.00, 675.4, 304.1)">b</text><text xml:space="preserve" font-family="Monaco,Monaco" font-size="26.0" fill="#EAEAEA" transform="matrix(1.00, 0.00, -0.00, -1.00, 691.0, 304.1)">l</text><text xml:space="preserve" font-family="Monaco,Monaco" font-size="26.0" fill="#EAEAEA" transform="matrix(1.00, 0.00, -0.00, -1.00, 706.6, 304.1)">e</text><text xml:space="preserve" font-family="Monaco,Monaco" font-size="26.0" fill="#EAEAEA" transform="matrix(1.00, 0.00, -0.00, -1.00, 722.2, 304.1)">)</text></g></g><image xlink:href="../../0593CD99-7086-4720-8705-69C8E7C16F2D/assets/02E8DC1E24E5C16A53C8321A06CE42C4.png" width="21.00" height="34.00" transform="matrix(1.00, 0.00, -0.00, -1.00, 204.0, 292.0)"></image><g><clipPath id="clip0x6080028b9d40"><path d="M 163.9 213.5 L 1579.0 213.5 L 1579.0 550.5 L 163.9 550.5 Z M 163.9 213.5 "></path></clipPath><g clip-path="url(#clip0x6080028b9d40)"><text xml:space="preserve" font-family="Monaco,Monaco" font-size="26.0" fill="#EAEAEA" transform="matrix(1.00, 0.00, -0.00, -1.00, 176.0, 269.1)"> </text><text xml:space="preserve" font-family="Monaco,Monaco" font-size="26.0" fill="#EAEAEA" transform="matrix(1.00, 0.00, -0.00, -1.00, 191.7, 269.1)"> </text><text xml:space="preserve" font-family="Monaco,Monaco" font-size="26.0" fill="#EAEAEA" transform="matrix(1.00, 0.00, -0.00, -1.00, 207.3, 269.1)">}</text></g></g><image xlink:href="61E2F37AFDBE0CEFD7982487F8204FE1.png" width="20.00" height="34.00" transform="matrix(1.00, 0.00, -0.00, -1.00, 173.0, 257.0)"></image><g><clipPath id="clip0x6080028ba100"><path d="M 163.9 213.5 L 1579.0 213.5 L 1579.0 550.5 L 163.9 550.5 Z M 163.9 213.5 "></path></clipPath><g clip-path="url(#clip0x6080028ba100)"><text xml:space="preserve" font-family="Monaco,Monaco" font-size="26.0" fill="#EAEAEA" transform="matrix(1.00, 0.00, -0.00, -1.00, 176.0, 234.1)">}</text></g></g></g></svg>