<?xml version="1.0" encoding="UTF-8" standalone="no"?><svg xmlns="http://www.w3.org/2000/svg" xmlns:xlink="http://www.w3.org/1999/xlink" clip-rule="evenodd" stroke-miterlimit="10" viewBox="0 0 145 80"><desc>SVG generated by Keynote</desc><defs></defs><g transform="matrix(1.00, 0.00, -0.00, -1.00, 0.0, 80.0)"><image xlink:href="../../AEBBCE8A-14D4-4477-AECA-12F28B623FB9/assets/3AB4CD16FF1258CF2B617F8295CEE9D2.png" width="143.00" height="73.00" transform="matrix(1.00, 0.00, -0.00, -1.00, 1.0, 74.5)" opacity="0.50"></image><path d="M 5.0 22.2 L 5.0 57.7 C 5.0 65.9 11.6 72.0 19.8 72.0 L 125.2 72.0 C 133.4 72.0 140.0 65.9 140.0 57.7 L 140.0 22.2 C 140.0 14.1 133.4 7.0 125.2 7.0 L 19.8 7.0 C 11.6 7.0 5.0 14.1 5.0 22.2 Z M 5.0 22.2 " fill="#204C7C"></path><image xlink:href="../../AEBBCE8A-14D4-4477-AECA-12F28B623FB9/assets/3BB443B9437C55FA2DBEAFD6C19A92A1.png" width="105.00" height="20.00" transform="matrix(1.00, 0.00, -0.00, -1.00, 21.0, 48.0)"></image><g><clipPath id="clip0x6000046b08c0"><path d="M 0.6 7.5 L 144.3 7.5 L 144.3 72.5 L 0.6 72.5 Z M 0.6 7.5 "></path></clipPath><g clip-path="url(#clip0x6000046b08c0)"><text xml:space="preserve" font-family="HelveticaNeue-Medium,Helvetica Neue" font-size="18.0" fill="#FEFFFE" transform="matrix(1.00, 0.00, -0.00, -1.00, 22.8, 33.0)">F</text><text xml:space="preserve" font-family="HelveticaNeue-Medium,Helvetica Neue" font-size="18.0" fill="#FEFFFE" transform="matrix(1.00, 0.00, -0.00, -1.00, 33.5, 33.0)">i</text><text xml:space="preserve" font-family="HelveticaNeue-Medium,Helvetica Neue" font-size="18.0" fill="#FEFFFE" transform="matrix(1.00, 0.00, -0.00, -1.00, 37.8, 33.0)">l</text><text xml:space="preserve" font-family="HelveticaNeue-Medium,Helvetica Neue" font-size="18.0" fill="#FEFFFE" transform="matrix(1.00, 0.00, -0.00, -1.00, 42.2, 33.0)">e</text><text xml:space="preserve" font-family="HelveticaNeue-Medium,Helvetica Neue" font-size="18.0" fill="#FEFFFE" transform="matrix(1.00, 0.00, -0.00, -1.00, 52.2, 33.0)"> </text><text xml:space="preserve" font-family="HelveticaNeue-Medium,Helvetica Neue" font-size="18.0" fill="#FEFFFE" transform="matrix(1.00, 0.00, -0.00, -1.00, 57.2, 33.0)">H</text><text xml:space="preserve" font-family="HelveticaNeue-Medium,Helvetica Neue" font-size="18.0" fill="#FEFFFE" transform="matrix(1.00, 0.00, -0.00, -1.00, 70.2, 33.0)">a</text><text xml:space="preserve" font-family="HelveticaNeue-Medium,Helvetica Neue" font-size="18.0" fill="#FEFFFE" transform="matrix(1.00, 0.00, -0.00, -1.00, 80.2, 33.0)">n</text><text xml:space="preserve" font-family="HelveticaNeue-Medium,Helvetica Neue" font-size="18.0" fill="#FEFFFE" transform="matrix(1.00, 0.00, -0.00, -1.00, 90.5, 33.0)">d</text><text xml:space="preserve" font-family="HelveticaNeue-Medium,Helvetica Neue" font-size="18.0" fill="#FEFFFE" transform="matrix(1.00, 0.00, -0.00, -1.00, 101.5, 33.0)">l</text><text xml:space="preserve" font-family="HelveticaNeue-Medium,Helvetica Neue" font-size="18.0" fill="#FEFFFE" transform="matrix(1.00, 0.00, -0.00, -1.00, 105.8, 33.0)">e</text><text xml:space="preserve" font-family="HelveticaNeue-Medium,Helvetica Neue" font-size="18.0" fill="#FEFFFE" transform="matrix(1.00, 0.00, -0.00, -1.00, 115.8, 33.0)">r</text></g></g></g></svg>