<?xml version="1.0" encoding="UTF-8" standalone="no"?><svg xmlns="http://www.w3.org/2000/svg" xmlns:xlink="http://www.w3.org/1999/xlink" clip-rule="evenodd" stroke-miterlimit="10" viewBox="0 0 192 132"><desc>SVG generated by Keynote</desc><defs></defs><g transform="matrix(1.00, 0.00, -0.00, -1.00, 0.0, 132.0)"><image xlink:href="../../AEBBCE8A-14D4-4477-AECA-12F28B623FB9/assets/0B6802A0A2291FCD47CAD19D7D15E6F2.png" width="189.00" height="125.00" transform="matrix(1.00, 0.00, -0.00, -1.00, 1.5, 126.2)" opacity="0.50"></image><path d="M 5.5 35.0 L 6.0 96.8 C 6.0 111.9 17.8 124.0 33.0 124.0 L 159.1 124.0 C 174.3 124.0 187.0 111.9 187.0 96.8 L 187.0 35.0 C 187.0 19.8 174.3 8.0 159.1 8.0 L 33.0 8.0 C 17.8 8.0 5.5 19.8 5.5 35.0 Z M 5.5 35.0 " fill="#914613"></path><image xlink:href="../../AEBBCE8A-14D4-4477-AECA-12F28B623FB9/assets/58B6A69C6E7FF68D083B3392F48D1697.png" width="125.00" height="19.00" transform="matrix(1.00, 0.00, -0.00, -1.00, 34.0, 118.0)"></image><g><clipPath id="clip0x6080034acea0"><path d="M 5.5 7.6 L 186.6 7.6 L 186.6 127.3 L 5.5 127.3 Z M 5.5 7.6 "></path></clipPath><g clip-path="url(#clip0x6080034acea0)"><text xml:space="preserve" font-family="HelveticaNeue-Medium,Helvetica Neue" font-size="17.0" fill="#FEFFFE" transform="matrix(1.00, 0.00, -0.00, -1.00, 35.9, 103.4)">D</text><text xml:space="preserve" font-family="HelveticaNeue-Medium,Helvetica Neue" font-size="17.0" fill="#FEFFFE" transform="matrix(1.00, 0.00, -0.00, -1.00, 48.2, 103.4)">B</text><text xml:space="preserve" font-family="HelveticaNeue-Medium,Helvetica Neue" font-size="17.0" fill="#FEFFFE" transform="matrix(1.00, 0.00, -0.00, -1.00, 60.2, 103.4)"> </text><text xml:space="preserve" font-family="HelveticaNeue-Medium,Helvetica Neue" font-size="17.0" fill="#FEFFFE" transform="matrix(1.00, 0.00, -0.00, -1.00, 64.9, 103.4)">M</text><text xml:space="preserve" font-family="HelveticaNeue-Medium,Helvetica Neue" font-size="17.0" fill="#FEFFFE" transform="matrix(1.00, 0.00, -0.00, -1.00, 80.0, 103.4)">i</text><text xml:space="preserve" font-family="HelveticaNeue-Medium,Helvetica Neue" font-size="17.0" fill="#FEFFFE" transform="matrix(1.00, 0.00, -0.00, -1.00, 84.1, 103.4)">d</text><text xml:space="preserve" font-family="HelveticaNeue-Medium,Helvetica Neue" font-size="17.0" fill="#FEFFFE" transform="matrix(1.00, 0.00, -0.00, -1.00, 94.5, 103.4)">d</text><text xml:space="preserve" font-family="HelveticaNeue-Medium,Helvetica Neue" font-size="17.0" fill="#FEFFFE" transform="matrix(1.00, 0.00, -0.00, -1.00, 104.9, 103.4)">l</text><text xml:space="preserve" font-family="HelveticaNeue-Medium,Helvetica Neue" font-size="17.0" fill="#FEFFFE" transform="matrix(1.00, 0.00, -0.00, -1.00, 109.0, 103.4)">e</text><text xml:space="preserve" font-family="HelveticaNeue-Medium,Helvetica Neue" font-size="17.0" fill="#FEFFFE" transform="matrix(1.00, 0.00, -0.00, -1.00, 118.4, 103.4)">w</text><text xml:space="preserve" font-family="HelveticaNeue-Medium,Helvetica Neue" font-size="17.0" fill="#FEFFFE" transform="matrix(1.00, 0.00, -0.00, -1.00, 131.6, 103.4)">a</text><text xml:space="preserve" font-family="HelveticaNeue-Medium,Helvetica Neue" font-size="17.0" fill="#FEFFFE" transform="matrix(1.00, 0.00, -0.00, -1.00, 141.1, 103.4)">r</text><text xml:space="preserve" font-family="HelveticaNeue-Medium,Helvetica Neue" font-size="17.0" fill="#FEFFFE" transform="matrix(1.00, 0.00, -0.00, -1.00, 146.8, 103.4)">e</text></g></g></g></svg>