<?xml version="1.0" encoding="UTF-8" standalone="no"?><svg xmlns="http://www.w3.org/2000/svg" xmlns:xlink="http://www.w3.org/1999/xlink" clip-rule="evenodd" stroke-miterlimit="10" viewBox="0 0 172 126"><desc>SVG generated by Keynote</desc><defs></defs><g transform="matrix(1.00, 0.00, -0.00, -1.00, 0.0, 126.0)"><image xlink:href="F7536AF3470E40F4E97FDA4EA6ABC13E.png" width="168.00" height="119.00" transform="matrix(1.00, 0.00, -0.00, -1.00, 2.0, 120.6)" opacity="0.50"></image><path d="M 6.0 26.6 L 6.0 99.4 C 6.0 110.0 14.5 119.0 25.1 119.0 L 147.0 119.0 C 157.6 119.0 166.0 110.0 166.0 99.4 L 166.0 26.6 C 166.0 16.0 157.6 7.0 147.0 7.0 L 25.1 7.0 C 14.5 7.0 6.0 16.0 6.0 26.6 Z M 6.0 26.6 " fill="#ECAC0F"></path><image xlink:href="D4E71336655260957DC2A57B31F7C8B8.png" width="120.00" height="23.00" transform="matrix(1.00, 0.00, -0.00, -1.00, 27.0, 111.0)"></image><g><clipPath id="clip0x6000046adfe0"><path d="M 6.0 7.4 L 166.2 7.4 L 166.2 123.1 L 6.0 123.1 Z M 6.0 7.4 "></path></clipPath><g clip-path="url(#clip0x6000046adfe0)"><text xml:space="preserve" font-family="HelveticaNeue-Medium,Helvetica Neue" font-size="22.0" fill="#FEFFFE" transform="matrix(1.00, 0.00, -0.00, -1.00, 29.2, 93.0)">H</text><text xml:space="preserve" font-family="HelveticaNeue-Medium,Helvetica Neue" font-size="22.0" fill="#FEFFFE" transform="matrix(1.00, 0.00, -0.00, -1.00, 45.1, 93.0)">T</text><text xml:space="preserve" font-family="HelveticaNeue-Medium,Helvetica Neue" font-size="22.0" fill="#FEFFFE" transform="matrix(1.00, 0.00, -0.00, -1.00, 58.1, 93.0)">T</text><text xml:space="preserve" font-family="HelveticaNeue-Medium,Helvetica Neue" font-size="22.0" fill="#FEFFFE" transform="matrix(1.00, 0.00, -0.00, -1.00, 71.2, 93.0)">P</text><text xml:space="preserve" font-family="HelveticaNeue-Medium,Helvetica Neue" font-size="22.0" fill="#FEFFFE" transform="matrix(1.00, 0.00, -0.00, -1.00, 85.9, 93.0)"> </text><text xml:space="preserve" font-family="HelveticaNeue-Medium,Helvetica Neue" font-size="22.0" fill="#FEFFFE" transform="matrix(1.00, 0.00, -0.00, -1.00, 92.0, 93.0)">F</text><text xml:space="preserve" font-family="HelveticaNeue-Medium,Helvetica Neue" font-size="22.0" fill="#FEFFFE" transform="matrix(1.00, 0.00, -0.00, -1.00, 105.0, 93.0)">i</text><text xml:space="preserve" font-family="HelveticaNeue-Medium,Helvetica Neue" font-size="22.0" fill="#FEFFFE" transform="matrix(1.00, 0.00, -0.00, -1.00, 110.3, 93.0)">l</text><text xml:space="preserve" font-family="HelveticaNeue-Medium,Helvetica Neue" font-size="22.0" fill="#FEFFFE" transform="matrix(1.00, 0.00, -0.00, -1.00, 115.6, 93.0)">t</text><text xml:space="preserve" font-family="HelveticaNeue-Medium,Helvetica Neue" font-size="22.0" fill="#FEFFFE" transform="matrix(1.00, 0.00, -0.00, -1.00, 122.9, 93.0)">e</text><text xml:space="preserve" font-family="HelveticaNeue-Medium,Helvetica Neue" font-size="22.0" fill="#FEFFFE" transform="matrix(1.00, 0.00, -0.00, -1.00, 135.2, 93.0)">r</text></g></g></g></svg>