<?xml version="1.0" encoding="UTF-8" standalone="no"?><svg xmlns="http://www.w3.org/2000/svg" xmlns:xlink="http://www.w3.org/1999/xlink" clip-rule="evenodd" stroke-miterlimit="10" viewBox="0 0 146 80"><desc>SVG generated by Keynote</desc><defs></defs><g transform="matrix(1.00, 0.00, -0.00, -1.00, 0.0, 80.0)"><image xlink:href="66F003F6ED0D4F584D526C68668291F3.png" width="143.00" height="73.00" transform="matrix(1.00, 0.00, -0.00, -1.00, 1.5, 74.5)" opacity="0.50"></image><path d="M 5.5 22.3 L 5.0 57.7 C 5.0 65.9 12.1 72.0 20.3 72.0 L 125.6 72.0 C 133.8 72.0 140.0 65.9 140.0 57.7 L 140.0 22.3 C 140.0 14.1 133.8 7.0 125.6 7.0 L 20.3 7.0 C 12.1 7.0 5.5 14.1 5.5 22.3 Z M 5.5 22.3 " fill="#204C7C"></path><image xlink:href="B97619F6E6C01162F5C614A382CBFD07.png" width="124.00" height="23.00" transform="matrix(1.00, 0.00, -0.00, -1.00, 12.0, 48.0)"></image><g><clipPath id="clip0x6000046b4820"><path d="M 1.1 7.5 L 144.8 7.5 L 144.8 72.5 L 1.1 72.5 Z M 1.1 7.5 "></path></clipPath><g clip-path="url(#clip0x6000046b4820)"><text xml:space="preserve" font-family="HelveticaNeue-Medium,Helvetica Neue" font-size="18.0" fill="#FEFFFE" transform="matrix(1.00, 0.00, -0.00, -1.00, 14.1, 33.0)">P</text><text xml:space="preserve" font-family="HelveticaNeue-Medium,Helvetica Neue" font-size="18.0" fill="#FEFFFE" transform="matrix(1.00, 0.00, -0.00, -1.00, 26.1, 33.0)">r</text><text xml:space="preserve" font-family="HelveticaNeue-Medium,Helvetica Neue" font-size="18.0" fill="#FEFFFE" transform="matrix(1.00, 0.00, -0.00, -1.00, 32.1, 33.0)">o</text><text xml:space="preserve" font-family="HelveticaNeue-Medium,Helvetica Neue" font-size="18.0" fill="#FEFFFE" transform="matrix(1.00, 0.00, -0.00, -1.00, 42.8, 33.0)">x</text><text xml:space="preserve" font-family="HelveticaNeue-Medium,Helvetica Neue" font-size="18.0" fill="#FEFFFE" transform="matrix(1.00, 0.00, -0.00, -1.00, 52.5, 33.0)">y</text><text xml:space="preserve" font-family="HelveticaNeue-Medium,Helvetica Neue" font-size="18.0" fill="#FEFFFE" transform="matrix(1.00, 0.00, -0.00, -1.00, 61.8, 33.0)"> </text><text xml:space="preserve" font-family="HelveticaNeue-Medium,Helvetica Neue" font-size="18.0" fill="#FEFFFE" transform="matrix(1.00, 0.00, -0.00, -1.00, 66.8, 33.0)">H</text><text xml:space="preserve" font-family="HelveticaNeue-Medium,Helvetica Neue" font-size="18.0" fill="#FEFFFE" transform="matrix(1.00, 0.00, -0.00, -1.00, 79.8, 33.0)">a</text><text xml:space="preserve" font-family="HelveticaNeue-Medium,Helvetica Neue" font-size="18.0" fill="#FEFFFE" transform="matrix(1.00, 0.00, -0.00, -1.00, 89.8, 33.0)">n</text><text xml:space="preserve" font-family="HelveticaNeue-Medium,Helvetica Neue" font-size="18.0" fill="#FEFFFE" transform="matrix(1.00, 0.00, -0.00, -1.00, 100.1, 33.0)">d</text><text xml:space="preserve" font-family="HelveticaNeue-Medium,Helvetica Neue" font-size="18.0" fill="#FEFFFE" transform="matrix(1.00, 0.00, -0.00, -1.00, 111.1, 33.0)">l</text><text xml:space="preserve" font-family="HelveticaNeue-Medium,Helvetica Neue" font-size="18.0" fill="#FEFFFE" transform="matrix(1.00, 0.00, -0.00, -1.00, 115.5, 33.0)">e</text><text xml:space="preserve" font-family="HelveticaNeue-Medium,Helvetica Neue" font-size="18.0" fill="#FEFFFE" transform="matrix(1.00, 0.00, -0.00, -1.00, 125.5, 33.0)">r</text></g></g></g></svg>