<?xml version="1.0" encoding="UTF-8" standalone="no"?><svg xmlns="http://www.w3.org/2000/svg" xmlns:xlink="http://www.w3.org/1999/xlink" clip-rule="evenodd" stroke-miterlimit="10" viewBox="0 0 146 80"><desc>SVG generated by Keynote</desc><defs></defs><g transform="matrix(1.00, 0.00, -0.00, -1.00, 0.0, 80.0)"><image xlink:href="../../30D6610F-AF06-4C82-8570-24DBBBD4B26F/assets/66F003F6ED0D4F584D526C68668291F3.png" width="143.00" height="73.00" transform="matrix(1.00, 0.00, -0.00, -1.00, 1.5, 74.5)" opacity="0.50"></image><path d="M 5.5 22.3 L 5.0 57.7 C 5.0 65.9 12.1 72.0 20.3 72.0 L 125.6 72.0 C 133.8 72.0 140.0 65.9 140.0 57.7 L 140.0 22.3 C 140.0 14.1 133.8 7.0 125.6 7.0 L 20.3 7.0 C 12.1 7.0 5.5 14.1 5.5 22.3 Z M 5.5 22.3 " fill="#204C7C"></path><image xlink:href="33B3804406CF6C1C7CF8774DD0F08F4B.png" width="117.00" height="24.00" transform="matrix(1.00, 0.00, -0.00, -1.00, 15.0, 60.0)"></image><g><clipPath id="clip0x6000046b50c0"><path d="M 2.2 7.5 L 143.7 7.5 L 143.7 72.5 L 2.2 72.5 Z M 2.2 7.5 "></path></clipPath><g clip-path="url(#clip0x6000046b50c0)"><text xml:space="preserve" font-family="HelveticaNeue-Medium,Helvetica Neue" font-size="18.0" fill="#FEFFFE" transform="matrix(1.00, 0.00, -0.00, -1.00, 17.1, 44.6)">I</text><text xml:space="preserve" font-family="HelveticaNeue-Medium,Helvetica Neue" font-size="18.0" fill="#FEFFFE" transform="matrix(1.00, 0.00, -0.00, -1.00, 22.1, 44.6)">m</text><text xml:space="preserve" font-family="HelveticaNeue-Medium,Helvetica Neue" font-size="18.0" fill="#FEFFFE" transform="matrix(1.00, 0.00, -0.00, -1.00, 37.8, 44.6)">a</text><text xml:space="preserve" font-family="HelveticaNeue-Medium,Helvetica Neue" font-size="18.0" fill="#FEFFFE" transform="matrix(1.00, 0.00, -0.00, -1.00, 47.8, 44.6)">g</text><text xml:space="preserve" font-family="HelveticaNeue-Medium,Helvetica Neue" font-size="18.0" fill="#FEFFFE" transform="matrix(1.00, 0.00, -0.00, -1.00, 58.5, 44.6)">e</text><text xml:space="preserve" font-family="HelveticaNeue-Medium,Helvetica Neue" font-size="18.0" fill="#FEFFFE" transform="matrix(1.00, 0.00, -0.00, -1.00, 68.5, 44.6)"> </text><text xml:space="preserve" font-family="HelveticaNeue-Medium,Helvetica Neue" font-size="18.0" fill="#FEFFFE" transform="matrix(1.00, 0.00, -0.00, -1.00, 73.5, 44.6)">R</text><text xml:space="preserve" font-family="HelveticaNeue-Medium,Helvetica Neue" font-size="18.0" fill="#FEFFFE" transform="matrix(1.00, 0.00, -0.00, -1.00, 86.1, 44.6)">e</text><text xml:space="preserve" font-family="HelveticaNeue-Medium,Helvetica Neue" font-size="18.0" fill="#FEFFFE" transform="matrix(1.00, 0.00, -0.00, -1.00, 96.2, 44.6)">s</text><text xml:space="preserve" font-family="HelveticaNeue-Medium,Helvetica Neue" font-size="18.0" fill="#FEFFFE" transform="matrix(1.00, 0.00, -0.00, -1.00, 105.5, 44.6)">i</text><text xml:space="preserve" font-family="HelveticaNeue-Medium,Helvetica Neue" font-size="18.0" fill="#FEFFFE" transform="matrix(1.00, 0.00, -0.00, -1.00, 109.8, 44.6)">z</text><text xml:space="preserve" font-family="HelveticaNeue-Medium,Helvetica Neue" font-size="18.0" fill="#FEFFFE" transform="matrix(1.00, 0.00, -0.00, -1.00, 118.8, 44.6)">e</text><text xml:space="preserve" font-family="HelveticaNeue-Medium,Helvetica Neue" font-size="18.0" fill="#FEFFFE" transform="matrix(1.00, 0.00, -0.00, -1.00, 128.8, 44.6)"> </text></g></g><image xlink:href="C988A852E2D87977BDB77683F1F2AC31.png" width="71.00" height="20.00" transform="matrix(1.00, 0.00, -0.00, -1.00, 38.0, 37.0)"></image><g><clipPath id="clip0x6000046b59c0"><path d="M 2.2 7.5 L 143.7 7.5 L 143.7 72.5 L 2.2 72.5 Z M 2.2 7.5 "></path></clipPath><g clip-path="url(#clip0x6000046b59c0)"><text xml:space="preserve" font-family="HelveticaNeue-Medium,Helvetica Neue" font-size="18.0" fill="#FEFFFE" transform="matrix(1.00, 0.00, -0.00, -1.00, 40.5, 21.6)">H</text><text xml:space="preserve" font-family="HelveticaNeue-Medium,Helvetica Neue" font-size="18.0" fill="#FEFFFE" transform="matrix(1.00, 0.00, -0.00, -1.00, 53.5, 21.6)">a</text><text xml:space="preserve" font-family="HelveticaNeue-Medium,Helvetica Neue" font-size="18.0" fill="#FEFFFE" transform="matrix(1.00, 0.00, -0.00, -1.00, 63.5, 21.6)">n</text><text xml:space="preserve" font-family="HelveticaNeue-Medium,Helvetica Neue" font-size="18.0" fill="#FEFFFE" transform="matrix(1.00, 0.00, -0.00, -1.00, 73.8, 21.6)">d</text><text xml:space="preserve" font-family="HelveticaNeue-Medium,Helvetica Neue" font-size="18.0" fill="#FEFFFE" transform="matrix(1.00, 0.00, -0.00, -1.00, 84.8, 21.6)">l</text><text xml:space="preserve" font-family="HelveticaNeue-Medium,Helvetica Neue" font-size="18.0" fill="#FEFFFE" transform="matrix(1.00, 0.00, -0.00, -1.00, 89.1, 21.6)">e</text><text xml:space="preserve" font-family="HelveticaNeue-Medium,Helvetica Neue" font-size="18.0" fill="#FEFFFE" transform="matrix(1.00, 0.00, -0.00, -1.00, 99.1, 21.6)">r</text></g></g></g></svg>