<?xml version="1.0" encoding="UTF-8" standalone="no"?><svg xmlns="http://www.w3.org/2000/svg" xmlns:xlink="http://www.w3.org/1999/xlink" clip-rule="evenodd" stroke-miterlimit="10" viewBox="0 0 163 111"><desc>SVG generated by Keynote</desc><defs></defs><g transform="matrix(1.00, 0.00, -0.00, -1.00, 0.0, 111.0)"><image xlink:href="../../AEBBCE8A-14D4-4477-AECA-12F28B623FB9/assets/50C84FBD49D4FF764F4BBE0E6B7B374E.png" width="160.00" height="104.00" transform="matrix(1.00, 0.00, -0.00, -1.00, 1.6, 105.8)" opacity="0.50"></image><g><clipPath id="clip0x6080034b3aa0"><path d="M 5.6 24.4 L 6.0 87.1 C 6.0 96.3 13.1 104.0 22.3 104.0 L 141.2 104.0 C 150.4 104.0 158.0 96.3 158.0 87.1 L 158.0 24.4 C 158.0 15.2 150.4 8.0 141.2 8.0 L 22.3 8.0 C 13.1 8.0 5.6 15.2 5.6 24.4 Z M 5.6 24.4 "></path></clipPath><g clip-path="url(#clip0x6080034b3aa0)"><image xlink:href="../../AC264CEF-AE8D-43F0-A92B-1A5A6C63C05C/assets/66812298EC73D46BADCACA9889D2977F.png" width="512.00" height="512.00" transform="matrix(0.50, 0.00, -0.00, -0.50, 5.6, 104.0)"></image></g></g><image xlink:href="../../AEBBCE8A-14D4-4477-AECA-12F28B623FB9/assets/68B5DD1EB342807977298AD35E50B91E.png" width="62.00" height="26.00" transform="matrix(1.00, 0.00, -0.00, -1.00, 51.0, 83.0)"></image><g><clipPath id="clip0x6000046b3440"><path d="M -1.1 7.7 L 164.6 7.7 L 164.6 103.8 L -1.1 103.8 Z M -1.1 7.7 "></path></clipPath><g clip-path="url(#clip0x6000046b3440)"><text xml:space="preserve" font-family="HelveticaNeue-Medium,Helvetica Neue" font-size="26.0" fill="#FEFFFE" transform="matrix(1.00, 0.00, -0.00, -1.00, 52.4, 61.8)">M</text><text xml:space="preserve" font-family="HelveticaNeue-Medium,Helvetica Neue" font-size="26.0" fill="#FEFFFE" transform="matrix(1.00, 0.00, -0.00, -1.00, 75.5, 61.8)">a</text><text xml:space="preserve" font-family="HelveticaNeue-Medium,Helvetica Neue" font-size="26.0" fill="#FEFFFE" transform="matrix(1.00, 0.00, -0.00, -1.00, 89.9, 61.8)">i</text><text xml:space="preserve" font-family="HelveticaNeue-Medium,Helvetica Neue" font-size="26.0" fill="#FEFFFE" transform="matrix(1.00, 0.00, -0.00, -1.00, 96.2, 61.8)">n</text><text xml:space="preserve" font-family="HelveticaNeue-Medium,Helvetica Neue" font-size="26.0" fill="#FEFFFE" transform="matrix(1.00, 0.00, -0.00, -1.00, 111.1, 61.8)"> </text></g></g><image xlink:href="../../AEBBCE8A-14D4-4477-AECA-12F28B623FB9/assets/958FE03850529F2B1E8C9AC9B0B328F9.png" width="86.00" height="26.00" transform="matrix(1.00, 0.00, -0.00, -1.00, 40.0, 51.0)"></image><g><clipPath id="clip0x6000046b36e0"><path d="M -1.1 7.7 L 164.6 7.7 L 164.6 103.8 L -1.1 103.8 Z M -1.1 7.7 "></path></clipPath><g clip-path="url(#clip0x6000046b36e0)"><text xml:space="preserve" font-family="HelveticaNeue-Medium,Helvetica Neue" font-size="26.0" fill="#FEFFFE" transform="matrix(1.00, 0.00, -0.00, -1.00, 41.3, 29.8)">R</text><text xml:space="preserve" font-family="HelveticaNeue-Medium,Helvetica Neue" font-size="26.0" fill="#FEFFFE" transform="matrix(1.00, 0.00, -0.00, -1.00, 59.6, 29.8)">o</text><text xml:space="preserve" font-family="HelveticaNeue-Medium,Helvetica Neue" font-size="26.0" fill="#FEFFFE" transform="matrix(1.00, 0.00, -0.00, -1.00, 75.0, 29.8)">u</text><text xml:space="preserve" font-family="HelveticaNeue-Medium,Helvetica Neue" font-size="26.0" fill="#FEFFFE" transform="matrix(1.00, 0.00, -0.00, -1.00, 89.9, 29.8)">t</text><text xml:space="preserve" font-family="HelveticaNeue-Medium,Helvetica Neue" font-size="26.0" fill="#FEFFFE" transform="matrix(1.00, 0.00, -0.00, -1.00, 98.6, 29.8)">e</text><text xml:space="preserve" font-family="HelveticaNeue-Medium,Helvetica Neue" font-size="26.0" fill="#FEFFFE" transform="matrix(1.00, 0.00, -0.00, -1.00, 113.0, 29.8)">r</text></g></g></g></svg>