<?xml version="1.0" encoding="UTF-8" standalone="no"?><svg xmlns="http://www.w3.org/2000/svg" xmlns:xlink="http://www.w3.org/1999/xlink" clip-rule="evenodd" stroke-miterlimit="10" viewBox="0 0 194 67"><desc>SVG generated by Keynote</desc><defs></defs><g transform="matrix(1.00, 0.00, -0.00, -1.00, 0.0, 67.0)"><image xlink:href="E578D5DED3937DA0A2408619162FA341.png" width="191.00" height="60.00" transform="matrix(1.00, 0.00, -0.00, -1.01, 1.8, 61.5)" opacity="0.50"></image><g><clipPath id="clip0x6080024b2600"><path d="M 5.8 22.2 L 6.0 44.5 C 6.0 52.8 12.5 60.0 20.8 60.0 L 173.8 60.0 C 182.1 60.0 189.0 52.8 189.0 44.5 L 189.0 22.2 C 189.0 13.9 182.1 7.0 173.8 7.0 L 20.8 7.0 C 12.5 7.0 5.8 13.9 5.8 22.2 Z M 5.8 22.2 "></path></clipPath><g clip-path="url(#clip0x6080024b2600)"><image xlink:href="../../82A921EE-8E53-40EE-A95B-4C038CB6B5A6/assets/D80EC8B1EF239560EB871BFEE640DE30.png" width="512.00" height="512.00" transform="matrix(0.50, 0.00, -0.00, -0.50, 5.8, 60.0)"></image></g></g><image xlink:href="A2560F234DB764BDA21EA8134B81380B.png" width="153.00" height="28.00" transform="matrix(1.00, 0.00, -0.00, -1.00, 21.0, 46.0)"></image><g><clipPath id="clip0x6080024b2180"><path d="M 0.1 4.5 L 194.5 4.5 L 194.5 60.4 L 0.1 60.4 Z M 0.1 4.5 "></path></clipPath><g clip-path="url(#clip0x6080024b2180)"><text xml:space="preserve" font-family="HelveticaNeue-Medium,Helvetica Neue" font-size="28.0" fill="#FEFFFE" transform="matrix(1.00, 0.00, -0.00, -1.00, 23.7, 22.9)">S</text><text xml:space="preserve" font-family="HelveticaNeue-Medium,Helvetica Neue" font-size="28.0" fill="#FEFFFE" transform="matrix(1.00, 0.00, -0.00, -1.00, 41.8, 22.9)">t</text><text xml:space="preserve" font-family="HelveticaNeue-Medium,Helvetica Neue" font-size="28.0" fill="#FEFFFE" transform="matrix(1.00, 0.00, -0.00, -1.00, 51.1, 22.9)">r</text><text xml:space="preserve" font-family="HelveticaNeue-Medium,Helvetica Neue" font-size="28.0" fill="#FEFFFE" transform="matrix(1.00, 0.00, -0.00, -1.00, 60.5, 22.9)">e</text><text xml:space="preserve" font-family="HelveticaNeue-Medium,Helvetica Neue" font-size="28.0" fill="#FEFFFE" transform="matrix(1.00, 0.00, -0.00, -1.00, 76.0, 22.9)">a</text><text xml:space="preserve" font-family="HelveticaNeue-Medium,Helvetica Neue" font-size="28.0" fill="#FEFFFE" transform="matrix(1.00, 0.00, -0.00, -1.00, 91.6, 22.9)">m</text><text xml:space="preserve" font-family="HelveticaNeue-Medium,Helvetica Neue" font-size="28.0" fill="#FEFFFE" transform="matrix(1.00, 0.00, -0.00, -1.00, 116.0, 22.9)">a</text><text xml:space="preserve" font-family="HelveticaNeue-Medium,Helvetica Neue" font-size="28.0" fill="#FEFFFE" transform="matrix(1.00, 0.00, -0.00, -1.00, 131.5, 22.9)">b</text><text xml:space="preserve" font-family="HelveticaNeue-Medium,Helvetica Neue" font-size="28.0" fill="#FEFFFE" transform="matrix(1.00, 0.00, -0.00, -1.00, 148.7, 22.9)">l</text><text xml:space="preserve" font-family="HelveticaNeue-Medium,Helvetica Neue" font-size="28.0" fill="#FEFFFE" transform="matrix(1.00, 0.00, -0.00, -1.00, 155.4, 22.9)">e</text></g></g></g></svg>