<?xml version="1.0" encoding="UTF-8" standalone="no"?><svg xmlns="http://www.w3.org/2000/svg" xmlns:xlink="http://www.w3.org/1999/xlink" clip-rule="evenodd" stroke-miterlimit="10" viewBox="0 0 194 68"><desc>SVG generated by Keynote</desc><defs></defs><g transform="matrix(1.00, 0.00, -0.00, -1.00, 0.0, 68.0)"><image xlink:href="../../37859C58-3FA1-4996-8EC0-129FF4802801/assets/CB99CD33F859E57727D4A834EE85DE39.png" width="191.00" height="60.00" transform="matrix(1.00, 0.00, -0.00, -1.01, 1.8, 62.2)" opacity="0.50"></image><g><clipPath id="clip0x600002caed60"><path d="M 5.8 22.9 L 6.0 45.2 C 6.0 53.5 12.5 60.0 20.8 60.0 L 173.8 60.0 C 182.1 60.0 189.0 53.5 189.0 45.2 L 189.0 22.9 C 189.0 14.6 182.1 8.0 173.8 8.0 L 20.8 8.0 C 12.5 8.0 5.8 14.6 5.8 22.9 Z M 5.8 22.9 "></path></clipPath><g clip-path="url(#clip0x600002caed60)"><image xlink:href="../../82A921EE-8E53-40EE-A95B-4C038CB6B5A6/assets/D80EC8B1EF239560EB871BFEE640DE30.png" width="512.00" height="512.00" transform="matrix(0.50, 0.00, -0.00, -0.50, 5.8, 60.0)"></image></g></g><image xlink:href="0B40B411E90B4C7CBC41B96698FDE6FC.png" width="84.00" height="28.00" transform="matrix(1.00, 0.00, -0.00, -1.00, 55.0, 47.0)"></image><g><clipPath id="clip0x600002caf240"><path d="M 0.1 5.2 L 194.5 5.2 L 194.5 61.0 L 0.1 61.0 Z M 0.1 5.2 "></path></clipPath><g clip-path="url(#clip0x600002caf240)"><text xml:space="preserve" font-family="HelveticaNeue-Medium,Helvetica Neue" font-size="28.0" fill="#FEFFFE" transform="matrix(1.00, 0.00, -0.00, -1.00, 58.9, 23.6)">A</text><text xml:space="preserve" font-family="HelveticaNeue-Medium,Helvetica Neue" font-size="28.0" fill="#FEFFFE" transform="matrix(1.00, 0.00, -0.00, -1.00, 77.6, 23.6)">R</text><text xml:space="preserve" font-family="HelveticaNeue-Medium,Helvetica Neue" font-size="28.0" fill="#FEFFFE" transform="matrix(1.00, 0.00, -0.00, -1.00, 97.3, 23.6)">G</text><text xml:space="preserve" font-family="HelveticaNeue-Medium,Helvetica Neue" font-size="28.0" fill="#FEFFFE" transform="matrix(1.00, 0.00, -0.00, -1.00, 118.6, 23.6)">V</text></g></g></g></svg>