<?xml version="1.0" encoding="UTF-8" standalone="no"?><svg xmlns="http://www.w3.org/2000/svg" xmlns:xlink="http://www.w3.org/1999/xlink" clip-rule="evenodd" stroke-miterlimit="10" viewBox="0 0 168 68"><desc>SVG generated by Keynote</desc><defs></defs><g transform="matrix(1.00, 0.00, -0.00, -1.00, 0.0, 68.0)"><image xlink:href="../../37859C58-3FA1-4996-8EC0-129FF4802801/assets/58E33860A37B2802C4DD95BEBE890E11.png" width="165.00" height="60.00" transform="matrix(1.00, 0.00, -0.00, -1.01, 1.3, 62.2)" opacity="0.50"></image><g><clipPath id="clip0x600002cb0080"><path d="M 5.3 22.9 L 5.0 45.2 C 5.0 53.5 12.0 60.0 20.3 60.0 L 147.7 60.0 C 156.0 60.0 163.0 53.5 163.0 45.2 L 163.0 22.9 C 163.0 14.6 156.0 8.0 147.7 8.0 L 20.3 8.0 C 12.0 8.0 5.3 14.6 5.3 22.9 Z M 5.3 22.9 "></path></clipPath><g clip-path="url(#clip0x600002cb0080)"><image xlink:href="../../37859C58-3FA1-4996-8EC0-129FF4802801/assets/8F63192AD6A44D2D90582D5B6D6FACEE.png" width="512.00" height="512.00" transform="matrix(0.50, 0.00, -0.00, -0.50, 5.0, 60.0)"></image></g></g><image xlink:href="1E4D14063B81C5D021A6696D1C920187.png" width="126.00" height="30.00" transform="matrix(1.00, 0.00, -0.00, -1.00, 21.0, 48.0)"></image><g><clipPath id="clip0x600002cb0aa0"><path d="M 0.4 3.7 L 167.7 3.7 L 167.7 63.7 L 0.4 63.7 Z M 0.4 3.7 "></path></clipPath><g clip-path="url(#clip0x600002cb0aa0)"><text xml:space="preserve" font-family="HelveticaNeue-Medium,Helvetica Neue" font-size="30.0" fill="#FEFFFE" transform="matrix(1.00, 0.00, -0.00, -1.00, 24.0, 23.1)">S</text><text xml:space="preserve" font-family="HelveticaNeue-Medium,Helvetica Neue" font-size="30.0" fill="#FEFFFE" transform="matrix(1.00, 0.00, -0.00, -1.00, 43.4, 23.1)">T</text><text xml:space="preserve" font-family="HelveticaNeue-Medium,Helvetica Neue" font-size="30.0" fill="#FEFFFE" transform="matrix(1.00, 0.00, -0.00, -1.00, 61.2, 23.1)">D</text><text xml:space="preserve" font-family="HelveticaNeue-Medium,Helvetica Neue" font-size="30.0" fill="#FEFFFE" transform="matrix(1.00, 0.00, -0.00, -1.00, 82.9, 23.1)">E</text><text xml:space="preserve" font-family="HelveticaNeue-Medium,Helvetica Neue" font-size="30.0" fill="#FEFFFE" transform="matrix(1.00, 0.00, -0.00, -1.00, 101.8, 23.1)">R</text><text xml:space="preserve" font-family="HelveticaNeue-Medium,Helvetica Neue" font-size="30.0" fill="#FEFFFE" transform="matrix(1.00, 0.00, -0.00, -1.00, 122.9, 23.1)">R</text></g></g></g></svg>