<?xml version="1.0" encoding="UTF-8" standalone="no"?><svg xmlns="http://www.w3.org/2000/svg" xmlns:xlink="http://www.w3.org/1999/xlink" clip-rule="evenodd" stroke-miterlimit="10" viewBox="0 0 194 68"><desc>SVG generated by Keynote</desc><defs></defs><g transform="matrix(1.00, 0.00, -0.00, -1.00, 0.0, 68.0)"><g><clipPath id="clip0x6000014af300"><path d="M 0.8 1.0 L 193.2 1.0 L 193.2 67.3 L 0.8 67.3 Z M 0.8 1.0 "></path></clipPath><g clip-path="url(#clip0x6000014af300)"><image xlink:href="../../82A921EE-8E53-40EE-A95B-4C038CB6B5A6/assets/3DADDC17DD85622D5498EBF62681BA8E.png" width="190.00" height="64.00" transform="matrix(1.00, 0.00, -0.00, -1.00, 1.8, 66.3)" opacity="0.50"></image><path d="M 6.0 64.0 L 188.0 64.0 L 188.0 8.0 L 6.0 8.0 Z M 5.8 64.3 " fill="#FEFFFE"></path></g></g><g><clipPath id="clip0x6000014afa80"><path d="M 17.8 14.6 L 74.7 14.6 L 74.7 54.0 L 17.8 54.0 Z M 17.8 14.6 "></path></clipPath><g clip-path="url(#clip0x6000014afa80)"><image xlink:href="../../C5E25466-61BD-4CB5-85F4-3C1541961117/assets/7E455256080EAC733CD505833AA65D04.png" width="116.00" height="80.00" transform="matrix(0.49, 0.00, -0.00, -0.49, 18.0, 54.0)"></image></g></g><image xlink:href="../../82A921EE-8E53-40EE-A95B-4C038CB6B5A6/assets/A60FBF8DC14D3FD8C6245AB8F7446BA9.png" width="103.00" height="32.00" transform="matrix(1.00, 0.00, -0.00, -1.00, 77.0, 50.0)"></image><g><clipPath id="clip0x6080012ae160"><path d="M 66.7 4.1 L 189.0 4.1 L 189.0 64.2 L 66.7 64.2 Z M 66.7 4.1 "></path></clipPath><g clip-path="url(#clip0x6080012ae160)"><text xml:space="preserve" font-family="Georgia,Georgia" font-size="30.0" fill="#000000" transform="matrix(1.00, 0.00, -0.00, -1.00, 79.7, 25.2)">S</text><text xml:space="preserve" font-family="Georgia,Georgia" font-size="30.0" fill="#000000" transform="matrix(1.00, 0.00, -0.00, -1.00, 96.5, 25.2)">i</text><text xml:space="preserve" font-family="Georgia,Georgia" font-size="30.0" fill="#000000" transform="matrix(1.00, 0.00, -0.00, -1.00, 105.3, 25.2)">n</text><text xml:space="preserve" font-family="Georgia,Georgia" font-size="30.0" fill="#000000" transform="matrix(1.00, 0.00, -0.00, -1.00, 123.1, 25.2)">a</text><text xml:space="preserve" font-family="Georgia,Georgia" font-size="30.0" fill="#000000" transform="matrix(1.00, 0.00, -0.00, -1.00, 138.2, 25.2)">t</text><text xml:space="preserve" font-family="Georgia,Georgia" font-size="30.0" fill="#000000" transform="matrix(1.00, 0.00, -0.00, -1.00, 148.5, 25.2)">r</text><text xml:space="preserve" font-family="Georgia,Georgia" font-size="30.0" fill="#000000" transform="matrix(1.00, 0.00, -0.00, -1.00, 160.8, 25.2)">a</text></g></g></g></svg>