<?xml version="1.0" encoding="UTF-8" standalone="no"?><svg xmlns="http://www.w3.org/2000/svg" xmlns:xlink="http://www.w3.org/1999/xlink" clip-rule="evenodd" stroke-miterlimit="10" viewBox="0 0 808 75"><desc>SVG generated by Keynote</desc><defs></defs><g transform="matrix(1.00, 0.00, -0.00, -1.00, 0.0, 75.0)"><path d="M 2.0 73.0 L 806.0 73.0 L 806.0 1.0 L 2.0 1.0 Z M 1.9 73.1 " fill="#242424"></path><g><clipPath id="clip0x600003caf2a0"><path d="M -5.9 -8.6 L 815.0 -8.6 L 815.0 78.9 L -5.9 78.9 Z M -5.9 -8.6 "></path></clipPath><g clip-path="url(#clip0x600003caf2a0)"><text xml:space="preserve" font-family="Monaco,Monaco" font-size="25.0" fill="#EAEAEA" transform="matrix(1.00, 0.00, -0.00, -1.00, 5.9, 11.4)"> </text><text xml:space="preserve" font-family="Monaco,Monaco" font-size="25.0" fill="#EAEAEA" transform="matrix(1.00, 0.00, -0.00, -1.00, 20.9, 11.4)"> </text><text xml:space="preserve" font-family="Monaco,Monaco" font-size="25.0" fill="#EAEAEA" transform="matrix(1.00, 0.00, -0.00, -1.00, 35.9, 11.4)"> </text><text xml:space="preserve" font-family="Monaco,Monaco" font-size="25.0" fill="#EAEAEA" transform="matrix(1.00, 0.00, -0.00, -1.00, 51.0, 11.4)"> </text></g></g><image xlink:href="../../03871A76-34D6-48F9-AB14-723A5B5FB04F/assets/8A759CC8D2C98B98621CECC7285A9DFD.png" width="366.00" height="35.00" transform="matrix(1.00, 0.00, -0.00, -1.00, 63.0, 34.0)"></image><g><clipPath id="clip0x608002ab8d80"><path d="M -5.9 -8.6 L 815.0 -8.6 L 815.0 78.9 L -5.9 78.9 Z M -5.9 -8.6 "></path></clipPath><g clip-path="url(#clip0x608002ab8d80)"><text xml:space="preserve" font-family="Monaco,Monaco" font-size="25.0" fill="#B7D936" transform="matrix(1.00, 0.00, -0.00, -1.00, 65.9, 11.4)">s</text><text xml:space="preserve" font-family="Monaco,Monaco" font-size="25.0" fill="#B7D936" transform="matrix(1.00, 0.00, -0.00, -1.00, 81.0, 11.4)">e</text><text xml:space="preserve" font-family="Monaco,Monaco" font-size="25.0" fill="#B7D936" transform="matrix(1.00, 0.00, -0.00, -1.00, 96.0, 11.4)">t</text><text xml:space="preserve" font-family="Monaco,Monaco" font-size="25.0" fill="#B7D936" transform="matrix(1.00, 0.00, -0.00, -1.00, 111.0, 11.4)">C</text><text xml:space="preserve" font-family="Monaco,Monaco" font-size="25.0" fill="#B7D936" transform="matrix(1.00, 0.00, -0.00, -1.00, 126.0, 11.4)">o</text><text xml:space="preserve" font-family="Monaco,Monaco" font-size="25.0" fill="#B7D936" transform="matrix(1.00, 0.00, -0.00, -1.00, 141.0, 11.4)">n</text><text xml:space="preserve" font-family="Monaco,Monaco" font-size="25.0" fill="#B7D936" transform="matrix(1.00, 0.00, -0.00, -1.00, 156.0, 11.4)">t</text><text xml:space="preserve" font-family="Monaco,Monaco" font-size="25.0" fill="#B7D936" transform="matrix(1.00, 0.00, -0.00, -1.00, 171.0, 11.4)">e</text><text xml:space="preserve" font-family="Monaco,Monaco" font-size="25.0" fill="#B7D936" transform="matrix(1.00, 0.00, -0.00, -1.00, 186.0, 11.4)">n</text><text xml:space="preserve" font-family="Monaco,Monaco" font-size="25.0" fill="#B7D936" transform="matrix(1.00, 0.00, -0.00, -1.00, 201.0, 11.4)">t</text><text xml:space="preserve" font-family="Monaco,Monaco" font-size="25.0" fill="#B7D936" transform="matrix(1.00, 0.00, -0.00, -1.00, 216.0, 11.4)">E</text><text xml:space="preserve" font-family="Monaco,Monaco" font-size="25.0" fill="#B7D936" transform="matrix(1.00, 0.00, -0.00, -1.00, 231.0, 11.4)">n</text><text xml:space="preserve" font-family="Monaco,Monaco" font-size="25.0" fill="#B7D936" transform="matrix(1.00, 0.00, -0.00, -1.00, 246.0, 11.4)">c</text><text xml:space="preserve" font-family="Monaco,Monaco" font-size="25.0" fill="#B7D936" transform="matrix(1.00, 0.00, -0.00, -1.00, 261.0, 11.4)">o</text><text xml:space="preserve" font-family="Monaco,Monaco" font-size="25.0" fill="#B7D936" transform="matrix(1.00, 0.00, -0.00, -1.00, 276.0, 11.4)">d</text><text xml:space="preserve" font-family="Monaco,Monaco" font-size="25.0" fill="#B7D936" transform="matrix(1.00, 0.00, -0.00, -1.00, 291.0, 11.4)">i</text><text xml:space="preserve" font-family="Monaco,Monaco" font-size="25.0" fill="#B7D936" transform="matrix(1.00, 0.00, -0.00, -1.00, 306.0, 11.4)">n</text><text xml:space="preserve" font-family="Monaco,Monaco" font-size="25.0" fill="#B7D936" transform="matrix(1.00, 0.00, -0.00, -1.00, 321.0, 11.4)">g</text><text xml:space="preserve" font-family="Monaco,Monaco" font-size="25.0" fill="#B7D936" transform="matrix(1.00, 0.00, -0.00, -1.00, 336.0, 11.4)">H</text><text xml:space="preserve" font-family="Monaco,Monaco" font-size="25.0" fill="#B7D936" transform="matrix(1.00, 0.00, -0.00, -1.00, 351.0, 11.4)">e</text><text xml:space="preserve" font-family="Monaco,Monaco" font-size="25.0" fill="#B7D936" transform="matrix(1.00, 0.00, -0.00, -1.00, 366.0, 11.4)">a</text><text xml:space="preserve" font-family="Monaco,Monaco" font-size="25.0" fill="#B7D936" transform="matrix(1.00, 0.00, -0.00, -1.00, 381.0, 11.4)">d</text><text xml:space="preserve" font-family="Monaco,Monaco" font-size="25.0" fill="#B7D936" transform="matrix(1.00, 0.00, -0.00, -1.00, 396.1, 11.4)">e</text><text xml:space="preserve" font-family="Monaco,Monaco" font-size="25.0" fill="#B7D936" transform="matrix(1.00, 0.00, -0.00, -1.00, 411.1, 11.4)">r</text></g></g><image xlink:href="../../03871A76-34D6-48F9-AB14-723A5B5FB04F/assets/9203A4EF74F6B2423C8CE50702DA66C5.png" width="214.00" height="34.00" transform="matrix(1.00, 0.00, -0.00, -1.00, 424.0, 34.0)"></image><g><clipPath id="clip0x608002ab9740"><path d="M -5.9 -8.6 L 815.0 -8.6 L 815.0 78.9 L -5.9 78.9 Z M -5.9 -8.6 "></path></clipPath><g clip-path="url(#clip0x608002ab9740)"><text xml:space="preserve" font-family="Monaco,Monaco" font-size="25.0" fill="#EAEAEA" transform="matrix(1.00, 0.00, -0.00, -1.00, 426.0, 11.4)">(</text><text xml:space="preserve" font-family="Monaco,Monaco" font-size="25.0" fill="#EAEAEA" transform="matrix(1.00, 0.00, -0.00, -1.00, 441.0, 11.4)">r</text><text xml:space="preserve" font-family="Monaco,Monaco" font-size="25.0" fill="#EAEAEA" transform="matrix(1.00, 0.00, -0.00, -1.00, 456.0, 11.4)">e</text><text xml:space="preserve" font-family="Monaco,Monaco" font-size="25.0" fill="#EAEAEA" transform="matrix(1.00, 0.00, -0.00, -1.00, 471.0, 11.4)">s</text><text xml:space="preserve" font-family="Monaco,Monaco" font-size="25.0" fill="#EAEAEA" transform="matrix(1.00, 0.00, -0.00, -1.00, 486.0, 11.4)">p</text><text xml:space="preserve" font-family="Monaco,Monaco" font-size="25.0" fill="#EAEAEA" transform="matrix(1.00, 0.00, -0.00, -1.00, 501.0, 11.4)">o</text><text xml:space="preserve" font-family="Monaco,Monaco" font-size="25.0" fill="#EAEAEA" transform="matrix(1.00, 0.00, -0.00, -1.00, 516.0, 11.4)">n</text><text xml:space="preserve" font-family="Monaco,Monaco" font-size="25.0" fill="#EAEAEA" transform="matrix(1.00, 0.00, -0.00, -1.00, 531.0, 11.4)">s</text><text xml:space="preserve" font-family="Monaco,Monaco" font-size="25.0" fill="#EAEAEA" transform="matrix(1.00, 0.00, -0.00, -1.00, 546.0, 11.4)">e</text><text xml:space="preserve" font-family="Monaco,Monaco" font-size="25.0" fill="#EAEAEA" transform="matrix(1.00, 0.00, -0.00, -1.00, 561.0, 11.4)">H</text><text xml:space="preserve" font-family="Monaco,Monaco" font-size="25.0" fill="#EAEAEA" transform="matrix(1.00, 0.00, -0.00, -1.00, 576.1, 11.4)">e</text><text xml:space="preserve" font-family="Monaco,Monaco" font-size="25.0" fill="#EAEAEA" transform="matrix(1.00, 0.00, -0.00, -1.00, 591.1, 11.4)">a</text><text xml:space="preserve" font-family="Monaco,Monaco" font-size="25.0" fill="#EAEAEA" transform="matrix(1.00, 0.00, -0.00, -1.00, 606.1, 11.4)">d</text><text xml:space="preserve" font-family="Monaco,Monaco" font-size="25.0" fill="#EAEAEA" transform="matrix(1.00, 0.00, -0.00, -1.00, 621.1, 11.4)">)</text></g></g><g><clipPath id="clip0x608002aba040"><path d="M -5.9 -8.6 L 815.0 -8.6 L 815.0 78.9 L -5.9 78.9 Z M -5.9 -8.6 "></path></clipPath><g clip-path="url(#clip0x608002aba040)"><text xml:space="preserve" font-family="Monaco,Monaco" font-size="25.0" fill="#EAEAEA" transform="matrix(1.00, 0.00, -0.00, -1.00, 636.0, 11.4)"> </text><text xml:space="preserve" font-family="Monaco,Monaco" font-size="25.0" fill="#EAEAEA" transform="matrix(1.00, 0.00, -0.00, -1.00, 651.0, 11.4)"> </text><text xml:space="preserve" font-family="Monaco,Monaco" font-size="25.0" fill="#EAEAEA" transform="matrix(1.00, 0.00, -0.00, -1.00, 666.0, 11.4)"> </text><text xml:space="preserve" font-family="Monaco,Monaco" font-size="25.0" fill="#EAEAEA" transform="matrix(1.00, 0.00, -0.00, -1.00, 681.1, 11.4)"> </text><text xml:space="preserve" font-family="Monaco,Monaco" font-size="25.0" fill="#EAEAEA" transform="matrix(1.00, 0.00, -0.00, -1.00, 696.1, 11.4)"> </text><text xml:space="preserve" font-family="Monaco,Monaco" font-size="25.0" fill="#EAEAEA" transform="matrix(1.00, 0.00, -0.00, -1.00, 711.1, 11.4)"> </text><text xml:space="preserve" font-family="Monaco,Monaco" font-size="25.0" fill="#EAEAEA" transform="matrix(1.00, 0.00, -0.00, -1.00, 726.1, 11.4)"> </text><text xml:space="preserve" font-family="Monaco,Monaco" font-size="25.0" fill="#EAEAEA" transform="matrix(1.00, 0.00, -0.00, -1.00, 741.1, 11.4)"> </text><text xml:space="preserve" font-family="Monaco,Monaco" font-size="25.0" fill="#EAEAEA" transform="matrix(1.00, 0.00, -0.00, -1.00, 756.1, 11.4)"> </text><text xml:space="preserve" font-family="Monaco,Monaco" font-size="25.0" fill="#EAEAEA" transform="matrix(1.00, 0.00, -0.00, -1.00, 771.1, 11.4)"> </text><text xml:space="preserve" font-family="Monaco,Monaco" font-size="25.0" fill="#EAEAEA" transform="matrix(1.00, 0.00, -0.00, -1.00, 786.1, 11.4)"> </text></g></g></g></svg>