<?xml version="1.0" encoding="UTF-8" standalone="no"?><svg xmlns="http://www.w3.org/2000/svg" xmlns:xlink="http://www.w3.org/1999/xlink" clip-rule="evenodd" stroke-miterlimit="10" viewBox="0 0 808 42"><desc>SVG generated by Keynote</desc><defs></defs><g transform="matrix(1.00, 0.00, -0.00, -1.00, 0.0, 42.0)"><path d="M 2.0 41.0 L 806.0 41.0 L 806.0 2.0 L 2.0 2.0 Z M 1.9 40.7 " fill="#242424"></path><g><clipPath id="clip0x600003cade00"><path d="M -5.9 -8.0 L 813.9 -8.0 L 813.9 46.5 L -5.9 46.5 Z M -5.9 -8.0 "></path></clipPath><g clip-path="url(#clip0x600003cade00)"><text xml:space="preserve" font-family="Monaco,Monaco" font-size="25.0" fill="#EAEAEA" transform="matrix(1.00, 0.00, -0.00, -1.00, 5.9, 12.0)"> </text><text xml:space="preserve" font-family="Monaco,Monaco" font-size="25.0" fill="#EAEAEA" transform="matrix(1.00, 0.00, -0.00, -1.00, 20.9, 12.0)"> </text><text xml:space="preserve" font-family="Monaco,Monaco" font-size="25.0" fill="#EAEAEA" transform="matrix(1.00, 0.00, -0.00, -1.00, 35.9, 12.0)"> </text><text xml:space="preserve" font-family="Monaco,Monaco" font-size="25.0" fill="#EAEAEA" transform="matrix(1.00, 0.00, -0.00, -1.00, 51.0, 12.0)"> </text></g></g><image xlink:href="../../03871A76-34D6-48F9-AB14-723A5B5FB04F/assets/769DF9B66858888B4E635C047DE67482.png" width="95.00" height="28.00" transform="matrix(1.00, 0.00, -0.00, -1.00, 64.0, 33.0)"></image><g><clipPath id="clip0x600003cadb00"><path d="M -5.9 -8.0 L 813.9 -8.0 L 813.9 46.5 L -5.9 46.5 Z M -5.9 -8.0 "></path></clipPath><g clip-path="url(#clip0x600003cadb00)"><text xml:space="preserve" font-family="Monaco,Monaco" font-size="25.0" fill="#E34D77" transform="matrix(1.00, 0.00, -0.00, -1.00, 65.9, 12.0)">r</text><text xml:space="preserve" font-family="Monaco,Monaco" font-size="25.0" fill="#E34D77" transform="matrix(1.00, 0.00, -0.00, -1.00, 81.0, 12.0)">e</text><text xml:space="preserve" font-family="Monaco,Monaco" font-size="25.0" fill="#E34D77" transform="matrix(1.00, 0.00, -0.00, -1.00, 96.0, 12.0)">t</text><text xml:space="preserve" font-family="Monaco,Monaco" font-size="25.0" fill="#E34D77" transform="matrix(1.00, 0.00, -0.00, -1.00, 111.0, 12.0)">u</text><text xml:space="preserve" font-family="Monaco,Monaco" font-size="25.0" fill="#E34D77" transform="matrix(1.00, 0.00, -0.00, -1.00, 126.0, 12.0)">r</text><text xml:space="preserve" font-family="Monaco,Monaco" font-size="25.0" fill="#E34D77" transform="matrix(1.00, 0.00, -0.00, -1.00, 141.0, 12.0)">n</text></g></g><image xlink:href="../../03871A76-34D6-48F9-AB14-723A5B5FB04F/assets/0CBFF6AC8BA0F2EB6EBEA3D182DBD9E0.png" width="209.00" height="35.00" transform="matrix(1.00, 0.00, -0.00, -1.00, 171.0, 35.0)"></image><g><clipPath id="clip0x600003cae520"><path d="M -5.9 -8.0 L 813.9 -8.0 L 813.9 46.5 L -5.9 46.5 Z M -5.9 -8.0 "></path></clipPath><g clip-path="url(#clip0x600003cae520)"><text xml:space="preserve" font-family="Monaco,Monaco" font-size="25.0" fill="#EAEAEA" transform="matrix(1.00, 0.00, -0.00, -1.00, 156.0, 12.0)"> </text><text xml:space="preserve" font-family="Monaco,Monaco" font-size="25.0" fill="#EAEAEA" transform="matrix(1.00, 0.00, -0.00, -1.00, 171.0, 12.0)">[</text><text xml:space="preserve" font-family="Monaco,Monaco" font-size="25.0" fill="#EAEAEA" transform="matrix(1.00, 0.00, -0.00, -1.00, 186.0, 12.0)">r</text><text xml:space="preserve" font-family="Monaco,Monaco" font-size="25.0" fill="#EAEAEA" transform="matrix(1.00, 0.00, -0.00, -1.00, 201.0, 12.0)">e</text><text xml:space="preserve" font-family="Monaco,Monaco" font-size="25.0" fill="#EAEAEA" transform="matrix(1.00, 0.00, -0.00, -1.00, 216.0, 12.0)">s</text><text xml:space="preserve" font-family="Monaco,Monaco" font-size="25.0" fill="#EAEAEA" transform="matrix(1.00, 0.00, -0.00, -1.00, 231.0, 12.0)">p</text><text xml:space="preserve" font-family="Monaco,Monaco" font-size="25.0" fill="#EAEAEA" transform="matrix(1.00, 0.00, -0.00, -1.00, 246.0, 12.0)">o</text><text xml:space="preserve" font-family="Monaco,Monaco" font-size="25.0" fill="#EAEAEA" transform="matrix(1.00, 0.00, -0.00, -1.00, 261.0, 12.0)">n</text><text xml:space="preserve" font-family="Monaco,Monaco" font-size="25.0" fill="#EAEAEA" transform="matrix(1.00, 0.00, -0.00, -1.00, 276.0, 12.0)">s</text><text xml:space="preserve" font-family="Monaco,Monaco" font-size="25.0" fill="#EAEAEA" transform="matrix(1.00, 0.00, -0.00, -1.00, 291.0, 12.0)">e</text><text xml:space="preserve" font-family="Monaco,Monaco" font-size="25.0" fill="#EAEAEA" transform="matrix(1.00, 0.00, -0.00, -1.00, 306.0, 12.0)">H</text><text xml:space="preserve" font-family="Monaco,Monaco" font-size="25.0" fill="#EAEAEA" transform="matrix(1.00, 0.00, -0.00, -1.00, 321.0, 12.0)">e</text><text xml:space="preserve" font-family="Monaco,Monaco" font-size="25.0" fill="#EAEAEA" transform="matrix(1.00, 0.00, -0.00, -1.00, 336.0, 12.0)">a</text><text xml:space="preserve" font-family="Monaco,Monaco" font-size="25.0" fill="#EAEAEA" transform="matrix(1.00, 0.00, -0.00, -1.00, 351.0, 12.0)">d</text><text xml:space="preserve" font-family="Monaco,Monaco" font-size="25.0" fill="#EAEAEA" transform="matrix(1.00, 0.00, -0.00, -1.00, 366.0, 12.0)">,</text><text xml:space="preserve" font-family="Monaco,Monaco" font-size="25.0" fill="#EAEAEA" transform="matrix(1.00, 0.00, -0.00, -1.00, 381.0, 12.0)"> </text></g></g><image xlink:href="../../03871A76-34D6-48F9-AB14-723A5B5FB04F/assets/9E39A9BCD180B6AA62BCCF5BA2DFA81B.png" width="201.00" height="29.00" transform="matrix(1.00, 0.00, -0.00, -1.00, 393.0, 34.0)"></image><g><clipPath id="clip0x600003caedc0"><path d="M -5.9 -8.0 L 813.9 -8.0 L 813.9 46.5 L -5.9 46.5 Z M -5.9 -8.0 "></path></clipPath><g clip-path="url(#clip0x600003caedc0)"><text xml:space="preserve" font-family="Monaco,Monaco" font-size="25.0" fill="#FEFFFE" transform="matrix(1.00, 0.00, -0.00, -1.00, 396.0, 12.0)">n</text><text xml:space="preserve" font-family="Monaco,Monaco" font-size="25.0" fill="#FEFFFE" transform="matrix(1.00, 0.00, -0.00, -1.00, 411.0, 12.0)">e</text><text xml:space="preserve" font-family="Monaco,Monaco" font-size="25.0" fill="#FEFFFE" transform="matrix(1.00, 0.00, -0.00, -1.00, 426.0, 12.0)">w</text><text xml:space="preserve" font-family="Monaco,Monaco" font-size="25.0" fill="#FEFFFE" transform="matrix(1.00, 0.00, -0.00, -1.00, 441.0, 12.0)">S</text><text xml:space="preserve" font-family="Monaco,Monaco" font-size="25.0" fill="#FEFFFE" transform="matrix(1.00, 0.00, -0.00, -1.00, 456.0, 12.0)">t</text><text xml:space="preserve" font-family="Monaco,Monaco" font-size="25.0" fill="#FEFFFE" transform="matrix(1.00, 0.00, -0.00, -1.00, 471.0, 12.0)">r</text><text xml:space="preserve" font-family="Monaco,Monaco" font-size="25.0" fill="#FEFFFE" transform="matrix(1.00, 0.00, -0.00, -1.00, 486.0, 12.0)">e</text><text xml:space="preserve" font-family="Monaco,Monaco" font-size="25.0" fill="#FEFFFE" transform="matrix(1.00, 0.00, -0.00, -1.00, 501.0, 12.0)">a</text><text xml:space="preserve" font-family="Monaco,Monaco" font-size="25.0" fill="#FEFFFE" transform="matrix(1.00, 0.00, -0.00, -1.00, 516.0, 12.0)">m</text><text xml:space="preserve" font-family="Monaco,Monaco" font-size="25.0" fill="#FEFFFE" transform="matrix(1.00, 0.00, -0.00, -1.00, 531.0, 12.0)">a</text><text xml:space="preserve" font-family="Monaco,Monaco" font-size="25.0" fill="#FEFFFE" transform="matrix(1.00, 0.00, -0.00, -1.00, 546.0, 12.0)">b</text><text xml:space="preserve" font-family="Monaco,Monaco" font-size="25.0" fill="#FEFFFE" transform="matrix(1.00, 0.00, -0.00, -1.00, 561.1, 12.0)">l</text><text xml:space="preserve" font-family="Monaco,Monaco" font-size="25.0" fill="#FEFFFE" transform="matrix(1.00, 0.00, -0.00, -1.00, 576.1, 12.0)">e</text></g></g><image xlink:href="../../03871A76-34D6-48F9-AB14-723A5B5FB04F/assets/89018F819300700F6A79E9435A91A5D1.png" width="19.00" height="34.00" transform="matrix(1.00, 0.00, -0.00, -1.00, 587.0, 35.0)"></image><g><clipPath id="clip0x608002ab80c0"><path d="M -5.9 -8.0 L 813.9 -8.0 L 813.9 46.5 L -5.9 46.5 Z M -5.9 -8.0 "></path></clipPath><g clip-path="url(#clip0x608002ab80c0)"><text xml:space="preserve" font-family="Monaco,Monaco" font-size="25.0" fill="#EAEAEA" transform="matrix(1.00, 0.00, -0.00, -1.00, 591.0, 12.0)">]</text></g></g><g><clipPath id="clip0x608002ab84e0"><path d="M -5.9 -8.0 L 813.9 -8.0 L 813.9 46.5 L -5.9 46.5 Z M -5.9 -8.0 "></path></clipPath><g clip-path="url(#clip0x608002ab84e0)"><text xml:space="preserve" font-family="Monaco,Monaco" font-size="25.0" fill="#EAEAEA" transform="matrix(1.00, 0.00, -0.00, -1.00, 606.0, 12.0)"> </text><text xml:space="preserve" font-family="Monaco,Monaco" font-size="25.0" fill="#EAEAEA" transform="matrix(1.00, 0.00, -0.00, -1.00, 621.0, 12.0)"> </text><text xml:space="preserve" font-family="Monaco,Monaco" font-size="25.0" fill="#EAEAEA" transform="matrix(1.00, 0.00, -0.00, -1.00, 636.0, 12.0)"> </text><text xml:space="preserve" font-family="Monaco,Monaco" font-size="25.0" fill="#EAEAEA" transform="matrix(1.00, 0.00, -0.00, -1.00, 651.0, 12.0)"> </text><text xml:space="preserve" font-family="Monaco,Monaco" font-size="25.0" fill="#EAEAEA" transform="matrix(1.00, 0.00, -0.00, -1.00, 666.1, 12.0)"> </text><text xml:space="preserve" font-family="Monaco,Monaco" font-size="25.0" fill="#EAEAEA" transform="matrix(1.00, 0.00, -0.00, -1.00, 681.1, 12.0)"> </text><text xml:space="preserve" font-family="Monaco,Monaco" font-size="25.0" fill="#EAEAEA" transform="matrix(1.00, 0.00, -0.00, -1.00, 696.1, 12.0)"> </text><text xml:space="preserve" font-family="Monaco,Monaco" font-size="25.0" fill="#EAEAEA" transform="matrix(1.00, 0.00, -0.00, -1.00, 711.1, 12.0)"> </text><text xml:space="preserve" font-family="Monaco,Monaco" font-size="25.0" fill="#EAEAEA" transform="matrix(1.00, 0.00, -0.00, -1.00, 726.1, 12.0)"> </text><text xml:space="preserve" font-family="Monaco,Monaco" font-size="25.0" fill="#EAEAEA" transform="matrix(1.00, 0.00, -0.00, -1.00, 741.1, 12.0)"> </text><text xml:space="preserve" font-family="Monaco,Monaco" font-size="25.0" fill="#EAEAEA" transform="matrix(1.00, 0.00, -0.00, -1.00, 756.1, 12.0)"> </text><text xml:space="preserve" font-family="Monaco,Monaco" font-size="25.0" fill="#EAEAEA" transform="matrix(1.00, 0.00, -0.00, -1.00, 771.1, 12.0)"> </text><text xml:space="preserve" font-family="Monaco,Monaco" font-size="25.0" fill="#EAEAEA" transform="matrix(1.00, 0.00, -0.00, -1.00, 786.1, 12.0)"> </text></g></g></g></svg>