<?xml version="1.0" encoding="UTF-8" standalone="no"?><svg xmlns="http://www.w3.org/2000/svg" xmlns:xlink="http://www.w3.org/1999/xlink" clip-rule="evenodd" stroke-miterlimit="10" viewBox="0 0 792 78"><desc>SVG generated by Keynote</desc><defs></defs><g transform="matrix(1.00, 0.00, -0.00, -1.00, 0.0, 78.0)"><path d="M 1.0 77.0 L 791.0 77.0 L 791.0 1.0 L 1.0 1.0 Z M 1.4 76.9 " fill="#242424"></path><image xlink:href="EF66A238A2CD7922C983CE7EC3B0B8A8.png" width="130.00" height="30.00" transform="matrix(1.00, 0.00, -0.00, -1.00, 3.0, 70.0)"></image><g><clipPath id="clip0x6000022bf920"><path d="M -6.7 -9.1 L 1564.4 -9.1 L 1564.4 83.0 L -6.7 83.0 Z M -6.7 -9.1 "></path></clipPath><g clip-path="url(#clip0x6000022bf920)"><text xml:space="preserve" font-family="Monaco,Monaco" font-size="26.0" fill="#83D6EB" transform="matrix(1.00, 0.00, -0.00, -1.00, 5.4, 46.6)">f</text><text xml:space="preserve" font-family="Monaco,Monaco" font-size="26.0" fill="#83D6EB" transform="matrix(1.00, 0.00, -0.00, -1.00, 21.0, 46.6)">u</text><text xml:space="preserve" font-family="Monaco,Monaco" font-size="26.0" fill="#83D6EB" transform="matrix(1.00, 0.00, -0.00, -1.00, 36.6, 46.6)">n</text><text xml:space="preserve" font-family="Monaco,Monaco" font-size="26.0" fill="#83D6EB" transform="matrix(1.00, 0.00, -0.00, -1.00, 52.3, 46.6)">c</text><text xml:space="preserve" font-family="Monaco,Monaco" font-size="26.0" fill="#83D6EB" transform="matrix(1.00, 0.00, -0.00, -1.00, 67.9, 46.6)">t</text><text xml:space="preserve" font-family="Monaco,Monaco" font-size="26.0" fill="#83D6EB" transform="matrix(1.00, 0.00, -0.00, -1.00, 83.5, 46.6)">i</text><text xml:space="preserve" font-family="Monaco,Monaco" font-size="26.0" fill="#83D6EB" transform="matrix(1.00, 0.00, -0.00, -1.00, 99.1, 46.6)">o</text><text xml:space="preserve" font-family="Monaco,Monaco" font-size="26.0" fill="#83D6EB" transform="matrix(1.00, 0.00, -0.00, -1.00, 114.7, 46.6)">n</text></g></g><image xlink:href="9F489EDAFAA8DA99136B9EDD12D036B1.png" width="567.00" height="36.00" transform="matrix(1.00, 0.00, -0.00, -1.00, 143.0, 70.0)"></image><g><clipPath id="clip0x6000024a0720"><path d="M -6.7 -9.1 L 1564.4 -9.1 L 1564.4 83.0 L -6.7 83.0 Z M -6.7 -9.1 "></path></clipPath><g clip-path="url(#clip0x6000024a0720)"><text xml:space="preserve" font-family="Monaco,Monaco" font-size="26.0" fill="#EAEAEA" transform="matrix(1.00, 0.00, -0.00, -1.00, 130.3, 46.6)"> </text><text xml:space="preserve" font-family="Monaco,Monaco" font-size="26.0" fill="#EAEAEA" transform="matrix(1.00, 0.00, -0.00, -1.00, 145.9, 46.6)">s</text><text xml:space="preserve" font-family="Monaco,Monaco" font-size="26.0" fill="#EAEAEA" transform="matrix(1.00, 0.00, -0.00, -1.00, 161.5, 46.6)">t</text><text xml:space="preserve" font-family="Monaco,Monaco" font-size="26.0" fill="#EAEAEA" transform="matrix(1.00, 0.00, -0.00, -1.00, 177.1, 46.6)">r</text><text xml:space="preserve" font-family="Monaco,Monaco" font-size="26.0" fill="#EAEAEA" transform="matrix(1.00, 0.00, -0.00, -1.00, 192.7, 46.6)">e</text><text xml:space="preserve" font-family="Monaco,Monaco" font-size="26.0" fill="#EAEAEA" transform="matrix(1.00, 0.00, -0.00, -1.00, 208.3, 46.6)">a</text><text xml:space="preserve" font-family="Monaco,Monaco" font-size="26.0" fill="#EAEAEA" transform="matrix(1.00, 0.00, -0.00, -1.00, 223.9, 46.6)">m</text><text xml:space="preserve" font-family="Monaco,Monaco" font-size="26.0" fill="#EAEAEA" transform="matrix(1.00, 0.00, -0.00, -1.00, 239.5, 46.6)">H</text><text xml:space="preserve" font-family="Monaco,Monaco" font-size="26.0" fill="#EAEAEA" transform="matrix(1.00, 0.00, -0.00, -1.00, 255.1, 46.6)">a</text><text xml:space="preserve" font-family="Monaco,Monaco" font-size="26.0" fill="#EAEAEA" transform="matrix(1.00, 0.00, -0.00, -1.00, 270.7, 46.6)">n</text><text xml:space="preserve" font-family="Monaco,Monaco" font-size="26.0" fill="#EAEAEA" transform="matrix(1.00, 0.00, -0.00, -1.00, 286.3, 46.6)">d</text><text xml:space="preserve" font-family="Monaco,Monaco" font-size="26.0" fill="#EAEAEA" transform="matrix(1.00, 0.00, -0.00, -1.00, 301.9, 46.6)">l</text><text xml:space="preserve" font-family="Monaco,Monaco" font-size="26.0" fill="#EAEAEA" transform="matrix(1.00, 0.00, -0.00, -1.00, 317.5, 46.6)">e</text><text xml:space="preserve" font-family="Monaco,Monaco" font-size="26.0" fill="#EAEAEA" transform="matrix(1.00, 0.00, -0.00, -1.00, 333.1, 46.6)">r</text><text xml:space="preserve" font-family="Monaco,Monaco" font-size="26.0" fill="#EAEAEA" transform="matrix(1.00, 0.00, -0.00, -1.00, 348.7, 46.6)">(</text><text xml:space="preserve" font-family="Monaco,Monaco" font-size="26.0" fill="#EAEAEA" transform="matrix(1.00, 0.00, -0.00, -1.00, 364.3, 46.6)">a</text><text xml:space="preserve" font-family="Monaco,Monaco" font-size="26.0" fill="#EAEAEA" transform="matrix(1.00, 0.00, -0.00, -1.00, 379.9, 46.6)">r</text><text xml:space="preserve" font-family="Monaco,Monaco" font-size="26.0" fill="#EAEAEA" transform="matrix(1.00, 0.00, -0.00, -1.00, 395.5, 46.6)">g</text><text xml:space="preserve" font-family="Monaco,Monaco" font-size="26.0" fill="#EAEAEA" transform="matrix(1.00, 0.00, -0.00, -1.00, 411.1, 46.6)">s</text><text xml:space="preserve" font-family="Monaco,Monaco" font-size="26.0" fill="#EAEAEA" transform="matrix(1.00, 0.00, -0.00, -1.00, 426.8, 46.6)">,</text><text xml:space="preserve" font-family="Monaco,Monaco" font-size="26.0" fill="#EAEAEA" transform="matrix(1.00, 0.00, -0.00, -1.00, 442.4, 46.6)"> </text><text xml:space="preserve" font-family="Monaco,Monaco" font-size="26.0" fill="#EAEAEA" transform="matrix(1.00, 0.00, -0.00, -1.00, 458.0, 46.6)">i</text><text xml:space="preserve" font-family="Monaco,Monaco" font-size="26.0" fill="#EAEAEA" transform="matrix(1.00, 0.00, -0.00, -1.00, 473.6, 46.6)">n</text><text xml:space="preserve" font-family="Monaco,Monaco" font-size="26.0" fill="#EAEAEA" transform="matrix(1.00, 0.00, -0.00, -1.00, 489.2, 46.6)">p</text><text xml:space="preserve" font-family="Monaco,Monaco" font-size="26.0" fill="#EAEAEA" transform="matrix(1.00, 0.00, -0.00, -1.00, 504.8, 46.6)">u</text><text xml:space="preserve" font-family="Monaco,Monaco" font-size="26.0" fill="#EAEAEA" transform="matrix(1.00, 0.00, -0.00, -1.00, 520.4, 46.6)">t</text><text xml:space="preserve" font-family="Monaco,Monaco" font-size="26.0" fill="#EAEAEA" transform="matrix(1.00, 0.00, -0.00, -1.00, 536.0, 46.6)">S</text><text xml:space="preserve" font-family="Monaco,Monaco" font-size="26.0" fill="#EAEAEA" transform="matrix(1.00, 0.00, -0.00, -1.00, 551.6, 46.6)">t</text><text xml:space="preserve" font-family="Monaco,Monaco" font-size="26.0" fill="#EAEAEA" transform="matrix(1.00, 0.00, -0.00, -1.00, 567.2, 46.6)">r</text><text xml:space="preserve" font-family="Monaco,Monaco" font-size="26.0" fill="#EAEAEA" transform="matrix(1.00, 0.00, -0.00, -1.00, 582.8, 46.6)">e</text><text xml:space="preserve" font-family="Monaco,Monaco" font-size="26.0" fill="#EAEAEA" transform="matrix(1.00, 0.00, -0.00, -1.00, 598.4, 46.6)">a</text><text xml:space="preserve" font-family="Monaco,Monaco" font-size="26.0" fill="#EAEAEA" transform="matrix(1.00, 0.00, -0.00, -1.00, 614.0, 46.6)">m</text><text xml:space="preserve" font-family="Monaco,Monaco" font-size="26.0" fill="#EAEAEA" transform="matrix(1.00, 0.00, -0.00, -1.00, 629.6, 46.6)">a</text><text xml:space="preserve" font-family="Monaco,Monaco" font-size="26.0" fill="#EAEAEA" transform="matrix(1.00, 0.00, -0.00, -1.00, 645.2, 46.6)">b</text><text xml:space="preserve" font-family="Monaco,Monaco" font-size="26.0" fill="#EAEAEA" transform="matrix(1.00, 0.00, -0.00, -1.00, 660.8, 46.6)">l</text><text xml:space="preserve" font-family="Monaco,Monaco" font-size="26.0" fill="#EAEAEA" transform="matrix(1.00, 0.00, -0.00, -1.00, 676.4, 46.6)">e</text><text xml:space="preserve" font-family="Monaco,Monaco" font-size="26.0" fill="#EAEAEA" transform="matrix(1.00, 0.00, -0.00, -1.00, 692.0, 46.6)">)</text><text xml:space="preserve" font-family="Monaco,Monaco" font-size="26.0" fill="#EAEAEA" transform="matrix(1.00, 0.00, -0.00, -1.00, 707.6, 46.6)"> </text></g></g><image xlink:href="../../780F22E1-4EDC-49BF-AA03-69817B142D43/assets/E35DF682899AA3CFF2625523C1A842AD.png" width="38.00" height="23.00" transform="matrix(1.00, 0.00, -0.00, -1.00, 720.0, 63.0)"></image><g><clipPath id="clip0x6000024a1740"><path d="M -6.7 -9.1 L 1564.4 -9.1 L 1564.4 83.0 L -6.7 83.0 Z M -6.7 -9.1 "></path></clipPath><g clip-path="url(#clip0x6000024a1740)"><text xml:space="preserve" font-family="Monaco,Monaco" font-size="26.0" fill="#E34D77" transform="matrix(1.00, 0.00, -0.00, -1.00, 723.2, 46.6)">=</text><text xml:space="preserve" font-family="Monaco,Monaco" font-size="26.0" fill="#E34D77" transform="matrix(1.00, 0.00, -0.00, -1.00, 738.8, 46.6)">&gt;</text></g></g><g><clipPath id="clip0x6000024a1bc0"><path d="M -6.7 -9.1 L 1564.4 -9.1 L 1564.4 83.0 L -6.7 83.0 Z M -6.7 -9.1 "></path></clipPath><g clip-path="url(#clip0x6000024a1bc0)"><text xml:space="preserve" font-family="Monaco,Monaco" font-size="26.0" fill="#EAEAEA" transform="matrix(1.00, 0.00, -0.00, -1.00, 754.4, 46.6)"> </text><text xml:space="preserve" font-family="Monaco,Monaco" font-size="26.0" fill="#EAEAEA" transform="matrix(1.00, 0.00, -0.00, -1.00, 5.4, 11.6)"> </text><text xml:space="preserve" font-family="Monaco,Monaco" font-size="26.0" fill="#EAEAEA" transform="matrix(1.00, 0.00, -0.00, -1.00, 21.0, 11.6)"> </text></g></g><image xlink:href="../../780F22E1-4EDC-49BF-AA03-69817B142D43/assets/C263F30692816C7B1C83A219B55D588F.png" width="130.00" height="31.00" transform="matrix(1.00, 0.00, -0.00, -1.00, 34.0, 35.0)"></image><g><clipPath id="clip0x608001cacba0"><path d="M -6.7 -9.1 L 1564.4 -9.1 L 1564.4 83.0 L -6.7 83.0 Z M -6.7 -9.1 "></path></clipPath><g clip-path="url(#clip0x608001cacba0)"><text xml:space="preserve" font-family="Monaco,Monaco" font-size="26.0" fill="#B7D936" transform="matrix(1.00, 0.00, -0.00, -1.00, 36.6, 11.6)">P</text><text xml:space="preserve" font-family="Monaco,Monaco" font-size="26.0" fill="#B7D936" transform="matrix(1.00, 0.00, -0.00, -1.00, 52.2, 11.6)">r</text><text xml:space="preserve" font-family="Monaco,Monaco" font-size="26.0" fill="#B7D936" transform="matrix(1.00, 0.00, -0.00, -1.00, 67.9, 11.6)">o</text><text xml:space="preserve" font-family="Monaco,Monaco" font-size="26.0" fill="#B7D936" transform="matrix(1.00, 0.00, -0.00, -1.00, 83.5, 11.6)">m</text><text xml:space="preserve" font-family="Monaco,Monaco" font-size="26.0" fill="#B7D936" transform="matrix(1.00, 0.00, -0.00, -1.00, 99.1, 11.6)">i</text><text xml:space="preserve" font-family="Monaco,Monaco" font-size="26.0" fill="#B7D936" transform="matrix(1.00, 0.00, -0.00, -1.00, 114.7, 11.6)">s</text><text xml:space="preserve" font-family="Monaco,Monaco" font-size="26.0" fill="#B7D936" transform="matrix(1.00, 0.00, -0.00, -1.00, 130.3, 11.6)">e</text><text xml:space="preserve" font-family="Monaco,Monaco" font-size="26.0" fill="#B7D936" transform="matrix(1.00, 0.00, -0.00, -1.00, 145.9, 11.6)">?</text></g></g><image xlink:href="../../780F22E1-4EDC-49BF-AA03-69817B142D43/assets/63C3FDDC9C06817B9DE8A3EB0403B64C.png" width="288.00" height="31.00" transform="matrix(1.00, 0.00, -0.00, -1.00, 158.0, 35.0)"></image><g><clipPath id="clip0x608001cad7a0"><path d="M -6.7 -9.1 L 1564.4 -9.1 L 1564.4 83.0 L -6.7 83.0 Z M -6.7 -9.1 "></path></clipPath><g clip-path="url(#clip0x608001cad7a0)"><text xml:space="preserve" font-family="Monaco,Monaco" font-size="26.0" fill="#EAEAEA" transform="matrix(1.00, 0.00, -0.00, -1.00, 161.5, 11.6)">&lt;</text><text xml:space="preserve" font-family="Monaco,Monaco" font-size="26.0" fill="#EAEAEA" transform="matrix(1.00, 0.00, -0.00, -1.00, 177.1, 11.6)">r</text><text xml:space="preserve" font-family="Monaco,Monaco" font-size="26.0" fill="#EAEAEA" transform="matrix(1.00, 0.00, -0.00, -1.00, 192.7, 11.6)">e</text><text xml:space="preserve" font-family="Monaco,Monaco" font-size="26.0" fill="#EAEAEA" transform="matrix(1.00, 0.00, -0.00, -1.00, 208.3, 11.6)">s</text><text xml:space="preserve" font-family="Monaco,Monaco" font-size="26.0" fill="#EAEAEA" transform="matrix(1.00, 0.00, -0.00, -1.00, 223.9, 11.6)">u</text><text xml:space="preserve" font-family="Monaco,Monaco" font-size="26.0" fill="#EAEAEA" transform="matrix(1.00, 0.00, -0.00, -1.00, 239.5, 11.6)">l</text><text xml:space="preserve" font-family="Monaco,Monaco" font-size="26.0" fill="#EAEAEA" transform="matrix(1.00, 0.00, -0.00, -1.00, 255.1, 11.6)">t</text><text xml:space="preserve" font-family="Monaco,Monaco" font-size="26.0" fill="#EAEAEA" transform="matrix(1.00, 0.00, -0.00, -1.00, 270.7, 11.6)">S</text><text xml:space="preserve" font-family="Monaco,Monaco" font-size="26.0" fill="#EAEAEA" transform="matrix(1.00, 0.00, -0.00, -1.00, 286.3, 11.6)">t</text><text xml:space="preserve" font-family="Monaco,Monaco" font-size="26.0" fill="#EAEAEA" transform="matrix(1.00, 0.00, -0.00, -1.00, 301.9, 11.6)">r</text><text xml:space="preserve" font-family="Monaco,Monaco" font-size="26.0" fill="#EAEAEA" transform="matrix(1.00, 0.00, -0.00, -1.00, 317.5, 11.6)">e</text><text xml:space="preserve" font-family="Monaco,Monaco" font-size="26.0" fill="#EAEAEA" transform="matrix(1.00, 0.00, -0.00, -1.00, 333.1, 11.6)">a</text><text xml:space="preserve" font-family="Monaco,Monaco" font-size="26.0" fill="#EAEAEA" transform="matrix(1.00, 0.00, -0.00, -1.00, 348.7, 11.6)">m</text><text xml:space="preserve" font-family="Monaco,Monaco" font-size="26.0" fill="#EAEAEA" transform="matrix(1.00, 0.00, -0.00, -1.00, 364.3, 11.6)">a</text><text xml:space="preserve" font-family="Monaco,Monaco" font-size="26.0" fill="#EAEAEA" transform="matrix(1.00, 0.00, -0.00, -1.00, 379.9, 11.6)">b</text><text xml:space="preserve" font-family="Monaco,Monaco" font-size="26.0" fill="#EAEAEA" transform="matrix(1.00, 0.00, -0.00, -1.00, 395.5, 11.6)">l</text><text xml:space="preserve" font-family="Monaco,Monaco" font-size="26.0" fill="#EAEAEA" transform="matrix(1.00, 0.00, -0.00, -1.00, 411.1, 11.6)">e</text><text xml:space="preserve" font-family="Monaco,Monaco" font-size="26.0" fill="#EAEAEA" transform="matrix(1.00, 0.00, -0.00, -1.00, 426.7, 11.6)">&gt;</text></g></g></g></svg>