<?xml version="1.0" encoding="UTF-8" standalone="no"?><svg xmlns="http://www.w3.org/2000/svg" xmlns:xlink="http://www.w3.org/1999/xlink" clip-rule="evenodd" stroke-miterlimit="10" viewBox="0 0 115 56"><desc>SVG generated by Keynote</desc><defs></defs><g transform="matrix(1.00, 0.00, -0.00, -1.00, 0.0, 56.0)"><image xlink:href="A07B473757F2562EE51A36B9464EBCB8.png" width="112.00" height="49.00" transform="matrix(1.00, 0.00, -0.00, -1.01, 1.1, 50.7)" opacity="0.50"></image><g><clipPath id="clip0x6000024a7a40"><path d="M 7.1 22.4 L 7.0 33.6 C 7.0 40.9 12.9 47.0 20.2 47.0 L 93.9 47.0 C 101.2 47.0 107.0 40.9 107.0 33.6 L 107.0 22.4 C 107.0 15.1 101.2 9.0 93.9 9.0 L 20.2 9.0 C 12.9 9.0 7.1 15.1 7.1 22.4 Z M 7.1 22.4 "></path></clipPath><g clip-path="url(#clip0x6000024a7a40)"><image xlink:href="../../82A921EE-8E53-40EE-A95B-4C038CB6B5A6/assets/D80EC8B1EF239560EB871BFEE640DE30.png" width="512.00" height="512.00" transform="matrix(0.50, 0.00, -0.00, -0.50, 7.0, 47.0)"></image></g></g><path d="M 0.0 24.4 L -0.1 13.1 C -0.1 5.9 5.9 -0.3 13.1 -0.3 L 86.9 -0.3 C 94.1 -0.3 99.9 5.9 99.9 13.1 L 99.9 24.4 C 99.9 31.6 94.1 37.7 86.9 37.7 L 13.1 37.7 C 5.9 37.7 0.0 31.6 0.0 24.4 Z M 0.0 24.4 " fill="none" stroke="#0A6900" stroke-width="4.00" transform="matrix(1.00, 0.00, 0.00, -1.00, 7.1, 46.7)"></path><image xlink:href="D40E6D6D79B62BAAB360E3EBC4CD37F0.png" width="76.00" height="27.00" transform="matrix(1.00, 0.00, -0.00, -1.00, 20.0, 39.0)"></image><g><clipPath id="clip0x6000024a7aa0"><path d="M 7.1 5.2 L 107.1 5.2 L 107.1 49.0 L 7.1 49.0 Z M 7.1 5.2 "></path></clipPath><g clip-path="url(#clip0x6000024a7aa0)"><text xml:space="preserve" font-family="Monaco,Monaco" font-size="20.0" fill="#FEFFFE" transform="matrix(1.00, 0.00, -0.00, -1.00, 21.1, 20.4)">{</text><text xml:space="preserve" font-family="Monaco,Monaco" font-size="20.0" fill="#FEFFFE" transform="matrix(1.00, 0.00, -0.00, -1.00, 33.1, 20.4)"> </text><text xml:space="preserve" font-family="Monaco,Monaco" font-size="20.0" fill="#FEFFFE" transform="matrix(1.00, 0.00, -0.00, -1.00, 45.1, 20.4)">“</text><text xml:space="preserve" font-family="Monaco,Monaco" font-size="20.0" fill="#FEFFFE" transform="matrix(1.00, 0.00, -0.00, -1.00, 57.1, 20.4)">n</text><text xml:space="preserve" font-family="Monaco,Monaco" font-size="20.0" fill="#FEFFFE" transform="matrix(1.00, 0.00, -0.00, -1.00, 69.1, 20.4)">a</text><text xml:space="preserve" font-family="Monaco,Monaco" font-size="20.0" fill="#FEFFFE" transform="matrix(1.00, 0.00, -0.00, -1.00, 81.1, 20.4)">m</text></g></g></g></svg>