<?xml version="1.0" encoding="UTF-8" standalone="no"?><svg xmlns="http://www.w3.org/2000/svg" xmlns:xlink="http://www.w3.org/1999/xlink" clip-rule="evenodd" stroke-miterlimit="10" viewBox="0 0 217 70"><desc>SVG generated by Keynote</desc><defs></defs><g transform="matrix(1.00, 0.00, -0.00, -1.00, 0.0, 70.0)"><image xlink:href="7CE5CE129F0E5E3DBDF131B0814C3E56.png" width="214.00" height="64.00" transform="matrix(1.00, 0.00, -0.00, -1.00, 1.6, 64.9)" opacity="0.50"></image><path d="M 7.6 28.6 L 8.0 41.4 C 8.0 52.2 16.4 61.0 27.2 61.0 L 189.7 61.0 C 200.4 61.0 209.0 52.2 209.0 41.4 L 209.0 28.6 C 209.0 17.8 200.4 9.0 189.7 9.0 L 27.2 9.0 C 16.4 9.0 7.6 17.8 7.6 28.6 Z M 7.6 28.6 " fill="#008384"></path><path d="M 0.0 32.3 L 0.4 19.5 C 0.4 8.8 8.8 -0.1 19.5 -0.1 L 182.0 -0.1 C 192.8 -0.1 201.4 8.8 201.4 19.5 L 201.4 32.3 C 201.4 43.1 192.8 51.9 182.0 51.9 L 19.5 51.9 C 8.8 51.9 0.0 43.1 0.0 32.3 Z M 0.0 32.3 " fill="none" stroke="#006366" stroke-width="4.00" transform="matrix(1.00, 0.00, 0.00, -1.00, 7.6, 60.9)"></path><image xlink:href="4853A31D34B00566B4F8513787F0F26F.png" width="169.00" height="22.00" transform="matrix(1.00, 0.00, -0.00, -1.00, 24.0, 44.0)"></image><g><clipPath id="clip0x6000024a9960"><path d="M 6.9 9.1 L 210.0 9.1 L 210.0 60.9 L 6.9 60.9 Z M 6.9 9.1 "></path></clipPath><g clip-path="url(#clip0x6000024a9960)"><text xml:space="preserve" font-family="Monaco,Monaco" font-size="14.0" fill="#FEFFFE" transform="matrix(1.00, 0.00, -0.00, -1.00, 24.4, 30.1)">‘</text><text xml:space="preserve" font-family="Monaco,Monaco" font-size="14.0" fill="#FEFFFE" transform="matrix(1.00, 0.00, -0.00, -1.00, 32.8, 30.1)">{</text><text xml:space="preserve" font-family="Monaco,Monaco" font-size="14.0" fill="#FEFFFE" transform="matrix(1.00, 0.00, -0.00, -1.00, 41.2, 30.1)"> </text><text xml:space="preserve" font-family="Monaco,Monaco" font-size="14.0" fill="#FEFFFE" transform="matrix(1.00, 0.00, -0.00, -1.00, 49.6, 30.1)">“</text><text xml:space="preserve" font-family="Monaco,Monaco" font-size="14.0" fill="#FEFFFE" transform="matrix(1.00, 0.00, -0.00, -1.00, 58.0, 30.1)">n</text><text xml:space="preserve" font-family="Monaco,Monaco" font-size="14.0" fill="#FEFFFE" transform="matrix(1.00, 0.00, -0.00, -1.00, 66.4, 30.1)">a</text><text xml:space="preserve" font-family="Monaco,Monaco" font-size="14.0" fill="#FEFFFE" transform="matrix(1.00, 0.00, -0.00, -1.00, 74.8, 30.1)">m</text><text xml:space="preserve" font-family="Monaco,Monaco" font-size="14.0" fill="#FEFFFE" transform="matrix(1.00, 0.00, -0.00, -1.00, 83.2, 30.1)">e</text><text xml:space="preserve" font-family="Monaco,Monaco" font-size="14.0" fill="#FEFFFE" transform="matrix(1.00, 0.00, -0.00, -1.00, 91.6, 30.1)">”</text><text xml:space="preserve" font-family="Monaco,Monaco" font-size="14.0" fill="#FEFFFE" transform="matrix(1.00, 0.00, -0.00, -1.00, 100.0, 30.1)">:</text><text xml:space="preserve" font-family="Monaco,Monaco" font-size="14.0" fill="#FEFFFE" transform="matrix(1.00, 0.00, -0.00, -1.00, 108.4, 30.1)"> </text><text xml:space="preserve" font-family="Monaco,Monaco" font-size="14.0" fill="#FEFFFE" transform="matrix(1.00, 0.00, -0.00, -1.00, 116.8, 30.1)">“</text><text xml:space="preserve" font-family="Monaco,Monaco" font-size="14.0" fill="#FEFFFE" transform="matrix(1.00, 0.00, -0.00, -1.00, 125.2, 30.1)">j</text><text xml:space="preserve" font-family="Monaco,Monaco" font-size="14.0" fill="#FEFFFE" transform="matrix(1.00, 0.00, -0.00, -1.00, 133.6, 30.1)">o</text><text xml:space="preserve" font-family="Monaco,Monaco" font-size="14.0" fill="#FEFFFE" transform="matrix(1.00, 0.00, -0.00, -1.00, 142.0, 30.1)">h</text><text xml:space="preserve" font-family="Monaco,Monaco" font-size="14.0" fill="#FEFFFE" transform="matrix(1.00, 0.00, -0.00, -1.00, 150.4, 30.1)">n</text><text xml:space="preserve" font-family="Monaco,Monaco" font-size="14.0" fill="#FEFFFE" transform="matrix(1.00, 0.00, -0.00, -1.00, 158.8, 30.1)">”</text><text xml:space="preserve" font-family="Monaco,Monaco" font-size="14.0" fill="#FEFFFE" transform="matrix(1.00, 0.00, -0.00, -1.00, 167.2, 30.1)"> </text><text xml:space="preserve" font-family="Monaco,Monaco" font-size="14.0" fill="#FEFFFE" transform="matrix(1.00, 0.00, -0.00, -1.00, 175.6, 30.1)">}</text><text xml:space="preserve" font-family="Monaco,Monaco" font-size="14.0" fill="#FEFFFE" transform="matrix(1.00, 0.00, -0.00, -1.00, 184.1, 30.1)">’</text></g></g></g></svg>