<?xml version="1.0" encoding="UTF-8" standalone="no"?><svg xmlns="http://www.w3.org/2000/svg" xmlns:xlink="http://www.w3.org/1999/xlink" clip-rule="evenodd" stroke-miterlimit="10" viewBox="0 0 216 145"><desc>SVG generated by Keynote</desc><defs></defs><g transform="matrix(1.00, 0.00, -0.00, -1.00, 0.0, 145.0)"><image xlink:href="D303E1BE137D5BA8D97C1917A9152611.png" width="214.00" height="138.00" transform="matrix(1.00, 0.00, -0.00, -1.00, 1.2, 140.0)" opacity="0.50"></image><path d="M 5.2 22.9 L 5.0 123.0 C 5.0 131.2 11.9 138.0 20.2 138.0 L 195.8 138.0 C 204.1 138.0 211.0 131.2 211.0 123.0 L 211.0 22.9 C 211.0 14.7 204.1 8.0 195.8 8.0 L 20.2 8.0 C 11.9 8.0 5.2 14.7 5.2 22.9 Z M 5.2 22.9 " fill="#204C7C"></path><image xlink:href="AA8F611C61A0B177A2F740AF3C7A5298.png" width="163.00" height="30.00" transform="matrix(1.00, 0.00, -0.00, -1.00, 27.0, 86.0)"></image><g><clipPath id="clip0x6000024a46e0"><path d="M -2.7 7.9 L 218.7 7.9 L 218.7 138.0 L -2.7 138.0 Z M -2.7 7.9 "></path></clipPath><g clip-path="url(#clip0x6000024a46e0)"><text xml:space="preserve" font-family="HelveticaNeue-Medium,Helvetica Neue" font-size="30.0" fill="#FEFFFE" transform="matrix(1.00, 0.00, -0.00, -1.00, 29.1, 61.4)">S</text><text xml:space="preserve" font-family="HelveticaNeue-Medium,Helvetica Neue" font-size="30.0" fill="#FEFFFE" transform="matrix(1.00, 0.00, -0.00, -1.00, 48.5, 61.4)">t</text><text xml:space="preserve" font-family="HelveticaNeue-Medium,Helvetica Neue" font-size="30.0" fill="#FEFFFE" transform="matrix(1.00, 0.00, -0.00, -1.00, 58.5, 61.4)">r</text><text xml:space="preserve" font-family="HelveticaNeue-Medium,Helvetica Neue" font-size="30.0" fill="#FEFFFE" transform="matrix(1.00, 0.00, -0.00, -1.00, 68.5, 61.4)">e</text><text xml:space="preserve" font-family="HelveticaNeue-Medium,Helvetica Neue" font-size="30.0" fill="#FEFFFE" transform="matrix(1.00, 0.00, -0.00, -1.00, 85.2, 61.4)">a</text><text xml:space="preserve" font-family="HelveticaNeue-Medium,Helvetica Neue" font-size="30.0" fill="#FEFFFE" transform="matrix(1.00, 0.00, -0.00, -1.00, 101.9, 61.4)">m</text><text xml:space="preserve" font-family="HelveticaNeue-Medium,Helvetica Neue" font-size="30.0" fill="#FEFFFE" transform="matrix(1.00, 0.00, -0.00, -1.00, 128.0, 61.4)">a</text><text xml:space="preserve" font-family="HelveticaNeue-Medium,Helvetica Neue" font-size="30.0" fill="#FEFFFE" transform="matrix(1.00, 0.00, -0.00, -1.00, 144.7, 61.4)">b</text><text xml:space="preserve" font-family="HelveticaNeue-Medium,Helvetica Neue" font-size="30.0" fill="#FEFFFE" transform="matrix(1.00, 0.00, -0.00, -1.00, 163.0, 61.4)">l</text><text xml:space="preserve" font-family="HelveticaNeue-Medium,Helvetica Neue" font-size="30.0" fill="#FEFFFE" transform="matrix(1.00, 0.00, -0.00, -1.00, 170.2, 61.4)">e</text></g></g></g></svg>