<?xml version="1.0" encoding="UTF-8" standalone="no"?><svg xmlns="http://www.w3.org/2000/svg" xmlns:xlink="http://www.w3.org/1999/xlink" clip-rule="evenodd" stroke-miterlimit="10" viewBox="0 0 1024 768"><desc>SVG generated by Keynote</desc><defs></defs><g transform="matrix(1.00, 0.00, -0.00, -1.00, 0.0, 768.0)"><g><clipPath id="clip0x600000eb26c0"><path d="M 0.0 768.0 L 1024.0 768.0 L 1024.0 0.0 L 0.0 0.0 Z M 0.0 768.0 "></path></clipPath><g clip-path="url(#clip0x600000eb26c0)"><image xlink:href="../../384E26B0-0AD0-495F-BA75-267B55ABD0BD/assets/31D284A5C75E14674D2A89FDB99F8048.jpeg" width="2048.00" height="1536.00" transform="matrix(0.50, 0.00, -0.00, -0.50, 0.0, 768.0)"></image></g></g><image xlink:href="../../C5E25466-61BD-4CB5-85F4-3C1541961117/assets/30D5959C0B760EF89205B5589EC8B193.png" width="699.00" height="66.00" transform="matrix(1.00, 0.00, -0.00, -1.00, 162.0, 692.0)"></image><text xml:space="preserve" font-family="HelveticaNeue-Bold,Helvetica Neue" font-weight="bold" font-size="64.0" fill="#FEFFFE" transform="matrix(1.00, 0.00, -0.00, -1.00, 165.4, 643.7)">T</text><text xml:space="preserve" font-family="HelveticaNeue-Bold,Helvetica Neue" font-weight="bold" font-size="64.0" fill="#FEFFFE" transform="matrix(1.00, 0.00, -0.00, -1.00, 197.4, 643.7)">o</text><text xml:space="preserve" font-family="HelveticaNeue-Bold,Helvetica Neue" font-weight="bold" font-size="64.0" fill="#FEFFFE" transform="matrix(1.00, 0.00, -0.00, -1.00, 236.5, 643.7)">o</text><text xml:space="preserve" font-family="HelveticaNeue-Bold,Helvetica Neue" font-weight="bold" font-size="64.0" fill="#FEFFFE" transform="matrix(1.00, 0.00, -0.00, -1.00, 275.6, 643.7)"> </text><text xml:space="preserve" font-family="HelveticaNeue-Bold,Helvetica Neue" font-weight="bold" font-size="64.0" fill="#FEFFFE" transform="matrix(1.00, 0.00, -0.00, -1.00, 293.4, 643.7)">M</text><text xml:space="preserve" font-family="HelveticaNeue-Bold,Helvetica Neue" font-weight="bold" font-size="64.0" fill="#FEFFFE" transform="matrix(1.00, 0.00, -0.00, -1.00, 351.4, 643.7)">a</text><text xml:space="preserve" font-family="HelveticaNeue-Bold,Helvetica Neue" font-weight="bold" font-size="64.0" fill="#FEFFFE" transform="matrix(1.00, 0.00, -0.00, -1.00, 388.2, 643.7)">n</text><text xml:space="preserve" font-family="HelveticaNeue-Bold,Helvetica Neue" font-weight="bold" font-size="64.0" fill="#FEFFFE" transform="matrix(1.00, 0.00, -0.00, -1.00, 426.1, 643.7)">y</text><text xml:space="preserve" font-family="HelveticaNeue-Bold,Helvetica Neue" font-weight="bold" font-size="64.0" fill="#FEFFFE" transform="matrix(1.00, 0.00, -0.00, -1.00, 459.3, 643.7)"> </text><text xml:space="preserve" font-family="HelveticaNeue-Bold,Helvetica Neue" font-weight="bold" font-size="64.0" fill="#FEFFFE" transform="matrix(1.00, 0.00, -0.00, -1.00, 477.1, 643.7)">F</text><text xml:space="preserve" font-family="HelveticaNeue-Bold,Helvetica Neue" font-weight="bold" font-size="64.0" fill="#FEFFFE" transform="matrix(1.00, 0.00, -0.00, -1.00, 515.1, 643.7)">r</text><text xml:space="preserve" font-family="HelveticaNeue-Bold,Helvetica Neue" font-weight="bold" font-size="64.0" fill="#FEFFFE" transform="matrix(1.00, 0.00, -0.00, -1.00, 540.0, 643.7)">a</text><text xml:space="preserve" font-family="HelveticaNeue-Bold,Helvetica Neue" font-weight="bold" font-size="64.0" fill="#FEFFFE" transform="matrix(1.00, 0.00, -0.00, -1.00, 576.7, 643.7)">m</text><text xml:space="preserve" font-family="HelveticaNeue-Bold,Helvetica Neue" font-weight="bold" font-size="64.0" fill="#FEFFFE" transform="matrix(1.00, 0.00, -0.00, -1.00, 634.7, 643.7)">e</text><text xml:space="preserve" font-family="HelveticaNeue-Bold,Helvetica Neue" font-weight="bold" font-size="64.0" fill="#FEFFFE" transform="matrix(1.00, 0.00, -0.00, -1.00, 671.4, 643.7)">w</text><text xml:space="preserve" font-family="HelveticaNeue-Bold,Helvetica Neue" font-weight="bold" font-size="64.0" fill="#FEFFFE" transform="matrix(1.00, 0.00, -0.00, -1.00, 723.5, 643.7)">o</text><text xml:space="preserve" font-family="HelveticaNeue-Bold,Helvetica Neue" font-weight="bold" font-size="64.0" fill="#FEFFFE" transform="matrix(1.00, 0.00, -0.00, -1.00, 762.6, 643.7)">r</text><text xml:space="preserve" font-family="HelveticaNeue-Bold,Helvetica Neue" font-weight="bold" font-size="64.0" fill="#FEFFFE" transform="matrix(1.00, 0.00, -0.00, -1.00, 787.5, 643.7)">k</text><text xml:space="preserve" font-family="HelveticaNeue-Bold,Helvetica Neue" font-weight="bold" font-size="64.0" fill="#FEFFFE" transform="matrix(1.00, 0.00, -0.00, -1.00, 824.3, 643.7)">s</text><image xlink:href="../../C5E25466-61BD-4CB5-85F4-3C1541961117/assets/38CA418EF005EA5E9E4A99BDE3ADE418.png" width="134.00" height="174.00" transform="matrix(0.38, 0.00, -0.00, -0.38, 357.0, 465.0)"></image><g><clipPath id="clip0x600000eb2780"><path d="M 631.0 210.8 L 744.3 210.8 L 744.3 259.8 L 631.0 259.8 Z M 631.0 210.8 "></path></clipPath><g clip-path="url(#clip0x600000eb2780)"><image xlink:href="../../C5E25466-61BD-4CB5-85F4-3C1541961117/assets/7506BC619F4A5F244685171098456297.png" width="111.00" height="47.00" transform="matrix(1.00, 0.00, -0.00, -1.00, 632.0, 258.8)" opacity="0.50"></image><path d="M 636.0 257.0 L 739.0 257.0 L 739.0 218.0 L 636.0 218.0 Z M 636.0 256.8 " fill="#FEFFFE"></path></g></g><g><clipPath id="clip0x600000eb1c40"><path d="M 640.5 220.9 L 734.8 220.9 L 734.8 253.7 L 640.5 253.7 Z M 640.5 220.9 "></path></clipPath><g clip-path="url(#clip0x600000eb1c40)"><image xlink:href="../../C5E25466-61BD-4CB5-85F4-3C1541961117/assets/4F5910F9DCB1145A5DA03D5A2DF01496.png" width="253.00" height="88.00" transform="matrix(0.37, 0.00, -0.00, -0.38, 641.0, 254.0)"></image></g></g><g><clipPath id="clip0x600000eb17c0"><path d="M 187.5 474.7 L 295.1 474.7 L 295.1 530.3 L 187.5 530.3 Z M 187.5 474.7 "></path></clipPath><g clip-path="url(#clip0x600000eb17c0)"><image xlink:href="../../C5E25466-61BD-4CB5-85F4-3C1541961117/assets/43CA1C881B5F4DFE8F9291E3129CD626.png" width="106.00" height="54.00" transform="matrix(1.00, 0.00, -0.00, -0.99, 188.5, 529.3)" opacity="0.50"></image><path d="M 193.0 527.0 L 290.0 527.0 L 290.0 482.0 L 193.0 482.0 Z M 192.5 527.3 " fill="#FEFFFE"></path></g></g><g><clipPath id="clip0x600000eb1b20"><path d="M 197.2 487.3 L 285.4 487.3 L 285.4 521.8 L 197.2 521.8 Z M 197.2 487.3 "></path></clipPath><g clip-path="url(#clip0x600000eb1b20)"><image xlink:href="../../C5E25466-61BD-4CB5-85F4-3C1541961117/assets/D5FEC8DCB3F7CF3070A81949B876D0F7.png" width="230.00" height="91.00" transform="matrix(0.38, 0.00, -0.00, -0.38, 197.0, 522.0)"></image></g></g><g><clipPath id="clip0x600000eb14c0"><path d="M 730.0 480.8 L 868.6 480.8 L 868.6 529.8 L 730.0 529.8 Z M 730.0 480.8 "></path></clipPath><g clip-path="url(#clip0x600000eb14c0)"><image xlink:href="../../C5E25466-61BD-4CB5-85F4-3C1541961117/assets/3FC25BC0BDDFB62C1EF429C53872D2FB.png" width="137.00" height="47.00" transform="matrix(1.00, 0.00, -0.00, -1.00, 731.0, 528.8)" opacity="0.50"></image><path d="M 735.0 527.0 L 864.0 527.0 L 864.0 488.0 L 735.0 488.0 Z M 735.0 526.8 " fill="#FEFFFE"></path></g></g><g><clipPath id="clip0x600000eb3320"><path d="M 743.5 492.6 L 784.1 492.6 L 784.1 520.7 L 743.5 520.7 Z M 743.5 492.6 "></path></clipPath><g clip-path="url(#clip0x600000eb3320)"><image xlink:href="../../C5E25466-61BD-4CB5-85F4-3C1541961117/assets/7E455256080EAC733CD505833AA65D04.png" width="116.00" height="80.00" transform="matrix(0.34, 0.00, -0.00, -0.35, 744.0, 521.0)"></image></g></g><image xlink:href="../../C5E25466-61BD-4CB5-85F4-3C1541961117/assets/A405DD2C40300FC957E1971B962A6A03.png" width="72.00" height="24.00" transform="matrix(1.00, 0.00, -0.00, -1.00, 784.0, 518.0)"></image><g><clipPath id="clip0x600000eb34a0"><path d="M 770.3 484.7 L 868.4 484.7 L 868.4 526.0 L 770.3 526.0 Z M 770.3 484.7 "></path></clipPath><g clip-path="url(#clip0x600000eb34a0)"><text xml:space="preserve" font-family="Georgia,Georgia" font-size="20.0" fill="#000000" transform="matrix(1.00, 0.00, -0.00, -1.00, 787.3, 500.7)">S</text><text xml:space="preserve" font-family="Georgia,Georgia" font-size="20.0" fill="#000000" transform="matrix(1.00, 0.00, -0.00, -1.00, 798.5, 500.7)">i</text><text xml:space="preserve" font-family="Georgia,Georgia" font-size="20.0" fill="#000000" transform="matrix(1.00, 0.00, -0.00, -1.00, 804.4, 500.7)">n</text><text xml:space="preserve" font-family="Georgia,Georgia" font-size="20.0" fill="#000000" transform="matrix(1.00, 0.00, -0.00, -1.00, 816.2, 500.7)">a</text><text xml:space="preserve" font-family="Georgia,Georgia" font-size="20.0" fill="#000000" transform="matrix(1.00, 0.00, -0.00, -1.00, 826.2, 500.7)">t</text><text xml:space="preserve" font-family="Georgia,Georgia" font-size="20.0" fill="#000000" transform="matrix(1.00, 0.00, -0.00, -1.00, 833.2, 500.7)">r</text><text xml:space="preserve" font-family="Georgia,Georgia" font-size="20.0" fill="#000000" transform="matrix(1.00, 0.00, -0.00, -1.00, 841.3, 500.7)">a</text></g></g><image xlink:href="../../C5E25466-61BD-4CB5-85F4-3C1541961117/assets/58B750BC3243C0C6026E9E5633B870EC.png" width="136.00" height="136.00" transform="matrix(0.44, 0.00, -0.00, -0.44, 601.0, 447.0)"></image><image xlink:href="../../C5E25466-61BD-4CB5-85F4-3C1541961117/assets/47FCA08FA8CF14B373CFD006F45694C3.png" width="271.00" height="82.00" transform="matrix(0.49, 0.00, -0.00, -0.49, 433.0, 387.0)"></image><g><clipPath id="clip0x608000ea7ce0"><path d="M 209.2 355.3 L 302.8 355.3 L 302.8 427.9 L 209.2 427.9 Z M 209.2 355.3 "></path></clipPath><g clip-path="url(#clip0x608000ea7ce0)"><image xlink:href="../../C5E25466-61BD-4CB5-85F4-3C1541961117/assets/699D00CE677329A856F78A04E4D1E9EE.png" width="92.00" height="71.00" transform="matrix(1.00, 0.00, -0.00, -1.00, 210.2, 426.9)" opacity="0.50"></image><path d="M 214.0 425.0 L 298.0 425.0 L 298.0 362.0 L 214.0 362.0 Z M 214.2 424.9 " fill="#FEFFFE"></path></g></g><g><clipPath id="clip0x608000ea9d80"><path d="M 219.4 368.2 L 292.6 368.2 L 292.6 419.1 L 219.4 419.1 Z M 219.4 368.2 "></path></clipPath><g clip-path="url(#clip0x608000ea9d80)"><image xlink:href="../../C5E25466-61BD-4CB5-85F4-3C1541961117/assets/38CFE534BDF79488CF6875EFEAE9547B.png" width="148.00" height="103.00" transform="matrix(0.50, 0.00, -0.00, -0.50, 219.0, 419.0)"></image></g></g><image xlink:href="../../C5E25466-61BD-4CB5-85F4-3C1541961117/assets/5A051C04FD7666D52A7FB5164DEA61F2.png" width="142.00" height="39.00" transform="matrix(0.80, 0.00, -0.00, -0.79, 584.0, 328.0)"></image><g><clipPath id="clip0x600000eb3980"><path d="M 330.0 339.0 L 407.0 339.0 L 407.0 293.0 L 330.0 293.0 Z M 330.2 338.9 "></path></clipPath><g clip-path="url(#clip0x600000eb3980)"><image xlink:href="../../C5E25466-61BD-4CB5-85F4-3C1541961117/assets/C78C37453239CB18AEFF77BB1211DEA9.png" width="298.00" height="231.00" transform="matrix(0.50, 0.00, -0.00, -0.50, 295.0, 369.0)"></image></g></g><g><clipPath id="clip0x600000eb3d40"><path d="M 377.0 472.7 L 510.2 472.7 L 510.2 528.3 L 377.0 528.3 Z M 377.0 472.7 "></path></clipPath><g clip-path="url(#clip0x600000eb3d40)"><image xlink:href="../../C5E25466-61BD-4CB5-85F4-3C1541961117/assets/33E82DB468F8670A7D57DF7EF572C27B.png" width="131.00" height="54.00" transform="matrix(1.00, 0.00, -0.00, -0.99, 378.0, 527.3)" opacity="0.50"></image><path d="M 382.0 525.0 L 505.0 525.0 L 505.0 480.0 L 382.0 480.0 Z M 382.0 525.3 " fill="#FEFFFE"></path></g></g><g><clipPath id="clip0x600000eb4220"><path d="M 388.4 483.9 L 498.8 483.9 L 498.8 521.0 L 388.4 521.0 Z M 388.4 483.9 "></path></clipPath><g clip-path="url(#clip0x600000eb4220)"><image xlink:href="../../C5E25466-61BD-4CB5-85F4-3C1541961117/assets/FF9249371FADBD84EDE0A2D7A7A85428.png" width="208.00" height="70.00" transform="matrix(0.53, 0.00, -0.00, -0.53, 388.0, 521.0)"></image></g></g><g><clipPath id="clip0x608000ea9de0"><path d="M 223.5 190.7 L 381.0 190.7 L 381.0 242.1 L 223.5 242.1 Z M 223.5 190.7 "></path></clipPath><g clip-path="url(#clip0x608000ea9de0)"><image xlink:href="../../C5E25466-61BD-4CB5-85F4-3C1541961117/assets/DAE6D2B2B8A2B25CB882A50D5D240FEC.png" width="156.00" height="49.00" transform="matrix(1.00, 0.00, -0.00, -1.01, 224.5, 241.1)" opacity="0.50"></image><path d="M 228.0 239.0 L 376.0 239.0 L 376.0 198.0 L 228.0 198.0 Z M 228.5 239.1 " fill="#FEFFFE"></path></g></g><g><clipPath id="clip0x608000eaa2c0"><path d="M 235.6 206.0 L 368.9 206.0 L 368.9 237.5 L 235.6 237.5 Z M 235.6 206.0 "></path></clipPath><g clip-path="url(#clip0x608000eaa2c0)"><image xlink:href="../../C5E25466-61BD-4CB5-85F4-3C1541961117/assets/3E46C1BC23D911F65CE7FDB720CBE6DE.png" width="600.00" height="142.00" transform="matrix(0.22, 0.00, -0.00, -0.23, 236.0, 238.0)"></image></g></g><image xlink:href="../../C5E25466-61BD-4CB5-85F4-3C1541961117/assets/0612F0026BA8BE38BE12506515A92C2A.png" width="272.00" height="105.00" transform="matrix(0.43, 0.00, -0.00, -0.44, 750.0, 315.0)"></image><image xlink:href="../../C5E25466-61BD-4CB5-85F4-3C1541961117/assets/A548AF591761F9397EC50418C93E0F51.png" width="134.00" height="134.00" transform="matrix(0.50, 0.00, -0.00, -0.50, 532.0, 223.0)"></image><image xlink:href="../../C5E25466-61BD-4CB5-85F4-3C1541961117/assets/E83453334B9983DA031ED091DCA88CA0.png" width="262.00" height="104.00" transform="matrix(0.49, 0.00, -0.00, -0.49, 156.0, 326.0)"></image><g><clipPath id="clip0x600000eb43a0"><path d="M 289.9 115.7 L 427.2 115.7 L 427.2 164.7 L 289.9 164.7 Z M 289.9 115.7 "></path></clipPath><g clip-path="url(#clip0x600000eb43a0)"><image xlink:href="../../C5E25466-61BD-4CB5-85F4-3C1541961117/assets/09F9498A9201637AB854ECDC174C5A83.png" width="135.00" height="47.00" transform="matrix(1.00, 0.00, -0.00, -1.00, 290.9, 163.7)" opacity="0.50"></image><path d="M 295.0 162.0 L 422.0 162.0 L 422.0 123.0 L 295.0 123.0 Z M 294.9 161.7 " fill="#FEFFFE"></path></g></g><g><clipPath id="clip0x600000eb49a0"><path d="M 300.1 128.7 L 417.1 128.7 L 417.1 155.6 L 300.1 155.6 Z M 300.1 128.7 "></path></clipPath><g clip-path="url(#clip0x600000eb49a0)"><image xlink:href="../../C5E25466-61BD-4CB5-85F4-3C1541961117/assets/768DB0C7C7C785333528E427F76EC8B7.png" width="235.00" height="54.00" transform="matrix(0.50, 0.00, -0.00, -0.50, 300.0, 156.0)"></image></g></g><g><clipPath id="clip0x600000eb4a00"><path d="M 673.8 134.7 L 809.1 134.7 L 809.1 180.8 L 673.8 180.8 Z M 673.8 134.7 "></path></clipPath><g clip-path="url(#clip0x600000eb4a00)"><image xlink:href="../../C5E25466-61BD-4CB5-85F4-3C1541961117/assets/D851122FACF50DC6F0C3CA7375C3A162.png" width="133.00" height="44.00" transform="matrix(1.00, 0.00, -0.00, -1.00, 674.8, 179.8)" opacity="0.50"></image><path d="M 679.0 178.0 L 804.0 178.0 L 804.0 142.0 L 679.0 142.0 Z M 678.8 177.8 " fill="#FEFFFE"></path></g></g><g><clipPath id="clip0x600000eb4ee0"><path d="M 682.5 150.0 L 800.4 150.0 L 800.4 171.6 L 682.5 171.6 Z M 682.5 150.0 "></path></clipPath><g clip-path="url(#clip0x600000eb4ee0)"><image xlink:href="../../C5E25466-61BD-4CB5-85F4-3C1541961117/assets/95690EC3FC34B7DC289C1643FD2709F6.png" width="240.00" height="44.00" transform="matrix(0.49, 0.00, -0.00, -0.50, 682.0, 172.0)"></image></g></g><image xlink:href="../../C5E25466-61BD-4CB5-85F4-3C1541961117/assets/D485F3CCDC467348EB0741A00090D3AC.png" width="180.00" height="180.00" transform="matrix(0.42, 0.00, -0.00, -0.43, 719.0, 440.0)"></image><g><clipPath id="clip0x600000eb4f40"><path d="M 412.0 274.0 L 495.0 274.0 L 495.0 201.0 L 412.0 201.0 Z M 411.6 273.8 "></path></clipPath><g clip-path="url(#clip0x600000eb4f40)"><image xlink:href="../../C5E25466-61BD-4CB5-85F4-3C1541961117/assets/9874B261913FB569AC29C467CF9025E5.png" width="295.00" height="184.00" transform="matrix(0.49, 0.00, -0.00, -0.49, 381.0, 283.0)"></image></g></g><g><clipPath id="clip0x600000eb5180"><path d="M 558.4 453.1 L 703.7 453.1 L 703.7 503.3 L 558.4 503.3 Z M 558.4 453.1 "></path></clipPath><g clip-path="url(#clip0x600000eb5180)"><image xlink:href="../../C5E25466-61BD-4CB5-85F4-3C1541961117/assets/F447A9BE7CA76C8E3E0DF06E5D49374D.png" width="143.00" height="48.00" transform="matrix(1.00, 0.00, -0.00, -1.00, 559.4, 502.3)" opacity="0.50"></image><path d="M 563.0 500.0 L 699.0 500.0 L 699.0 460.0 L 563.0 460.0 Z M 563.4 500.3 " fill="#FEFFFE"></path></g></g><g><clipPath id="clip0x600000eb5660"><path d="M 567.8 464.1 L 694.3 464.1 L 694.3 496.2 L 567.8 496.2 Z M 567.8 464.1 "></path></clipPath><g clip-path="url(#clip0x600000eb5660)"><image xlink:href="../../C5E25466-61BD-4CB5-85F4-3C1541961117/assets/8C46BCF397950AFC91C1FAC0103F7404.png" width="260.00" height="66.00" transform="matrix(0.48, 0.00, -0.00, -0.48, 568.0, 496.0)"></image></g></g><image xlink:href="../../C5E25466-61BD-4CB5-85F4-3C1541961117/assets/16C4B7B110711ACBB446112D20A5B806.png" width="191.00" height="84.00" transform="matrix(0.49, 0.00, -0.00, -0.49, 173.0, 180.0)"></image><image xlink:href="../../C5E25466-61BD-4CB5-85F4-3C1541961117/assets/1F5FE5605B9BF40B6BE351B3594DACF9.png" width="254.00" height="74.00" transform="matrix(0.48, 0.00, -0.00, -0.49, 777.0, 236.0)"></image></g></svg>