<?xml version="1.0" encoding="UTF-8" standalone="no"?><svg xmlns="http://www.w3.org/2000/svg" xmlns:xlink="http://www.w3.org/1999/xlink" clip-rule="evenodd" stroke-miterlimit="10" viewBox="0 0 111 52"><desc>SVG generated by Keynote</desc><defs></defs><g transform="matrix(1.00, 0.00, -0.00, -1.00, 0.0, 52.0)"><image xlink:href="8F405A917607E5E4978D92A81187876D.png" width="108.00" height="45.00" transform="matrix(1.00, 0.00, -0.00, -1.01, 1.0, 46.9)" opacity="0.50"></image><g><clipPath id="clip0x600001cab8e0"><path d="M 5.0 20.5 L 5.0 31.8 C 5.0 39.0 10.9 45.0 18.2 45.0 L 91.9 45.0 C 99.2 45.0 105.0 39.0 105.0 31.8 L 105.0 20.5 C 105.0 13.3 99.2 7.0 91.9 7.0 L 18.2 7.0 C 10.9 7.0 5.0 13.3 5.0 20.5 Z M 5.0 20.5 "></path></clipPath><g clip-path="url(#clip0x600001cab8e0)"><image xlink:href="../../82A921EE-8E53-40EE-A95B-4C038CB6B5A6/assets/D80EC8B1EF239560EB871BFEE640DE30.png" width="512.00" height="512.00" transform="matrix(0.50, 0.00, -0.00, -0.50, 5.0, 45.0)"></image></g></g><image xlink:href="C9B73879F6EBFCB09862AF3B86D8A1CD.png" width="76.00" height="25.00" transform="matrix(1.00, 0.00, -0.00, -1.00, 18.0, 37.0)"></image><g><clipPath id="clip0x600001cab9a0"><path d="M 5.0 0.2 L 105.0 0.2 L 105.0 50.3 L 5.0 50.3 Z M 5.0 0.2 "></path></clipPath><g clip-path="url(#clip0x600001cab9a0)"><text xml:space="preserve" font-family="HelveticaNeue-Medium,Helvetica Neue" font-size="25.0" fill="#FEFFFE" transform="matrix(1.00, 0.00, -0.00, -1.00, 20.1, 17.0)">B</text><text xml:space="preserve" font-family="HelveticaNeue-Medium,Helvetica Neue" font-size="25.0" fill="#FEFFFE" transform="matrix(1.00, 0.00, -0.00, -1.00, 37.7, 17.0)">u</text><text xml:space="preserve" font-family="HelveticaNeue-Medium,Helvetica Neue" font-size="25.0" fill="#FEFFFE" transform="matrix(1.00, 0.00, -0.00, -1.00, 52.0, 17.0)">f</text><text xml:space="preserve" font-family="HelveticaNeue-Medium,Helvetica Neue" font-size="25.0" fill="#FEFFFE" transform="matrix(1.00, 0.00, -0.00, -1.00, 59.4, 17.0)">f</text><text xml:space="preserve" font-family="HelveticaNeue-Medium,Helvetica Neue" font-size="25.0" fill="#FEFFFE" transform="matrix(1.00, 0.00, -0.00, -1.00, 67.3, 17.0)">e</text><text xml:space="preserve" font-family="HelveticaNeue-Medium,Helvetica Neue" font-size="25.0" fill="#FEFFFE" transform="matrix(1.00, 0.00, -0.00, -1.00, 81.2, 17.0)">r</text></g></g></g></svg>