<?xml version="1.0" encoding="UTF-8" standalone="no"?><svg xmlns="http://www.w3.org/2000/svg" xmlns:xlink="http://www.w3.org/1999/xlink" clip-rule="evenodd" stroke-miterlimit="10" viewBox="0 0 1024 768"><desc>SVG generated by Keynote</desc><defs></defs><g transform="matrix(1.00, 0.00, -0.00, -1.00, 0.0, 768.0)"><g><clipPath id="clip0x6080018ad500"><path d="M 0.0 768.0 L 1024.0 768.0 L 1024.0 0.0 L 0.0 0.0 Z M 0.0 768.0 "></path></clipPath><g clip-path="url(#clip0x6080018ad500)"><image xlink:href="../../384E26B0-0AD0-495F-BA75-267B55ABD0BD/assets/31D284A5C75E14674D2A89FDB99F8048.jpeg" width="2048.00" height="1536.00" transform="matrix(0.50, 0.00, -0.00, -0.50, 0.0, 768.0)"></image></g></g><path d="M 439.0 566.0 L 986.0 566.0 L 986.0 264.0 L 439.0 264.0 Z M 439.0 566.1 " fill="#242424"></path><image xlink:href="../../E2476EF2-0E13-4993-9889-24FEBCEADE24/assets/8E62F04BE796B6969E28927021C75A74.png" width="139.00" height="32.00" transform="matrix(1.00, 0.00, -0.00, -1.00, 441.0, 559.0)"></image><g><clipPath id="clip0x600001cb55a0"><path d="M 430.2 253.7 L 1516.5 253.7 L 1516.5 572.8 L 430.2 572.8 Z M 430.2 253.7 "></path></clipPath><g clip-path="url(#clip0x600001cb55a0)"><text xml:space="preserve" font-family="Monaco,Monaco" font-size="28.0" fill="#83D6EB" transform="matrix(1.00, 0.00, -0.00, -1.00, 443.0, 534.4)">f</text><text xml:space="preserve" font-family="Monaco,Monaco" font-size="28.0" fill="#83D6EB" transform="matrix(1.00, 0.00, -0.00, -1.00, 459.8, 534.4)">u</text><text xml:space="preserve" font-family="Monaco,Monaco" font-size="28.0" fill="#83D6EB" transform="matrix(1.00, 0.00, -0.00, -1.00, 476.6, 534.4)">n</text><text xml:space="preserve" font-family="Monaco,Monaco" font-size="28.0" fill="#83D6EB" transform="matrix(1.00, 0.00, -0.00, -1.00, 493.4, 534.4)">c</text><text xml:space="preserve" font-family="Monaco,Monaco" font-size="28.0" fill="#83D6EB" transform="matrix(1.00, 0.00, -0.00, -1.00, 510.2, 534.4)">t</text><text xml:space="preserve" font-family="Monaco,Monaco" font-size="28.0" fill="#83D6EB" transform="matrix(1.00, 0.00, -0.00, -1.00, 527.0, 534.4)">i</text><text xml:space="preserve" font-family="Monaco,Monaco" font-size="28.0" fill="#83D6EB" transform="matrix(1.00, 0.00, -0.00, -1.00, 543.8, 534.4)">o</text><text xml:space="preserve" font-family="Monaco,Monaco" font-size="28.0" fill="#83D6EB" transform="matrix(1.00, 0.00, -0.00, -1.00, 560.6, 534.4)">n</text></g></g><image xlink:href="../../E2476EF2-0E13-4993-9889-24FEBCEADE24/assets/5BB16A890F7BE1926991DB2D05EB4BAB.png" width="375.00" height="37.00" transform="matrix(1.00, 0.00, -0.00, -1.00, 592.0, 559.0)"></image><g><clipPath id="clip0x600001cb3ec0"><path d="M 430.2 253.7 L 1516.5 253.7 L 1516.5 572.8 L 430.2 572.8 Z M 430.2 253.7 "></path></clipPath><g clip-path="url(#clip0x600001cb3ec0)"><text xml:space="preserve" font-family="Monaco,Monaco" font-size="28.0" fill="#EAEAEA" transform="matrix(1.00, 0.00, -0.00, -1.00, 577.4, 534.4)"> </text><text xml:space="preserve" font-family="Monaco,Monaco" font-size="28.0" fill="#EAEAEA" transform="matrix(1.00, 0.00, -0.00, -1.00, 594.2, 534.4)">f</text><text xml:space="preserve" font-family="Monaco,Monaco" font-size="28.0" fill="#EAEAEA" transform="matrix(1.00, 0.00, -0.00, -1.00, 611.0, 534.4)">i</text><text xml:space="preserve" font-family="Monaco,Monaco" font-size="28.0" fill="#EAEAEA" transform="matrix(1.00, 0.00, -0.00, -1.00, 627.8, 534.4)">l</text><text xml:space="preserve" font-family="Monaco,Monaco" font-size="28.0" fill="#EAEAEA" transform="matrix(1.00, 0.00, -0.00, -1.00, 644.6, 534.4)">e</text><text xml:space="preserve" font-family="Monaco,Monaco" font-size="28.0" fill="#EAEAEA" transform="matrix(1.00, 0.00, -0.00, -1.00, 661.4, 534.4)">R</text><text xml:space="preserve" font-family="Monaco,Monaco" font-size="28.0" fill="#EAEAEA" transform="matrix(1.00, 0.00, -0.00, -1.00, 678.2, 534.4)">e</text><text xml:space="preserve" font-family="Monaco,Monaco" font-size="28.0" fill="#EAEAEA" transform="matrix(1.00, 0.00, -0.00, -1.00, 695.1, 534.4)">a</text><text xml:space="preserve" font-family="Monaco,Monaco" font-size="28.0" fill="#EAEAEA" transform="matrix(1.00, 0.00, -0.00, -1.00, 711.9, 534.4)">d</text><text xml:space="preserve" font-family="Monaco,Monaco" font-size="28.0" fill="#EAEAEA" transform="matrix(1.00, 0.00, -0.00, -1.00, 728.7, 534.4)">S</text><text xml:space="preserve" font-family="Monaco,Monaco" font-size="28.0" fill="#EAEAEA" transform="matrix(1.00, 0.00, -0.00, -1.00, 745.5, 534.4)">t</text><text xml:space="preserve" font-family="Monaco,Monaco" font-size="28.0" fill="#EAEAEA" transform="matrix(1.00, 0.00, -0.00, -1.00, 762.3, 534.4)">r</text><text xml:space="preserve" font-family="Monaco,Monaco" font-size="28.0" fill="#EAEAEA" transform="matrix(1.00, 0.00, -0.00, -1.00, 779.1, 534.4)">e</text><text xml:space="preserve" font-family="Monaco,Monaco" font-size="28.0" fill="#EAEAEA" transform="matrix(1.00, 0.00, -0.00, -1.00, 795.9, 534.4)">a</text><text xml:space="preserve" font-family="Monaco,Monaco" font-size="28.0" fill="#EAEAEA" transform="matrix(1.00, 0.00, -0.00, -1.00, 812.7, 534.4)">m</text><text xml:space="preserve" font-family="Monaco,Monaco" font-size="28.0" fill="#EAEAEA" transform="matrix(1.00, 0.00, -0.00, -1.00, 829.5, 534.4)">(</text><text xml:space="preserve" font-family="Monaco,Monaco" font-size="28.0" fill="#EAEAEA" transform="matrix(1.00, 0.00, -0.00, -1.00, 846.3, 534.4)">p</text><text xml:space="preserve" font-family="Monaco,Monaco" font-size="28.0" fill="#EAEAEA" transform="matrix(1.00, 0.00, -0.00, -1.00, 863.1, 534.4)">a</text><text xml:space="preserve" font-family="Monaco,Monaco" font-size="28.0" fill="#EAEAEA" transform="matrix(1.00, 0.00, -0.00, -1.00, 879.9, 534.4)">t</text><text xml:space="preserve" font-family="Monaco,Monaco" font-size="28.0" fill="#EAEAEA" transform="matrix(1.00, 0.00, -0.00, -1.00, 896.7, 534.4)">h</text><text xml:space="preserve" font-family="Monaco,Monaco" font-size="28.0" fill="#EAEAEA" transform="matrix(1.00, 0.00, -0.00, -1.00, 913.5, 534.4)">)</text><text xml:space="preserve" font-family="Monaco,Monaco" font-size="28.0" fill="#EAEAEA" transform="matrix(1.00, 0.00, -0.00, -1.00, 930.3, 534.4)"> </text><text xml:space="preserve" font-family="Monaco,Monaco" font-size="28.0" fill="#EAEAEA" transform="matrix(1.00, 0.00, -0.00, -1.00, 947.1, 534.4)">{</text></g></g><g><clipPath id="clip0x6080018ae760"><path d="M 430.2 253.7 L 1516.5 253.7 L 1516.5 572.8 L 430.2 572.8 Z M 430.2 253.7 "></path></clipPath><g clip-path="url(#clip0x6080018ae760)"></g></g><image xlink:href="../../E2476EF2-0E13-4993-9889-24FEBCEADE24/assets/F9E26B2BB6F5472244CD244D8C5384D9.png" width="21.00" height="36.00" transform="matrix(1.00, 0.00, -0.00, -1.00, 440.0, 300.0)"></image><g><clipPath id="clip0x6080018ae280"><path d="M 430.2 253.7 L 1516.5 253.7 L 1516.5 572.8 L 430.2 572.8 Z M 430.2 253.7 "></path></clipPath><g clip-path="url(#clip0x6080018ae280)"><text xml:space="preserve" font-family="Monaco,Monaco" font-size="28.0" fill="#EAEAEA" transform="matrix(1.00, 0.00, -0.00, -1.00, 443.0, 275.4)">}</text></g></g><image xlink:href="../../523CAAC4-6675-4795-9017-3A01B4AAEB4F/assets/2836688EF3A3F5913D5D5CE185152313.png" width="492.00" height="57.00" transform="matrix(1.00, 0.00, -0.00, -1.00, 265.0, 693.0)"></image><text xml:space="preserve" font-family="HelveticaNeue-Bold,Helvetica Neue" font-weight="bold" font-size="64.0" fill="#FEFFFE" transform="matrix(1.00, 0.00, -0.00, -1.00, 267.8, 643.7)">S</text><text xml:space="preserve" font-family="HelveticaNeue-Bold,Helvetica Neue" font-weight="bold" font-size="64.0" fill="#FEFFFE" transform="matrix(1.00, 0.00, -0.00, -1.00, 309.4, 643.7)">t</text><text xml:space="preserve" font-family="HelveticaNeue-Bold,Helvetica Neue" font-weight="bold" font-size="64.0" fill="#FEFFFE" transform="matrix(1.00, 0.00, -0.00, -1.00, 331.9, 643.7)">r</text><text xml:space="preserve" font-family="HelveticaNeue-Bold,Helvetica Neue" font-weight="bold" font-size="64.0" fill="#FEFFFE" transform="matrix(1.00, 0.00, -0.00, -1.00, 355.6, 643.7)">e</text><text xml:space="preserve" font-family="HelveticaNeue-Bold,Helvetica Neue" font-weight="bold" font-size="64.0" fill="#FEFFFE" transform="matrix(1.00, 0.00, -0.00, -1.00, 392.4, 643.7)">a</text><text xml:space="preserve" font-family="HelveticaNeue-Bold,Helvetica Neue" font-weight="bold" font-size="64.0" fill="#FEFFFE" transform="matrix(1.00, 0.00, -0.00, -1.00, 429.1, 643.7)">m</text><text xml:space="preserve" font-family="HelveticaNeue-Bold,Helvetica Neue" font-weight="bold" font-size="64.0" fill="#FEFFFE" transform="matrix(1.00, 0.00, -0.00, -1.00, 487.1, 643.7)"> </text><text xml:space="preserve" font-family="HelveticaNeue-Bold,Helvetica Neue" font-weight="bold" font-size="64.0" fill="#FEFFFE" transform="matrix(1.00, 0.00, -0.00, -1.00, 504.9, 643.7)">C</text><text xml:space="preserve" font-family="HelveticaNeue-Bold,Helvetica Neue" font-weight="bold" font-size="64.0" fill="#FEFFFE" transform="matrix(1.00, 0.00, -0.00, -1.00, 552.3, 643.7)">h</text><text xml:space="preserve" font-family="HelveticaNeue-Bold,Helvetica Neue" font-weight="bold" font-size="64.0" fill="#FEFFFE" transform="matrix(1.00, 0.00, -0.00, -1.00, 590.3, 643.7)">a</text><text xml:space="preserve" font-family="HelveticaNeue-Bold,Helvetica Neue" font-weight="bold" font-size="64.0" fill="#FEFFFE" transform="matrix(1.00, 0.00, -0.00, -1.00, 627.0, 643.7)">n</text><text xml:space="preserve" font-family="HelveticaNeue-Bold,Helvetica Neue" font-weight="bold" font-size="64.0" fill="#FEFFFE" transform="matrix(1.00, 0.00, -0.00, -1.00, 665.0, 643.7)">n</text><text xml:space="preserve" font-family="HelveticaNeue-Bold,Helvetica Neue" font-weight="bold" font-size="64.0" fill="#FEFFFE" transform="matrix(1.00, 0.00, -0.00, -1.00, 702.9, 643.7)">e</text><text xml:space="preserve" font-family="HelveticaNeue-Bold,Helvetica Neue" font-weight="bold" font-size="64.0" fill="#FEFFFE" transform="matrix(1.00, 0.00, -0.00, -1.00, 739.6, 643.7)">l</text><image xlink:href="../../523CAAC4-6675-4795-9017-3A01B4AAEB4F/assets/09FBD49B0373E221AE0BE0139D3B69A0.png" width="16.00" height="16.00" transform="matrix(1.00, 0.00, -0.00, -1.00, 61.0, 549.0)"></image><text xml:space="preserve" font-family="HelveticaNeue-Medium,Helvetica Neue" font-size="20.2" fill="#EBEAEA" transform="matrix(1.00, 0.00, -0.00, -1.00, 64.0, 536.1)">•</text><image xlink:href="../../523CAAC4-6675-4795-9017-3A01B4AAEB4F/assets/97F53022AD9D80C9D1C59E38B20BDD8D.png" width="203.00" height="29.00" transform="matrix(1.00, 0.00, -0.00, -1.00, 86.0, 556.0)"></image><text xml:space="preserve" font-family="HelveticaNeue-Medium,Helvetica Neue" font-size="26.9" fill="#EAEAEA" transform="matrix(1.00, 0.00, -0.00, -1.00, 89.9, 533.6)">C</text><text xml:space="preserve" font-family="HelveticaNeue-Medium,Helvetica Neue" font-size="26.9" fill="#EAEAEA" transform="matrix(1.00, 0.00, -0.00, -1.00, 109.3, 533.6)">o</text><text xml:space="preserve" font-family="HelveticaNeue-Medium,Helvetica Neue" font-size="26.9" fill="#EAEAEA" transform="matrix(1.00, 0.00, -0.00, -1.00, 125.3, 533.6)">m</text><text xml:space="preserve" font-family="HelveticaNeue-Medium,Helvetica Neue" font-size="26.9" fill="#EAEAEA" transform="matrix(1.00, 0.00, -0.00, -1.00, 148.7, 533.6)">m</text><text xml:space="preserve" font-family="HelveticaNeue-Medium,Helvetica Neue" font-size="26.9" fill="#EAEAEA" transform="matrix(1.00, 0.00, -0.00, -1.00, 172.0, 533.6)">u</text><text xml:space="preserve" font-family="HelveticaNeue-Medium,Helvetica Neue" font-size="26.9" fill="#EAEAEA" transform="matrix(1.00, 0.00, -0.00, -1.00, 187.5, 533.6)">n</text><text xml:space="preserve" font-family="HelveticaNeue-Medium,Helvetica Neue" font-size="26.9" fill="#EAEAEA" transform="matrix(1.00, 0.00, -0.00, -1.00, 202.9, 533.6)">i</text><text xml:space="preserve" font-family="HelveticaNeue-Medium,Helvetica Neue" font-size="26.9" fill="#EAEAEA" transform="matrix(1.00, 0.00, -0.00, -1.00, 209.4, 533.6)">c</text><text xml:space="preserve" font-family="HelveticaNeue-Medium,Helvetica Neue" font-size="26.9" fill="#EAEAEA" transform="matrix(1.00, 0.00, -0.00, -1.00, 224.3, 533.6)">a</text><text xml:space="preserve" font-family="HelveticaNeue-Medium,Helvetica Neue" font-size="26.9" fill="#EAEAEA" transform="matrix(1.00, 0.00, -0.00, -1.00, 239.3, 533.6)">t</text><text xml:space="preserve" font-family="HelveticaNeue-Medium,Helvetica Neue" font-size="26.9" fill="#EAEAEA" transform="matrix(1.00, 0.00, -0.00, -1.00, 248.2, 533.6)">i</text><text xml:space="preserve" font-family="HelveticaNeue-Medium,Helvetica Neue" font-size="26.9" fill="#EAEAEA" transform="matrix(1.00, 0.00, -0.00, -1.00, 254.7, 533.6)">o</text><text xml:space="preserve" font-family="HelveticaNeue-Medium,Helvetica Neue" font-size="26.9" fill="#EAEAEA" transform="matrix(1.00, 0.00, -0.00, -1.00, 270.6, 533.6)">n</text><text xml:space="preserve" font-family="HelveticaNeue-Medium,Helvetica Neue" font-size="26.9" fill="#EAEAEA" transform="matrix(1.00, 0.00, -0.00, -1.00, 286.1, 533.6)"> </text><image xlink:href="../../523CAAC4-6675-4795-9017-3A01B4AAEB4F/assets/8DDA737834AEC251B430963684443592.png" width="324.00" height="34.00" transform="matrix(1.00, 0.00, -0.00, -1.00, 86.0, 523.0)"></image><text xml:space="preserve" font-family="HelveticaNeue-Medium,Helvetica Neue" font-size="26.9" fill="#EAEAEA" transform="matrix(1.00, 0.00, -0.00, -1.00, 89.9, 500.6)">S</text><text xml:space="preserve" font-family="HelveticaNeue-Medium,Helvetica Neue" font-size="26.9" fill="#EAEAEA" transform="matrix(1.00, 0.00, -0.00, -1.00, 107.3, 500.6)">e</text><text xml:space="preserve" font-family="HelveticaNeue-Medium,Helvetica Neue" font-size="26.9" fill="#EAEAEA" transform="matrix(1.00, 0.00, -0.00, -1.00, 122.3, 500.6)">q</text><text xml:space="preserve" font-family="HelveticaNeue-Medium,Helvetica Neue" font-size="26.9" fill="#EAEAEA" transform="matrix(1.00, 0.00, -0.00, -1.00, 138.7, 500.6)">u</text><text xml:space="preserve" font-family="HelveticaNeue-Medium,Helvetica Neue" font-size="26.9" fill="#EAEAEA" transform="matrix(1.00, 0.00, -0.00, -1.00, 154.1, 500.6)">e</text><text xml:space="preserve" font-family="HelveticaNeue-Medium,Helvetica Neue" font-size="26.9" fill="#EAEAEA" transform="matrix(1.00, 0.00, -0.00, -1.00, 169.1, 500.6)">n</text><text xml:space="preserve" font-family="HelveticaNeue-Medium,Helvetica Neue" font-size="26.9" fill="#EAEAEA" transform="matrix(1.00, 0.00, -0.00, -1.00, 184.5, 500.6)">t</text><text xml:space="preserve" font-family="HelveticaNeue-Medium,Helvetica Neue" font-size="26.9" fill="#EAEAEA" transform="matrix(1.00, 0.00, -0.00, -1.00, 193.5, 500.6)">i</text><text xml:space="preserve" font-family="HelveticaNeue-Medium,Helvetica Neue" font-size="26.9" fill="#EAEAEA" transform="matrix(1.00, 0.00, -0.00, -1.00, 199.9, 500.6)">a</text><text xml:space="preserve" font-family="HelveticaNeue-Medium,Helvetica Neue" font-size="26.9" fill="#EAEAEA" transform="matrix(1.00, 0.00, -0.00, -1.00, 214.9, 500.6)">l</text><text xml:space="preserve" font-family="HelveticaNeue-Medium,Helvetica Neue" font-size="26.9" fill="#EAEAEA" transform="matrix(1.00, 0.00, -0.00, -1.00, 221.4, 500.6)"> </text><text xml:space="preserve" font-family="HelveticaNeue-Medium,Helvetica Neue" font-size="26.9" fill="#EAEAEA" transform="matrix(1.00, 0.00, -0.00, -1.00, 228.8, 500.6)">P</text><text xml:space="preserve" font-family="HelveticaNeue-Medium,Helvetica Neue" font-size="26.9" fill="#EAEAEA" transform="matrix(1.00, 0.00, -0.00, -1.00, 246.8, 500.6)">r</text><text xml:space="preserve" font-family="HelveticaNeue-Medium,Helvetica Neue" font-size="26.9" fill="#EAEAEA" transform="matrix(1.00, 0.00, -0.00, -1.00, 255.7, 500.6)">o</text><text xml:space="preserve" font-family="HelveticaNeue-Medium,Helvetica Neue" font-size="26.9" fill="#EAEAEA" transform="matrix(1.00, 0.00, -0.00, -1.00, 271.7, 500.6)">c</text><text xml:space="preserve" font-family="HelveticaNeue-Medium,Helvetica Neue" font-size="26.9" fill="#EAEAEA" transform="matrix(1.00, 0.00, -0.00, -1.00, 286.6, 500.6)">e</text><text xml:space="preserve" font-family="HelveticaNeue-Medium,Helvetica Neue" font-size="26.9" fill="#EAEAEA" transform="matrix(1.00, 0.00, -0.00, -1.00, 301.6, 500.6)">s</text><text xml:space="preserve" font-family="HelveticaNeue-Medium,Helvetica Neue" font-size="26.9" fill="#EAEAEA" transform="matrix(1.00, 0.00, -0.00, -1.00, 315.5, 500.6)">s</text><text xml:space="preserve" font-family="HelveticaNeue-Medium,Helvetica Neue" font-size="26.9" fill="#EAEAEA" transform="matrix(1.00, 0.00, -0.00, -1.00, 329.5, 500.6)"> </text><text xml:space="preserve" font-family="HelveticaNeue-Medium,Helvetica Neue" font-size="26.9" fill="#EAEAEA" transform="matrix(1.00, 0.00, -0.00, -1.00, 336.9, 500.6)">(</text><text xml:space="preserve" font-family="HelveticaNeue-Medium,Helvetica Neue" font-size="26.9" fill="#EAEAEA" transform="matrix(1.00, 0.00, -0.00, -1.00, 344.4, 500.6)">C</text><text xml:space="preserve" font-family="HelveticaNeue-Medium,Helvetica Neue" font-size="26.9" fill="#EAEAEA" transform="matrix(1.00, 0.00, -0.00, -1.00, 363.8, 500.6)">S</text><text xml:space="preserve" font-family="HelveticaNeue-Medium,Helvetica Neue" font-size="26.9" fill="#EAEAEA" transform="matrix(1.00, 0.00, -0.00, -1.00, 381.2, 500.6)">P</text><text xml:space="preserve" font-family="HelveticaNeue-Medium,Helvetica Neue" font-size="26.9" fill="#EAEAEA" transform="matrix(1.00, 0.00, -0.00, -1.00, 399.2, 500.6)">)</text><text xml:space="preserve" font-family="HelveticaNeue-Medium,Helvetica Neue" font-size="26.9" fill="#EAEAEA" transform="matrix(1.00, 0.00, -0.00, -1.00, 406.6, 500.6)"> </text><image xlink:href="../../523CAAC4-6675-4795-9017-3A01B4AAEB4F/assets/6EB45CCC43697BD1CD0F6E5900FF1B6F.png" width="16.00" height="17.00" transform="matrix(1.00, 0.00, -0.00, -1.00, 61.0, 453.0)"></image><text xml:space="preserve" font-family="HelveticaNeue-Medium,Helvetica Neue" font-size="20.2" fill="#EBEAEA" transform="matrix(1.00, 0.00, -0.00, -1.00, 64.0, 439.3)">•</text><image xlink:href="../../523CAAC4-6675-4795-9017-3A01B4AAEB4F/assets/F8E99BB06B03B4ED872852216914925D.png" width="204.00" height="29.00" transform="matrix(1.00, 0.00, -0.00, -1.00, 87.0, 459.0)"></image><text xml:space="preserve" font-family="HelveticaNeue-Medium,Helvetica Neue" font-size="26.9" fill="#EAEAEA" transform="matrix(1.00, 0.00, -0.00, -1.00, 89.9, 436.9)">G</text><text xml:space="preserve" font-family="HelveticaNeue-Medium,Helvetica Neue" font-size="26.9" fill="#EAEAEA" transform="matrix(1.00, 0.00, -0.00, -1.00, 110.3, 436.9)">o</text><text xml:space="preserve" font-family="HelveticaNeue-Medium,Helvetica Neue" font-size="26.9" fill="#EAEAEA" transform="matrix(1.00, 0.00, -0.00, -1.00, 126.3, 436.9)">-</text><text xml:space="preserve" font-family="HelveticaNeue-Medium,Helvetica Neue" font-size="26.9" fill="#EAEAEA" transform="matrix(1.00, 0.00, -0.00, -1.00, 136.7, 436.9)">l</text><text xml:space="preserve" font-family="HelveticaNeue-Medium,Helvetica Neue" font-size="26.9" fill="#EAEAEA" transform="matrix(1.00, 0.00, -0.00, -1.00, 143.2, 436.9)">i</text><text xml:space="preserve" font-family="HelveticaNeue-Medium,Helvetica Neue" font-size="26.9" fill="#EAEAEA" transform="matrix(1.00, 0.00, -0.00, -1.00, 149.7, 436.9)">k</text><text xml:space="preserve" font-family="HelveticaNeue-Medium,Helvetica Neue" font-size="26.9" fill="#EAEAEA" transform="matrix(1.00, 0.00, -0.00, -1.00, 164.1, 436.9)">e</text><text xml:space="preserve" font-family="HelveticaNeue-Medium,Helvetica Neue" font-size="26.9" fill="#EAEAEA" transform="matrix(1.00, 0.00, -0.00, -1.00, 179.1, 436.9)"> </text><text xml:space="preserve" font-family="HelveticaNeue-Medium,Helvetica Neue" font-size="26.9" fill="#EAEAEA" transform="matrix(1.00, 0.00, -0.00, -1.00, 186.5, 436.9)">C</text><text xml:space="preserve" font-family="HelveticaNeue-Medium,Helvetica Neue" font-size="26.9" fill="#EAEAEA" transform="matrix(1.00, 0.00, -0.00, -1.00, 205.9, 436.9)">h</text><text xml:space="preserve" font-family="HelveticaNeue-Medium,Helvetica Neue" font-size="26.9" fill="#EAEAEA" transform="matrix(1.00, 0.00, -0.00, -1.00, 221.4, 436.9)">a</text><text xml:space="preserve" font-family="HelveticaNeue-Medium,Helvetica Neue" font-size="26.9" fill="#EAEAEA" transform="matrix(1.00, 0.00, -0.00, -1.00, 236.3, 436.9)">n</text><text xml:space="preserve" font-family="HelveticaNeue-Medium,Helvetica Neue" font-size="26.9" fill="#EAEAEA" transform="matrix(1.00, 0.00, -0.00, -1.00, 251.7, 436.9)">n</text><text xml:space="preserve" font-family="HelveticaNeue-Medium,Helvetica Neue" font-size="26.9" fill="#EAEAEA" transform="matrix(1.00, 0.00, -0.00, -1.00, 267.2, 436.9)">e</text><text xml:space="preserve" font-family="HelveticaNeue-Medium,Helvetica Neue" font-size="26.9" fill="#EAEAEA" transform="matrix(1.00, 0.00, -0.00, -1.00, 282.1, 436.9)">l</text><text xml:space="preserve" font-family="HelveticaNeue-Medium,Helvetica Neue" font-size="26.9" fill="#EAEAEA" transform="matrix(1.00, 0.00, -0.00, -1.00, 288.6, 436.9)"> </text><image xlink:href="../../523CAAC4-6675-4795-9017-3A01B4AAEB4F/assets/6F36C253407DE38C744C8004A8616A64.png" width="16.00" height="16.00" transform="matrix(1.00, 0.00, -0.00, -1.00, 61.0, 389.0)"></image><text xml:space="preserve" font-family="HelveticaNeue-Medium,Helvetica Neue" font-size="20.2" fill="#EBEAEA" transform="matrix(1.00, 0.00, -0.00, -1.00, 64.0, 375.6)">•</text><image xlink:href="../../523CAAC4-6675-4795-9017-3A01B4AAEB4F/assets/3A5B860E7EC546CCEFD29AD146943CB9.png" width="289.00" height="29.00" transform="matrix(1.00, 0.00, -0.00, -1.00, 87.0, 395.0)"></image><text xml:space="preserve" font-family="HelveticaNeue-Medium,Helvetica Neue" font-size="26.9" fill="#EAEAEA" transform="matrix(1.00, 0.00, -0.00, -1.00, 89.9, 373.2)">P</text><text xml:space="preserve" font-family="HelveticaNeue-Medium,Helvetica Neue" font-size="26.9" fill="#EAEAEA" transform="matrix(1.00, 0.00, -0.00, -1.00, 107.8, 373.2)">r</text><text xml:space="preserve" font-family="HelveticaNeue-Medium,Helvetica Neue" font-size="26.9" fill="#EAEAEA" transform="matrix(1.00, 0.00, -0.00, -1.00, 116.8, 373.2)">o</text><text xml:space="preserve" font-family="HelveticaNeue-Medium,Helvetica Neue" font-size="26.9" fill="#EAEAEA" transform="matrix(1.00, 0.00, -0.00, -1.00, 132.8, 373.2)">m</text><text xml:space="preserve" font-family="HelveticaNeue-Medium,Helvetica Neue" font-size="26.9" fill="#EAEAEA" transform="matrix(1.00, 0.00, -0.00, -1.00, 156.2, 373.2)">i</text><text xml:space="preserve" font-family="HelveticaNeue-Medium,Helvetica Neue" font-size="26.9" fill="#EAEAEA" transform="matrix(1.00, 0.00, -0.00, -1.00, 162.6, 373.2)">s</text><text xml:space="preserve" font-family="HelveticaNeue-Medium,Helvetica Neue" font-size="26.9" fill="#EAEAEA" transform="matrix(1.00, 0.00, -0.00, -1.00, 176.6, 373.2)">e</text><text xml:space="preserve" font-family="HelveticaNeue-Medium,Helvetica Neue" font-size="26.9" fill="#EAEAEA" transform="matrix(1.00, 0.00, -0.00, -1.00, 191.5, 373.2)">-</text><text xml:space="preserve" font-family="HelveticaNeue-Medium,Helvetica Neue" font-size="26.9" fill="#EAEAEA" transform="matrix(1.00, 0.00, -0.00, -1.00, 202.0, 373.2)">b</text><text xml:space="preserve" font-family="HelveticaNeue-Medium,Helvetica Neue" font-size="26.9" fill="#EAEAEA" transform="matrix(1.00, 0.00, -0.00, -1.00, 218.4, 373.2)">a</text><text xml:space="preserve" font-family="HelveticaNeue-Medium,Helvetica Neue" font-size="26.9" fill="#EAEAEA" transform="matrix(1.00, 0.00, -0.00, -1.00, 233.4, 373.2)">s</text><text xml:space="preserve" font-family="HelveticaNeue-Medium,Helvetica Neue" font-size="26.9" fill="#EAEAEA" transform="matrix(1.00, 0.00, -0.00, -1.00, 247.3, 373.2)">e</text><text xml:space="preserve" font-family="HelveticaNeue-Medium,Helvetica Neue" font-size="26.9" fill="#EAEAEA" transform="matrix(1.00, 0.00, -0.00, -1.00, 262.2, 373.2)">d</text><text xml:space="preserve" font-family="HelveticaNeue-Medium,Helvetica Neue" font-size="26.9" fill="#EAEAEA" transform="matrix(1.00, 0.00, -0.00, -1.00, 278.7, 373.2)"> </text><text xml:space="preserve" font-family="HelveticaNeue-Medium,Helvetica Neue" font-size="26.9" fill="#EAEAEA" transform="matrix(1.00, 0.00, -0.00, -1.00, 286.1, 373.2)">c</text><text xml:space="preserve" font-family="HelveticaNeue-Medium,Helvetica Neue" font-size="26.9" fill="#EAEAEA" transform="matrix(1.00, 0.00, -0.00, -1.00, 301.1, 373.2)">o</text><text xml:space="preserve" font-family="HelveticaNeue-Medium,Helvetica Neue" font-size="26.9" fill="#EAEAEA" transform="matrix(1.00, 0.00, -0.00, -1.00, 317.0, 373.2)">n</text><text xml:space="preserve" font-family="HelveticaNeue-Medium,Helvetica Neue" font-size="26.9" fill="#EAEAEA" transform="matrix(1.00, 0.00, -0.00, -1.00, 332.5, 373.2)">t</text><text xml:space="preserve" font-family="HelveticaNeue-Medium,Helvetica Neue" font-size="26.9" fill="#EAEAEA" transform="matrix(1.00, 0.00, -0.00, -1.00, 341.4, 373.2)">r</text><text xml:space="preserve" font-family="HelveticaNeue-Medium,Helvetica Neue" font-size="26.9" fill="#EAEAEA" transform="matrix(1.00, 0.00, -0.00, -1.00, 350.4, 373.2)">o</text><text xml:space="preserve" font-family="HelveticaNeue-Medium,Helvetica Neue" font-size="26.9" fill="#EAEAEA" transform="matrix(1.00, 0.00, -0.00, -1.00, 366.3, 373.2)">l</text><text xml:space="preserve" font-family="HelveticaNeue-Medium,Helvetica Neue" font-size="26.9" fill="#EAEAEA" transform="matrix(1.00, 0.00, -0.00, -1.00, 372.8, 373.2)"> </text><image xlink:href="../../523CAAC4-6675-4795-9017-3A01B4AAEB4F/assets/7B59D5AF361E826731F1A5529E4032C8.png" width="60.00" height="29.00" transform="matrix(1.00, 0.00, -0.00, -1.00, 86.0, 362.0)"></image><text xml:space="preserve" font-family="HelveticaNeue-Medium,Helvetica Neue" font-size="26.9" fill="#EAEAEA" transform="matrix(1.00, 0.00, -0.00, -1.00, 89.9, 340.2)">ﬂ</text><text xml:space="preserve" font-family="HelveticaNeue-Medium,Helvetica Neue" font-size="26.9" fill="#EAEAEA" transform="matrix(1.00, 0.00, -0.00, -1.00, 104.9, 340.2)">o</text><text xml:space="preserve" font-family="HelveticaNeue-Medium,Helvetica Neue" font-size="26.9" fill="#EAEAEA" transform="matrix(1.00, 0.00, -0.00, -1.00, 120.8, 340.2)">w</text><text xml:space="preserve" font-family="HelveticaNeue-Medium,Helvetica Neue" font-size="26.9" fill="#EAEAEA" transform="matrix(1.00, 0.00, -0.00, -1.00, 141.7, 340.2)"> </text><image xlink:href="../../523CAAC4-6675-4795-9017-3A01B4AAEB4F/assets/664777DDDEA39EC4F0CE9056DCB53949.png" width="16.00" height="16.00" transform="matrix(1.00, 0.00, -0.00, -1.00, 61.0, 292.0)"></image><text xml:space="preserve" font-family="HelveticaNeue-Medium,Helvetica Neue" font-size="20.2" fill="#EBEAEA" transform="matrix(1.00, 0.00, -0.00, -1.00, 64.0, 278.9)">•</text><image xlink:href="../../523CAAC4-6675-4795-9017-3A01B4AAEB4F/assets/3795402C1F9B21DEBBC247EE0ED1C5F4.png" width="292.00" height="33.00" transform="matrix(1.00, 0.00, -0.00, -1.00, 87.0, 298.0)"></image><text xml:space="preserve" font-family="HelveticaNeue-Medium,Helvetica Neue" font-size="26.9" fill="#EAEAEA" transform="matrix(1.00, 0.00, -0.00, -1.00, 89.9, 276.5)">B</text><text xml:space="preserve" font-family="HelveticaNeue-Medium,Helvetica Neue" font-size="26.9" fill="#EAEAEA" transform="matrix(1.00, 0.00, -0.00, -1.00, 108.8, 276.5)">a</text><text xml:space="preserve" font-family="HelveticaNeue-Medium,Helvetica Neue" font-size="26.9" fill="#EAEAEA" transform="matrix(1.00, 0.00, -0.00, -1.00, 123.8, 276.5)">c</text><text xml:space="preserve" font-family="HelveticaNeue-Medium,Helvetica Neue" font-size="26.9" fill="#EAEAEA" transform="matrix(1.00, 0.00, -0.00, -1.00, 138.7, 276.5)">k</text><text xml:space="preserve" font-family="HelveticaNeue-Medium,Helvetica Neue" font-size="26.9" fill="#EAEAEA" transform="matrix(1.00, 0.00, -0.00, -1.00, 153.2, 276.5)">-</text><text xml:space="preserve" font-family="HelveticaNeue-Medium,Helvetica Neue" font-size="26.9" fill="#EAEAEA" transform="matrix(1.00, 0.00, -0.00, -1.00, 163.6, 276.5)">p</text><text xml:space="preserve" font-family="HelveticaNeue-Medium,Helvetica Neue" font-size="26.9" fill="#EAEAEA" transform="matrix(1.00, 0.00, -0.00, -1.00, 180.0, 276.5)">r</text><text xml:space="preserve" font-family="HelveticaNeue-Medium,Helvetica Neue" font-size="26.9" fill="#EAEAEA" transform="matrix(1.00, 0.00, -0.00, -1.00, 189.0, 276.5)">e</text><text xml:space="preserve" font-family="HelveticaNeue-Medium,Helvetica Neue" font-size="26.9" fill="#EAEAEA" transform="matrix(1.00, 0.00, -0.00, -1.00, 204.0, 276.5)">s</text><text xml:space="preserve" font-family="HelveticaNeue-Medium,Helvetica Neue" font-size="26.9" fill="#EAEAEA" transform="matrix(1.00, 0.00, -0.00, -1.00, 217.9, 276.5)">s</text><text xml:space="preserve" font-family="HelveticaNeue-Medium,Helvetica Neue" font-size="26.9" fill="#EAEAEA" transform="matrix(1.00, 0.00, -0.00, -1.00, 231.9, 276.5)">u</text><text xml:space="preserve" font-family="HelveticaNeue-Medium,Helvetica Neue" font-size="26.9" fill="#EAEAEA" transform="matrix(1.00, 0.00, -0.00, -1.00, 247.3, 276.5)">r</text><text xml:space="preserve" font-family="HelveticaNeue-Medium,Helvetica Neue" font-size="26.9" fill="#EAEAEA" transform="matrix(1.00, 0.00, -0.00, -1.00, 256.3, 276.5)">e</text><text xml:space="preserve" font-family="HelveticaNeue-Medium,Helvetica Neue" font-size="26.9" fill="#EAEAEA" transform="matrix(1.00, 0.00, -0.00, -1.00, 271.2, 276.5)"> </text><text xml:space="preserve" font-family="HelveticaNeue-Medium,Helvetica Neue" font-size="26.9" fill="#EAEAEA" transform="matrix(1.00, 0.00, -0.00, -1.00, 278.7, 276.5)">s</text><text xml:space="preserve" font-family="HelveticaNeue-Medium,Helvetica Neue" font-size="26.9" fill="#EAEAEA" transform="matrix(1.00, 0.00, -0.00, -1.00, 292.6, 276.5)">u</text><text xml:space="preserve" font-family="HelveticaNeue-Medium,Helvetica Neue" font-size="26.9" fill="#EAEAEA" transform="matrix(1.00, 0.00, -0.00, -1.00, 308.1, 276.5)">p</text><text xml:space="preserve" font-family="HelveticaNeue-Medium,Helvetica Neue" font-size="26.9" fill="#EAEAEA" transform="matrix(1.00, 0.00, -0.00, -1.00, 324.5, 276.5)">p</text><text xml:space="preserve" font-family="HelveticaNeue-Medium,Helvetica Neue" font-size="26.9" fill="#EAEAEA" transform="matrix(1.00, 0.00, -0.00, -1.00, 340.9, 276.5)">o</text><text xml:space="preserve" font-family="HelveticaNeue-Medium,Helvetica Neue" font-size="26.9" fill="#EAEAEA" transform="matrix(1.00, 0.00, -0.00, -1.00, 356.9, 276.5)">r</text><text xml:space="preserve" font-family="HelveticaNeue-Medium,Helvetica Neue" font-size="26.9" fill="#EAEAEA" transform="matrix(1.00, 0.00, -0.00, -1.00, 366.3, 276.5)">t</text><image xlink:href="../../E2476EF2-0E13-4993-9889-24FEBCEADE24/assets/22C0E94BD24BCDEA7E69B1189F433DE8.png" width="222.00" height="32.00" transform="matrix(1.00, 0.00, -0.00, -1.00, 498.0, 513.0)"></image><text xml:space="preserve" font-family="Monaco,Monaco" font-size="28.0" fill="#B7D936" transform="matrix(1.00, 0.00, -0.00, -1.00, 500.3, 488.1)">c</text><text xml:space="preserve" font-family="Monaco,Monaco" font-size="28.0" fill="#B7D936" transform="matrix(1.00, 0.00, -0.00, -1.00, 517.1, 488.1)">r</text><text xml:space="preserve" font-family="Monaco,Monaco" font-size="28.0" fill="#B7D936" transform="matrix(1.00, 0.00, -0.00, -1.00, 533.9, 488.1)">e</text><text xml:space="preserve" font-family="Monaco,Monaco" font-size="28.0" fill="#B7D936" transform="matrix(1.00, 0.00, -0.00, -1.00, 550.7, 488.1)">a</text><text xml:space="preserve" font-family="Monaco,Monaco" font-size="28.0" fill="#B7D936" transform="matrix(1.00, 0.00, -0.00, -1.00, 567.5, 488.1)">t</text><text xml:space="preserve" font-family="Monaco,Monaco" font-size="28.0" fill="#B7D936" transform="matrix(1.00, 0.00, -0.00, -1.00, 584.4, 488.1)">e</text><text xml:space="preserve" font-family="Monaco,Monaco" font-size="28.0" fill="#B7D936" transform="matrix(1.00, 0.00, -0.00, -1.00, 601.2, 488.1)">C</text><text xml:space="preserve" font-family="Monaco,Monaco" font-size="28.0" fill="#B7D936" transform="matrix(1.00, 0.00, -0.00, -1.00, 618.0, 488.1)">h</text><text xml:space="preserve" font-family="Monaco,Monaco" font-size="28.0" fill="#B7D936" transform="matrix(1.00, 0.00, -0.00, -1.00, 634.8, 488.1)">a</text><text xml:space="preserve" font-family="Monaco,Monaco" font-size="28.0" fill="#B7D936" transform="matrix(1.00, 0.00, -0.00, -1.00, 651.6, 488.1)">n</text><text xml:space="preserve" font-family="Monaco,Monaco" font-size="28.0" fill="#B7D936" transform="matrix(1.00, 0.00, -0.00, -1.00, 668.4, 488.1)">n</text><text xml:space="preserve" font-family="Monaco,Monaco" font-size="28.0" fill="#B7D936" transform="matrix(1.00, 0.00, -0.00, -1.00, 685.2, 488.1)">e</text><text xml:space="preserve" font-family="Monaco,Monaco" font-size="28.0" fill="#B7D936" transform="matrix(1.00, 0.00, -0.00, -1.00, 702.0, 488.1)">l</text><image xlink:href="../../E2476EF2-0E13-4993-9889-24FEBCEADE24/assets/B633F8B65805B84630100641A7EB6D2B.png" width="37.00" height="36.00" transform="matrix(1.00, 0.00, -0.00, -1.00, 717.0, 513.0)"></image><text xml:space="preserve" font-family="Monaco,Monaco" font-size="28.0" fill="#EAEAEA" transform="matrix(1.00, 0.00, -0.00, -1.00, 718.8, 488.1)">(</text><text xml:space="preserve" font-family="Monaco,Monaco" font-size="28.0" fill="#EAEAEA" transform="matrix(1.00, 0.00, -0.00, -1.00, 735.6, 488.1)">)</text><image xlink:href="../../E2476EF2-0E13-4993-9889-24FEBCEADE24/assets/B6D8AF4A81222E1C5ECC8461D5CDDB43.png" width="214.00" height="76.00" transform="matrix(1.00, 0.00, -0.00, -1.01, 519.6, 415.9)" opacity="0.50"></image><g><clipPath id="clip0x600001cb83c0"><path d="M 523.6 360.4 L 524.0 398.9 C 524.0 407.2 530.3 413.5 538.6 413.5 L 714.1 413.5 C 722.4 413.5 729.0 407.2 729.0 398.9 L 729.0 360.4 C 729.0 352.2 722.4 345.5 714.1 345.5 L 538.6 345.5 C 530.3 345.5 523.6 352.2 523.6 360.4 Z M 523.6 360.4 "></path></clipPath><g clip-path="url(#clip0x600001cb83c0)"><image xlink:href="../../AC264CEF-AE8D-43F0-A92B-1A5A6C63C05C/assets/66812298EC73D46BADCACA9889D2977F.png" width="512.00" height="512.00" transform="matrix(0.50, 0.00, -0.00, -0.50, 523.6, 413.5)"></image></g></g><image xlink:href="1104B98308DCCC34AED2750B5B6C3EBF.png" width="171.00" height="29.00" transform="matrix(1.00, 0.00, -0.00, -1.00, 540.0, 393.0)"></image><g><clipPath id="clip0x600001cb84e0"><path d="M 515.6 345.4 L 737.1 345.4 L 737.1 413.9 L 515.6 413.9 Z M 515.6 345.4 "></path></clipPath><g clip-path="url(#clip0x600001cb84e0)"><text xml:space="preserve" font-family="HelveticaNeue-Medium,Helvetica Neue" font-size="30.0" fill="#FEFFFE" transform="matrix(1.00, 0.00, -0.00, -1.00, 543.0, 369.0)">w</text><text xml:space="preserve" font-family="HelveticaNeue-Medium,Helvetica Neue" font-size="30.0" fill="#FEFFFE" transform="matrix(1.00, 0.00, -0.00, -1.00, 566.3, 369.0)">r</text><text xml:space="preserve" font-family="HelveticaNeue-Medium,Helvetica Neue" font-size="30.0" fill="#FEFFFE" transform="matrix(1.00, 0.00, -0.00, -1.00, 576.9, 369.0)">i</text><text xml:space="preserve" font-family="HelveticaNeue-Medium,Helvetica Neue" font-size="30.0" fill="#FEFFFE" transform="matrix(1.00, 0.00, -0.00, -1.00, 584.1, 369.0)">t</text><text xml:space="preserve" font-family="HelveticaNeue-Medium,Helvetica Neue" font-size="30.0" fill="#FEFFFE" transform="matrix(1.00, 0.00, -0.00, -1.00, 594.1, 369.0)">e</text><text xml:space="preserve" font-family="HelveticaNeue-Medium,Helvetica Neue" font-size="30.0" fill="#FEFFFE" transform="matrix(1.00, 0.00, -0.00, -1.00, 610.8, 369.0)">S</text><text xml:space="preserve" font-family="HelveticaNeue-Medium,Helvetica Neue" font-size="30.0" fill="#FEFFFE" transform="matrix(1.00, 0.00, -0.00, -1.00, 630.2, 369.0)">t</text><text xml:space="preserve" font-family="HelveticaNeue-Medium,Helvetica Neue" font-size="30.0" fill="#FEFFFE" transform="matrix(1.00, 0.00, -0.00, -1.00, 640.2, 369.0)">r</text><text xml:space="preserve" font-family="HelveticaNeue-Medium,Helvetica Neue" font-size="30.0" fill="#FEFFFE" transform="matrix(1.00, 0.00, -0.00, -1.00, 650.2, 369.0)">e</text><text xml:space="preserve" font-family="HelveticaNeue-Medium,Helvetica Neue" font-size="30.0" fill="#FEFFFE" transform="matrix(1.00, 0.00, -0.00, -1.00, 666.9, 369.0)">a</text><text xml:space="preserve" font-family="HelveticaNeue-Medium,Helvetica Neue" font-size="30.0" fill="#FEFFFE" transform="matrix(1.00, 0.00, -0.00, -1.00, 683.6, 369.0)">m</text></g></g><image xlink:href="../../E2476EF2-0E13-4993-9889-24FEBCEADE24/assets/61DA6BA176783D001110EC0E8B00E9C5.png" width="214.00" height="76.00" transform="matrix(1.00, 0.00, -0.00, -1.01, 519.6, 201.6)" opacity="0.50"></image><g><clipPath id="clip0x600001cb8ba0"><path d="M 523.6 146.2 L 524.0 184.6 C 524.0 192.9 530.3 199.2 538.6 199.2 L 714.1 199.2 C 722.4 199.2 729.0 192.9 729.0 184.6 L 729.0 146.2 C 729.0 137.9 722.4 131.2 714.1 131.2 L 538.6 131.2 C 530.3 131.2 523.6 137.9 523.6 146.2 Z M 523.6 146.2 "></path></clipPath><g clip-path="url(#clip0x600001cb8ba0)"><image xlink:href="../../AC264CEF-AE8D-43F0-A92B-1A5A6C63C05C/assets/66812298EC73D46BADCACA9889D2977F.png" width="512.00" height="512.00" transform="matrix(0.50, 0.00, -0.00, -0.50, 523.6, 199.2)"></image></g></g><image xlink:href="436AEA8454E1DB8B57CDECC7098675EE.png" width="164.00" height="29.00" transform="matrix(1.00, 0.00, -0.00, -1.00, 544.0, 179.0)"></image><g><clipPath id="clip0x600001cb8ea0"><path d="M 515.6 131.2 L 737.1 131.2 L 737.1 199.6 L 515.6 199.6 Z M 515.6 131.2 "></path></clipPath><g clip-path="url(#clip0x600001cb8ea0)"><text xml:space="preserve" font-family="HelveticaNeue-Medium,Helvetica Neue" font-size="30.0" fill="#FEFFFE" transform="matrix(1.00, 0.00, -0.00, -1.00, 546.0, 154.7)">r</text><text xml:space="preserve" font-family="HelveticaNeue-Medium,Helvetica Neue" font-size="30.0" fill="#FEFFFE" transform="matrix(1.00, 0.00, -0.00, -1.00, 556.1, 154.7)">e</text><text xml:space="preserve" font-family="HelveticaNeue-Medium,Helvetica Neue" font-size="30.0" fill="#FEFFFE" transform="matrix(1.00, 0.00, -0.00, -1.00, 572.7, 154.7)">a</text><text xml:space="preserve" font-family="HelveticaNeue-Medium,Helvetica Neue" font-size="30.0" fill="#FEFFFE" transform="matrix(1.00, 0.00, -0.00, -1.00, 589.4, 154.7)">d</text><text xml:space="preserve" font-family="HelveticaNeue-Medium,Helvetica Neue" font-size="30.0" fill="#FEFFFE" transform="matrix(1.00, 0.00, -0.00, -1.00, 607.7, 154.7)">S</text><text xml:space="preserve" font-family="HelveticaNeue-Medium,Helvetica Neue" font-size="30.0" fill="#FEFFFE" transform="matrix(1.00, 0.00, -0.00, -1.00, 627.2, 154.7)">t</text><text xml:space="preserve" font-family="HelveticaNeue-Medium,Helvetica Neue" font-size="30.0" fill="#FEFFFE" transform="matrix(1.00, 0.00, -0.00, -1.00, 637.2, 154.7)">r</text><text xml:space="preserve" font-family="HelveticaNeue-Medium,Helvetica Neue" font-size="30.0" fill="#FEFFFE" transform="matrix(1.00, 0.00, -0.00, -1.00, 647.2, 154.7)">e</text><text xml:space="preserve" font-family="HelveticaNeue-Medium,Helvetica Neue" font-size="30.0" fill="#FEFFFE" transform="matrix(1.00, 0.00, -0.00, -1.00, 663.9, 154.7)">a</text><text xml:space="preserve" font-family="HelveticaNeue-Medium,Helvetica Neue" font-size="30.0" fill="#FEFFFE" transform="matrix(1.00, 0.00, -0.00, -1.00, 680.6, 154.7)">m</text></g></g><image xlink:href="../../E2476EF2-0E13-4993-9889-24FEBCEADE24/assets/7A9F0491493519B9C98C401BFF2D543E.png" width="176.00" height="76.00" transform="matrix(1.00, 0.00, -0.00, -1.01, 726.7, 415.9)" opacity="0.50"></image><path d="M 794.0 358.0 L 794.0 345.5 L 730.7 379.7 L 794.0 413.9 L 794.0 401.0 L 899.0 401.0 L 899.0 358.0 Z M 793.7 358.1 " fill="#CE7123"></path><image xlink:href="../../E2476EF2-0E13-4993-9889-24FEBCEADE24/assets/65BFA173347551EF0D893A4811A122A2.png" width="115.00" height="28.00" transform="matrix(1.00, 0.00, -0.00, -1.00, 777.0, 393.0)"></image><g><clipPath id="clip0x600001cb9560"><path d="M 730.7 345.5 L 903.3 345.5 L 903.3 413.9 L 730.7 413.9 Z M 730.7 345.5 "></path></clipPath><g clip-path="url(#clip0x600001cb9560)"><text xml:space="preserve" font-family="Monaco,Monaco" font-size="25.0" fill="#FEFFFE" transform="matrix(1.00, 0.00, -0.00, -1.00, 772.6, 372.3)">.</text><text xml:space="preserve" font-family="Monaco,Monaco" font-size="25.0" fill="#FEFFFE" transform="matrix(1.00, 0.00, -0.00, -1.00, 787.6, 372.3)">w</text><text xml:space="preserve" font-family="Monaco,Monaco" font-size="25.0" fill="#FEFFFE" transform="matrix(1.00, 0.00, -0.00, -1.00, 802.6, 372.3)">r</text><text xml:space="preserve" font-family="Monaco,Monaco" font-size="25.0" fill="#FEFFFE" transform="matrix(1.00, 0.00, -0.00, -1.00, 817.6, 372.3)">i</text><text xml:space="preserve" font-family="Monaco,Monaco" font-size="25.0" fill="#FEFFFE" transform="matrix(1.00, 0.00, -0.00, -1.00, 832.6, 372.3)">t</text><text xml:space="preserve" font-family="Monaco,Monaco" font-size="25.0" fill="#FEFFFE" transform="matrix(1.00, 0.00, -0.00, -1.00, 847.6, 372.3)">e</text><text xml:space="preserve" font-family="Monaco,Monaco" font-size="25.0" fill="#FEFFFE" transform="matrix(1.00, 0.00, -0.00, -1.00, 862.7, 372.3)">(</text><text xml:space="preserve" font-family="Monaco,Monaco" font-size="25.0" fill="#FEFFFE" transform="matrix(1.00, 0.00, -0.00, -1.00, 877.7, 372.3)">)</text></g></g><image xlink:href="../../E2476EF2-0E13-4993-9889-24FEBCEADE24/assets/05B627D5C236EF44CEDA938A162BA033.png" width="176.00" height="76.00" transform="matrix(1.00, 0.00, -0.00, -1.01, 352.9, 201.6)" opacity="0.50"></image><path d="M 420.0 144.0 L 420.0 131.1 L 356.9 165.3 L 420.0 199.6 L 420.0 187.0 L 525.0 187.0 L 525.0 144.0 Z M 419.8 143.7 " fill="#CE7123"></path><image xlink:href="../../E2476EF2-0E13-4993-9889-24FEBCEADE24/assets/5EF122592DADA3923199B7494E7CBE55.png" width="100.00" height="27.00" transform="matrix(1.00, 0.00, -0.00, -1.00, 410.0, 178.0)"></image><g><clipPath id="clip0x600001cb9c80"><path d="M 356.9 131.1 L 529.4 131.1 L 529.4 199.6 L 356.9 199.6 Z M 356.9 131.1 "></path></clipPath><g clip-path="url(#clip0x600001cb9c80)"><text xml:space="preserve" font-family="Monaco,Monaco" font-size="25.0" fill="#FEFFFE" transform="matrix(1.00, 0.00, -0.00, -1.00, 406.3, 157.9)">.</text><text xml:space="preserve" font-family="Monaco,Monaco" font-size="25.0" fill="#FEFFFE" transform="matrix(1.00, 0.00, -0.00, -1.00, 421.3, 157.9)">r</text><text xml:space="preserve" font-family="Monaco,Monaco" font-size="25.0" fill="#FEFFFE" transform="matrix(1.00, 0.00, -0.00, -1.00, 436.3, 157.9)">e</text><text xml:space="preserve" font-family="Monaco,Monaco" font-size="25.0" fill="#FEFFFE" transform="matrix(1.00, 0.00, -0.00, -1.00, 451.3, 157.9)">a</text><text xml:space="preserve" font-family="Monaco,Monaco" font-size="25.0" fill="#FEFFFE" transform="matrix(1.00, 0.00, -0.00, -1.00, 466.3, 157.9)">d</text><text xml:space="preserve" font-family="Monaco,Monaco" font-size="25.0" fill="#FEFFFE" transform="matrix(1.00, 0.00, -0.00, -1.00, 481.3, 157.9)">(</text><text xml:space="preserve" font-family="Monaco,Monaco" font-size="25.0" fill="#FEFFFE" transform="matrix(1.00, 0.00, -0.00, -1.00, 496.3, 157.9)">)</text></g></g><image xlink:href="../../E2476EF2-0E13-4993-9889-24FEBCEADE24/assets/5B2E01F43F7F7ADAE257935D139B28F9.png" width="143.00" height="110.00" transform="matrix(0.00, 1.00, 1.00, -0.00, 571.4, 200.3)" opacity="0.50"></image><path d="M 26.4 71.7 L 26.4 100.0 L 0.0 50.0 L 26.4 0.0 L 26.4 28.7 L 103.4 28.7 L 103.4 0.0 L 130.4 50.0 L 103.4 100.0 L 103.4 71.7 Z M 26.5 71.3 " fill="none" stroke="#ECAC0F" stroke-width="4.00" stroke-dasharray="8.0, 8.0" transform="matrix(0.00, 1.00, 1.00, 0.00, 576.3, 208.6)"></path><image xlink:href="../../E2476EF2-0E13-4993-9889-24FEBCEADE24/assets/8F405A917607E5E4978D92A81187876D.png" width="108.00" height="45.00" transform="matrix(1.00, 0.00, -0.00, -1.01, 235.3, 186.1)" opacity="0.50"></image><g><clipPath id="clip0x600001cba340"><path d="M 239.3 159.8 L 239.3 171.0 C 239.3 178.3 245.2 184.2 252.5 184.2 L 326.2 184.2 C 333.5 184.2 339.3 178.3 339.3 171.0 L 339.3 159.8 C 339.3 152.5 333.5 146.2 326.2 146.2 L 252.5 146.2 C 245.2 146.2 239.3 152.5 239.3 159.8 Z M 239.3 159.8 "></path></clipPath><g clip-path="url(#clip0x600001cba340)"><image xlink:href="../../82A921EE-8E53-40EE-A95B-4C038CB6B5A6/assets/D80EC8B1EF239560EB871BFEE640DE30.png" width="512.00" height="512.00" transform="matrix(0.50, 0.00, -0.00, -0.50, 239.3, 184.2)"></image></g></g><image xlink:href="461AD89682D7D4D866F6E9B9B32D94AF.png" width="75.00" height="26.00" transform="matrix(1.00, 0.00, -0.00, -1.00, 253.0, 177.0)"></image><g><clipPath id="clip0x6080018afd80"><path d="M 239.3 139.4 L 339.3 139.4 L 339.3 189.6 L 239.3 189.6 Z M 239.3 139.4 "></path></clipPath><g clip-path="url(#clip0x6080018afd80)"><text xml:space="preserve" font-family="HelveticaNeue-Medium,Helvetica Neue" font-size="25.0" fill="#FEFFFE" transform="matrix(1.00, 0.00, -0.00, -1.00, 254.4, 156.3)">B</text><text xml:space="preserve" font-family="HelveticaNeue-Medium,Helvetica Neue" font-size="25.0" fill="#FEFFFE" transform="matrix(1.00, 0.00, -0.00, -1.00, 272.0, 156.3)">u</text><text xml:space="preserve" font-family="HelveticaNeue-Medium,Helvetica Neue" font-size="25.0" fill="#FEFFFE" transform="matrix(1.00, 0.00, -0.00, -1.00, 286.3, 156.3)">f</text><text xml:space="preserve" font-family="HelveticaNeue-Medium,Helvetica Neue" font-size="25.0" fill="#FEFFFE" transform="matrix(1.00, 0.00, -0.00, -1.00, 293.7, 156.3)">f</text><text xml:space="preserve" font-family="HelveticaNeue-Medium,Helvetica Neue" font-size="25.0" fill="#FEFFFE" transform="matrix(1.00, 0.00, -0.00, -1.00, 301.6, 156.3)">e</text><text xml:space="preserve" font-family="HelveticaNeue-Medium,Helvetica Neue" font-size="25.0" fill="#FEFFFE" transform="matrix(1.00, 0.00, -0.00, -1.00, 315.5, 156.3)">r</text></g></g><image xlink:href="../../E2476EF2-0E13-4993-9889-24FEBCEADE24/assets/FFC03A7A0132435D6D7EAE9E0DF5E95E.png" width="115.00" height="156.00" transform="matrix(0.50, 0.00, -0.00, -0.50, 303.0, 488.0)"></image></g></svg>