<?xml version="1.0" encoding="UTF-8" standalone="no"?><svg xmlns="http://www.w3.org/2000/svg" xmlns:xlink="http://www.w3.org/1999/xlink" clip-rule="evenodd" stroke-miterlimit="10" viewBox="0 0 179 83"><desc>SVG generated by Keynote</desc><defs></defs><g transform="matrix(1.00, 0.00, -0.00, -1.00, 0.0, 83.0)"><image xlink:href="7A9F0491493519B9C98C401BFF2D543E.png" width="176.00" height="76.00" transform="matrix(1.00, 0.00, -0.00, -1.01, 1.7, 77.9)" opacity="0.50"></image><path d="M 69.0 20.0 L 69.0 7.5 L 5.7 41.7 L 69.0 75.9 L 69.0 63.0 L 174.0 63.0 L 174.0 20.0 Z M 68.7 20.1 " fill="#CE7123"></path><image xlink:href="65BFA173347551EF0D893A4811A122A2.png" width="115.00" height="28.00" transform="matrix(1.00, 0.00, -0.00, -1.00, 52.0, 55.0)"></image><g><clipPath id="clip0x600001ca97e0"><path d="M 5.7 7.5 L 178.3 7.5 L 178.3 75.9 L 5.7 75.9 Z M 5.7 7.5 "></path></clipPath><g clip-path="url(#clip0x600001ca97e0)"><text xml:space="preserve" font-family="Monaco,Monaco" font-size="25.0" fill="#FEFFFE" transform="matrix(1.00, 0.00, -0.00, -1.00, 47.6, 34.3)">.</text><text xml:space="preserve" font-family="Monaco,Monaco" font-size="25.0" fill="#FEFFFE" transform="matrix(1.00, 0.00, -0.00, -1.00, 62.6, 34.3)">w</text><text xml:space="preserve" font-family="Monaco,Monaco" font-size="25.0" fill="#FEFFFE" transform="matrix(1.00, 0.00, -0.00, -1.00, 77.6, 34.3)">r</text><text xml:space="preserve" font-family="Monaco,Monaco" font-size="25.0" fill="#FEFFFE" transform="matrix(1.00, 0.00, -0.00, -1.00, 92.6, 34.3)">i</text><text xml:space="preserve" font-family="Monaco,Monaco" font-size="25.0" fill="#FEFFFE" transform="matrix(1.00, 0.00, -0.00, -1.00, 107.6, 34.3)">t</text><text xml:space="preserve" font-family="Monaco,Monaco" font-size="25.0" fill="#FEFFFE" transform="matrix(1.00, 0.00, -0.00, -1.00, 122.6, 34.3)">e</text><text xml:space="preserve" font-family="Monaco,Monaco" font-size="25.0" fill="#FEFFFE" transform="matrix(1.00, 0.00, -0.00, -1.00, 137.7, 34.3)">(</text><text xml:space="preserve" font-family="Monaco,Monaco" font-size="25.0" fill="#FEFFFE" transform="matrix(1.00, 0.00, -0.00, -1.00, 152.7, 34.3)">)</text></g></g></g></svg>