<?xml version="1.0" encoding="UTF-8" standalone="no"?><svg xmlns="http://www.w3.org/2000/svg" xmlns:xlink="http://www.w3.org/1999/xlink" clip-rule="evenodd" stroke-miterlimit="10" viewBox="0 0 353 294"><desc>SVG generated by Keynote</desc><defs></defs><g transform="matrix(1.00, 0.00, -0.00, -1.00, 0.0, 294.0)"><image xlink:href="../../523CAAC4-6675-4795-9017-3A01B4AAEB4F/assets/09FBD49B0373E221AE0BE0139D3B69A0.png" width="16.00" height="16.00" transform="matrix(1.00, 0.00, -0.00, -1.00, 1.0, 285.0)"></image><text xml:space="preserve" font-family="HelveticaNeue-Medium,Helvetica Neue" font-size="20.2" fill="#EBEAEA" transform="matrix(1.00, 0.00, -0.00, -1.00, 4.0, 272.1)">•</text><image xlink:href="../../523CAAC4-6675-4795-9017-3A01B4AAEB4F/assets/97F53022AD9D80C9D1C59E38B20BDD8D.png" width="203.00" height="29.00" transform="matrix(1.00, 0.00, -0.00, -1.00, 26.0, 292.0)"></image><text xml:space="preserve" font-family="HelveticaNeue-Medium,Helvetica Neue" font-size="26.9" fill="#EAEAEA" transform="matrix(1.00, 0.00, -0.00, -1.00, 29.9, 269.6)">C</text><text xml:space="preserve" font-family="HelveticaNeue-Medium,Helvetica Neue" font-size="26.9" fill="#EAEAEA" transform="matrix(1.00, 0.00, -0.00, -1.00, 49.3, 269.6)">o</text><text xml:space="preserve" font-family="HelveticaNeue-Medium,Helvetica Neue" font-size="26.9" fill="#EAEAEA" transform="matrix(1.00, 0.00, -0.00, -1.00, 65.3, 269.6)">m</text><text xml:space="preserve" font-family="HelveticaNeue-Medium,Helvetica Neue" font-size="26.9" fill="#EAEAEA" transform="matrix(1.00, 0.00, -0.00, -1.00, 88.7, 269.6)">m</text><text xml:space="preserve" font-family="HelveticaNeue-Medium,Helvetica Neue" font-size="26.9" fill="#EAEAEA" transform="matrix(1.00, 0.00, -0.00, -1.00, 112.0, 269.6)">u</text><text xml:space="preserve" font-family="HelveticaNeue-Medium,Helvetica Neue" font-size="26.9" fill="#EAEAEA" transform="matrix(1.00, 0.00, -0.00, -1.00, 127.5, 269.6)">n</text><text xml:space="preserve" font-family="HelveticaNeue-Medium,Helvetica Neue" font-size="26.9" fill="#EAEAEA" transform="matrix(1.00, 0.00, -0.00, -1.00, 142.9, 269.6)">i</text><text xml:space="preserve" font-family="HelveticaNeue-Medium,Helvetica Neue" font-size="26.9" fill="#EAEAEA" transform="matrix(1.00, 0.00, -0.00, -1.00, 149.4, 269.6)">c</text><text xml:space="preserve" font-family="HelveticaNeue-Medium,Helvetica Neue" font-size="26.9" fill="#EAEAEA" transform="matrix(1.00, 0.00, -0.00, -1.00, 164.3, 269.6)">a</text><text xml:space="preserve" font-family="HelveticaNeue-Medium,Helvetica Neue" font-size="26.9" fill="#EAEAEA" transform="matrix(1.00, 0.00, -0.00, -1.00, 179.3, 269.6)">t</text><text xml:space="preserve" font-family="HelveticaNeue-Medium,Helvetica Neue" font-size="26.9" fill="#EAEAEA" transform="matrix(1.00, 0.00, -0.00, -1.00, 188.2, 269.6)">i</text><text xml:space="preserve" font-family="HelveticaNeue-Medium,Helvetica Neue" font-size="26.9" fill="#EAEAEA" transform="matrix(1.00, 0.00, -0.00, -1.00, 194.7, 269.6)">o</text><text xml:space="preserve" font-family="HelveticaNeue-Medium,Helvetica Neue" font-size="26.9" fill="#EAEAEA" transform="matrix(1.00, 0.00, -0.00, -1.00, 210.6, 269.6)">n</text><text xml:space="preserve" font-family="HelveticaNeue-Medium,Helvetica Neue" font-size="26.9" fill="#EAEAEA" transform="matrix(1.00, 0.00, -0.00, -1.00, 226.1, 269.6)"> </text><image xlink:href="../../523CAAC4-6675-4795-9017-3A01B4AAEB4F/assets/8DDA737834AEC251B430963684443592.png" width="324.00" height="34.00" transform="matrix(1.00, 0.00, -0.00, -1.00, 26.0, 259.0)"></image><text xml:space="preserve" font-family="HelveticaNeue-Medium,Helvetica Neue" font-size="26.9" fill="#EAEAEA" transform="matrix(1.00, 0.00, -0.00, -1.00, 29.9, 236.6)">S</text><text xml:space="preserve" font-family="HelveticaNeue-Medium,Helvetica Neue" font-size="26.9" fill="#EAEAEA" transform="matrix(1.00, 0.00, -0.00, -1.00, 47.3, 236.6)">e</text><text xml:space="preserve" font-family="HelveticaNeue-Medium,Helvetica Neue" font-size="26.9" fill="#EAEAEA" transform="matrix(1.00, 0.00, -0.00, -1.00, 62.3, 236.6)">q</text><text xml:space="preserve" font-family="HelveticaNeue-Medium,Helvetica Neue" font-size="26.9" fill="#EAEAEA" transform="matrix(1.00, 0.00, -0.00, -1.00, 78.7, 236.6)">u</text><text xml:space="preserve" font-family="HelveticaNeue-Medium,Helvetica Neue" font-size="26.9" fill="#EAEAEA" transform="matrix(1.00, 0.00, -0.00, -1.00, 94.1, 236.6)">e</text><text xml:space="preserve" font-family="HelveticaNeue-Medium,Helvetica Neue" font-size="26.9" fill="#EAEAEA" transform="matrix(1.00, 0.00, -0.00, -1.00, 109.1, 236.6)">n</text><text xml:space="preserve" font-family="HelveticaNeue-Medium,Helvetica Neue" font-size="26.9" fill="#EAEAEA" transform="matrix(1.00, 0.00, -0.00, -1.00, 124.5, 236.6)">t</text><text xml:space="preserve" font-family="HelveticaNeue-Medium,Helvetica Neue" font-size="26.9" fill="#EAEAEA" transform="matrix(1.00, 0.00, -0.00, -1.00, 133.5, 236.6)">i</text><text xml:space="preserve" font-family="HelveticaNeue-Medium,Helvetica Neue" font-size="26.9" fill="#EAEAEA" transform="matrix(1.00, 0.00, -0.00, -1.00, 139.9, 236.6)">a</text><text xml:space="preserve" font-family="HelveticaNeue-Medium,Helvetica Neue" font-size="26.9" fill="#EAEAEA" transform="matrix(1.00, 0.00, -0.00, -1.00, 154.9, 236.6)">l</text><text xml:space="preserve" font-family="HelveticaNeue-Medium,Helvetica Neue" font-size="26.9" fill="#EAEAEA" transform="matrix(1.00, 0.00, -0.00, -1.00, 161.4, 236.6)"> </text><text xml:space="preserve" font-family="HelveticaNeue-Medium,Helvetica Neue" font-size="26.9" fill="#EAEAEA" transform="matrix(1.00, 0.00, -0.00, -1.00, 168.8, 236.6)">P</text><text xml:space="preserve" font-family="HelveticaNeue-Medium,Helvetica Neue" font-size="26.9" fill="#EAEAEA" transform="matrix(1.00, 0.00, -0.00, -1.00, 186.8, 236.6)">r</text><text xml:space="preserve" font-family="HelveticaNeue-Medium,Helvetica Neue" font-size="26.9" fill="#EAEAEA" transform="matrix(1.00, 0.00, -0.00, -1.00, 195.7, 236.6)">o</text><text xml:space="preserve" font-family="HelveticaNeue-Medium,Helvetica Neue" font-size="26.9" fill="#EAEAEA" transform="matrix(1.00, 0.00, -0.00, -1.00, 211.7, 236.6)">c</text><text xml:space="preserve" font-family="HelveticaNeue-Medium,Helvetica Neue" font-size="26.9" fill="#EAEAEA" transform="matrix(1.00, 0.00, -0.00, -1.00, 226.6, 236.6)">e</text><text xml:space="preserve" font-family="HelveticaNeue-Medium,Helvetica Neue" font-size="26.9" fill="#EAEAEA" transform="matrix(1.00, 0.00, -0.00, -1.00, 241.6, 236.6)">s</text><text xml:space="preserve" font-family="HelveticaNeue-Medium,Helvetica Neue" font-size="26.9" fill="#EAEAEA" transform="matrix(1.00, 0.00, -0.00, -1.00, 255.5, 236.6)">s</text><text xml:space="preserve" font-family="HelveticaNeue-Medium,Helvetica Neue" font-size="26.9" fill="#EAEAEA" transform="matrix(1.00, 0.00, -0.00, -1.00, 269.5, 236.6)"> </text><text xml:space="preserve" font-family="HelveticaNeue-Medium,Helvetica Neue" font-size="26.9" fill="#EAEAEA" transform="matrix(1.00, 0.00, -0.00, -1.00, 276.9, 236.6)">(</text><text xml:space="preserve" font-family="HelveticaNeue-Medium,Helvetica Neue" font-size="26.9" fill="#EAEAEA" transform="matrix(1.00, 0.00, -0.00, -1.00, 284.4, 236.6)">C</text><text xml:space="preserve" font-family="HelveticaNeue-Medium,Helvetica Neue" font-size="26.9" fill="#EAEAEA" transform="matrix(1.00, 0.00, -0.00, -1.00, 303.8, 236.6)">S</text><text xml:space="preserve" font-family="HelveticaNeue-Medium,Helvetica Neue" font-size="26.9" fill="#EAEAEA" transform="matrix(1.00, 0.00, -0.00, -1.00, 321.2, 236.6)">P</text><text xml:space="preserve" font-family="HelveticaNeue-Medium,Helvetica Neue" font-size="26.9" fill="#EAEAEA" transform="matrix(1.00, 0.00, -0.00, -1.00, 339.2, 236.6)">)</text><text xml:space="preserve" font-family="HelveticaNeue-Medium,Helvetica Neue" font-size="26.9" fill="#EAEAEA" transform="matrix(1.00, 0.00, -0.00, -1.00, 346.6, 236.6)"> </text><image xlink:href="../../523CAAC4-6675-4795-9017-3A01B4AAEB4F/assets/6EB45CCC43697BD1CD0F6E5900FF1B6F.png" width="16.00" height="17.00" transform="matrix(1.00, 0.00, -0.00, -1.00, 1.0, 189.0)"></image><text xml:space="preserve" font-family="HelveticaNeue-Medium,Helvetica Neue" font-size="20.2" fill="#EBEAEA" transform="matrix(1.00, 0.00, -0.00, -1.00, 4.0, 175.3)">•</text><image xlink:href="../../523CAAC4-6675-4795-9017-3A01B4AAEB4F/assets/F8E99BB06B03B4ED872852216914925D.png" width="204.00" height="29.00" transform="matrix(1.00, 0.00, -0.00, -1.00, 27.0, 195.0)"></image><text xml:space="preserve" font-family="HelveticaNeue-Medium,Helvetica Neue" font-size="26.9" fill="#EAEAEA" transform="matrix(1.00, 0.00, -0.00, -1.00, 29.9, 172.9)">G</text><text xml:space="preserve" font-family="HelveticaNeue-Medium,Helvetica Neue" font-size="26.9" fill="#EAEAEA" transform="matrix(1.00, 0.00, -0.00, -1.00, 50.3, 172.9)">o</text><text xml:space="preserve" font-family="HelveticaNeue-Medium,Helvetica Neue" font-size="26.9" fill="#EAEAEA" transform="matrix(1.00, 0.00, -0.00, -1.00, 66.3, 172.9)">-</text><text xml:space="preserve" font-family="HelveticaNeue-Medium,Helvetica Neue" font-size="26.9" fill="#EAEAEA" transform="matrix(1.00, 0.00, -0.00, -1.00, 76.7, 172.9)">l</text><text xml:space="preserve" font-family="HelveticaNeue-Medium,Helvetica Neue" font-size="26.9" fill="#EAEAEA" transform="matrix(1.00, 0.00, -0.00, -1.00, 83.2, 172.9)">i</text><text xml:space="preserve" font-family="HelveticaNeue-Medium,Helvetica Neue" font-size="26.9" fill="#EAEAEA" transform="matrix(1.00, 0.00, -0.00, -1.00, 89.7, 172.9)">k</text><text xml:space="preserve" font-family="HelveticaNeue-Medium,Helvetica Neue" font-size="26.9" fill="#EAEAEA" transform="matrix(1.00, 0.00, -0.00, -1.00, 104.1, 172.9)">e</text><text xml:space="preserve" font-family="HelveticaNeue-Medium,Helvetica Neue" font-size="26.9" fill="#EAEAEA" transform="matrix(1.00, 0.00, -0.00, -1.00, 119.1, 172.9)"> </text><text xml:space="preserve" font-family="HelveticaNeue-Medium,Helvetica Neue" font-size="26.9" fill="#EAEAEA" transform="matrix(1.00, 0.00, -0.00, -1.00, 126.5, 172.9)">C</text><text xml:space="preserve" font-family="HelveticaNeue-Medium,Helvetica Neue" font-size="26.9" fill="#EAEAEA" transform="matrix(1.00, 0.00, -0.00, -1.00, 145.9, 172.9)">h</text><text xml:space="preserve" font-family="HelveticaNeue-Medium,Helvetica Neue" font-size="26.9" fill="#EAEAEA" transform="matrix(1.00, 0.00, -0.00, -1.00, 161.4, 172.9)">a</text><text xml:space="preserve" font-family="HelveticaNeue-Medium,Helvetica Neue" font-size="26.9" fill="#EAEAEA" transform="matrix(1.00, 0.00, -0.00, -1.00, 176.3, 172.9)">n</text><text xml:space="preserve" font-family="HelveticaNeue-Medium,Helvetica Neue" font-size="26.9" fill="#EAEAEA" transform="matrix(1.00, 0.00, -0.00, -1.00, 191.7, 172.9)">n</text><text xml:space="preserve" font-family="HelveticaNeue-Medium,Helvetica Neue" font-size="26.9" fill="#EAEAEA" transform="matrix(1.00, 0.00, -0.00, -1.00, 207.2, 172.9)">e</text><text xml:space="preserve" font-family="HelveticaNeue-Medium,Helvetica Neue" font-size="26.9" fill="#EAEAEA" transform="matrix(1.00, 0.00, -0.00, -1.00, 222.1, 172.9)">l</text><text xml:space="preserve" font-family="HelveticaNeue-Medium,Helvetica Neue" font-size="26.9" fill="#EAEAEA" transform="matrix(1.00, 0.00, -0.00, -1.00, 228.6, 172.9)"> </text><image xlink:href="../../523CAAC4-6675-4795-9017-3A01B4AAEB4F/assets/6F36C253407DE38C744C8004A8616A64.png" width="16.00" height="16.00" transform="matrix(1.00, 0.00, -0.00, -1.00, 1.0, 125.0)"></image><text xml:space="preserve" font-family="HelveticaNeue-Medium,Helvetica Neue" font-size="20.2" fill="#EBEAEA" transform="matrix(1.00, 0.00, -0.00, -1.00, 4.0, 111.6)">•</text><image xlink:href="../../523CAAC4-6675-4795-9017-3A01B4AAEB4F/assets/3A5B860E7EC546CCEFD29AD146943CB9.png" width="289.00" height="29.00" transform="matrix(1.00, 0.00, -0.00, -1.00, 27.0, 131.0)"></image><text xml:space="preserve" font-family="HelveticaNeue-Medium,Helvetica Neue" font-size="26.9" fill="#EAEAEA" transform="matrix(1.00, 0.00, -0.00, -1.00, 29.9, 109.2)">P</text><text xml:space="preserve" font-family="HelveticaNeue-Medium,Helvetica Neue" font-size="26.9" fill="#EAEAEA" transform="matrix(1.00, 0.00, -0.00, -1.00, 47.8, 109.2)">r</text><text xml:space="preserve" font-family="HelveticaNeue-Medium,Helvetica Neue" font-size="26.9" fill="#EAEAEA" transform="matrix(1.00, 0.00, -0.00, -1.00, 56.8, 109.2)">o</text><text xml:space="preserve" font-family="HelveticaNeue-Medium,Helvetica Neue" font-size="26.9" fill="#EAEAEA" transform="matrix(1.00, 0.00, -0.00, -1.00, 72.8, 109.2)">m</text><text xml:space="preserve" font-family="HelveticaNeue-Medium,Helvetica Neue" font-size="26.9" fill="#EAEAEA" transform="matrix(1.00, 0.00, -0.00, -1.00, 96.2, 109.2)">i</text><text xml:space="preserve" font-family="HelveticaNeue-Medium,Helvetica Neue" font-size="26.9" fill="#EAEAEA" transform="matrix(1.00, 0.00, -0.00, -1.00, 102.6, 109.2)">s</text><text xml:space="preserve" font-family="HelveticaNeue-Medium,Helvetica Neue" font-size="26.9" fill="#EAEAEA" transform="matrix(1.00, 0.00, -0.00, -1.00, 116.6, 109.2)">e</text><text xml:space="preserve" font-family="HelveticaNeue-Medium,Helvetica Neue" font-size="26.9" fill="#EAEAEA" transform="matrix(1.00, 0.00, -0.00, -1.00, 131.5, 109.2)">-</text><text xml:space="preserve" font-family="HelveticaNeue-Medium,Helvetica Neue" font-size="26.9" fill="#EAEAEA" transform="matrix(1.00, 0.00, -0.00, -1.00, 142.0, 109.2)">b</text><text xml:space="preserve" font-family="HelveticaNeue-Medium,Helvetica Neue" font-size="26.9" fill="#EAEAEA" transform="matrix(1.00, 0.00, -0.00, -1.00, 158.4, 109.2)">a</text><text xml:space="preserve" font-family="HelveticaNeue-Medium,Helvetica Neue" font-size="26.9" fill="#EAEAEA" transform="matrix(1.00, 0.00, -0.00, -1.00, 173.4, 109.2)">s</text><text xml:space="preserve" font-family="HelveticaNeue-Medium,Helvetica Neue" font-size="26.9" fill="#EAEAEA" transform="matrix(1.00, 0.00, -0.00, -1.00, 187.3, 109.2)">e</text><text xml:space="preserve" font-family="HelveticaNeue-Medium,Helvetica Neue" font-size="26.9" fill="#EAEAEA" transform="matrix(1.00, 0.00, -0.00, -1.00, 202.2, 109.2)">d</text><text xml:space="preserve" font-family="HelveticaNeue-Medium,Helvetica Neue" font-size="26.9" fill="#EAEAEA" transform="matrix(1.00, 0.00, -0.00, -1.00, 218.7, 109.2)"> </text><text xml:space="preserve" font-family="HelveticaNeue-Medium,Helvetica Neue" font-size="26.9" fill="#EAEAEA" transform="matrix(1.00, 0.00, -0.00, -1.00, 226.1, 109.2)">c</text><text xml:space="preserve" font-family="HelveticaNeue-Medium,Helvetica Neue" font-size="26.9" fill="#EAEAEA" transform="matrix(1.00, 0.00, -0.00, -1.00, 241.1, 109.2)">o</text><text xml:space="preserve" font-family="HelveticaNeue-Medium,Helvetica Neue" font-size="26.9" fill="#EAEAEA" transform="matrix(1.00, 0.00, -0.00, -1.00, 257.0, 109.2)">n</text><text xml:space="preserve" font-family="HelveticaNeue-Medium,Helvetica Neue" font-size="26.9" fill="#EAEAEA" transform="matrix(1.00, 0.00, -0.00, -1.00, 272.5, 109.2)">t</text><text xml:space="preserve" font-family="HelveticaNeue-Medium,Helvetica Neue" font-size="26.9" fill="#EAEAEA" transform="matrix(1.00, 0.00, -0.00, -1.00, 281.4, 109.2)">r</text><text xml:space="preserve" font-family="HelveticaNeue-Medium,Helvetica Neue" font-size="26.9" fill="#EAEAEA" transform="matrix(1.00, 0.00, -0.00, -1.00, 290.4, 109.2)">o</text><text xml:space="preserve" font-family="HelveticaNeue-Medium,Helvetica Neue" font-size="26.9" fill="#EAEAEA" transform="matrix(1.00, 0.00, -0.00, -1.00, 306.3, 109.2)">l</text><text xml:space="preserve" font-family="HelveticaNeue-Medium,Helvetica Neue" font-size="26.9" fill="#EAEAEA" transform="matrix(1.00, 0.00, -0.00, -1.00, 312.8, 109.2)"> </text><image xlink:href="../../523CAAC4-6675-4795-9017-3A01B4AAEB4F/assets/7B59D5AF361E826731F1A5529E4032C8.png" width="60.00" height="29.00" transform="matrix(1.00, 0.00, -0.00, -1.00, 26.0, 98.0)"></image><text xml:space="preserve" font-family="HelveticaNeue-Medium,Helvetica Neue" font-size="26.9" fill="#EAEAEA" transform="matrix(1.00, 0.00, -0.00, -1.00, 29.9, 76.2)">ﬂ</text><text xml:space="preserve" font-family="HelveticaNeue-Medium,Helvetica Neue" font-size="26.9" fill="#EAEAEA" transform="matrix(1.00, 0.00, -0.00, -1.00, 44.9, 76.2)">o</text><text xml:space="preserve" font-family="HelveticaNeue-Medium,Helvetica Neue" font-size="26.9" fill="#EAEAEA" transform="matrix(1.00, 0.00, -0.00, -1.00, 60.8, 76.2)">w</text><text xml:space="preserve" font-family="HelveticaNeue-Medium,Helvetica Neue" font-size="26.9" fill="#EAEAEA" transform="matrix(1.00, 0.00, -0.00, -1.00, 81.7, 76.2)"> </text><image xlink:href="../../523CAAC4-6675-4795-9017-3A01B4AAEB4F/assets/664777DDDEA39EC4F0CE9056DCB53949.png" width="16.00" height="16.00" transform="matrix(1.00, 0.00, -0.00, -1.00, 1.0, 28.0)"></image><text xml:space="preserve" font-family="HelveticaNeue-Medium,Helvetica Neue" font-size="20.2" fill="#EBEAEA" transform="matrix(1.00, 0.00, -0.00, -1.00, 4.0, 14.9)">•</text><image xlink:href="../../523CAAC4-6675-4795-9017-3A01B4AAEB4F/assets/3795402C1F9B21DEBBC247EE0ED1C5F4.png" width="292.00" height="33.00" transform="matrix(1.00, 0.00, -0.00, -1.00, 27.0, 34.0)"></image><text xml:space="preserve" font-family="HelveticaNeue-Medium,Helvetica Neue" font-size="26.9" fill="#EAEAEA" transform="matrix(1.00, 0.00, -0.00, -1.00, 29.9, 12.5)">B</text><text xml:space="preserve" font-family="HelveticaNeue-Medium,Helvetica Neue" font-size="26.9" fill="#EAEAEA" transform="matrix(1.00, 0.00, -0.00, -1.00, 48.8, 12.5)">a</text><text xml:space="preserve" font-family="HelveticaNeue-Medium,Helvetica Neue" font-size="26.9" fill="#EAEAEA" transform="matrix(1.00, 0.00, -0.00, -1.00, 63.8, 12.5)">c</text><text xml:space="preserve" font-family="HelveticaNeue-Medium,Helvetica Neue" font-size="26.9" fill="#EAEAEA" transform="matrix(1.00, 0.00, -0.00, -1.00, 78.7, 12.5)">k</text><text xml:space="preserve" font-family="HelveticaNeue-Medium,Helvetica Neue" font-size="26.9" fill="#EAEAEA" transform="matrix(1.00, 0.00, -0.00, -1.00, 93.2, 12.5)">-</text><text xml:space="preserve" font-family="HelveticaNeue-Medium,Helvetica Neue" font-size="26.9" fill="#EAEAEA" transform="matrix(1.00, 0.00, -0.00, -1.00, 103.6, 12.5)">p</text><text xml:space="preserve" font-family="HelveticaNeue-Medium,Helvetica Neue" font-size="26.9" fill="#EAEAEA" transform="matrix(1.00, 0.00, -0.00, -1.00, 120.0, 12.5)">r</text><text xml:space="preserve" font-family="HelveticaNeue-Medium,Helvetica Neue" font-size="26.9" fill="#EAEAEA" transform="matrix(1.00, 0.00, -0.00, -1.00, 129.0, 12.5)">e</text><text xml:space="preserve" font-family="HelveticaNeue-Medium,Helvetica Neue" font-size="26.9" fill="#EAEAEA" transform="matrix(1.00, 0.00, -0.00, -1.00, 144.0, 12.5)">s</text><text xml:space="preserve" font-family="HelveticaNeue-Medium,Helvetica Neue" font-size="26.9" fill="#EAEAEA" transform="matrix(1.00, 0.00, -0.00, -1.00, 157.9, 12.5)">s</text><text xml:space="preserve" font-family="HelveticaNeue-Medium,Helvetica Neue" font-size="26.9" fill="#EAEAEA" transform="matrix(1.00, 0.00, -0.00, -1.00, 171.9, 12.5)">u</text><text xml:space="preserve" font-family="HelveticaNeue-Medium,Helvetica Neue" font-size="26.9" fill="#EAEAEA" transform="matrix(1.00, 0.00, -0.00, -1.00, 187.3, 12.5)">r</text><text xml:space="preserve" font-family="HelveticaNeue-Medium,Helvetica Neue" font-size="26.9" fill="#EAEAEA" transform="matrix(1.00, 0.00, -0.00, -1.00, 196.3, 12.5)">e</text><text xml:space="preserve" font-family="HelveticaNeue-Medium,Helvetica Neue" font-size="26.9" fill="#EAEAEA" transform="matrix(1.00, 0.00, -0.00, -1.00, 211.2, 12.5)"> </text><text xml:space="preserve" font-family="HelveticaNeue-Medium,Helvetica Neue" font-size="26.9" fill="#EAEAEA" transform="matrix(1.00, 0.00, -0.00, -1.00, 218.7, 12.5)">s</text><text xml:space="preserve" font-family="HelveticaNeue-Medium,Helvetica Neue" font-size="26.9" fill="#EAEAEA" transform="matrix(1.00, 0.00, -0.00, -1.00, 232.6, 12.5)">u</text><text xml:space="preserve" font-family="HelveticaNeue-Medium,Helvetica Neue" font-size="26.9" fill="#EAEAEA" transform="matrix(1.00, 0.00, -0.00, -1.00, 248.1, 12.5)">p</text><text xml:space="preserve" font-family="HelveticaNeue-Medium,Helvetica Neue" font-size="26.9" fill="#EAEAEA" transform="matrix(1.00, 0.00, -0.00, -1.00, 264.5, 12.5)">p</text><text xml:space="preserve" font-family="HelveticaNeue-Medium,Helvetica Neue" font-size="26.9" fill="#EAEAEA" transform="matrix(1.00, 0.00, -0.00, -1.00, 280.9, 12.5)">o</text><text xml:space="preserve" font-family="HelveticaNeue-Medium,Helvetica Neue" font-size="26.9" fill="#EAEAEA" transform="matrix(1.00, 0.00, -0.00, -1.00, 296.9, 12.5)">r</text><text xml:space="preserve" font-family="HelveticaNeue-Medium,Helvetica Neue" font-size="26.9" fill="#EAEAEA" transform="matrix(1.00, 0.00, -0.00, -1.00, 306.3, 12.5)">t</text></g></svg>