<?xml version="1.0" encoding="UTF-8" standalone="no"?><svg xmlns="http://www.w3.org/2000/svg" xmlns:xlink="http://www.w3.org/1999/xlink" clip-rule="evenodd" stroke-miterlimit="10" viewBox="0 0 346 35"><desc>SVG generated by Keynote</desc><defs></defs><g transform="matrix(1.00, 0.00, -0.00, -1.00, 0.0, 35.0)"><image xlink:href="../../AC264CEF-AE8D-43F0-A92B-1A5A6C63C05C/assets/68FC381F994B627C639CDED220A5D6F4.png" width="77.00" height="24.00" transform="matrix(1.00, 0.00, -0.00, -1.00, 2.0, 29.0)"></image><text xml:space="preserve" font-family="HelveticaNeue-Medium,Helvetica Neue" font-size="20.0" fill="#EAEAEA" transform="matrix(1.00, 0.00, -0.00, -1.00, 5.3, 12.1)">S</text><text xml:space="preserve" font-family="HelveticaNeue-Medium,Helvetica Neue" font-size="20.0" fill="#EAEAEA" transform="matrix(1.00, 0.00, -0.00, -1.00, 18.3, 12.1)">o</text><text xml:space="preserve" font-family="HelveticaNeue-Medium,Helvetica Neue" font-size="20.0" fill="#EAEAEA" transform="matrix(1.00, 0.00, -0.00, -1.00, 30.2, 12.1)">u</text><text xml:space="preserve" font-family="HelveticaNeue-Medium,Helvetica Neue" font-size="20.0" fill="#EAEAEA" transform="matrix(1.00, 0.00, -0.00, -1.00, 41.6, 12.1)">r</text><text xml:space="preserve" font-family="HelveticaNeue-Medium,Helvetica Neue" font-size="20.0" fill="#EAEAEA" transform="matrix(1.00, 0.00, -0.00, -1.00, 48.3, 12.1)">c</text><text xml:space="preserve" font-family="HelveticaNeue-Medium,Helvetica Neue" font-size="20.0" fill="#EAEAEA" transform="matrix(1.00, 0.00, -0.00, -1.00, 59.4, 12.1)">e</text><text xml:space="preserve" font-family="HelveticaNeue-Medium,Helvetica Neue" font-size="20.0" fill="#EAEAEA" transform="matrix(1.00, 0.00, -0.00, -1.00, 70.6, 12.1)">:</text><text xml:space="preserve" font-family="HelveticaNeue-Medium,Helvetica Neue" font-size="20.0" fill="#EAEAEA" transform="matrix(1.00, 0.00, -0.00, -1.00, 76.1, 12.1)"> </text><image xlink:href="../../AC264CEF-AE8D-43F0-A92B-1A5A6C63C05C/assets/A72D55638B59BECEFC1E11499FA3245E.png" width="266.00" height="27.00" transform="matrix(1.00, 0.00, -0.00, -1.00, 78.0, 29.0)"></image><text xml:space="preserve" font-family="HelveticaNeue-Medium,Helvetica Neue" font-size="20.0" fill="#EAEAEA" transform="matrix(1.00, 0.00, -0.00, -1.00, 81.7, 12.1)">h</text><text xml:space="preserve" font-family="HelveticaNeue-Medium,Helvetica Neue" font-size="20.0" fill="#EAEAEA" transform="matrix(1.00, 0.00, -0.00, -1.00, 93.2, 12.1)">t</text><text xml:space="preserve" font-family="HelveticaNeue-Medium,Helvetica Neue" font-size="20.0" fill="#EAEAEA" transform="matrix(1.00, 0.00, -0.00, -1.00, 99.8, 12.1)">t</text><text xml:space="preserve" font-family="HelveticaNeue-Medium,Helvetica Neue" font-size="20.0" fill="#EAEAEA" transform="matrix(1.00, 0.00, -0.00, -1.00, 106.5, 12.1)">p</text><text xml:space="preserve" font-family="HelveticaNeue-Medium,Helvetica Neue" font-size="20.0" fill="#EAEAEA" transform="matrix(1.00, 0.00, -0.00, -1.00, 118.7, 12.1)">:</text><text xml:space="preserve" font-family="HelveticaNeue-Medium,Helvetica Neue" font-size="20.0" fill="#EAEAEA" transform="matrix(1.00, 0.00, -0.00, -1.00, 124.3, 12.1)">/</text><text xml:space="preserve" font-family="HelveticaNeue-Medium,Helvetica Neue" font-size="20.0" fill="#EAEAEA" transform="matrix(1.00, 0.00, -0.00, -1.00, 131.3, 12.1)">/</text><text xml:space="preserve" font-family="HelveticaNeue-Medium,Helvetica Neue" font-size="20.0" fill="#EAEAEA" transform="matrix(1.00, 0.00, -0.00, -1.00, 138.3, 12.1)">s</text><text xml:space="preserve" font-family="HelveticaNeue-Medium,Helvetica Neue" font-size="20.0" fill="#EAEAEA" transform="matrix(1.00, 0.00, -0.00, -1.00, 148.7, 12.1)">t</text><text xml:space="preserve" font-family="HelveticaNeue-Medium,Helvetica Neue" font-size="20.0" fill="#EAEAEA" transform="matrix(1.00, 0.00, -0.00, -1.00, 155.4, 12.1)">r</text><text xml:space="preserve" font-family="HelveticaNeue-Medium,Helvetica Neue" font-size="20.0" fill="#EAEAEA" transform="matrix(1.00, 0.00, -0.00, -1.00, 162.4, 12.1)">u</text><text xml:space="preserve" font-family="HelveticaNeue-Medium,Helvetica Neue" font-size="20.0" fill="#EAEAEA" transform="matrix(1.00, 0.00, -0.00, -1.00, 173.9, 12.1)">y</text><text xml:space="preserve" font-family="HelveticaNeue-Medium,Helvetica Neue" font-size="20.0" fill="#EAEAEA" transform="matrix(1.00, 0.00, -0.00, -1.00, 184.3, 12.1)">s</text><text xml:space="preserve" font-family="HelveticaNeue-Medium,Helvetica Neue" font-size="20.0" fill="#EAEAEA" transform="matrix(1.00, 0.00, -0.00, -1.00, 194.7, 12.1)">.</text><text xml:space="preserve" font-family="HelveticaNeue-Medium,Helvetica Neue" font-size="20.0" fill="#EAEAEA" transform="matrix(1.00, 0.00, -0.00, -1.00, 200.2, 12.1)">c</text><text xml:space="preserve" font-family="HelveticaNeue-Medium,Helvetica Neue" font-size="20.0" fill="#EAEAEA" transform="matrix(1.00, 0.00, -0.00, -1.00, 211.3, 12.1)">a</text><text xml:space="preserve" font-family="HelveticaNeue-Medium,Helvetica Neue" font-size="20.0" fill="#EAEAEA" transform="matrix(1.00, 0.00, -0.00, -1.00, 222.5, 12.1)">/</text><text xml:space="preserve" font-family="HelveticaNeue-Medium,Helvetica Neue" font-size="20.0" fill="#EAEAEA" transform="matrix(1.00, 0.00, -0.00, -1.00, 229.5, 12.1)">m</text><text xml:space="preserve" font-family="HelveticaNeue-Medium,Helvetica Neue" font-size="20.0" fill="#EAEAEA" transform="matrix(1.00, 0.00, -0.00, -1.00, 246.9, 12.1)">a</text><text xml:space="preserve" font-family="HelveticaNeue-Medium,Helvetica Neue" font-size="20.0" fill="#EAEAEA" transform="matrix(1.00, 0.00, -0.00, -1.00, 258.0, 12.1)">i</text><text xml:space="preserve" font-family="HelveticaNeue-Medium,Helvetica Neue" font-size="20.0" fill="#EAEAEA" transform="matrix(1.00, 0.00, -0.00, -1.00, 262.8, 12.1)">n</text><text xml:space="preserve" font-family="HelveticaNeue-Medium,Helvetica Neue" font-size="20.0" fill="#EAEAEA" transform="matrix(1.00, 0.00, -0.00, -1.00, 274.3, 12.1)">/</text><text xml:space="preserve" font-family="HelveticaNeue-Medium,Helvetica Neue" font-size="20.0" fill="#EAEAEA" transform="matrix(1.00, 0.00, -0.00, -1.00, 281.4, 12.1)">p</text><text xml:space="preserve" font-family="HelveticaNeue-Medium,Helvetica Neue" font-size="20.0" fill="#EAEAEA" transform="matrix(1.00, 0.00, -0.00, -1.00, 293.6, 12.1)">o</text><text xml:space="preserve" font-family="HelveticaNeue-Medium,Helvetica Neue" font-size="20.0" fill="#EAEAEA" transform="matrix(1.00, 0.00, -0.00, -1.00, 305.4, 12.1)">s</text><text xml:space="preserve" font-family="HelveticaNeue-Medium,Helvetica Neue" font-size="20.0" fill="#EAEAEA" transform="matrix(1.00, 0.00, -0.00, -1.00, 315.8, 12.1)">t</text><text xml:space="preserve" font-family="HelveticaNeue-Medium,Helvetica Neue" font-size="20.0" fill="#EAEAEA" transform="matrix(1.00, 0.00, -0.00, -1.00, 322.5, 12.1)">/</text><text xml:space="preserve" font-family="HelveticaNeue-Medium,Helvetica Neue" font-size="20.0" fill="#EAEAEA" transform="matrix(1.00, 0.00, -0.00, -1.00, 329.5, 12.1)">5</text><g><clipPath id="clip0x6080010a2be0"><path d="M 80.7 9.1 L 340.6 9.1 L 340.6 12.1 L 80.7 12.1 Z M 80.7 9.1 "></path></clipPath><g clip-path="url(#clip0x6080010a2be0)"><path d="M 80.8 25.6 L 339.8 25.6 " fill="none" stroke="#EAEAEA" stroke-width="1.00" transform="matrix(1.00, 0.00, 0.00, -1.00, 0.8, 36.2)"></path></g></g></g></svg>