<?xml version="1.0" encoding="UTF-8" standalone="no"?><svg xmlns="http://www.w3.org/2000/svg" xmlns:xlink="http://www.w3.org/1999/xlink" clip-rule="evenodd" stroke-miterlimit="10" viewBox="0 0 1024 768"><desc>SVG generated by Keynote</desc><defs></defs><g transform="matrix(1.00, 0.00, -0.00, -1.00, 0.0, 768.0)"><g><clipPath id="clip0x6000012a0360"><path d="M 0.0 768.0 L 1024.0 768.0 L 1024.0 0.0 L 0.0 0.0 Z M 0.0 768.0 "></path></clipPath><g clip-path="url(#clip0x6000012a0360)"><image xlink:href="../../384E26B0-0AD0-495F-BA75-267B55ABD0BD/assets/31D284A5C75E14674D2A89FDB99F8048.jpeg" width="2048.00" height="1536.00" transform="matrix(0.50, 0.00, -0.00, -0.50, 0.0, 768.0)"></image></g></g><image xlink:href="../../AC264CEF-AE8D-43F0-A92B-1A5A6C63C05C/assets/33F6DA02DB5F6FAE8FF9B77298BE9346.png" width="630.00" height="68.00" transform="matrix(1.00, 0.00, -0.00, -1.00, 206.0, 693.0)"></image><text xml:space="preserve" font-family="HelveticaNeue-Bold,Helvetica Neue" font-weight="bold" font-size="64.0" fill="#FEFFFE" transform="matrix(1.00, 0.00, -0.00, -1.00, 208.8, 643.7)">S</text><text xml:space="preserve" font-family="HelveticaNeue-Bold,Helvetica Neue" font-weight="bold" font-size="64.0" fill="#FEFFFE" transform="matrix(1.00, 0.00, -0.00, -1.00, 250.3, 643.7)">c</text><text xml:space="preserve" font-family="HelveticaNeue-Bold,Helvetica Neue" font-weight="bold" font-size="64.0" fill="#FEFFFE" transform="matrix(1.00, 0.00, -0.00, -1.00, 287.1, 643.7)">a</text><text xml:space="preserve" font-family="HelveticaNeue-Bold,Helvetica Neue" font-weight="bold" font-size="64.0" fill="#FEFFFE" transform="matrix(1.00, 0.00, -0.00, -1.00, 323.8, 643.7)">l</text><text xml:space="preserve" font-family="HelveticaNeue-Bold,Helvetica Neue" font-weight="bold" font-size="64.0" fill="#FEFFFE" transform="matrix(1.00, 0.00, -0.00, -1.00, 340.3, 643.7)">i</text><text xml:space="preserve" font-family="HelveticaNeue-Bold,Helvetica Neue" font-weight="bold" font-size="64.0" fill="#FEFFFE" transform="matrix(1.00, 0.00, -0.00, -1.00, 356.8, 643.7)">n</text><text xml:space="preserve" font-family="HelveticaNeue-Bold,Helvetica Neue" font-weight="bold" font-size="64.0" fill="#FEFFFE" transform="matrix(1.00, 0.00, -0.00, -1.00, 394.8, 643.7)">g</text><text xml:space="preserve" font-family="HelveticaNeue-Bold,Helvetica Neue" font-weight="bold" font-size="64.0" fill="#FEFFFE" transform="matrix(1.00, 0.00, -0.00, -1.00, 433.9, 643.7)"> </text><text xml:space="preserve" font-family="HelveticaNeue-Bold,Helvetica Neue" font-weight="bold" font-size="64.0" fill="#FEFFFE" transform="matrix(1.00, 0.00, -0.00, -1.00, 451.7, 643.7)">F</text><text xml:space="preserve" font-family="HelveticaNeue-Bold,Helvetica Neue" font-weight="bold" font-size="64.0" fill="#FEFFFE" transform="matrix(1.00, 0.00, -0.00, -1.00, 489.6, 643.7)">r</text><text xml:space="preserve" font-family="HelveticaNeue-Bold,Helvetica Neue" font-weight="bold" font-size="64.0" fill="#FEFFFE" transform="matrix(1.00, 0.00, -0.00, -1.00, 514.5, 643.7)">a</text><text xml:space="preserve" font-family="HelveticaNeue-Bold,Helvetica Neue" font-weight="bold" font-size="64.0" fill="#FEFFFE" transform="matrix(1.00, 0.00, -0.00, -1.00, 551.3, 643.7)">m</text><text xml:space="preserve" font-family="HelveticaNeue-Bold,Helvetica Neue" font-weight="bold" font-size="64.0" fill="#FEFFFE" transform="matrix(1.00, 0.00, -0.00, -1.00, 609.3, 643.7)">e</text><text xml:space="preserve" font-family="HelveticaNeue-Bold,Helvetica Neue" font-weight="bold" font-size="64.0" fill="#FEFFFE" transform="matrix(1.00, 0.00, -0.00, -1.00, 646.0, 643.7)">w</text><text xml:space="preserve" font-family="HelveticaNeue-Bold,Helvetica Neue" font-weight="bold" font-size="64.0" fill="#FEFFFE" transform="matrix(1.00, 0.00, -0.00, -1.00, 698.1, 643.7)">o</text><text xml:space="preserve" font-family="HelveticaNeue-Bold,Helvetica Neue" font-weight="bold" font-size="64.0" fill="#FEFFFE" transform="matrix(1.00, 0.00, -0.00, -1.00, 737.2, 643.7)">r</text><text xml:space="preserve" font-family="HelveticaNeue-Bold,Helvetica Neue" font-weight="bold" font-size="64.0" fill="#FEFFFE" transform="matrix(1.00, 0.00, -0.00, -1.00, 762.1, 643.7)">k</text><text xml:space="preserve" font-family="HelveticaNeue-Bold,Helvetica Neue" font-weight="bold" font-size="64.0" fill="#FEFFFE" transform="matrix(1.00, 0.00, -0.00, -1.00, 798.8, 643.7)">s</text><image xlink:href="../../AC264CEF-AE8D-43F0-A92B-1A5A6C63C05C/assets/09F601574631EC2E699E2E0DF5C2AFBC.png" width="516.00" height="312.00" transform="matrix(1.31, 0.00, -0.00, -1.31, 175.0, 529.0)"></image><image xlink:href="../../AC264CEF-AE8D-43F0-A92B-1A5A6C63C05C/assets/68FC381F994B627C639CDED220A5D6F4.png" width="77.00" height="24.00" transform="matrix(1.00, 0.00, -0.00, -1.00, 341.0, 111.0)"></image><text xml:space="preserve" font-family="HelveticaNeue-Medium,Helvetica Neue" font-size="20.0" fill="#EAEAEA" transform="matrix(1.00, 0.00, -0.00, -1.00, 344.4, 94.1)">S</text><text xml:space="preserve" font-family="HelveticaNeue-Medium,Helvetica Neue" font-size="20.0" fill="#EAEAEA" transform="matrix(1.00, 0.00, -0.00, -1.00, 357.3, 94.1)">o</text><text xml:space="preserve" font-family="HelveticaNeue-Medium,Helvetica Neue" font-size="20.0" fill="#EAEAEA" transform="matrix(1.00, 0.00, -0.00, -1.00, 369.2, 94.1)">u</text><text xml:space="preserve" font-family="HelveticaNeue-Medium,Helvetica Neue" font-size="20.0" fill="#EAEAEA" transform="matrix(1.00, 0.00, -0.00, -1.00, 380.7, 94.1)">r</text><text xml:space="preserve" font-family="HelveticaNeue-Medium,Helvetica Neue" font-size="20.0" fill="#EAEAEA" transform="matrix(1.00, 0.00, -0.00, -1.00, 387.3, 94.1)">c</text><text xml:space="preserve" font-family="HelveticaNeue-Medium,Helvetica Neue" font-size="20.0" fill="#EAEAEA" transform="matrix(1.00, 0.00, -0.00, -1.00, 398.5, 94.1)">e</text><text xml:space="preserve" font-family="HelveticaNeue-Medium,Helvetica Neue" font-size="20.0" fill="#EAEAEA" transform="matrix(1.00, 0.00, -0.00, -1.00, 409.6, 94.1)">:</text><text xml:space="preserve" font-family="HelveticaNeue-Medium,Helvetica Neue" font-size="20.0" fill="#EAEAEA" transform="matrix(1.00, 0.00, -0.00, -1.00, 415.1, 94.1)"> </text><image xlink:href="../../AC264CEF-AE8D-43F0-A92B-1A5A6C63C05C/assets/A72D55638B59BECEFC1E11499FA3245E.png" width="266.00" height="27.00" transform="matrix(1.00, 0.00, -0.00, -1.00, 417.0, 111.0)"></image><text xml:space="preserve" font-family="HelveticaNeue-Medium,Helvetica Neue" font-size="20.0" fill="#EAEAEA" transform="matrix(1.00, 0.00, -0.00, -1.00, 420.7, 94.1)">h</text><text xml:space="preserve" font-family="HelveticaNeue-Medium,Helvetica Neue" font-size="20.0" fill="#EAEAEA" transform="matrix(1.00, 0.00, -0.00, -1.00, 432.2, 94.1)">t</text><text xml:space="preserve" font-family="HelveticaNeue-Medium,Helvetica Neue" font-size="20.0" fill="#EAEAEA" transform="matrix(1.00, 0.00, -0.00, -1.00, 438.8, 94.1)">t</text><text xml:space="preserve" font-family="HelveticaNeue-Medium,Helvetica Neue" font-size="20.0" fill="#EAEAEA" transform="matrix(1.00, 0.00, -0.00, -1.00, 445.5, 94.1)">p</text><text xml:space="preserve" font-family="HelveticaNeue-Medium,Helvetica Neue" font-size="20.0" fill="#EAEAEA" transform="matrix(1.00, 0.00, -0.00, -1.00, 457.7, 94.1)">:</text><text xml:space="preserve" font-family="HelveticaNeue-Medium,Helvetica Neue" font-size="20.0" fill="#EAEAEA" transform="matrix(1.00, 0.00, -0.00, -1.00, 463.3, 94.1)">/</text><text xml:space="preserve" font-family="HelveticaNeue-Medium,Helvetica Neue" font-size="20.0" fill="#EAEAEA" transform="matrix(1.00, 0.00, -0.00, -1.00, 470.3, 94.1)">/</text><text xml:space="preserve" font-family="HelveticaNeue-Medium,Helvetica Neue" font-size="20.0" fill="#EAEAEA" transform="matrix(1.00, 0.00, -0.00, -1.00, 477.4, 94.1)">s</text><text xml:space="preserve" font-family="HelveticaNeue-Medium,Helvetica Neue" font-size="20.0" fill="#EAEAEA" transform="matrix(1.00, 0.00, -0.00, -1.00, 487.7, 94.1)">t</text><text xml:space="preserve" font-family="HelveticaNeue-Medium,Helvetica Neue" font-size="20.0" fill="#EAEAEA" transform="matrix(1.00, 0.00, -0.00, -1.00, 494.4, 94.1)">r</text><text xml:space="preserve" font-family="HelveticaNeue-Medium,Helvetica Neue" font-size="20.0" fill="#EAEAEA" transform="matrix(1.00, 0.00, -0.00, -1.00, 501.4, 94.1)">u</text><text xml:space="preserve" font-family="HelveticaNeue-Medium,Helvetica Neue" font-size="20.0" fill="#EAEAEA" transform="matrix(1.00, 0.00, -0.00, -1.00, 512.9, 94.1)">y</text><text xml:space="preserve" font-family="HelveticaNeue-Medium,Helvetica Neue" font-size="20.0" fill="#EAEAEA" transform="matrix(1.00, 0.00, -0.00, -1.00, 523.3, 94.1)">s</text><text xml:space="preserve" font-family="HelveticaNeue-Medium,Helvetica Neue" font-size="20.0" fill="#EAEAEA" transform="matrix(1.00, 0.00, -0.00, -1.00, 533.7, 94.1)">.</text><text xml:space="preserve" font-family="HelveticaNeue-Medium,Helvetica Neue" font-size="20.0" fill="#EAEAEA" transform="matrix(1.00, 0.00, -0.00, -1.00, 539.2, 94.1)">c</text><text xml:space="preserve" font-family="HelveticaNeue-Medium,Helvetica Neue" font-size="20.0" fill="#EAEAEA" transform="matrix(1.00, 0.00, -0.00, -1.00, 550.4, 94.1)">a</text><text xml:space="preserve" font-family="HelveticaNeue-Medium,Helvetica Neue" font-size="20.0" fill="#EAEAEA" transform="matrix(1.00, 0.00, -0.00, -1.00, 561.5, 94.1)">/</text><text xml:space="preserve" font-family="HelveticaNeue-Medium,Helvetica Neue" font-size="20.0" fill="#EAEAEA" transform="matrix(1.00, 0.00, -0.00, -1.00, 568.5, 94.1)">m</text><text xml:space="preserve" font-family="HelveticaNeue-Medium,Helvetica Neue" font-size="20.0" fill="#EAEAEA" transform="matrix(1.00, 0.00, -0.00, -1.00, 585.9, 94.1)">a</text><text xml:space="preserve" font-family="HelveticaNeue-Medium,Helvetica Neue" font-size="20.0" fill="#EAEAEA" transform="matrix(1.00, 0.00, -0.00, -1.00, 597.0, 94.1)">i</text><text xml:space="preserve" font-family="HelveticaNeue-Medium,Helvetica Neue" font-size="20.0" fill="#EAEAEA" transform="matrix(1.00, 0.00, -0.00, -1.00, 601.9, 94.1)">n</text><text xml:space="preserve" font-family="HelveticaNeue-Medium,Helvetica Neue" font-size="20.0" fill="#EAEAEA" transform="matrix(1.00, 0.00, -0.00, -1.00, 613.3, 94.1)">/</text><text xml:space="preserve" font-family="HelveticaNeue-Medium,Helvetica Neue" font-size="20.0" fill="#EAEAEA" transform="matrix(1.00, 0.00, -0.00, -1.00, 620.4, 94.1)">p</text><text xml:space="preserve" font-family="HelveticaNeue-Medium,Helvetica Neue" font-size="20.0" fill="#EAEAEA" transform="matrix(1.00, 0.00, -0.00, -1.00, 632.6, 94.1)">o</text><text xml:space="preserve" font-family="HelveticaNeue-Medium,Helvetica Neue" font-size="20.0" fill="#EAEAEA" transform="matrix(1.00, 0.00, -0.00, -1.00, 644.5, 94.1)">s</text><text xml:space="preserve" font-family="HelveticaNeue-Medium,Helvetica Neue" font-size="20.0" fill="#EAEAEA" transform="matrix(1.00, 0.00, -0.00, -1.00, 654.8, 94.1)">t</text><text xml:space="preserve" font-family="HelveticaNeue-Medium,Helvetica Neue" font-size="20.0" fill="#EAEAEA" transform="matrix(1.00, 0.00, -0.00, -1.00, 661.5, 94.1)">/</text><text xml:space="preserve" font-family="HelveticaNeue-Medium,Helvetica Neue" font-size="20.0" fill="#EAEAEA" transform="matrix(1.00, 0.00, -0.00, -1.00, 668.5, 94.1)">5</text><g><clipPath id="clip0x6000012a0b40"><path d="M 419.7 91.1 L 679.6 91.1 L 679.6 94.1 L 419.7 94.1 Z M 419.7 91.1 "></path></clipPath><g clip-path="url(#clip0x6000012a0b40)"><path d="M 80.8 25.6 L 339.8 25.6 " fill="none" stroke="#EAEAEA" stroke-width="1.00" transform="matrix(1.00, 0.00, 0.00, -1.00, 339.9, 118.2)"></path></g></g><image xlink:href="../../F9CC485B-3774-40E7-9443-FA02585941C8/assets/6EEB005CD8F849703CC93EECE0CE1672.png" width="571.00" height="115.00" transform="matrix(1.00, 0.00, -0.00, -1.00, 294.5, 391.5)" opacity="0.50"></image><path d="M 475.0 14.6 C 583.7 34.2 583.7 65.8 475.0 85.4 C 366.3 104.9 190.2 104.9 81.5 85.4 C -27.2 65.8 -27.2 34.2 81.5 14.6 C 190.2 -4.9 366.3 -4.9 475.0 14.6 Z M 475.0 14.6 " fill="none" stroke="#A11414" stroke-width="7.00" transform="matrix(1.00, 0.00, 0.00, -1.00, 302.0, 386.0)"></path><path d="M 0.0 0.0 L 256.8 0.0 " fill="none" stroke="#204C7C" stroke-width="5.00" transform="matrix(0.92, 0.39, 0.39, -0.92, 454.0, 354.0)"></path><path d="M 0.0 0.0 L 146.3 0.0 " fill="none" stroke="#204C7C" stroke-width="5.00" transform="matrix(0.71, 0.71, 0.71, -0.71, 603.0, 347.0)"></path><path d="M 0.0 0.0 L 88.9 0.0 " fill="none" stroke="#204C7C" stroke-width="5.00" transform="matrix(-0.33, 0.94, 0.94, 0.33, 748.0, 362.0)"></path><image xlink:href="../../F9CC485B-3774-40E7-9443-FA02585941C8/assets/8434B46E1A158D8877973A6DE4705BD9.png" width="207.00" height="108.00" transform="matrix(1.00, 0.00, -0.00, -1.00, 644.4, 538.2)" opacity="0.50"></image><path d="M 818.7 521.6 C 857.6 502.1 857.6 470.4 818.7 450.9 C 779.7 431.4 716.6 431.4 677.7 450.9 C 638.7 470.4 638.7 502.1 677.7 521.6 C 716.6 541.1 779.7 541.1 818.7 521.6 Z M 818.7 521.6 " fill="#204C7C"></path><image xlink:href="../../F9CC485B-3774-40E7-9443-FA02585941C8/assets/0088164633CEF6A5F3E5D87217602F48.png" width="74.00" height="27.00" transform="matrix(1.00, 0.00, -0.00, -1.00, 711.0, 520.0)"></image><g><clipPath id="clip0x6000012a0cc0"><path d="M 648.4 436.2 L 847.9 436.2 L 847.9 536.2 L 648.4 536.2 Z M 648.4 436.2 "></path></clipPath><g clip-path="url(#clip0x6000012a0cc0)"><text xml:space="preserve" font-family="HelveticaNeue-Medium,Helvetica Neue" font-size="26.0" fill="#FEFFFE" transform="matrix(1.00, 0.00, -0.00, -1.00, 714.0, 498.4)">S</text><text xml:space="preserve" font-family="HelveticaNeue-Medium,Helvetica Neue" font-size="26.0" fill="#FEFFFE" transform="matrix(1.00, 0.00, -0.00, -1.00, 730.8, 498.4)">a</text><text xml:space="preserve" font-family="HelveticaNeue-Medium,Helvetica Neue" font-size="26.0" fill="#FEFFFE" transform="matrix(1.00, 0.00, -0.00, -1.00, 745.3, 498.4)">m</text><text xml:space="preserve" font-family="HelveticaNeue-Medium,Helvetica Neue" font-size="26.0" fill="#FEFFFE" transform="matrix(1.00, 0.00, -0.00, -1.00, 767.9, 498.4)">e</text><text xml:space="preserve" font-family="HelveticaNeue-Medium,Helvetica Neue" font-size="26.0" fill="#FEFFFE" transform="matrix(1.00, 0.00, -0.00, -1.00, 782.4, 498.4)"> </text></g></g><image xlink:href="../../F9CC485B-3774-40E7-9443-FA02585941C8/assets/FE47B88E8FE63E4F0D69C1E6A10A98EE.png" width="162.00" height="30.00" transform="matrix(1.00, 0.00, -0.00, -1.00, 667.0, 487.0)"></image><g><clipPath id="clip0x6000012a1260"><path d="M 648.4 436.2 L 847.9 436.2 L 847.9 536.2 L 648.4 536.2 Z M 648.4 436.2 "></path></clipPath><g clip-path="url(#clip0x6000012a1260)"><text xml:space="preserve" font-family="HelveticaNeue-Medium,Helvetica Neue" font-size="26.0" fill="#FEFFFE" transform="matrix(1.00, 0.00, -0.00, -1.00, 669.2, 466.4)">c</text><text xml:space="preserve" font-family="HelveticaNeue-Medium,Helvetica Neue" font-size="26.0" fill="#FEFFFE" transform="matrix(1.00, 0.00, -0.00, -1.00, 683.6, 466.4)">o</text><text xml:space="preserve" font-family="HelveticaNeue-Medium,Helvetica Neue" font-size="26.0" fill="#FEFFFE" transform="matrix(1.00, 0.00, -0.00, -1.00, 699.1, 466.4)">d</text><text xml:space="preserve" font-family="HelveticaNeue-Medium,Helvetica Neue" font-size="26.0" fill="#FEFFFE" transform="matrix(1.00, 0.00, -0.00, -1.00, 714.9, 466.4)">e</text><text xml:space="preserve" font-family="HelveticaNeue-Medium,Helvetica Neue" font-size="26.0" fill="#FEFFFE" transform="matrix(1.00, 0.00, -0.00, -1.00, 729.4, 466.4)"> </text><text xml:space="preserve" font-family="HelveticaNeue-Medium,Helvetica Neue" font-size="26.0" fill="#FEFFFE" transform="matrix(1.00, 0.00, -0.00, -1.00, 736.6, 466.4)">r</text><text xml:space="preserve" font-family="HelveticaNeue-Medium,Helvetica Neue" font-size="26.0" fill="#FEFFFE" transform="matrix(1.00, 0.00, -0.00, -1.00, 745.8, 466.4)">u</text><text xml:space="preserve" font-family="HelveticaNeue-Medium,Helvetica Neue" font-size="26.0" fill="#FEFFFE" transform="matrix(1.00, 0.00, -0.00, -1.00, 760.7, 466.4)">n</text><text xml:space="preserve" font-family="HelveticaNeue-Medium,Helvetica Neue" font-size="26.0" fill="#FEFFFE" transform="matrix(1.00, 0.00, -0.00, -1.00, 775.6, 466.4)">n</text><text xml:space="preserve" font-family="HelveticaNeue-Medium,Helvetica Neue" font-size="26.0" fill="#FEFFFE" transform="matrix(1.00, 0.00, -0.00, -1.00, 790.5, 466.4)">i</text><text xml:space="preserve" font-family="HelveticaNeue-Medium,Helvetica Neue" font-size="26.0" fill="#FEFFFE" transform="matrix(1.00, 0.00, -0.00, -1.00, 796.8, 466.4)">n</text><text xml:space="preserve" font-family="HelveticaNeue-Medium,Helvetica Neue" font-size="26.0" fill="#FEFFFE" transform="matrix(1.00, 0.00, -0.00, -1.00, 811.7, 466.4)">g</text></g></g></g></svg>