<?xml version="1.0" encoding="UTF-8" standalone="no"?><svg xmlns="http://www.w3.org/2000/svg" xmlns:xlink="http://www.w3.org/1999/xlink" clip-rule="evenodd" stroke-miterlimit="10" viewBox="0 0 868 184"><desc>SVG generated by Keynote</desc><defs></defs><g transform="matrix(1.00, 0.00, -0.00, -1.00, 0.0, 184.0)"><path d="M 1.0 182.0 L 867.0 182.0 L 867.0 2.0 L 1.0 2.0 Z M 1.3 182.4 " fill="#242424"></path><image xlink:href="../../0593CD99-7086-4720-8705-69C8E7C16F2D/assets/E6E3E3F1D29320CF84E6436232ED4723.png" width="130.00" height="30.00" transform="matrix(1.00, 0.00, -0.00, -1.00, 3.0, 175.0)"></image><g><clipPath id="clip0x6080014be900"><path d="M -6.9 -8.5 L 874.9 -8.5 L 874.9 188.5 L -6.9 188.5 Z M -6.9 -8.5 "></path></clipPath><g clip-path="url(#clip0x6080014be900)"><text xml:space="preserve" font-family="Monaco,Monaco" font-size="26.0" fill="#83D6EB" transform="matrix(1.00, 0.00, -0.00, -1.00, 5.3, 152.1)">f</text><text xml:space="preserve" font-family="Monaco,Monaco" font-size="26.0" fill="#83D6EB" transform="matrix(1.00, 0.00, -0.00, -1.00, 20.9, 152.1)">u</text><text xml:space="preserve" font-family="Monaco,Monaco" font-size="26.0" fill="#83D6EB" transform="matrix(1.00, 0.00, -0.00, -1.00, 36.5, 152.1)">n</text><text xml:space="preserve" font-family="Monaco,Monaco" font-size="26.0" fill="#83D6EB" transform="matrix(1.00, 0.00, -0.00, -1.00, 52.1, 152.1)">c</text><text xml:space="preserve" font-family="Monaco,Monaco" font-size="26.0" fill="#83D6EB" transform="matrix(1.00, 0.00, -0.00, -1.00, 67.7, 152.1)">t</text><text xml:space="preserve" font-family="Monaco,Monaco" font-size="26.0" fill="#83D6EB" transform="matrix(1.00, 0.00, -0.00, -1.00, 83.3, 152.1)">i</text><text xml:space="preserve" font-family="Monaco,Monaco" font-size="26.0" fill="#83D6EB" transform="matrix(1.00, 0.00, -0.00, -1.00, 98.9, 152.1)">o</text><text xml:space="preserve" font-family="Monaco,Monaco" font-size="26.0" fill="#83D6EB" transform="matrix(1.00, 0.00, -0.00, -1.00, 114.5, 152.1)">n</text></g></g><image xlink:href="../../EE025D6F-1291-45BF-B688-22F7B569C78F/assets/C5A8765854438E58E115C2D8D22D167C.png" width="645.00" height="35.00" transform="matrix(1.00, 0.00, -0.00, -1.00, 143.0, 175.0)"></image><g><clipPath id="clip0x6080014be5a0"><path d="M -6.9 -8.5 L 874.9 -8.5 L 874.9 188.5 L -6.9 188.5 Z M -6.9 -8.5 "></path></clipPath><g clip-path="url(#clip0x6080014be5a0)"><text xml:space="preserve" font-family="Monaco,Monaco" font-size="26.0" fill="#EAEAEA" transform="matrix(1.00, 0.00, -0.00, -1.00, 130.1, 152.1)"> </text><text xml:space="preserve" font-family="Monaco,Monaco" font-size="26.0" fill="#EAEAEA" transform="matrix(1.00, 0.00, -0.00, -1.00, 145.7, 152.1)">g</text><text xml:space="preserve" font-family="Monaco,Monaco" font-size="26.0" fill="#EAEAEA" transform="matrix(1.00, 0.00, -0.00, -1.00, 161.3, 152.1)">z</text><text xml:space="preserve" font-family="Monaco,Monaco" font-size="26.0" fill="#EAEAEA" transform="matrix(1.00, 0.00, -0.00, -1.00, 176.9, 152.1)">i</text><text xml:space="preserve" font-family="Monaco,Monaco" font-size="26.0" fill="#EAEAEA" transform="matrix(1.00, 0.00, -0.00, -1.00, 192.5, 152.1)">p</text><text xml:space="preserve" font-family="Monaco,Monaco" font-size="26.0" fill="#EAEAEA" transform="matrix(1.00, 0.00, -0.00, -1.00, 208.1, 152.1)">M</text><text xml:space="preserve" font-family="Monaco,Monaco" font-size="26.0" fill="#EAEAEA" transform="matrix(1.00, 0.00, -0.00, -1.00, 223.7, 152.1)">i</text><text xml:space="preserve" font-family="Monaco,Monaco" font-size="26.0" fill="#EAEAEA" transform="matrix(1.00, 0.00, -0.00, -1.00, 239.3, 152.1)">d</text><text xml:space="preserve" font-family="Monaco,Monaco" font-size="26.0" fill="#EAEAEA" transform="matrix(1.00, 0.00, -0.00, -1.00, 254.9, 152.1)">d</text><text xml:space="preserve" font-family="Monaco,Monaco" font-size="26.0" fill="#EAEAEA" transform="matrix(1.00, 0.00, -0.00, -1.00, 270.5, 152.1)">l</text><text xml:space="preserve" font-family="Monaco,Monaco" font-size="26.0" fill="#EAEAEA" transform="matrix(1.00, 0.00, -0.00, -1.00, 286.1, 152.1)">e</text><text xml:space="preserve" font-family="Monaco,Monaco" font-size="26.0" fill="#EAEAEA" transform="matrix(1.00, 0.00, -0.00, -1.00, 301.7, 152.1)">w</text><text xml:space="preserve" font-family="Monaco,Monaco" font-size="26.0" fill="#EAEAEA" transform="matrix(1.00, 0.00, -0.00, -1.00, 317.3, 152.1)">a</text><text xml:space="preserve" font-family="Monaco,Monaco" font-size="26.0" fill="#EAEAEA" transform="matrix(1.00, 0.00, -0.00, -1.00, 332.9, 152.1)">r</text><text xml:space="preserve" font-family="Monaco,Monaco" font-size="26.0" fill="#EAEAEA" transform="matrix(1.00, 0.00, -0.00, -1.00, 348.5, 152.1)">e</text><text xml:space="preserve" font-family="Monaco,Monaco" font-size="26.0" fill="#EAEAEA" transform="matrix(1.00, 0.00, -0.00, -1.00, 364.1, 152.1)">(</text><text xml:space="preserve" font-family="Monaco,Monaco" font-size="26.0" fill="#EAEAEA" transform="matrix(1.00, 0.00, -0.00, -1.00, 379.8, 152.1)">r</text><text xml:space="preserve" font-family="Monaco,Monaco" font-size="26.0" fill="#EAEAEA" transform="matrix(1.00, 0.00, -0.00, -1.00, 395.4, 152.1)">e</text><text xml:space="preserve" font-family="Monaco,Monaco" font-size="26.0" fill="#EAEAEA" transform="matrix(1.00, 0.00, -0.00, -1.00, 411.0, 152.1)">q</text><text xml:space="preserve" font-family="Monaco,Monaco" font-size="26.0" fill="#EAEAEA" transform="matrix(1.00, 0.00, -0.00, -1.00, 426.6, 152.1)">u</text><text xml:space="preserve" font-family="Monaco,Monaco" font-size="26.0" fill="#EAEAEA" transform="matrix(1.00, 0.00, -0.00, -1.00, 442.2, 152.1)">e</text><text xml:space="preserve" font-family="Monaco,Monaco" font-size="26.0" fill="#EAEAEA" transform="matrix(1.00, 0.00, -0.00, -1.00, 457.8, 152.1)">s</text><text xml:space="preserve" font-family="Monaco,Monaco" font-size="26.0" fill="#EAEAEA" transform="matrix(1.00, 0.00, -0.00, -1.00, 473.4, 152.1)">t</text><text xml:space="preserve" font-family="Monaco,Monaco" font-size="26.0" fill="#EAEAEA" transform="matrix(1.00, 0.00, -0.00, -1.00, 489.0, 152.1)">,</text><text xml:space="preserve" font-family="Monaco,Monaco" font-size="26.0" fill="#EAEAEA" transform="matrix(1.00, 0.00, -0.00, -1.00, 504.6, 152.1)"> </text><text xml:space="preserve" font-family="Monaco,Monaco" font-size="26.0" fill="#EAEAEA" transform="matrix(1.00, 0.00, -0.00, -1.00, 520.2, 152.1)">r</text><text xml:space="preserve" font-family="Monaco,Monaco" font-size="26.0" fill="#EAEAEA" transform="matrix(1.00, 0.00, -0.00, -1.00, 535.8, 152.1)">e</text><text xml:space="preserve" font-family="Monaco,Monaco" font-size="26.0" fill="#EAEAEA" transform="matrix(1.00, 0.00, -0.00, -1.00, 551.4, 152.1)">s</text><text xml:space="preserve" font-family="Monaco,Monaco" font-size="26.0" fill="#EAEAEA" transform="matrix(1.00, 0.00, -0.00, -1.00, 567.0, 152.1)">p</text><text xml:space="preserve" font-family="Monaco,Monaco" font-size="26.0" fill="#EAEAEA" transform="matrix(1.00, 0.00, -0.00, -1.00, 582.6, 152.1)">o</text><text xml:space="preserve" font-family="Monaco,Monaco" font-size="26.0" fill="#EAEAEA" transform="matrix(1.00, 0.00, -0.00, -1.00, 598.2, 152.1)">n</text><text xml:space="preserve" font-family="Monaco,Monaco" font-size="26.0" fill="#EAEAEA" transform="matrix(1.00, 0.00, -0.00, -1.00, 613.8, 152.1)">s</text><text xml:space="preserve" font-family="Monaco,Monaco" font-size="26.0" fill="#EAEAEA" transform="matrix(1.00, 0.00, -0.00, -1.00, 629.4, 152.1)">e</text><text xml:space="preserve" font-family="Monaco,Monaco" font-size="26.0" fill="#EAEAEA" transform="matrix(1.00, 0.00, -0.00, -1.00, 645.0, 152.1)">,</text><text xml:space="preserve" font-family="Monaco,Monaco" font-size="26.0" fill="#EAEAEA" transform="matrix(1.00, 0.00, -0.00, -1.00, 660.6, 152.1)"> </text><text xml:space="preserve" font-family="Monaco,Monaco" font-size="26.0" fill="#EAEAEA" transform="matrix(1.00, 0.00, -0.00, -1.00, 676.3, 152.1)">n</text><text xml:space="preserve" font-family="Monaco,Monaco" font-size="26.0" fill="#EAEAEA" transform="matrix(1.00, 0.00, -0.00, -1.00, 691.9, 152.1)">e</text><text xml:space="preserve" font-family="Monaco,Monaco" font-size="26.0" fill="#EAEAEA" transform="matrix(1.00, 0.00, -0.00, -1.00, 707.5, 152.1)">x</text><text xml:space="preserve" font-family="Monaco,Monaco" font-size="26.0" fill="#EAEAEA" transform="matrix(1.00, 0.00, -0.00, -1.00, 723.1, 152.1)">t</text><text xml:space="preserve" font-family="Monaco,Monaco" font-size="26.0" fill="#EAEAEA" transform="matrix(1.00, 0.00, -0.00, -1.00, 738.7, 152.1)">)</text><text xml:space="preserve" font-family="Monaco,Monaco" font-size="26.0" fill="#EAEAEA" transform="matrix(1.00, 0.00, -0.00, -1.00, 754.3, 152.1)"> </text><text xml:space="preserve" font-family="Monaco,Monaco" font-size="26.0" fill="#EAEAEA" transform="matrix(1.00, 0.00, -0.00, -1.00, 769.9, 152.1)">{</text></g></g><g><clipPath id="clip0x6080014bfce0"><path d="M -6.9 -8.5 L 874.9 -8.5 L 874.9 188.5 L -6.9 188.5 Z M -6.9 -8.5 "></path></clipPath><g clip-path="url(#clip0x6080014bfce0)"><text xml:space="preserve" font-family="Monaco,Monaco" font-size="26.0" fill="#EAEAEA" transform="matrix(1.00, 0.00, -0.00, -1.00, 5.3, 117.1)"> </text><text xml:space="preserve" font-family="Monaco,Monaco" font-size="26.0" fill="#EAEAEA" transform="matrix(1.00, 0.00, -0.00, -1.00, 20.9, 117.1)"> </text></g></g><image xlink:href="../../EE025D6F-1291-45BF-B688-22F7B569C78F/assets/4D537E816933F7277B0C8FD6E452595A.png" width="395.00" height="35.00" transform="matrix(1.00, 0.00, -0.00, -1.00, 34.0, 140.0)"></image><g><clipPath id="clip0x6000018ae220"><path d="M -6.9 -8.5 L 874.9 -8.5 L 874.9 188.5 L -6.9 188.5 Z M -6.9 -8.5 "></path></clipPath><g clip-path="url(#clip0x6000018ae220)"><text xml:space="preserve" font-family="Monaco,Monaco" font-size="26.0" fill="#B7D936" transform="matrix(1.00, 0.00, -0.00, -1.00, 36.5, 117.1)">c</text><text xml:space="preserve" font-family="Monaco,Monaco" font-size="26.0" fill="#B7D936" transform="matrix(1.00, 0.00, -0.00, -1.00, 52.1, 117.1)">h</text><text xml:space="preserve" font-family="Monaco,Monaco" font-size="26.0" fill="#B7D936" transform="matrix(1.00, 0.00, -0.00, -1.00, 67.7, 117.1)">e</text><text xml:space="preserve" font-family="Monaco,Monaco" font-size="26.0" fill="#B7D936" transform="matrix(1.00, 0.00, -0.00, -1.00, 83.3, 117.1)">c</text><text xml:space="preserve" font-family="Monaco,Monaco" font-size="26.0" fill="#B7D936" transform="matrix(1.00, 0.00, -0.00, -1.00, 98.9, 117.1)">k</text><text xml:space="preserve" font-family="Monaco,Monaco" font-size="26.0" fill="#B7D936" transform="matrix(1.00, 0.00, -0.00, -1.00, 114.5, 117.1)">A</text><text xml:space="preserve" font-family="Monaco,Monaco" font-size="26.0" fill="#B7D936" transform="matrix(1.00, 0.00, -0.00, -1.00, 130.1, 117.1)">c</text><text xml:space="preserve" font-family="Monaco,Monaco" font-size="26.0" fill="#B7D936" transform="matrix(1.00, 0.00, -0.00, -1.00, 145.7, 117.1)">c</text><text xml:space="preserve" font-family="Monaco,Monaco" font-size="26.0" fill="#B7D936" transform="matrix(1.00, 0.00, -0.00, -1.00, 161.3, 117.1)">e</text><text xml:space="preserve" font-family="Monaco,Monaco" font-size="26.0" fill="#B7D936" transform="matrix(1.00, 0.00, -0.00, -1.00, 176.9, 117.1)">p</text><text xml:space="preserve" font-family="Monaco,Monaco" font-size="26.0" fill="#B7D936" transform="matrix(1.00, 0.00, -0.00, -1.00, 192.5, 117.1)">t</text><text xml:space="preserve" font-family="Monaco,Monaco" font-size="26.0" fill="#B7D936" transform="matrix(1.00, 0.00, -0.00, -1.00, 208.1, 117.1)">E</text><text xml:space="preserve" font-family="Monaco,Monaco" font-size="26.0" fill="#B7D936" transform="matrix(1.00, 0.00, -0.00, -1.00, 223.7, 117.1)">n</text><text xml:space="preserve" font-family="Monaco,Monaco" font-size="26.0" fill="#B7D936" transform="matrix(1.00, 0.00, -0.00, -1.00, 239.3, 117.1)">c</text><text xml:space="preserve" font-family="Monaco,Monaco" font-size="26.0" fill="#B7D936" transform="matrix(1.00, 0.00, -0.00, -1.00, 254.9, 117.1)">o</text><text xml:space="preserve" font-family="Monaco,Monaco" font-size="26.0" fill="#B7D936" transform="matrix(1.00, 0.00, -0.00, -1.00, 270.5, 117.1)">d</text><text xml:space="preserve" font-family="Monaco,Monaco" font-size="26.0" fill="#B7D936" transform="matrix(1.00, 0.00, -0.00, -1.00, 286.1, 117.1)">i</text><text xml:space="preserve" font-family="Monaco,Monaco" font-size="26.0" fill="#B7D936" transform="matrix(1.00, 0.00, -0.00, -1.00, 301.7, 117.1)">n</text><text xml:space="preserve" font-family="Monaco,Monaco" font-size="26.0" fill="#B7D936" transform="matrix(1.00, 0.00, -0.00, -1.00, 317.3, 117.1)">g</text><text xml:space="preserve" font-family="Monaco,Monaco" font-size="26.0" fill="#B7D936" transform="matrix(1.00, 0.00, -0.00, -1.00, 333.0, 117.1)">H</text><text xml:space="preserve" font-family="Monaco,Monaco" font-size="26.0" fill="#B7D936" transform="matrix(1.00, 0.00, -0.00, -1.00, 348.6, 117.1)">e</text><text xml:space="preserve" font-family="Monaco,Monaco" font-size="26.0" fill="#B7D936" transform="matrix(1.00, 0.00, -0.00, -1.00, 364.2, 117.1)">a</text><text xml:space="preserve" font-family="Monaco,Monaco" font-size="26.0" fill="#B7D936" transform="matrix(1.00, 0.00, -0.00, -1.00, 379.8, 117.1)">d</text><text xml:space="preserve" font-family="Monaco,Monaco" font-size="26.0" fill="#B7D936" transform="matrix(1.00, 0.00, -0.00, -1.00, 395.4, 117.1)">e</text><text xml:space="preserve" font-family="Monaco,Monaco" font-size="26.0" fill="#B7D936" transform="matrix(1.00, 0.00, -0.00, -1.00, 411.0, 117.1)">r</text></g></g><image xlink:href="../../EE025D6F-1291-45BF-B688-22F7B569C78F/assets/72C6EF8A3DD63FFCB3BD6007E96EBBD5.png" width="145.00" height="35.00" transform="matrix(1.00, 0.00, -0.00, -1.00, 424.0, 140.0)"></image><g><clipPath id="clip0x6000018af360"><path d="M -6.9 -8.5 L 874.9 -8.5 L 874.9 188.5 L -6.9 188.5 Z M -6.9 -8.5 "></path></clipPath><g clip-path="url(#clip0x6000018af360)"><text xml:space="preserve" font-family="Monaco,Monaco" font-size="26.0" fill="#FEFFFE" transform="matrix(1.00, 0.00, -0.00, -1.00, 426.5, 117.1)">(</text><text xml:space="preserve" font-family="Monaco,Monaco" font-size="26.0" fill="#FEFFFE" transform="matrix(1.00, 0.00, -0.00, -1.00, 442.1, 117.1)">r</text><text xml:space="preserve" font-family="Monaco,Monaco" font-size="26.0" fill="#FEFFFE" transform="matrix(1.00, 0.00, -0.00, -1.00, 457.7, 117.1)">e</text><text xml:space="preserve" font-family="Monaco,Monaco" font-size="26.0" fill="#FEFFFE" transform="matrix(1.00, 0.00, -0.00, -1.00, 473.3, 117.1)">q</text><text xml:space="preserve" font-family="Monaco,Monaco" font-size="26.0" fill="#FEFFFE" transform="matrix(1.00, 0.00, -0.00, -1.00, 488.9, 117.1)">u</text><text xml:space="preserve" font-family="Monaco,Monaco" font-size="26.0" fill="#FEFFFE" transform="matrix(1.00, 0.00, -0.00, -1.00, 504.5, 117.1)">e</text><text xml:space="preserve" font-family="Monaco,Monaco" font-size="26.0" fill="#FEFFFE" transform="matrix(1.00, 0.00, -0.00, -1.00, 520.2, 117.1)">s</text><text xml:space="preserve" font-family="Monaco,Monaco" font-size="26.0" fill="#FEFFFE" transform="matrix(1.00, 0.00, -0.00, -1.00, 535.8, 117.1)">t</text><text xml:space="preserve" font-family="Monaco,Monaco" font-size="26.0" fill="#FEFFFE" transform="matrix(1.00, 0.00, -0.00, -1.00, 551.4, 117.1)">)</text></g></g><image xlink:href="../../EE025D6F-1291-45BF-B688-22F7B569C78F/assets/A24169983B4703E197E61CC9FC3216FF.png" width="51.00" height="30.00" transform="matrix(1.00, 0.00, -0.00, -1.00, 35.0, 105.0)"></image><g><clipPath id="clip0x6000018af960"><path d="M -6.9 -8.5 L 874.9 -8.5 L 874.9 188.5 L -6.9 188.5 Z M -6.9 -8.5 "></path></clipPath><g clip-path="url(#clip0x6000018af960)"><text xml:space="preserve" font-family="Monaco,Monaco" font-size="26.0" fill="#FEFFFE" transform="matrix(1.00, 0.00, -0.00, -1.00, 5.3, 82.1)"> </text><text xml:space="preserve" font-family="Monaco,Monaco" font-size="26.0" fill="#FEFFFE" transform="matrix(1.00, 0.00, -0.00, -1.00, 20.9, 82.1)"> </text><text xml:space="preserve" font-family="Monaco,Monaco" font-size="26.0" fill="#FEFFFE" transform="matrix(1.00, 0.00, -0.00, -1.00, 36.5, 82.1)">?</text><text xml:space="preserve" font-family="Monaco,Monaco" font-size="26.0" fill="#FEFFFE" transform="matrix(1.00, 0.00, -0.00, -1.00, 52.1, 82.1)">?</text><text xml:space="preserve" font-family="Monaco,Monaco" font-size="26.0" fill="#FEFFFE" transform="matrix(1.00, 0.00, -0.00, -1.00, 67.7, 82.1)">?</text></g></g><g><clipPath id="clip0x6000018aff00"><path d="M -6.9 -8.5 L 874.9 -8.5 L 874.9 188.5 L -6.9 188.5 Z M -6.9 -8.5 "></path></clipPath><g clip-path="url(#clip0x6000018aff00)"><text xml:space="preserve" font-family="Monaco,Monaco" font-size="26.0" fill="#EAEAEA" transform="matrix(1.00, 0.00, -0.00, -1.00, 5.3, 47.1)"> </text><text xml:space="preserve" font-family="Monaco,Monaco" font-size="26.0" fill="#EAEAEA" transform="matrix(1.00, 0.00, -0.00, -1.00, 20.9, 47.1)"> </text></g></g><image xlink:href="../../EE025D6F-1291-45BF-B688-22F7B569C78F/assets/FDDC51F5E66F9564C5F1EAC05FF5267D.png" width="68.00" height="28.00" transform="matrix(1.00, 0.00, -0.00, -1.00, 34.0, 68.0)"></image><g><clipPath id="clip0x6000018b0080"><path d="M -6.9 -8.5 L 874.9 -8.5 L 874.9 188.5 L -6.9 188.5 Z M -6.9 -8.5 "></path></clipPath><g clip-path="url(#clip0x6000018b0080)"><text xml:space="preserve" font-family="Monaco,Monaco" font-size="26.0" fill="#B7D936" transform="matrix(1.00, 0.00, -0.00, -1.00, 36.5, 47.1)">n</text><text xml:space="preserve" font-family="Monaco,Monaco" font-size="26.0" fill="#B7D936" transform="matrix(1.00, 0.00, -0.00, -1.00, 52.1, 47.1)">e</text><text xml:space="preserve" font-family="Monaco,Monaco" font-size="26.0" fill="#B7D936" transform="matrix(1.00, 0.00, -0.00, -1.00, 67.7, 47.1)">x</text><text xml:space="preserve" font-family="Monaco,Monaco" font-size="26.0" fill="#B7D936" transform="matrix(1.00, 0.00, -0.00, -1.00, 83.3, 47.1)">t</text></g></g><image xlink:href="../../EE025D6F-1291-45BF-B688-22F7B569C78F/assets/C0FF79A8FDF1C68124DA0DF5762152CB.png" width="35.00" height="34.00" transform="matrix(1.00, 0.00, -0.00, -1.00, 97.0, 70.0)"></image><g><clipPath id="clip0x6080014bfe60"><path d="M -6.9 -8.5 L 874.9 -8.5 L 874.9 188.5 L -6.9 188.5 Z M -6.9 -8.5 "></path></clipPath><g clip-path="url(#clip0x6080014bfe60)"><text xml:space="preserve" font-family="Monaco,Monaco" font-size="26.0" fill="#EAEAEA" transform="matrix(1.00, 0.00, -0.00, -1.00, 98.9, 47.1)">(</text><text xml:space="preserve" font-family="Monaco,Monaco" font-size="26.0" fill="#EAEAEA" transform="matrix(1.00, 0.00, -0.00, -1.00, 114.5, 47.1)">)</text></g></g><image xlink:href="../../0593CD99-7086-4720-8705-69C8E7C16F2D/assets/02E8DC1E24E5C16A53C8321A06CE42C4.png" width="21.00" height="34.00" transform="matrix(1.00, 0.00, -0.00, -1.00, 2.0, 35.0)"></image><g><clipPath id="clip0x6080016a02a0"><path d="M -6.9 -8.5 L 874.9 -8.5 L 874.9 188.5 L -6.9 188.5 Z M -6.9 -8.5 "></path></clipPath><g clip-path="url(#clip0x6080016a02a0)"><text xml:space="preserve" font-family="Monaco,Monaco" font-size="26.0" fill="#EAEAEA" transform="matrix(1.00, 0.00, -0.00, -1.00, 5.3, 12.1)">}</text></g></g></g></svg>