<?xml version="1.0" encoding="UTF-8" standalone="no"?><svg xmlns="http://www.w3.org/2000/svg" xmlns:xlink="http://www.w3.org/1999/xlink" clip-rule="evenodd" stroke-miterlimit="10" viewBox="0 0 746 324"><desc>SVG generated by Keynote</desc><defs></defs><g transform="matrix(1.00, 0.00, -0.00, -1.00, 0.0, 324.0)"><path d="M 2.0 322.0 L 744.0 322.0 L 744.0 2.0 L 2.0 2.0 Z M 1.8 322.4 " fill="#242424"></path><image xlink:href="../../A3A6ACD7-FFFE-47BB-B674-59F7806702E6/assets/604E33DC1BA0F4AF0BA59D8F913609BD.png" width="84.00" height="29.00" transform="matrix(1.00, 0.00, -0.00, -1.00, 3.0, 309.0)"></image><g><clipPath id="clip0x6080032a1f20"><path d="M -6.3 -8.5 L 1471.2 -8.5 L 1471.2 328.5 L -6.3 328.5 Z M -6.3 -8.5 "></path></clipPath><g clip-path="url(#clip0x6080032a1f20)"><text xml:space="preserve" font-family="Monaco,Monaco" font-size="26.0" fill="#B7D936" transform="matrix(1.00, 0.00, -0.00, -1.00, 5.8, 292.1)">s</text><text xml:space="preserve" font-family="Monaco,Monaco" font-size="26.0" fill="#B7D936" transform="matrix(1.00, 0.00, -0.00, -1.00, 21.4, 292.1)">p</text><text xml:space="preserve" font-family="Monaco,Monaco" font-size="26.0" fill="#B7D936" transform="matrix(1.00, 0.00, -0.00, -1.00, 37.1, 292.1)">a</text><text xml:space="preserve" font-family="Monaco,Monaco" font-size="26.0" fill="#B7D936" transform="matrix(1.00, 0.00, -0.00, -1.00, 52.7, 292.1)">w</text><text xml:space="preserve" font-family="Monaco,Monaco" font-size="26.0" fill="#B7D936" transform="matrix(1.00, 0.00, -0.00, -1.00, 68.3, 292.1)">n</text></g></g><image xlink:href="../../A3A6ACD7-FFFE-47BB-B674-59F7806702E6/assets/C4891515F91D5C3E398B6CEBA01F60DF.png" width="20.00" height="34.00" transform="matrix(1.00, 0.00, -0.00, -1.00, 82.0, 315.0)"></image><g><clipPath id="clip0x6080032a1920"><path d="M -6.3 -8.5 L 1471.2 -8.5 L 1471.2 328.5 L -6.3 328.5 Z M -6.3 -8.5 "></path></clipPath><g clip-path="url(#clip0x6080032a1920)"><text xml:space="preserve" font-family="Monaco,Monaco" font-size="26.0" fill="#EAEAEA" transform="matrix(1.00, 0.00, -0.00, -1.00, 83.9, 292.1)">(</text></g></g><image xlink:href="../../A3A6ACD7-FFFE-47BB-B674-59F7806702E6/assets/3C4BEAE095A3998A6BE1AB2FD817C410.png" width="145.00" height="30.00" transform="matrix(1.00, 0.00, -0.00, -1.00, 97.0, 315.0)"></image><g><clipPath id="clip0x6080032a1860"><path d="M -6.3 -8.5 L 1471.2 -8.5 L 1471.2 328.5 L -6.3 328.5 Z M -6.3 -8.5 "></path></clipPath><g clip-path="url(#clip0x6080032a1860)"><text xml:space="preserve" font-family="Monaco,Monaco" font-size="26.0" fill="#83D6EB" transform="matrix(1.00, 0.00, -0.00, -1.00, 99.5, 292.1)">f</text><text xml:space="preserve" font-family="Monaco,Monaco" font-size="26.0" fill="#83D6EB" transform="matrix(1.00, 0.00, -0.00, -1.00, 115.1, 292.1)">u</text><text xml:space="preserve" font-family="Monaco,Monaco" font-size="26.0" fill="#83D6EB" transform="matrix(1.00, 0.00, -0.00, -1.00, 130.7, 292.1)">n</text><text xml:space="preserve" font-family="Monaco,Monaco" font-size="26.0" fill="#83D6EB" transform="matrix(1.00, 0.00, -0.00, -1.00, 146.3, 292.1)">c</text><text xml:space="preserve" font-family="Monaco,Monaco" font-size="26.0" fill="#83D6EB" transform="matrix(1.00, 0.00, -0.00, -1.00, 161.9, 292.1)">t</text><text xml:space="preserve" font-family="Monaco,Monaco" font-size="26.0" fill="#83D6EB" transform="matrix(1.00, 0.00, -0.00, -1.00, 177.5, 292.1)">i</text><text xml:space="preserve" font-family="Monaco,Monaco" font-size="26.0" fill="#83D6EB" transform="matrix(1.00, 0.00, -0.00, -1.00, 193.1, 292.1)">o</text><text xml:space="preserve" font-family="Monaco,Monaco" font-size="26.0" fill="#83D6EB" transform="matrix(1.00, 0.00, -0.00, -1.00, 208.7, 292.1)">n</text><text xml:space="preserve" font-family="Monaco,Monaco" font-size="26.0" fill="#83D6EB" transform="matrix(1.00, 0.00, -0.00, -1.00, 224.3, 292.1)">*</text></g></g><image xlink:href="../../A3A6ACD7-FFFE-47BB-B674-59F7806702E6/assets/862DDDEFEA157691CA154C39072C063D.png" width="67.00" height="34.00" transform="matrix(1.00, 0.00, -0.00, -1.00, 238.0, 315.0)"></image><g><clipPath id="clip0x6080032a17a0"><path d="M -6.3 -8.5 L 1471.2 -8.5 L 1471.2 328.5 L -6.3 328.5 Z M -6.3 -8.5 "></path></clipPath><g clip-path="url(#clip0x6080032a17a0)"><text xml:space="preserve" font-family="Monaco,Monaco" font-size="26.0" fill="#EAEAEA" transform="matrix(1.00, 0.00, -0.00, -1.00, 239.9, 292.1)">(</text><text xml:space="preserve" font-family="Monaco,Monaco" font-size="26.0" fill="#EAEAEA" transform="matrix(1.00, 0.00, -0.00, -1.00, 255.5, 292.1)">)</text><text xml:space="preserve" font-family="Monaco,Monaco" font-size="26.0" fill="#EAEAEA" transform="matrix(1.00, 0.00, -0.00, -1.00, 271.1, 292.1)"> </text><text xml:space="preserve" font-family="Monaco,Monaco" font-size="26.0" fill="#EAEAEA" transform="matrix(1.00, 0.00, -0.00, -1.00, 286.7, 292.1)">{</text></g></g><g><clipPath id="clip0x6080032a2400"><path d="M -6.3 -8.5 L 1471.2 -8.5 L 1471.2 328.5 L -6.3 328.5 Z M -6.3 -8.5 "></path></clipPath><g clip-path="url(#clip0x6080032a2400)"><text xml:space="preserve" font-family="Monaco,Monaco" font-size="26.0" fill="#EAEAEA" transform="matrix(1.00, 0.00, -0.00, -1.00, 5.8, 257.1)"> </text><text xml:space="preserve" font-family="Monaco,Monaco" font-size="26.0" fill="#EAEAEA" transform="matrix(1.00, 0.00, -0.00, -1.00, 21.4, 257.1)"> </text></g></g><image xlink:href="../../A3A6ACD7-FFFE-47BB-B674-59F7806702E6/assets/BA3A48367CDBCED2DDBF5A337377E457.png" width="54.00" height="24.00" transform="matrix(1.00, 0.00, -0.00, -1.00, 33.0, 274.0)"></image><g><clipPath id="clip0x6000042accc0"><path d="M -6.3 -8.5 L 1471.2 -8.5 L 1471.2 328.5 L -6.3 328.5 Z M -6.3 -8.5 "></path></clipPath><g clip-path="url(#clip0x6000042accc0)"><text xml:space="preserve" font-family="Monaco,Monaco" font-size="26.0" fill="#83D6EB" transform="matrix(1.00, 0.00, -0.00, -1.00, 37.0, 257.1)">v</text><text xml:space="preserve" font-family="Monaco,Monaco" font-size="26.0" fill="#83D6EB" transform="matrix(1.00, 0.00, -0.00, -1.00, 52.7, 257.1)">a</text><text xml:space="preserve" font-family="Monaco,Monaco" font-size="26.0" fill="#83D6EB" transform="matrix(1.00, 0.00, -0.00, -1.00, 68.3, 257.1)">r</text></g></g><image xlink:href="../../A3A6ACD7-FFFE-47BB-B674-59F7806702E6/assets/14E392223E64F1606290EA52723A8A67.png" width="99.00" height="35.00" transform="matrix(1.00, 0.00, -0.00, -1.00, 97.0, 280.0)"></image><g><clipPath id="clip0x6000042ad080"><path d="M -6.3 -8.5 L 1471.2 -8.5 L 1471.2 328.5 L -6.3 328.5 Z M -6.3 -8.5 "></path></clipPath><g clip-path="url(#clip0x6000042ad080)"><text xml:space="preserve" font-family="Monaco,Monaco" font-size="26.0" fill="#EAEAEA" transform="matrix(1.00, 0.00, -0.00, -1.00, 83.9, 257.1)"> </text><text xml:space="preserve" font-family="Monaco,Monaco" font-size="26.0" fill="#EAEAEA" transform="matrix(1.00, 0.00, -0.00, -1.00, 99.5, 257.1)">c</text><text xml:space="preserve" font-family="Monaco,Monaco" font-size="26.0" fill="#EAEAEA" transform="matrix(1.00, 0.00, -0.00, -1.00, 115.1, 257.1)">o</text><text xml:space="preserve" font-family="Monaco,Monaco" font-size="26.0" fill="#EAEAEA" transform="matrix(1.00, 0.00, -0.00, -1.00, 130.7, 257.1)">n</text><text xml:space="preserve" font-family="Monaco,Monaco" font-size="26.0" fill="#EAEAEA" transform="matrix(1.00, 0.00, -0.00, -1.00, 146.3, 257.1)">f</text><text xml:space="preserve" font-family="Monaco,Monaco" font-size="26.0" fill="#EAEAEA" transform="matrix(1.00, 0.00, -0.00, -1.00, 161.9, 257.1)">i</text><text xml:space="preserve" font-family="Monaco,Monaco" font-size="26.0" fill="#EAEAEA" transform="matrix(1.00, 0.00, -0.00, -1.00, 177.5, 257.1)">g</text><text xml:space="preserve" font-family="Monaco,Monaco" font-size="26.0" fill="#EAEAEA" transform="matrix(1.00, 0.00, -0.00, -1.00, 193.1, 257.1)"> </text></g></g><image xlink:href="../../A3A6ACD7-FFFE-47BB-B674-59F7806702E6/assets/A9CA582A6806573F47E2C050D80A86F2.png" width="23.00" height="16.00" transform="matrix(1.00, 0.00, -0.00, -1.00, 205.0, 270.0)"></image><g><clipPath id="clip0x6000042ad680"><path d="M -6.3 -8.5 L 1471.2 -8.5 L 1471.2 328.5 L -6.3 328.5 Z M -6.3 -8.5 "></path></clipPath><g clip-path="url(#clip0x6000042ad680)"><text xml:space="preserve" font-family="Monaco,Monaco" font-size="26.0" fill="#E34D77" transform="matrix(1.00, 0.00, -0.00, -1.00, 208.7, 257.1)">=</text></g></g><image xlink:href="../../A3A6ACD7-FFFE-47BB-B674-59F7806702E6/assets/454DDDC2F15896C496A96E40080EC73A.png" width="125.00" height="35.00" transform="matrix(1.00, 0.00, -0.00, -1.00, 238.0, 280.0)"></image><g><clipPath id="clip0x6080032a2580"><path d="M -6.3 -8.5 L 1471.2 -8.5 L 1471.2 328.5 L -6.3 328.5 Z M -6.3 -8.5 "></path></clipPath><g clip-path="url(#clip0x6080032a2580)"><text xml:space="preserve" font-family="Monaco,Monaco" font-size="26.0" fill="#EAEAEA" transform="matrix(1.00, 0.00, -0.00, -1.00, 224.3, 257.1)"> </text><text xml:space="preserve" font-family="Monaco,Monaco" font-size="26.0" fill="#EAEAEA" transform="matrix(1.00, 0.00, -0.00, -1.00, 239.9, 257.1)">{</text><text xml:space="preserve" font-family="Monaco,Monaco" font-size="26.0" fill="#EAEAEA" transform="matrix(1.00, 0.00, -0.00, -1.00, 255.5, 257.1)"> </text><text xml:space="preserve" font-family="Monaco,Monaco" font-size="26.0" fill="#EAEAEA" transform="matrix(1.00, 0.00, -0.00, -1.00, 271.1, 257.1)">g</text><text xml:space="preserve" font-family="Monaco,Monaco" font-size="26.0" fill="#EAEAEA" transform="matrix(1.00, 0.00, -0.00, -1.00, 286.7, 257.1)">r</text><text xml:space="preserve" font-family="Monaco,Monaco" font-size="26.0" fill="#EAEAEA" transform="matrix(1.00, 0.00, -0.00, -1.00, 302.3, 257.1)">e</text><text xml:space="preserve" font-family="Monaco,Monaco" font-size="26.0" fill="#EAEAEA" transform="matrix(1.00, 0.00, -0.00, -1.00, 317.9, 257.1)">e</text><text xml:space="preserve" font-family="Monaco,Monaco" font-size="26.0" fill="#EAEAEA" transform="matrix(1.00, 0.00, -0.00, -1.00, 333.5, 257.1)">t</text><text xml:space="preserve" font-family="Monaco,Monaco" font-size="26.0" fill="#EAEAEA" transform="matrix(1.00, 0.00, -0.00, -1.00, 349.1, 257.1)">:</text><text xml:space="preserve" font-family="Monaco,Monaco" font-size="26.0" fill="#EAEAEA" transform="matrix(1.00, 0.00, -0.00, -1.00, 364.7, 257.1)"> </text></g></g><image xlink:href="../../A3A6ACD7-FFFE-47BB-B674-59F7806702E6/assets/FC4E7FD86CD0F1BE3B9627095A34A7ED.png" width="61.00" height="30.00" transform="matrix(1.00, 0.00, -0.00, -1.00, 381.0, 280.0)"></image><g><clipPath id="clip0x6000042adb00"><path d="M -6.3 -8.5 L 1471.2 -8.5 L 1471.2 328.5 L -6.3 328.5 Z M -6.3 -8.5 "></path></clipPath><g clip-path="url(#clip0x6000042adb00)"><text xml:space="preserve" font-family="Monaco,Monaco" font-size="26.0" fill="#E6D679" transform="matrix(1.00, 0.00, -0.00, -1.00, 380.3, 257.1)">'</text><text xml:space="preserve" font-family="Monaco,Monaco" font-size="26.0" fill="#E6D679" transform="matrix(1.00, 0.00, -0.00, -1.00, 395.9, 257.1)">Y</text><text xml:space="preserve" font-family="Monaco,Monaco" font-size="26.0" fill="#E6D679" transform="matrix(1.00, 0.00, -0.00, -1.00, 411.5, 257.1)">o</text><text xml:space="preserve" font-family="Monaco,Monaco" font-size="26.0" fill="#E6D679" transform="matrix(1.00, 0.00, -0.00, -1.00, 427.1, 257.1)">'</text></g></g><image xlink:href="../../A3A6ACD7-FFFE-47BB-B674-59F7806702E6/assets/D2E3446EBD1CCB24C24194A2DC6AAAE1.png" width="21.00" height="34.00" transform="matrix(1.00, 0.00, -0.00, -1.00, 455.0, 280.0)"></image><g><clipPath id="clip0x6000042ade60"><path d="M -6.3 -8.5 L 1471.2 -8.5 L 1471.2 328.5 L -6.3 328.5 Z M -6.3 -8.5 "></path></clipPath><g clip-path="url(#clip0x6000042ade60)"><text xml:space="preserve" font-family="Monaco,Monaco" font-size="26.0" fill="#EAEAEA" transform="matrix(1.00, 0.00, -0.00, -1.00, 442.7, 257.1)"> </text><text xml:space="preserve" font-family="Monaco,Monaco" font-size="26.0" fill="#EAEAEA" transform="matrix(1.00, 0.00, -0.00, -1.00, 458.3, 257.1)">}</text></g></g><g><clipPath id="clip0x6080032a2b80"><path d="M -6.3 -8.5 L 1471.2 -8.5 L 1471.2 328.5 L -6.3 328.5 Z M -6.3 -8.5 "></path></clipPath><g clip-path="url(#clip0x6080032a2b80)"><text xml:space="preserve" font-family="Monaco,Monaco" font-size="26.0" fill="#EAEAEA" transform="matrix(1.00, 0.00, -0.00, -1.00, 5.8, 222.1)"> </text><text xml:space="preserve" font-family="Monaco,Monaco" font-size="26.0" fill="#EAEAEA" transform="matrix(1.00, 0.00, -0.00, -1.00, 21.4, 222.1)"> </text></g></g><image xlink:href="../../A3A6ACD7-FFFE-47BB-B674-59F7806702E6/assets/BA3A48367CDBCED2DDBF5A337377E457.png" width="54.00" height="24.00" transform="matrix(1.00, 0.00, -0.00, -1.00, 33.0, 239.0)"></image><g><clipPath id="clip0x6080032a2f40"><path d="M -6.3 -8.5 L 1471.2 -8.5 L 1471.2 328.5 L -6.3 328.5 Z M -6.3 -8.5 "></path></clipPath><g clip-path="url(#clip0x6080032a2f40)"><text xml:space="preserve" font-family="Monaco,Monaco" font-size="26.0" fill="#83D6EB" transform="matrix(1.00, 0.00, -0.00, -1.00, 37.0, 222.1)">v</text><text xml:space="preserve" font-family="Monaco,Monaco" font-size="26.0" fill="#83D6EB" transform="matrix(1.00, 0.00, -0.00, -1.00, 52.7, 222.1)">a</text><text xml:space="preserve" font-family="Monaco,Monaco" font-size="26.0" fill="#83D6EB" transform="matrix(1.00, 0.00, -0.00, -1.00, 68.3, 222.1)">r</text></g></g><image xlink:href="../../A3A6ACD7-FFFE-47BB-B674-59F7806702E6/assets/A0442207B986589536F9871ABB0473F2.png" width="114.00" height="30.00" transform="matrix(1.00, 0.00, -0.00, -1.00, 97.0, 245.0)"></image><g><clipPath id="clip0x6080032a3300"><path d="M -6.3 -8.5 L 1471.2 -8.5 L 1471.2 328.5 L -6.3 328.5 Z M -6.3 -8.5 "></path></clipPath><g clip-path="url(#clip0x6080032a3300)"><text xml:space="preserve" font-family="Monaco,Monaco" font-size="26.0" fill="#EAEAEA" transform="matrix(1.00, 0.00, -0.00, -1.00, 83.9, 222.1)"> </text><text xml:space="preserve" font-family="Monaco,Monaco" font-size="26.0" fill="#EAEAEA" transform="matrix(1.00, 0.00, -0.00, -1.00, 99.5, 222.1)">h</text><text xml:space="preserve" font-family="Monaco,Monaco" font-size="26.0" fill="#EAEAEA" transform="matrix(1.00, 0.00, -0.00, -1.00, 115.1, 222.1)">a</text><text xml:space="preserve" font-family="Monaco,Monaco" font-size="26.0" fill="#EAEAEA" transform="matrix(1.00, 0.00, -0.00, -1.00, 130.7, 222.1)">n</text><text xml:space="preserve" font-family="Monaco,Monaco" font-size="26.0" fill="#EAEAEA" transform="matrix(1.00, 0.00, -0.00, -1.00, 146.3, 222.1)">d</text><text xml:space="preserve" font-family="Monaco,Monaco" font-size="26.0" fill="#EAEAEA" transform="matrix(1.00, 0.00, -0.00, -1.00, 161.9, 222.1)">l</text><text xml:space="preserve" font-family="Monaco,Monaco" font-size="26.0" fill="#EAEAEA" transform="matrix(1.00, 0.00, -0.00, -1.00, 177.5, 222.1)">e</text><text xml:space="preserve" font-family="Monaco,Monaco" font-size="26.0" fill="#EAEAEA" transform="matrix(1.00, 0.00, -0.00, -1.00, 193.1, 222.1)">r</text><text xml:space="preserve" font-family="Monaco,Monaco" font-size="26.0" fill="#EAEAEA" transform="matrix(1.00, 0.00, -0.00, -1.00, 208.7, 222.1)"> </text></g></g><image xlink:href="../../0593CD99-7086-4720-8705-69C8E7C16F2D/assets/A94C8755D205B6BA4F933BC4B082473C.png" width="22.00" height="16.00" transform="matrix(1.00, 0.00, -0.00, -1.00, 221.0, 235.0)"></image><g><clipPath id="clip0x6080032a39c0"><path d="M -6.3 -8.5 L 1471.2 -8.5 L 1471.2 328.5 L -6.3 328.5 Z M -6.3 -8.5 "></path></clipPath><g clip-path="url(#clip0x6080032a39c0)"><text xml:space="preserve" font-family="Monaco,Monaco" font-size="26.0" fill="#E34D77" transform="matrix(1.00, 0.00, -0.00, -1.00, 224.3, 222.1)">=</text></g></g><g><clipPath id="clip0x6080032a3d20"><path d="M -6.3 -8.5 L 1471.2 -8.5 L 1471.2 328.5 L -6.3 328.5 Z M -6.3 -8.5 "></path></clipPath><g clip-path="url(#clip0x6080032a3d20)"><text xml:space="preserve" font-family="Monaco,Monaco" font-size="26.0" fill="#EAEAEA" transform="matrix(1.00, 0.00, -0.00, -1.00, 239.9, 222.1)"> </text></g></g><image xlink:href="../../A3A6ACD7-FFFE-47BB-B674-59F7806702E6/assets/523DEF8BB05DBB4004C2FC864672618D.png" width="85.00" height="35.00" transform="matrix(1.00, 0.00, -0.00, -1.00, 251.0, 245.0)"></image><g><clipPath id="clip0x6000042ae160"><path d="M -6.3 -8.5 L 1471.2 -8.5 L 1471.2 328.5 L -6.3 328.5 Z M -6.3 -8.5 "></path></clipPath><g clip-path="url(#clip0x6000042ae160)"><text xml:space="preserve" font-family="Monaco,Monaco" font-size="26.0" fill="#E34D77" transform="matrix(1.00, 0.00, -0.00, -1.00, 255.5, 222.1)">y</text><text xml:space="preserve" font-family="Monaco,Monaco" font-size="26.0" fill="#E34D77" transform="matrix(1.00, 0.00, -0.00, -1.00, 271.1, 222.1)">i</text><text xml:space="preserve" font-family="Monaco,Monaco" font-size="26.0" fill="#E34D77" transform="matrix(1.00, 0.00, -0.00, -1.00, 286.7, 222.1)">e</text><text xml:space="preserve" font-family="Monaco,Monaco" font-size="26.0" fill="#E34D77" transform="matrix(1.00, 0.00, -0.00, -1.00, 302.3, 222.1)">l</text><text xml:space="preserve" font-family="Monaco,Monaco" font-size="26.0" fill="#E34D77" transform="matrix(1.00, 0.00, -0.00, -1.00, 317.9, 222.1)">d</text></g></g><image xlink:href="../../A3A6ACD7-FFFE-47BB-B674-59F7806702E6/assets/35B4610245E222A09627ADC5D4BE4891.png" width="84.00" height="33.00" transform="matrix(1.00, 0.00, -0.00, -1.00, 346.0, 243.0)"></image><g><clipPath id="clip0x6000042ae400"><path d="M -6.3 -8.5 L 1471.2 -8.5 L 1471.2 328.5 L -6.3 328.5 Z M -6.3 -8.5 "></path></clipPath><g clip-path="url(#clip0x6000042ae400)"><text xml:space="preserve" font-family="Monaco,Monaco" font-size="26.0" fill="#EAEAEA" transform="matrix(1.00, 0.00, -0.00, -1.00, 333.5, 222.1)"> </text><text xml:space="preserve" font-family="Monaco,Monaco" font-size="26.0" fill="#EAEAEA" transform="matrix(1.00, 0.00, -0.00, -1.00, 349.1, 222.1)">g</text><text xml:space="preserve" font-family="Monaco,Monaco" font-size="26.0" fill="#EAEAEA" transform="matrix(1.00, 0.00, -0.00, -1.00, 364.7, 222.1)">r</text><text xml:space="preserve" font-family="Monaco,Monaco" font-size="26.0" fill="#EAEAEA" transform="matrix(1.00, 0.00, -0.00, -1.00, 380.3, 222.1)">e</text><text xml:space="preserve" font-family="Monaco,Monaco" font-size="26.0" fill="#EAEAEA" transform="matrix(1.00, 0.00, -0.00, -1.00, 395.9, 222.1)">e</text><text xml:space="preserve" font-family="Monaco,Monaco" font-size="26.0" fill="#EAEAEA" transform="matrix(1.00, 0.00, -0.00, -1.00, 411.5, 222.1)">t</text></g></g><image xlink:href="../../A3A6ACD7-FFFE-47BB-B674-59F7806702E6/assets/01964B67DF4A5AFC00CF2D5F6FC4FC40.png" width="115.00" height="30.00" transform="matrix(1.00, 0.00, -0.00, -1.00, 424.0, 245.0)"></image><g><clipPath id="clip0x6080032a3f60"><path d="M -6.3 -8.5 L 1471.2 -8.5 L 1471.2 328.5 L -6.3 328.5 Z M -6.3 -8.5 "></path></clipPath><g clip-path="url(#clip0x6080032a3f60)"><text xml:space="preserve" font-family="Monaco,Monaco" font-size="26.0" fill="#EAEAEA" transform="matrix(1.00, 0.00, -0.00, -1.00, 427.1, 222.1)">H</text><text xml:space="preserve" font-family="Monaco,Monaco" font-size="26.0" fill="#EAEAEA" transform="matrix(1.00, 0.00, -0.00, -1.00, 442.7, 222.1)">a</text><text xml:space="preserve" font-family="Monaco,Monaco" font-size="26.0" fill="#EAEAEA" transform="matrix(1.00, 0.00, -0.00, -1.00, 458.3, 222.1)">n</text><text xml:space="preserve" font-family="Monaco,Monaco" font-size="26.0" fill="#EAEAEA" transform="matrix(1.00, 0.00, -0.00, -1.00, 473.9, 222.1)">d</text><text xml:space="preserve" font-family="Monaco,Monaco" font-size="26.0" fill="#EAEAEA" transform="matrix(1.00, 0.00, -0.00, -1.00, 489.5, 222.1)">l</text><text xml:space="preserve" font-family="Monaco,Monaco" font-size="26.0" fill="#EAEAEA" transform="matrix(1.00, 0.00, -0.00, -1.00, 505.1, 222.1)">e</text><text xml:space="preserve" font-family="Monaco,Monaco" font-size="26.0" fill="#EAEAEA" transform="matrix(1.00, 0.00, -0.00, -1.00, 520.7, 222.1)">r</text></g></g><image xlink:href="../../A3A6ACD7-FFFE-47BB-B674-59F7806702E6/assets/08905EF478EB484FC76ABDFF8650E20C.png" width="14.00" height="13.00" transform="matrix(1.00, 0.00, -0.00, -1.00, 69.0, 193.0)"></image><g><clipPath id="clip0x6080032a4380"><path d="M -6.3 -8.5 L 1471.2 -8.5 L 1471.2 328.5 L -6.3 328.5 Z M -6.3 -8.5 "></path></clipPath><g clip-path="url(#clip0x6080032a4380)"><text xml:space="preserve" font-family="Monaco,Monaco" font-size="26.0" fill="#EAEAEA" transform="matrix(1.00, 0.00, -0.00, -1.00, 5.8, 187.1)"> </text><text xml:space="preserve" font-family="Monaco,Monaco" font-size="26.0" fill="#EAEAEA" transform="matrix(1.00, 0.00, -0.00, -1.00, 21.4, 187.1)"> </text><text xml:space="preserve" font-family="Monaco,Monaco" font-size="26.0" fill="#EAEAEA" transform="matrix(1.00, 0.00, -0.00, -1.00, 37.1, 187.1)"> </text><text xml:space="preserve" font-family="Monaco,Monaco" font-size="26.0" fill="#EAEAEA" transform="matrix(1.00, 0.00, -0.00, -1.00, 52.7, 187.1)"> </text><text xml:space="preserve" font-family="Monaco,Monaco" font-size="26.0" fill="#EAEAEA" transform="matrix(1.00, 0.00, -0.00, -1.00, 68.3, 187.1)">.</text></g></g><image xlink:href="../../A3A6ACD7-FFFE-47BB-B674-59F7806702E6/assets/6B6FD1A4347E8AF60C971E90BFC03882.png" width="177.00" height="30.00" transform="matrix(1.00, 0.00, -0.00, -1.00, 81.0, 210.0)"></image><g><clipPath id="clip0x6080032a4800"><path d="M -6.3 -8.5 L 1471.2 -8.5 L 1471.2 328.5 L -6.3 328.5 Z M -6.3 -8.5 "></path></clipPath><g clip-path="url(#clip0x6080032a4800)"><text xml:space="preserve" font-family="Monaco,Monaco" font-size="26.0" fill="#B7D936" transform="matrix(1.00, 0.00, -0.00, -1.00, 83.9, 187.1)">l</text><text xml:space="preserve" font-family="Monaco,Monaco" font-size="26.0" fill="#B7D936" transform="matrix(1.00, 0.00, -0.00, -1.00, 99.5, 187.1)">o</text><text xml:space="preserve" font-family="Monaco,Monaco" font-size="26.0" fill="#B7D936" transform="matrix(1.00, 0.00, -0.00, -1.00, 115.1, 187.1)">a</text><text xml:space="preserve" font-family="Monaco,Monaco" font-size="26.0" fill="#B7D936" transform="matrix(1.00, 0.00, -0.00, -1.00, 130.7, 187.1)">d</text><text xml:space="preserve" font-family="Monaco,Monaco" font-size="26.0" fill="#B7D936" transform="matrix(1.00, 0.00, -0.00, -1.00, 146.3, 187.1)">H</text><text xml:space="preserve" font-family="Monaco,Monaco" font-size="26.0" fill="#B7D936" transform="matrix(1.00, 0.00, -0.00, -1.00, 161.9, 187.1)">a</text><text xml:space="preserve" font-family="Monaco,Monaco" font-size="26.0" fill="#B7D936" transform="matrix(1.00, 0.00, -0.00, -1.00, 177.5, 187.1)">n</text><text xml:space="preserve" font-family="Monaco,Monaco" font-size="26.0" fill="#B7D936" transform="matrix(1.00, 0.00, -0.00, -1.00, 193.1, 187.1)">d</text><text xml:space="preserve" font-family="Monaco,Monaco" font-size="26.0" fill="#B7D936" transform="matrix(1.00, 0.00, -0.00, -1.00, 208.7, 187.1)">l</text><text xml:space="preserve" font-family="Monaco,Monaco" font-size="26.0" fill="#B7D936" transform="matrix(1.00, 0.00, -0.00, -1.00, 224.3, 187.1)">e</text><text xml:space="preserve" font-family="Monaco,Monaco" font-size="26.0" fill="#B7D936" transform="matrix(1.00, 0.00, -0.00, -1.00, 239.9, 187.1)">r</text></g></g><image xlink:href="../../A3A6ACD7-FFFE-47BB-B674-59F7806702E6/assets/BEFCB7778C9F809E36DDA3C1F3873BC3.png" width="114.00" height="35.00" transform="matrix(1.00, 0.00, -0.00, -1.00, 253.0, 210.0)"></image><g><clipPath id="clip0x6080032a4ec0"><path d="M -6.3 -8.5 L 1471.2 -8.5 L 1471.2 328.5 L -6.3 328.5 Z M -6.3 -8.5 "></path></clipPath><g clip-path="url(#clip0x6080032a4ec0)"><text xml:space="preserve" font-family="Monaco,Monaco" font-size="26.0" fill="#EAEAEA" transform="matrix(1.00, 0.00, -0.00, -1.00, 255.5, 187.1)">(</text><text xml:space="preserve" font-family="Monaco,Monaco" font-size="26.0" fill="#EAEAEA" transform="matrix(1.00, 0.00, -0.00, -1.00, 271.1, 187.1)">c</text><text xml:space="preserve" font-family="Monaco,Monaco" font-size="26.0" fill="#EAEAEA" transform="matrix(1.00, 0.00, -0.00, -1.00, 286.7, 187.1)">o</text><text xml:space="preserve" font-family="Monaco,Monaco" font-size="26.0" fill="#EAEAEA" transform="matrix(1.00, 0.00, -0.00, -1.00, 302.3, 187.1)">n</text><text xml:space="preserve" font-family="Monaco,Monaco" font-size="26.0" fill="#EAEAEA" transform="matrix(1.00, 0.00, -0.00, -1.00, 317.9, 187.1)">f</text><text xml:space="preserve" font-family="Monaco,Monaco" font-size="26.0" fill="#EAEAEA" transform="matrix(1.00, 0.00, -0.00, -1.00, 333.5, 187.1)">i</text><text xml:space="preserve" font-family="Monaco,Monaco" font-size="26.0" fill="#EAEAEA" transform="matrix(1.00, 0.00, -0.00, -1.00, 349.1, 187.1)">g</text></g></g><image xlink:href="../../A3A6ACD7-FFFE-47BB-B674-59F7806702E6/assets/FBD3915D7FC301CF5BB1D0EBDF92DBCA.png" width="20.00" height="34.00" transform="matrix(1.00, 0.00, -0.00, -1.00, 362.0, 210.0)"></image><g><clipPath id="clip0x6080032a55e0"><path d="M -6.3 -8.5 L 1471.2 -8.5 L 1471.2 328.5 L -6.3 328.5 Z M -6.3 -8.5 "></path></clipPath><g clip-path="url(#clip0x6080032a55e0)"><text xml:space="preserve" font-family="Monaco,Monaco" font-size="26.0" fill="#EAEAEA" transform="matrix(1.00, 0.00, -0.00, -1.00, 364.7, 187.1)">)</text></g></g><g><clipPath id="clip0x6080032a5820"><path d="M -6.3 -8.5 L 1471.2 -8.5 L 1471.2 328.5 L -6.3 328.5 Z M -6.3 -8.5 "></path></clipPath><g clip-path="url(#clip0x6080032a5820)"><text xml:space="preserve" font-family="Monaco,Monaco" font-size="26.0" fill="#EAEAEA" transform="matrix(1.00, 0.00, -0.00, -1.00, 5.8, 117.1)"> </text><text xml:space="preserve" font-family="Monaco,Monaco" font-size="26.0" fill="#EAEAEA" transform="matrix(1.00, 0.00, -0.00, -1.00, 21.4, 117.1)"> </text></g></g><image xlink:href="../../A3A6ACD7-FFFE-47BB-B674-59F7806702E6/assets/E5D5BAB8A5210C578FF0990D4A6BFA9C.png" width="331.00" height="35.00" transform="matrix(1.00, 0.00, -0.00, -1.00, 33.0, 140.0)"></image><g><clipPath id="clip0x6080032a59a0"><path d="M -6.3 -8.5 L 1471.2 -8.5 L 1471.2 328.5 L -6.3 328.5 Z M -6.3 -8.5 "></path></clipPath><g clip-path="url(#clip0x6080032a59a0)"><text xml:space="preserve" font-family="Monaco,Monaco" font-size="26.0" fill="#746F5E" transform="matrix(1.00, 0.00, -0.00, -1.00, 37.0, 117.1)">/</text><text xml:space="preserve" font-family="Monaco,Monaco" font-size="26.0" fill="#746F5E" transform="matrix(1.00, 0.00, -0.00, -1.00, 52.7, 117.1)">/</text><text xml:space="preserve" font-family="Monaco,Monaco" font-size="26.0" fill="#746F5E" transform="matrix(1.00, 0.00, -0.00, -1.00, 68.3, 117.1)"> </text><text xml:space="preserve" font-family="Monaco,Monaco" font-size="26.0" fill="#746F5E" transform="matrix(1.00, 0.00, -0.00, -1.00, 83.9, 117.1)">r</text><text xml:space="preserve" font-family="Monaco,Monaco" font-size="26.0" fill="#746F5E" transform="matrix(1.00, 0.00, -0.00, -1.00, 99.5, 117.1)">e</text><text xml:space="preserve" font-family="Monaco,Monaco" font-size="26.0" fill="#746F5E" transform="matrix(1.00, 0.00, -0.00, -1.00, 115.1, 117.1)">t</text><text xml:space="preserve" font-family="Monaco,Monaco" font-size="26.0" fill="#746F5E" transform="matrix(1.00, 0.00, -0.00, -1.00, 130.7, 117.1)">u</text><text xml:space="preserve" font-family="Monaco,Monaco" font-size="26.0" fill="#746F5E" transform="matrix(1.00, 0.00, -0.00, -1.00, 146.3, 117.1)">r</text><text xml:space="preserve" font-family="Monaco,Monaco" font-size="26.0" fill="#746F5E" transform="matrix(1.00, 0.00, -0.00, -1.00, 161.9, 117.1)">n</text><text xml:space="preserve" font-family="Monaco,Monaco" font-size="26.0" fill="#746F5E" transform="matrix(1.00, 0.00, -0.00, -1.00, 177.5, 117.1)">s</text><text xml:space="preserve" font-family="Monaco,Monaco" font-size="26.0" fill="#746F5E" transform="matrix(1.00, 0.00, -0.00, -1.00, 193.1, 117.1)"> </text><text xml:space="preserve" font-family="Monaco,Monaco" font-size="26.0" fill="#746F5E" transform="matrix(1.00, 0.00, -0.00, -1.00, 208.7, 117.1)">‘</text><text xml:space="preserve" font-family="Monaco,Monaco" font-size="26.0" fill="#746F5E" transform="matrix(1.00, 0.00, -0.00, -1.00, 224.3, 117.1)">Y</text><text xml:space="preserve" font-family="Monaco,Monaco" font-size="26.0" fill="#746F5E" transform="matrix(1.00, 0.00, -0.00, -1.00, 239.9, 117.1)">o</text><text xml:space="preserve" font-family="Monaco,Monaco" font-size="26.0" fill="#746F5E" transform="matrix(1.00, 0.00, -0.00, -1.00, 255.5, 117.1)">,</text><text xml:space="preserve" font-family="Monaco,Monaco" font-size="26.0" fill="#746F5E" transform="matrix(1.00, 0.00, -0.00, -1.00, 271.1, 117.1)"> </text><text xml:space="preserve" font-family="Monaco,Monaco" font-size="26.0" fill="#746F5E" transform="matrix(1.00, 0.00, -0.00, -1.00, 286.7, 117.1)">J</text><text xml:space="preserve" font-family="Monaco,Monaco" font-size="26.0" fill="#746F5E" transform="matrix(1.00, 0.00, -0.00, -1.00, 302.3, 117.1)">o</text><text xml:space="preserve" font-family="Monaco,Monaco" font-size="26.0" fill="#746F5E" transform="matrix(1.00, 0.00, -0.00, -1.00, 317.9, 117.1)">h</text><text xml:space="preserve" font-family="Monaco,Monaco" font-size="26.0" fill="#746F5E" transform="matrix(1.00, 0.00, -0.00, -1.00, 333.5, 117.1)">n</text><text xml:space="preserve" font-family="Monaco,Monaco" font-size="26.0" fill="#746F5E" transform="matrix(1.00, 0.00, -0.00, -1.00, 349.1, 117.1)">’</text></g></g><g><clipPath id="clip0x6080032a64e0"><path d="M -6.3 -8.5 L 1471.2 -8.5 L 1471.2 328.5 L -6.3 328.5 Z M -6.3 -8.5 "></path></clipPath><g clip-path="url(#clip0x6080032a64e0)"><text xml:space="preserve" font-family="Monaco,Monaco" font-size="26.0" fill="#EAEAEA" transform="matrix(1.00, 0.00, -0.00, -1.00, 5.8, 82.1)"> </text><text xml:space="preserve" font-family="Monaco,Monaco" font-size="26.0" fill="#EAEAEA" transform="matrix(1.00, 0.00, -0.00, -1.00, 21.4, 82.1)"> </text></g></g><image xlink:href="../../A3A6ACD7-FFFE-47BB-B674-59F7806702E6/assets/BA3A48367CDBCED2DDBF5A337377E457.png" width="54.00" height="24.00" transform="matrix(1.00, 0.00, -0.00, -1.00, 33.0, 99.0)"></image><g><clipPath id="clip0x6080032a6660"><path d="M -6.3 -8.5 L 1471.2 -8.5 L 1471.2 328.5 L -6.3 328.5 Z M -6.3 -8.5 "></path></clipPath><g clip-path="url(#clip0x6080032a6660)"><text xml:space="preserve" font-family="Monaco,Monaco" font-size="26.0" fill="#83D6EB" transform="matrix(1.00, 0.00, -0.00, -1.00, 37.0, 82.1)">v</text><text xml:space="preserve" font-family="Monaco,Monaco" font-size="26.0" fill="#83D6EB" transform="matrix(1.00, 0.00, -0.00, -1.00, 52.7, 82.1)">a</text><text xml:space="preserve" font-family="Monaco,Monaco" font-size="26.0" fill="#83D6EB" transform="matrix(1.00, 0.00, -0.00, -1.00, 68.3, 82.1)">r</text></g></g><image xlink:href="../../A3A6ACD7-FFFE-47BB-B674-59F7806702E6/assets/A7EC1F17D51DF5A03445529A0A1D2CA4.png" width="98.00" height="30.00" transform="matrix(1.00, 0.00, -0.00, -1.00, 98.0, 105.0)"></image><g><clipPath id="clip0x6080032a6a20"><path d="M -6.3 -8.5 L 1471.2 -8.5 L 1471.2 328.5 L -6.3 328.5 Z M -6.3 -8.5 "></path></clipPath><g clip-path="url(#clip0x6080032a6a20)"><text xml:space="preserve" font-family="Monaco,Monaco" font-size="26.0" fill="#EAEAEA" transform="matrix(1.00, 0.00, -0.00, -1.00, 83.9, 82.1)"> </text><text xml:space="preserve" font-family="Monaco,Monaco" font-size="26.0" fill="#EAEAEA" transform="matrix(1.00, 0.00, -0.00, -1.00, 99.5, 82.1)">r</text><text xml:space="preserve" font-family="Monaco,Monaco" font-size="26.0" fill="#EAEAEA" transform="matrix(1.00, 0.00, -0.00, -1.00, 115.1, 82.1)">e</text><text xml:space="preserve" font-family="Monaco,Monaco" font-size="26.0" fill="#EAEAEA" transform="matrix(1.00, 0.00, -0.00, -1.00, 130.7, 82.1)">s</text><text xml:space="preserve" font-family="Monaco,Monaco" font-size="26.0" fill="#EAEAEA" transform="matrix(1.00, 0.00, -0.00, -1.00, 146.3, 82.1)">u</text><text xml:space="preserve" font-family="Monaco,Monaco" font-size="26.0" fill="#EAEAEA" transform="matrix(1.00, 0.00, -0.00, -1.00, 161.9, 82.1)">l</text><text xml:space="preserve" font-family="Monaco,Monaco" font-size="26.0" fill="#EAEAEA" transform="matrix(1.00, 0.00, -0.00, -1.00, 177.5, 82.1)">t</text><text xml:space="preserve" font-family="Monaco,Monaco" font-size="26.0" fill="#EAEAEA" transform="matrix(1.00, 0.00, -0.00, -1.00, 193.1, 82.1)"> </text></g></g><image xlink:href="../../A3A6ACD7-FFFE-47BB-B674-59F7806702E6/assets/A9CA582A6806573F47E2C050D80A86F2.png" width="23.00" height="16.00" transform="matrix(1.00, 0.00, -0.00, -1.00, 205.0, 95.0)"></image><g><clipPath id="clip0x6000042aea60"><path d="M -6.3 -8.5 L 1471.2 -8.5 L 1471.2 328.5 L -6.3 328.5 Z M -6.3 -8.5 "></path></clipPath><g clip-path="url(#clip0x6000042aea60)"><text xml:space="preserve" font-family="Monaco,Monaco" font-size="26.0" fill="#E34D77" transform="matrix(1.00, 0.00, -0.00, -1.00, 208.7, 82.1)">=</text></g></g><g><clipPath id="clip0x6000042aed60"><path d="M -6.3 -8.5 L 1471.2 -8.5 L 1471.2 328.5 L -6.3 328.5 Z M -6.3 -8.5 "></path></clipPath><g clip-path="url(#clip0x6000042aed60)"><text xml:space="preserve" font-family="Monaco,Monaco" font-size="26.0" fill="#EAEAEA" transform="matrix(1.00, 0.00, -0.00, -1.00, 224.3, 82.1)"> </text></g></g><image xlink:href="../../A3A6ACD7-FFFE-47BB-B674-59F7806702E6/assets/5BC7A639F6F2A5E1BB584FDF65FB0B0C.png" width="85.00" height="35.00" transform="matrix(1.00, 0.00, -0.00, -1.00, 236.0, 105.0)"></image><g><clipPath id="clip0x6080032a70e0"><path d="M -6.3 -8.5 L 1471.2 -8.5 L 1471.2 328.5 L -6.3 328.5 Z M -6.3 -8.5 "></path></clipPath><g clip-path="url(#clip0x6080032a70e0)"><text xml:space="preserve" font-family="Monaco,Monaco" font-size="26.0" fill="#E34D77" transform="matrix(1.00, 0.00, -0.00, -1.00, 239.9, 82.1)">y</text><text xml:space="preserve" font-family="Monaco,Monaco" font-size="26.0" fill="#E34D77" transform="matrix(1.00, 0.00, -0.00, -1.00, 255.5, 82.1)">i</text><text xml:space="preserve" font-family="Monaco,Monaco" font-size="26.0" fill="#E34D77" transform="matrix(1.00, 0.00, -0.00, -1.00, 271.1, 82.1)">e</text><text xml:space="preserve" font-family="Monaco,Monaco" font-size="26.0" fill="#E34D77" transform="matrix(1.00, 0.00, -0.00, -1.00, 286.7, 82.1)">l</text><text xml:space="preserve" font-family="Monaco,Monaco" font-size="26.0" fill="#E34D77" transform="matrix(1.00, 0.00, -0.00, -1.00, 302.3, 82.1)">d</text></g></g><g><clipPath id="clip0x6080032a75c0"><path d="M -6.3 -8.5 L 1471.2 -8.5 L 1471.2 328.5 L -6.3 328.5 Z M -6.3 -8.5 "></path></clipPath><g clip-path="url(#clip0x6080032a75c0)"><text xml:space="preserve" font-family="Monaco,Monaco" font-size="26.0" fill="#EAEAEA" transform="matrix(1.00, 0.00, -0.00, -1.00, 317.9, 82.1)"> </text></g></g><image xlink:href="../../A3A6ACD7-FFFE-47BB-B674-59F7806702E6/assets/AE93545A1D2F8C01F6BB09CFF77AD812.png" width="114.00" height="30.00" transform="matrix(1.00, 0.00, -0.00, -1.00, 331.0, 105.0)"></image><g><clipPath id="clip0x6080032a76e0"><path d="M -6.3 -8.5 L 1471.2 -8.5 L 1471.2 328.5 L -6.3 328.5 Z M -6.3 -8.5 "></path></clipPath><g clip-path="url(#clip0x6080032a76e0)"><text xml:space="preserve" font-family="Monaco,Monaco" font-size="26.0" fill="#B7D936" transform="matrix(1.00, 0.00, -0.00, -1.00, 333.5, 82.1)">h</text><text xml:space="preserve" font-family="Monaco,Monaco" font-size="26.0" fill="#B7D936" transform="matrix(1.00, 0.00, -0.00, -1.00, 349.1, 82.1)">a</text><text xml:space="preserve" font-family="Monaco,Monaco" font-size="26.0" fill="#B7D936" transform="matrix(1.00, 0.00, -0.00, -1.00, 364.7, 82.1)">n</text><text xml:space="preserve" font-family="Monaco,Monaco" font-size="26.0" fill="#B7D936" transform="matrix(1.00, 0.00, -0.00, -1.00, 380.3, 82.1)">d</text><text xml:space="preserve" font-family="Monaco,Monaco" font-size="26.0" fill="#B7D936" transform="matrix(1.00, 0.00, -0.00, -1.00, 395.9, 82.1)">l</text><text xml:space="preserve" font-family="Monaco,Monaco" font-size="26.0" fill="#B7D936" transform="matrix(1.00, 0.00, -0.00, -1.00, 411.5, 82.1)">e</text><text xml:space="preserve" font-family="Monaco,Monaco" font-size="26.0" fill="#B7D936" transform="matrix(1.00, 0.00, -0.00, -1.00, 427.1, 82.1)">r</text></g></g><image xlink:href="../../A3A6ACD7-FFFE-47BB-B674-59F7806702E6/assets/1C469B72E86DFEC3BB9EC823106BD7CE.png" width="125.00" height="34.00" transform="matrix(1.00, 0.00, -0.00, -1.00, 441.0, 105.0)"></image><g><clipPath id="clip0x6000042af000"><path d="M -6.3 -8.5 L 1471.2 -8.5 L 1471.2 328.5 L -6.3 328.5 Z M -6.3 -8.5 "></path></clipPath><g clip-path="url(#clip0x6000042af000)"><text xml:space="preserve" font-family="Monaco,Monaco" font-size="26.0" fill="#EAEAEA" transform="matrix(1.00, 0.00, -0.00, -1.00, 442.7, 82.1)">(</text><text xml:space="preserve" font-family="Monaco,Monaco" font-size="26.0" fill="#EAEAEA" transform="matrix(1.00, 0.00, -0.00, -1.00, 458.3, 82.1)">{</text><text xml:space="preserve" font-family="Monaco,Monaco" font-size="26.0" fill="#EAEAEA" transform="matrix(1.00, 0.00, -0.00, -1.00, 473.9, 82.1)"> </text><text xml:space="preserve" font-family="Monaco,Monaco" font-size="26.0" fill="#EAEAEA" transform="matrix(1.00, 0.00, -0.00, -1.00, 489.5, 82.1)">n</text><text xml:space="preserve" font-family="Monaco,Monaco" font-size="26.0" fill="#EAEAEA" transform="matrix(1.00, 0.00, -0.00, -1.00, 505.1, 82.1)">a</text><text xml:space="preserve" font-family="Monaco,Monaco" font-size="26.0" fill="#EAEAEA" transform="matrix(1.00, 0.00, -0.00, -1.00, 520.7, 82.1)">m</text><text xml:space="preserve" font-family="Monaco,Monaco" font-size="26.0" fill="#EAEAEA" transform="matrix(1.00, 0.00, -0.00, -1.00, 536.3, 82.1)">e</text><text xml:space="preserve" font-family="Monaco,Monaco" font-size="26.0" fill="#EAEAEA" transform="matrix(1.00, 0.00, -0.00, -1.00, 551.9, 82.1)">:</text><text xml:space="preserve" font-family="Monaco,Monaco" font-size="26.0" fill="#EAEAEA" transform="matrix(1.00, 0.00, -0.00, -1.00, 567.6, 82.1)"> </text></g></g><image xlink:href="../../A3A6ACD7-FFFE-47BB-B674-59F7806702E6/assets/FFA26526FDDF1F63C9235037B3AD5DE3.png" width="92.00" height="30.00" transform="matrix(1.00, 0.00, -0.00, -1.00, 584.0, 105.0)"></image><g><clipPath id="clip0x6000042af420"><path d="M -6.3 -8.5 L 1471.2 -8.5 L 1471.2 328.5 L -6.3 328.5 Z M -6.3 -8.5 "></path></clipPath><g clip-path="url(#clip0x6000042af420)"><text xml:space="preserve" font-family="Monaco,Monaco" font-size="26.0" fill="#E6D679" transform="matrix(1.00, 0.00, -0.00, -1.00, 583.1, 82.1)">'</text><text xml:space="preserve" font-family="Monaco,Monaco" font-size="26.0" fill="#E6D679" transform="matrix(1.00, 0.00, -0.00, -1.00, 598.7, 82.1)">J</text><text xml:space="preserve" font-family="Monaco,Monaco" font-size="26.0" fill="#E6D679" transform="matrix(1.00, 0.00, -0.00, -1.00, 614.3, 82.1)">o</text><text xml:space="preserve" font-family="Monaco,Monaco" font-size="26.0" fill="#E6D679" transform="matrix(1.00, 0.00, -0.00, -1.00, 629.9, 82.1)">h</text><text xml:space="preserve" font-family="Monaco,Monaco" font-size="26.0" fill="#E6D679" transform="matrix(1.00, 0.00, -0.00, -1.00, 645.6, 82.1)">n</text><text xml:space="preserve" font-family="Monaco,Monaco" font-size="26.0" fill="#E6D679" transform="matrix(1.00, 0.00, -0.00, -1.00, 661.2, 82.1)">'</text></g></g><image xlink:href="../../A3A6ACD7-FFFE-47BB-B674-59F7806702E6/assets/041BCF594F197DE8C5518390316C3ED7.png" width="37.00" height="34.00" transform="matrix(1.00, 0.00, -0.00, -1.00, 689.0, 105.0)"></image><g><clipPath id="clip0x6000042af900"><path d="M -6.3 -8.5 L 1471.2 -8.5 L 1471.2 328.5 L -6.3 328.5 Z M -6.3 -8.5 "></path></clipPath><g clip-path="url(#clip0x6000042af900)"><text xml:space="preserve" font-family="Monaco,Monaco" font-size="26.0" fill="#EAEAEA" transform="matrix(1.00, 0.00, -0.00, -1.00, 676.7, 82.1)"> </text><text xml:space="preserve" font-family="Monaco,Monaco" font-size="26.0" fill="#EAEAEA" transform="matrix(1.00, 0.00, -0.00, -1.00, 692.4, 82.1)">}</text><text xml:space="preserve" font-family="Monaco,Monaco" font-size="26.0" fill="#EAEAEA" transform="matrix(1.00, 0.00, -0.00, -1.00, 708.0, 82.1)">)</text></g></g><image xlink:href="../../A3A6ACD7-FFFE-47BB-B674-59F7806702E6/assets/445B7F139585D001FAD974B2C61A0FB7.png" width="36.00" height="34.00" transform="matrix(1.00, 0.00, -0.00, -1.00, 3.0, 70.0)"></image><g><clipPath id="clip0x6080032a7ce0"><path d="M -6.3 -8.5 L 1471.2 -8.5 L 1471.2 328.5 L -6.3 328.5 Z M -6.3 -8.5 "></path></clipPath><g clip-path="url(#clip0x6080032a7ce0)"><text xml:space="preserve" font-family="Monaco,Monaco" font-size="26.0" fill="#EAEAEA" transform="matrix(1.00, 0.00, -0.00, -1.00, 5.8, 47.1)">}</text><text xml:space="preserve" font-family="Monaco,Monaco" font-size="26.0" fill="#EAEAEA" transform="matrix(1.00, 0.00, -0.00, -1.00, 21.4, 47.1)">)</text></g></g></g></svg>