<?xml version="1.0" encoding="UTF-8" standalone="no"?><svg xmlns="http://www.w3.org/2000/svg" xmlns:xlink="http://www.w3.org/1999/xlink" clip-rule="evenodd" stroke-miterlimit="10" viewBox="0 0 216 130"><desc>SVG generated by Keynote</desc><defs></defs><g transform="matrix(1.00, 0.00, -0.00, -1.00, 0.0, 130.0)"><image xlink:href="7B5A619D5D7AA7DEDA0B1515E20A00F8.png" width="213.00" height="123.00" transform="matrix(1.00, 0.00, -0.00, -1.00, 1.6, 125.0)" opacity="0.50"></image><g><clipPath id="clip0x6000040bc560"><path d="M 10.6 123.0 C 7.8 123.0 6.0 120.8 6.0 118.0 L 6.0 46.2 C 6.0 43.4 7.8 41.0 10.6 41.0 L 44.0 41.0 L 54.0 7.7 L 64.0 41.0 L 205.5 41.0 C 208.3 41.0 211.0 43.4 211.0 46.2 L 211.0 118.0 C 211.0 120.8 208.3 123.0 205.5 123.0 L 10.6 123.0 Z M 10.6 123.0 "></path></clipPath><g clip-path="url(#clip0x6000040bc560)"><image xlink:href="../../AC264CEF-AE8D-43F0-A92B-1A5A6C63C05C/assets/66812298EC73D46BADCACA9889D2977F.png" width="512.00" height="512.00" transform="matrix(0.50, 0.00, -0.00, -0.50, 6.0, 123.0)"></image></g></g><image xlink:href="../../A3A6ACD7-FFFE-47BB-B674-59F7806702E6/assets/6868DE64CDA90B3CB31490C08417F12B.png" width="113.00" height="29.00" transform="matrix(1.00, 0.00, -0.00, -1.00, 53.0, 113.0)"></image><g><clipPath id="clip0x6000040bc4a0"><path d="M -2.1 32.9 L 218.2 32.9 L 218.2 129.9 L -2.1 129.9 Z M -2.1 32.9 "></path></clipPath><g clip-path="url(#clip0x6000040bc4a0)"><text xml:space="preserve" font-family="HelveticaNeue-Medium,Helvetica Neue" font-size="30.0" fill="#FEFFFE" transform="matrix(1.00, 0.00, -0.00, -1.00, 53.9, 89.4)">H</text><text xml:space="preserve" font-family="HelveticaNeue-Medium,Helvetica Neue" font-size="30.0" fill="#FEFFFE" transform="matrix(1.00, 0.00, -0.00, -1.00, 75.5, 89.4)">a</text><text xml:space="preserve" font-family="HelveticaNeue-Medium,Helvetica Neue" font-size="30.0" fill="#FEFFFE" transform="matrix(1.00, 0.00, -0.00, -1.00, 92.2, 89.4)">n</text><text xml:space="preserve" font-family="HelveticaNeue-Medium,Helvetica Neue" font-size="30.0" fill="#FEFFFE" transform="matrix(1.00, 0.00, -0.00, -1.00, 109.4, 89.4)">d</text><text xml:space="preserve" font-family="HelveticaNeue-Medium,Helvetica Neue" font-size="30.0" fill="#FEFFFE" transform="matrix(1.00, 0.00, -0.00, -1.00, 127.7, 89.4)">l</text><text xml:space="preserve" font-family="HelveticaNeue-Medium,Helvetica Neue" font-size="30.0" fill="#FEFFFE" transform="matrix(1.00, 0.00, -0.00, -1.00, 135.0, 89.4)">e</text><text xml:space="preserve" font-family="HelveticaNeue-Medium,Helvetica Neue" font-size="30.0" fill="#FEFFFE" transform="matrix(1.00, 0.00, -0.00, -1.00, 151.7, 89.4)">r</text><text xml:space="preserve" font-family="HelveticaNeue-Medium,Helvetica Neue" font-size="30.0" fill="#FEFFFE" transform="matrix(1.00, 0.00, -0.00, -1.00, 162.2, 89.4)"> </text></g></g><image xlink:href="F57D0A30C095E9D45D01C03CA299B10B.png" width="168.00" height="35.00" transform="matrix(1.00, 0.00, -0.00, -1.00, 24.0, 77.0)"></image><g><clipPath id="clip0x6000040bcd40"><path d="M -2.1 32.9 L 218.2 32.9 L 218.2 129.9 L -2.1 129.9 Z M -2.1 32.9 "></path></clipPath><g clip-path="url(#clip0x6000040bcd40)"><text xml:space="preserve" font-family="HelveticaNeue-Medium,Helvetica Neue" font-size="30.0" fill="#FEFFFE" transform="matrix(1.00, 0.00, -0.00, -1.00, 26.6, 52.4)">C</text><text xml:space="preserve" font-family="HelveticaNeue-Medium,Helvetica Neue" font-size="30.0" fill="#FEFFFE" transform="matrix(1.00, 0.00, -0.00, -1.00, 48.3, 52.4)">o</text><text xml:space="preserve" font-family="HelveticaNeue-Medium,Helvetica Neue" font-size="30.0" fill="#FEFFFE" transform="matrix(1.00, 0.00, -0.00, -1.00, 66.1, 52.4)">m</text><text xml:space="preserve" font-family="HelveticaNeue-Medium,Helvetica Neue" font-size="30.0" fill="#FEFFFE" transform="matrix(1.00, 0.00, -0.00, -1.00, 92.2, 52.4)">p</text><text xml:space="preserve" font-family="HelveticaNeue-Medium,Helvetica Neue" font-size="30.0" fill="#FEFFFE" transform="matrix(1.00, 0.00, -0.00, -1.00, 110.5, 52.4)">o</text><text xml:space="preserve" font-family="HelveticaNeue-Medium,Helvetica Neue" font-size="30.0" fill="#FEFFFE" transform="matrix(1.00, 0.00, -0.00, -1.00, 128.3, 52.4)">n</text><text xml:space="preserve" font-family="HelveticaNeue-Medium,Helvetica Neue" font-size="30.0" fill="#FEFFFE" transform="matrix(1.00, 0.00, -0.00, -1.00, 145.5, 52.4)">e</text><text xml:space="preserve" font-family="HelveticaNeue-Medium,Helvetica Neue" font-size="30.0" fill="#FEFFFE" transform="matrix(1.00, 0.00, -0.00, -1.00, 162.2, 52.4)">n</text><text xml:space="preserve" font-family="HelveticaNeue-Medium,Helvetica Neue" font-size="30.0" fill="#FEFFFE" transform="matrix(1.00, 0.00, -0.00, -1.00, 179.4, 52.4)">t</text></g></g></g></svg>