<?xml version="1.0" encoding="UTF-8" standalone="no"?><svg xmlns="http://www.w3.org/2000/svg" xmlns:xlink="http://www.w3.org/1999/xlink" clip-rule="evenodd" stroke-miterlimit="10" viewBox="0 0 1024 768"><desc>SVG generated by Keynote</desc><defs></defs><g transform="matrix(1.00, 0.00, -0.00, -1.00, 0.0, 768.0)"><g><clipPath id="clip0x6000042a8d00"><path d="M 0.0 768.0 L 1024.0 768.0 L 1024.0 0.0 L 0.0 0.0 Z M 0.0 768.0 "></path></clipPath><g clip-path="url(#clip0x6000042a8d00)"><image xlink:href="../../384E26B0-0AD0-495F-BA75-267B55ABD0BD/assets/31D284A5C75E14674D2A89FDB99F8048.jpeg" width="2048.00" height="1536.00" transform="matrix(0.50, 0.00, -0.00, -0.50, 0.0, 768.0)"></image></g></g><image xlink:href="180CA1222F4107EB16D3BB756EA96EE3.png" width="625.00" height="68.00" transform="matrix(1.00, 0.00, -0.00, -1.00, 199.0, 693.0)"></image><text xml:space="preserve" font-family="HelveticaNeue-Bold,Helvetica Neue" font-weight="bold" font-size="64.0" fill="#FEFFFE" transform="matrix(1.00, 0.00, -0.00, -1.00, 200.9, 643.7)">C</text><text xml:space="preserve" font-family="HelveticaNeue-Bold,Helvetica Neue" font-weight="bold" font-size="64.0" fill="#FEFFFE" transform="matrix(1.00, 0.00, -0.00, -1.00, 248.4, 643.7)">o</text><text xml:space="preserve" font-family="HelveticaNeue-Bold,Helvetica Neue" font-weight="bold" font-size="64.0" fill="#FEFFFE" transform="matrix(1.00, 0.00, -0.00, -1.00, 287.5, 643.7)">m</text><text xml:space="preserve" font-family="HelveticaNeue-Bold,Helvetica Neue" font-weight="bold" font-size="64.0" fill="#FEFFFE" transform="matrix(1.00, 0.00, -0.00, -1.00, 345.4, 643.7)">p</text><text xml:space="preserve" font-family="HelveticaNeue-Bold,Helvetica Neue" font-weight="bold" font-size="64.0" fill="#FEFFFE" transform="matrix(1.00, 0.00, -0.00, -1.00, 384.5, 643.7)">o</text><text xml:space="preserve" font-family="HelveticaNeue-Bold,Helvetica Neue" font-weight="bold" font-size="64.0" fill="#FEFFFE" transform="matrix(1.00, 0.00, -0.00, -1.00, 423.6, 643.7)">n</text><text xml:space="preserve" font-family="HelveticaNeue-Bold,Helvetica Neue" font-weight="bold" font-size="64.0" fill="#FEFFFE" transform="matrix(1.00, 0.00, -0.00, -1.00, 461.6, 643.7)">e</text><text xml:space="preserve" font-family="HelveticaNeue-Bold,Helvetica Neue" font-weight="bold" font-size="64.0" fill="#FEFFFE" transform="matrix(1.00, 0.00, -0.00, -1.00, 498.3, 643.7)">n</text><text xml:space="preserve" font-family="HelveticaNeue-Bold,Helvetica Neue" font-weight="bold" font-size="64.0" fill="#FEFFFE" transform="matrix(1.00, 0.00, -0.00, -1.00, 536.3, 643.7)">t</text><text xml:space="preserve" font-family="HelveticaNeue-Bold,Helvetica Neue" font-weight="bold" font-size="64.0" fill="#FEFFFE" transform="matrix(1.00, 0.00, -0.00, -1.00, 558.8, 643.7)"> </text><text xml:space="preserve" font-family="HelveticaNeue-Bold,Helvetica Neue" font-weight="bold" font-size="64.0" fill="#FEFFFE" transform="matrix(1.00, 0.00, -0.00, -1.00, 576.6, 643.7)">L</text><text xml:space="preserve" font-family="HelveticaNeue-Bold,Helvetica Neue" font-weight="bold" font-size="64.0" fill="#FEFFFE" transform="matrix(1.00, 0.00, -0.00, -1.00, 614.6, 643.7)">o</text><text xml:space="preserve" font-family="HelveticaNeue-Bold,Helvetica Neue" font-weight="bold" font-size="64.0" fill="#FEFFFE" transform="matrix(1.00, 0.00, -0.00, -1.00, 653.7, 643.7)">a</text><text xml:space="preserve" font-family="HelveticaNeue-Bold,Helvetica Neue" font-weight="bold" font-size="64.0" fill="#FEFFFE" transform="matrix(1.00, 0.00, -0.00, -1.00, 690.4, 643.7)">d</text><text xml:space="preserve" font-family="HelveticaNeue-Bold,Helvetica Neue" font-weight="bold" font-size="64.0" fill="#FEFFFE" transform="matrix(1.00, 0.00, -0.00, -1.00, 729.5, 643.7)">i</text><text xml:space="preserve" font-family="HelveticaNeue-Bold,Helvetica Neue" font-weight="bold" font-size="64.0" fill="#FEFFFE" transform="matrix(1.00, 0.00, -0.00, -1.00, 746.0, 643.7)">n</text><text xml:space="preserve" font-family="HelveticaNeue-Bold,Helvetica Neue" font-weight="bold" font-size="64.0" fill="#FEFFFE" transform="matrix(1.00, 0.00, -0.00, -1.00, 784.0, 643.7)">g</text><path d="M 141.0 544.0 L 883.0 544.0 L 883.0 224.0 L 141.0 224.0 Z M 140.8 544.4 " fill="#242424"></path><image xlink:href="604E33DC1BA0F4AF0BA59D8F913609BD.png" width="84.00" height="29.00" transform="matrix(1.00, 0.00, -0.00, -1.00, 142.0, 531.0)"></image><g><clipPath id="clip0x6000042a8400"><path d="M 132.7 213.5 L 1610.2 213.5 L 1610.2 550.5 L 132.7 550.5 Z M 132.7 213.5 "></path></clipPath><g clip-path="url(#clip0x6000042a8400)"><text xml:space="preserve" font-family="Monaco,Monaco" font-size="26.0" fill="#B7D936" transform="matrix(1.00, 0.00, -0.00, -1.00, 144.8, 514.1)">s</text><text xml:space="preserve" font-family="Monaco,Monaco" font-size="26.0" fill="#B7D936" transform="matrix(1.00, 0.00, -0.00, -1.00, 160.4, 514.1)">p</text><text xml:space="preserve" font-family="Monaco,Monaco" font-size="26.0" fill="#B7D936" transform="matrix(1.00, 0.00, -0.00, -1.00, 176.1, 514.1)">a</text><text xml:space="preserve" font-family="Monaco,Monaco" font-size="26.0" fill="#B7D936" transform="matrix(1.00, 0.00, -0.00, -1.00, 191.7, 514.1)">w</text><text xml:space="preserve" font-family="Monaco,Monaco" font-size="26.0" fill="#B7D936" transform="matrix(1.00, 0.00, -0.00, -1.00, 207.3, 514.1)">n</text></g></g><image xlink:href="C4891515F91D5C3E398B6CEBA01F60DF.png" width="20.00" height="34.00" transform="matrix(1.00, 0.00, -0.00, -1.00, 221.0, 537.0)"></image><g><clipPath id="clip0x6080030b8540"><path d="M 132.7 213.5 L 1610.2 213.5 L 1610.2 550.5 L 132.7 550.5 Z M 132.7 213.5 "></path></clipPath><g clip-path="url(#clip0x6080030b8540)"><text xml:space="preserve" font-family="Monaco,Monaco" font-size="26.0" fill="#EAEAEA" transform="matrix(1.00, 0.00, -0.00, -1.00, 222.9, 514.1)">(</text></g></g><image xlink:href="3C4BEAE095A3998A6BE1AB2FD817C410.png" width="145.00" height="30.00" transform="matrix(1.00, 0.00, -0.00, -1.00, 236.0, 537.0)"></image><g><clipPath id="clip0x6080030b89c0"><path d="M 132.7 213.5 L 1610.2 213.5 L 1610.2 550.5 L 132.7 550.5 Z M 132.7 213.5 "></path></clipPath><g clip-path="url(#clip0x6080030b89c0)"><text xml:space="preserve" font-family="Monaco,Monaco" font-size="26.0" fill="#83D6EB" transform="matrix(1.00, 0.00, -0.00, -1.00, 238.5, 514.1)">f</text><text xml:space="preserve" font-family="Monaco,Monaco" font-size="26.0" fill="#83D6EB" transform="matrix(1.00, 0.00, -0.00, -1.00, 254.1, 514.1)">u</text><text xml:space="preserve" font-family="Monaco,Monaco" font-size="26.0" fill="#83D6EB" transform="matrix(1.00, 0.00, -0.00, -1.00, 269.7, 514.1)">n</text><text xml:space="preserve" font-family="Monaco,Monaco" font-size="26.0" fill="#83D6EB" transform="matrix(1.00, 0.00, -0.00, -1.00, 285.3, 514.1)">c</text><text xml:space="preserve" font-family="Monaco,Monaco" font-size="26.0" fill="#83D6EB" transform="matrix(1.00, 0.00, -0.00, -1.00, 300.9, 514.1)">t</text><text xml:space="preserve" font-family="Monaco,Monaco" font-size="26.0" fill="#83D6EB" transform="matrix(1.00, 0.00, -0.00, -1.00, 316.5, 514.1)">i</text><text xml:space="preserve" font-family="Monaco,Monaco" font-size="26.0" fill="#83D6EB" transform="matrix(1.00, 0.00, -0.00, -1.00, 332.1, 514.1)">o</text><text xml:space="preserve" font-family="Monaco,Monaco" font-size="26.0" fill="#83D6EB" transform="matrix(1.00, 0.00, -0.00, -1.00, 347.7, 514.1)">n</text><text xml:space="preserve" font-family="Monaco,Monaco" font-size="26.0" fill="#83D6EB" transform="matrix(1.00, 0.00, -0.00, -1.00, 363.3, 514.1)">*</text></g></g><image xlink:href="862DDDEFEA157691CA154C39072C063D.png" width="67.00" height="34.00" transform="matrix(1.00, 0.00, -0.00, -1.00, 377.0, 537.0)"></image><g><clipPath id="clip0x6080030b8fc0"><path d="M 132.7 213.5 L 1610.2 213.5 L 1610.2 550.5 L 132.7 550.5 Z M 132.7 213.5 "></path></clipPath><g clip-path="url(#clip0x6080030b8fc0)"><text xml:space="preserve" font-family="Monaco,Monaco" font-size="26.0" fill="#EAEAEA" transform="matrix(1.00, 0.00, -0.00, -1.00, 378.9, 514.1)">(</text><text xml:space="preserve" font-family="Monaco,Monaco" font-size="26.0" fill="#EAEAEA" transform="matrix(1.00, 0.00, -0.00, -1.00, 394.5, 514.1)">)</text><text xml:space="preserve" font-family="Monaco,Monaco" font-size="26.0" fill="#EAEAEA" transform="matrix(1.00, 0.00, -0.00, -1.00, 410.1, 514.1)"> </text><text xml:space="preserve" font-family="Monaco,Monaco" font-size="26.0" fill="#EAEAEA" transform="matrix(1.00, 0.00, -0.00, -1.00, 425.7, 514.1)">{</text></g></g><g><clipPath id="clip0x6080030b9500"><path d="M 132.7 213.5 L 1610.2 213.5 L 1610.2 550.5 L 132.7 550.5 Z M 132.7 213.5 "></path></clipPath><g clip-path="url(#clip0x6080030b9500)"><text xml:space="preserve" font-family="Monaco,Monaco" font-size="26.0" fill="#EAEAEA" transform="matrix(1.00, 0.00, -0.00, -1.00, 144.8, 479.1)"> </text><text xml:space="preserve" font-family="Monaco,Monaco" font-size="26.0" fill="#EAEAEA" transform="matrix(1.00, 0.00, -0.00, -1.00, 160.4, 479.1)"> </text></g></g><image xlink:href="BA3A48367CDBCED2DDBF5A337377E457.png" width="54.00" height="24.00" transform="matrix(1.00, 0.00, -0.00, -1.00, 172.0, 496.0)"></image><g><clipPath id="clip0x6080030b9680"><path d="M 132.7 213.5 L 1610.2 213.5 L 1610.2 550.5 L 132.7 550.5 Z M 132.7 213.5 "></path></clipPath><g clip-path="url(#clip0x6080030b9680)"><text xml:space="preserve" font-family="Monaco,Monaco" font-size="26.0" fill="#83D6EB" transform="matrix(1.00, 0.00, -0.00, -1.00, 176.0, 479.1)">v</text><text xml:space="preserve" font-family="Monaco,Monaco" font-size="26.0" fill="#83D6EB" transform="matrix(1.00, 0.00, -0.00, -1.00, 191.7, 479.1)">a</text><text xml:space="preserve" font-family="Monaco,Monaco" font-size="26.0" fill="#83D6EB" transform="matrix(1.00, 0.00, -0.00, -1.00, 207.3, 479.1)">r</text></g></g><image xlink:href="14E392223E64F1606290EA52723A8A67.png" width="99.00" height="35.00" transform="matrix(1.00, 0.00, -0.00, -1.00, 236.0, 502.0)"></image><g><clipPath id="clip0x6080030b9a40"><path d="M 132.7 213.5 L 1610.2 213.5 L 1610.2 550.5 L 132.7 550.5 Z M 132.7 213.5 "></path></clipPath><g clip-path="url(#clip0x6080030b9a40)"><text xml:space="preserve" font-family="Monaco,Monaco" font-size="26.0" fill="#EAEAEA" transform="matrix(1.00, 0.00, -0.00, -1.00, 222.9, 479.1)"> </text><text xml:space="preserve" font-family="Monaco,Monaco" font-size="26.0" fill="#EAEAEA" transform="matrix(1.00, 0.00, -0.00, -1.00, 238.5, 479.1)">c</text><text xml:space="preserve" font-family="Monaco,Monaco" font-size="26.0" fill="#EAEAEA" transform="matrix(1.00, 0.00, -0.00, -1.00, 254.1, 479.1)">o</text><text xml:space="preserve" font-family="Monaco,Monaco" font-size="26.0" fill="#EAEAEA" transform="matrix(1.00, 0.00, -0.00, -1.00, 269.7, 479.1)">n</text><text xml:space="preserve" font-family="Monaco,Monaco" font-size="26.0" fill="#EAEAEA" transform="matrix(1.00, 0.00, -0.00, -1.00, 285.3, 479.1)">f</text><text xml:space="preserve" font-family="Monaco,Monaco" font-size="26.0" fill="#EAEAEA" transform="matrix(1.00, 0.00, -0.00, -1.00, 300.9, 479.1)">i</text><text xml:space="preserve" font-family="Monaco,Monaco" font-size="26.0" fill="#EAEAEA" transform="matrix(1.00, 0.00, -0.00, -1.00, 316.5, 479.1)">g</text><text xml:space="preserve" font-family="Monaco,Monaco" font-size="26.0" fill="#EAEAEA" transform="matrix(1.00, 0.00, -0.00, -1.00, 332.1, 479.1)"> </text></g></g><image xlink:href="A9CA582A6806573F47E2C050D80A86F2.png" width="23.00" height="16.00" transform="matrix(1.00, 0.00, -0.00, -1.00, 344.0, 492.0)"></image><g><clipPath id="clip0x6080030ba100"><path d="M 132.7 213.5 L 1610.2 213.5 L 1610.2 550.5 L 132.7 550.5 Z M 132.7 213.5 "></path></clipPath><g clip-path="url(#clip0x6080030ba100)"><text xml:space="preserve" font-family="Monaco,Monaco" font-size="26.0" fill="#E34D77" transform="matrix(1.00, 0.00, -0.00, -1.00, 347.7, 479.1)">=</text></g></g><image xlink:href="454DDDC2F15896C496A96E40080EC73A.png" width="125.00" height="35.00" transform="matrix(1.00, 0.00, -0.00, -1.00, 377.0, 502.0)"></image><g><clipPath id="clip0x6080030ba280"><path d="M 132.7 213.5 L 1610.2 213.5 L 1610.2 550.5 L 132.7 550.5 Z M 132.7 213.5 "></path></clipPath><g clip-path="url(#clip0x6080030ba280)"><text xml:space="preserve" font-family="Monaco,Monaco" font-size="26.0" fill="#EAEAEA" transform="matrix(1.00, 0.00, -0.00, -1.00, 363.3, 479.1)"> </text><text xml:space="preserve" font-family="Monaco,Monaco" font-size="26.0" fill="#EAEAEA" transform="matrix(1.00, 0.00, -0.00, -1.00, 378.9, 479.1)">{</text><text xml:space="preserve" font-family="Monaco,Monaco" font-size="26.0" fill="#EAEAEA" transform="matrix(1.00, 0.00, -0.00, -1.00, 394.5, 479.1)"> </text><text xml:space="preserve" font-family="Monaco,Monaco" font-size="26.0" fill="#EAEAEA" transform="matrix(1.00, 0.00, -0.00, -1.00, 410.1, 479.1)">g</text><text xml:space="preserve" font-family="Monaco,Monaco" font-size="26.0" fill="#EAEAEA" transform="matrix(1.00, 0.00, -0.00, -1.00, 425.7, 479.1)">r</text><text xml:space="preserve" font-family="Monaco,Monaco" font-size="26.0" fill="#EAEAEA" transform="matrix(1.00, 0.00, -0.00, -1.00, 441.3, 479.1)">e</text><text xml:space="preserve" font-family="Monaco,Monaco" font-size="26.0" fill="#EAEAEA" transform="matrix(1.00, 0.00, -0.00, -1.00, 456.9, 479.1)">e</text><text xml:space="preserve" font-family="Monaco,Monaco" font-size="26.0" fill="#EAEAEA" transform="matrix(1.00, 0.00, -0.00, -1.00, 472.5, 479.1)">t</text><text xml:space="preserve" font-family="Monaco,Monaco" font-size="26.0" fill="#EAEAEA" transform="matrix(1.00, 0.00, -0.00, -1.00, 488.1, 479.1)">:</text><text xml:space="preserve" font-family="Monaco,Monaco" font-size="26.0" fill="#EAEAEA" transform="matrix(1.00, 0.00, -0.00, -1.00, 503.7, 479.1)"> </text></g></g><image xlink:href="FC4E7FD86CD0F1BE3B9627095A34A7ED.png" width="61.00" height="30.00" transform="matrix(1.00, 0.00, -0.00, -1.00, 520.0, 502.0)"></image><g><clipPath id="clip0x6080030ba8e0"><path d="M 132.7 213.5 L 1610.2 213.5 L 1610.2 550.5 L 132.7 550.5 Z M 132.7 213.5 "></path></clipPath><g clip-path="url(#clip0x6080030ba8e0)"><text xml:space="preserve" font-family="Monaco,Monaco" font-size="26.0" fill="#E6D679" transform="matrix(1.00, 0.00, -0.00, -1.00, 519.3, 479.1)">'</text><text xml:space="preserve" font-family="Monaco,Monaco" font-size="26.0" fill="#E6D679" transform="matrix(1.00, 0.00, -0.00, -1.00, 534.9, 479.1)">Y</text><text xml:space="preserve" font-family="Monaco,Monaco" font-size="26.0" fill="#E6D679" transform="matrix(1.00, 0.00, -0.00, -1.00, 550.5, 479.1)">o</text><text xml:space="preserve" font-family="Monaco,Monaco" font-size="26.0" fill="#E6D679" transform="matrix(1.00, 0.00, -0.00, -1.00, 566.1, 479.1)">'</text></g></g><image xlink:href="D2E3446EBD1CCB24C24194A2DC6AAAE1.png" width="21.00" height="34.00" transform="matrix(1.00, 0.00, -0.00, -1.00, 594.0, 502.0)"></image><g><clipPath id="clip0x6080030badc0"><path d="M 132.7 213.5 L 1610.2 213.5 L 1610.2 550.5 L 132.7 550.5 Z M 132.7 213.5 "></path></clipPath><g clip-path="url(#clip0x6080030badc0)"><text xml:space="preserve" font-family="Monaco,Monaco" font-size="26.0" fill="#EAEAEA" transform="matrix(1.00, 0.00, -0.00, -1.00, 581.7, 479.1)"> </text><text xml:space="preserve" font-family="Monaco,Monaco" font-size="26.0" fill="#EAEAEA" transform="matrix(1.00, 0.00, -0.00, -1.00, 597.3, 479.1)">}</text></g></g><g><clipPath id="clip0x6080030bb180"><path d="M 132.7 213.5 L 1610.2 213.5 L 1610.2 550.5 L 132.7 550.5 Z M 132.7 213.5 "></path></clipPath><g clip-path="url(#clip0x6080030bb180)"><text xml:space="preserve" font-family="Monaco,Monaco" font-size="26.0" fill="#EAEAEA" transform="matrix(1.00, 0.00, -0.00, -1.00, 144.8, 444.1)"> </text><text xml:space="preserve" font-family="Monaco,Monaco" font-size="26.0" fill="#EAEAEA" transform="matrix(1.00, 0.00, -0.00, -1.00, 160.4, 444.1)"> </text></g></g><image xlink:href="../../A3A6ACD7-FFFE-47BB-B674-59F7806702E6/assets/BA3A48367CDBCED2DDBF5A337377E457.png" width="54.00" height="24.00" transform="matrix(1.00, 0.00, -0.00, -1.00, 172.0, 461.0)"></image><g><clipPath id="clip0x6080030bb300"><path d="M 132.7 213.5 L 1610.2 213.5 L 1610.2 550.5 L 132.7 550.5 Z M 132.7 213.5 "></path></clipPath><g clip-path="url(#clip0x6080030bb300)"><text xml:space="preserve" font-family="Monaco,Monaco" font-size="26.0" fill="#83D6EB" transform="matrix(1.00, 0.00, -0.00, -1.00, 176.0, 444.1)">v</text><text xml:space="preserve" font-family="Monaco,Monaco" font-size="26.0" fill="#83D6EB" transform="matrix(1.00, 0.00, -0.00, -1.00, 191.7, 444.1)">a</text><text xml:space="preserve" font-family="Monaco,Monaco" font-size="26.0" fill="#83D6EB" transform="matrix(1.00, 0.00, -0.00, -1.00, 207.3, 444.1)">r</text></g></g><image xlink:href="A0442207B986589536F9871ABB0473F2.png" width="114.00" height="30.00" transform="matrix(1.00, 0.00, -0.00, -1.00, 236.0, 467.0)"></image><g><clipPath id="clip0x6080030bb6c0"><path d="M 132.7 213.5 L 1610.2 213.5 L 1610.2 550.5 L 132.7 550.5 Z M 132.7 213.5 "></path></clipPath><g clip-path="url(#clip0x6080030bb6c0)"><text xml:space="preserve" font-family="Monaco,Monaco" font-size="26.0" fill="#EAEAEA" transform="matrix(1.00, 0.00, -0.00, -1.00, 222.9, 444.1)"> </text><text xml:space="preserve" font-family="Monaco,Monaco" font-size="26.0" fill="#EAEAEA" transform="matrix(1.00, 0.00, -0.00, -1.00, 238.5, 444.1)">h</text><text xml:space="preserve" font-family="Monaco,Monaco" font-size="26.0" fill="#EAEAEA" transform="matrix(1.00, 0.00, -0.00, -1.00, 254.1, 444.1)">a</text><text xml:space="preserve" font-family="Monaco,Monaco" font-size="26.0" fill="#EAEAEA" transform="matrix(1.00, 0.00, -0.00, -1.00, 269.7, 444.1)">n</text><text xml:space="preserve" font-family="Monaco,Monaco" font-size="26.0" fill="#EAEAEA" transform="matrix(1.00, 0.00, -0.00, -1.00, 285.3, 444.1)">d</text><text xml:space="preserve" font-family="Monaco,Monaco" font-size="26.0" fill="#EAEAEA" transform="matrix(1.00, 0.00, -0.00, -1.00, 300.9, 444.1)">l</text><text xml:space="preserve" font-family="Monaco,Monaco" font-size="26.0" fill="#EAEAEA" transform="matrix(1.00, 0.00, -0.00, -1.00, 316.5, 444.1)">e</text><text xml:space="preserve" font-family="Monaco,Monaco" font-size="26.0" fill="#EAEAEA" transform="matrix(1.00, 0.00, -0.00, -1.00, 332.1, 444.1)">r</text><text xml:space="preserve" font-family="Monaco,Monaco" font-size="26.0" fill="#EAEAEA" transform="matrix(1.00, 0.00, -0.00, -1.00, 347.7, 444.1)"> </text></g></g><image xlink:href="../../0593CD99-7086-4720-8705-69C8E7C16F2D/assets/A94C8755D205B6BA4F933BC4B082473C.png" width="22.00" height="16.00" transform="matrix(1.00, 0.00, -0.00, -1.00, 360.0, 457.0)"></image><g><clipPath id="clip0x6080030bbd80"><path d="M 132.7 213.5 L 1610.2 213.5 L 1610.2 550.5 L 132.7 550.5 Z M 132.7 213.5 "></path></clipPath><g clip-path="url(#clip0x6080030bbd80)"><text xml:space="preserve" font-family="Monaco,Monaco" font-size="26.0" fill="#E34D77" transform="matrix(1.00, 0.00, -0.00, -1.00, 363.3, 444.1)">=</text></g></g><g><clipPath id="clip0x6080030bc0e0"><path d="M 132.7 213.5 L 1610.2 213.5 L 1610.2 550.5 L 132.7 550.5 Z M 132.7 213.5 "></path></clipPath><g clip-path="url(#clip0x6080030bc0e0)"><text xml:space="preserve" font-family="Monaco,Monaco" font-size="26.0" fill="#EAEAEA" transform="matrix(1.00, 0.00, -0.00, -1.00, 378.9, 444.1)"> </text></g></g><image xlink:href="523DEF8BB05DBB4004C2FC864672618D.png" width="85.00" height="35.00" transform="matrix(1.00, 0.00, -0.00, -1.00, 390.0, 467.0)"></image><g><clipPath id="clip0x6000042a85e0"><path d="M 132.7 213.5 L 1610.2 213.5 L 1610.2 550.5 L 132.7 550.5 Z M 132.7 213.5 "></path></clipPath><g clip-path="url(#clip0x6000042a85e0)"><text xml:space="preserve" font-family="Monaco,Monaco" font-size="26.0" fill="#E34D77" transform="matrix(1.00, 0.00, -0.00, -1.00, 394.5, 444.1)">y</text><text xml:space="preserve" font-family="Monaco,Monaco" font-size="26.0" fill="#E34D77" transform="matrix(1.00, 0.00, -0.00, -1.00, 410.1, 444.1)">i</text><text xml:space="preserve" font-family="Monaco,Monaco" font-size="26.0" fill="#E34D77" transform="matrix(1.00, 0.00, -0.00, -1.00, 425.7, 444.1)">e</text><text xml:space="preserve" font-family="Monaco,Monaco" font-size="26.0" fill="#E34D77" transform="matrix(1.00, 0.00, -0.00, -1.00, 441.3, 444.1)">l</text><text xml:space="preserve" font-family="Monaco,Monaco" font-size="26.0" fill="#E34D77" transform="matrix(1.00, 0.00, -0.00, -1.00, 456.9, 444.1)">d</text></g></g><image xlink:href="35B4610245E222A09627ADC5D4BE4891.png" width="84.00" height="33.00" transform="matrix(1.00, 0.00, -0.00, -1.00, 485.0, 465.0)"></image><g><clipPath id="clip0x6000042a80a0"><path d="M 132.7 213.5 L 1610.2 213.5 L 1610.2 550.5 L 132.7 550.5 Z M 132.7 213.5 "></path></clipPath><g clip-path="url(#clip0x6000042a80a0)"><text xml:space="preserve" font-family="Monaco,Monaco" font-size="26.0" fill="#EAEAEA" transform="matrix(1.00, 0.00, -0.00, -1.00, 472.5, 444.1)"> </text><text xml:space="preserve" font-family="Monaco,Monaco" font-size="26.0" fill="#EAEAEA" transform="matrix(1.00, 0.00, -0.00, -1.00, 488.1, 444.1)">g</text><text xml:space="preserve" font-family="Monaco,Monaco" font-size="26.0" fill="#EAEAEA" transform="matrix(1.00, 0.00, -0.00, -1.00, 503.7, 444.1)">r</text><text xml:space="preserve" font-family="Monaco,Monaco" font-size="26.0" fill="#EAEAEA" transform="matrix(1.00, 0.00, -0.00, -1.00, 519.3, 444.1)">e</text><text xml:space="preserve" font-family="Monaco,Monaco" font-size="26.0" fill="#EAEAEA" transform="matrix(1.00, 0.00, -0.00, -1.00, 534.9, 444.1)">e</text><text xml:space="preserve" font-family="Monaco,Monaco" font-size="26.0" fill="#EAEAEA" transform="matrix(1.00, 0.00, -0.00, -1.00, 550.5, 444.1)">t</text></g></g><image xlink:href="01964B67DF4A5AFC00CF2D5F6FC4FC40.png" width="115.00" height="30.00" transform="matrix(1.00, 0.00, -0.00, -1.00, 563.0, 467.0)"></image><g><clipPath id="clip0x6080030bc260"><path d="M 132.7 213.5 L 1610.2 213.5 L 1610.2 550.5 L 132.7 550.5 Z M 132.7 213.5 "></path></clipPath><g clip-path="url(#clip0x6080030bc260)"><text xml:space="preserve" font-family="Monaco,Monaco" font-size="26.0" fill="#EAEAEA" transform="matrix(1.00, 0.00, -0.00, -1.00, 566.1, 444.1)">H</text><text xml:space="preserve" font-family="Monaco,Monaco" font-size="26.0" fill="#EAEAEA" transform="matrix(1.00, 0.00, -0.00, -1.00, 581.7, 444.1)">a</text><text xml:space="preserve" font-family="Monaco,Monaco" font-size="26.0" fill="#EAEAEA" transform="matrix(1.00, 0.00, -0.00, -1.00, 597.3, 444.1)">n</text><text xml:space="preserve" font-family="Monaco,Monaco" font-size="26.0" fill="#EAEAEA" transform="matrix(1.00, 0.00, -0.00, -1.00, 612.9, 444.1)">d</text><text xml:space="preserve" font-family="Monaco,Monaco" font-size="26.0" fill="#EAEAEA" transform="matrix(1.00, 0.00, -0.00, -1.00, 628.5, 444.1)">l</text><text xml:space="preserve" font-family="Monaco,Monaco" font-size="26.0" fill="#EAEAEA" transform="matrix(1.00, 0.00, -0.00, -1.00, 644.1, 444.1)">e</text><text xml:space="preserve" font-family="Monaco,Monaco" font-size="26.0" fill="#EAEAEA" transform="matrix(1.00, 0.00, -0.00, -1.00, 659.7, 444.1)">r</text></g></g><image xlink:href="08905EF478EB484FC76ABDFF8650E20C.png" width="14.00" height="13.00" transform="matrix(1.00, 0.00, -0.00, -1.00, 208.0, 415.0)"></image><g><clipPath id="clip0x6080030bc7a0"><path d="M 132.7 213.5 L 1610.2 213.5 L 1610.2 550.5 L 132.7 550.5 Z M 132.7 213.5 "></path></clipPath><g clip-path="url(#clip0x6080030bc7a0)"><text xml:space="preserve" font-family="Monaco,Monaco" font-size="26.0" fill="#EAEAEA" transform="matrix(1.00, 0.00, -0.00, -1.00, 144.8, 409.1)"> </text><text xml:space="preserve" font-family="Monaco,Monaco" font-size="26.0" fill="#EAEAEA" transform="matrix(1.00, 0.00, -0.00, -1.00, 160.4, 409.1)"> </text><text xml:space="preserve" font-family="Monaco,Monaco" font-size="26.0" fill="#EAEAEA" transform="matrix(1.00, 0.00, -0.00, -1.00, 176.1, 409.1)"> </text><text xml:space="preserve" font-family="Monaco,Monaco" font-size="26.0" fill="#EAEAEA" transform="matrix(1.00, 0.00, -0.00, -1.00, 191.7, 409.1)"> </text><text xml:space="preserve" font-family="Monaco,Monaco" font-size="26.0" fill="#EAEAEA" transform="matrix(1.00, 0.00, -0.00, -1.00, 207.3, 409.1)">.</text></g></g><image xlink:href="6B6FD1A4347E8AF60C971E90BFC03882.png" width="177.00" height="30.00" transform="matrix(1.00, 0.00, -0.00, -1.00, 220.0, 432.0)"></image><g><clipPath id="clip0x6080030bcc20"><path d="M 132.7 213.5 L 1610.2 213.5 L 1610.2 550.5 L 132.7 550.5 Z M 132.7 213.5 "></path></clipPath><g clip-path="url(#clip0x6080030bcc20)"><text xml:space="preserve" font-family="Monaco,Monaco" font-size="26.0" fill="#B7D936" transform="matrix(1.00, 0.00, -0.00, -1.00, 222.9, 409.1)">l</text><text xml:space="preserve" font-family="Monaco,Monaco" font-size="26.0" fill="#B7D936" transform="matrix(1.00, 0.00, -0.00, -1.00, 238.5, 409.1)">o</text><text xml:space="preserve" font-family="Monaco,Monaco" font-size="26.0" fill="#B7D936" transform="matrix(1.00, 0.00, -0.00, -1.00, 254.1, 409.1)">a</text><text xml:space="preserve" font-family="Monaco,Monaco" font-size="26.0" fill="#B7D936" transform="matrix(1.00, 0.00, -0.00, -1.00, 269.7, 409.1)">d</text><text xml:space="preserve" font-family="Monaco,Monaco" font-size="26.0" fill="#B7D936" transform="matrix(1.00, 0.00, -0.00, -1.00, 285.3, 409.1)">H</text><text xml:space="preserve" font-family="Monaco,Monaco" font-size="26.0" fill="#B7D936" transform="matrix(1.00, 0.00, -0.00, -1.00, 300.9, 409.1)">a</text><text xml:space="preserve" font-family="Monaco,Monaco" font-size="26.0" fill="#B7D936" transform="matrix(1.00, 0.00, -0.00, -1.00, 316.5, 409.1)">n</text><text xml:space="preserve" font-family="Monaco,Monaco" font-size="26.0" fill="#B7D936" transform="matrix(1.00, 0.00, -0.00, -1.00, 332.1, 409.1)">d</text><text xml:space="preserve" font-family="Monaco,Monaco" font-size="26.0" fill="#B7D936" transform="matrix(1.00, 0.00, -0.00, -1.00, 347.7, 409.1)">l</text><text xml:space="preserve" font-family="Monaco,Monaco" font-size="26.0" fill="#B7D936" transform="matrix(1.00, 0.00, -0.00, -1.00, 363.3, 409.1)">e</text><text xml:space="preserve" font-family="Monaco,Monaco" font-size="26.0" fill="#B7D936" transform="matrix(1.00, 0.00, -0.00, -1.00, 378.9, 409.1)">r</text></g></g><image xlink:href="BEFCB7778C9F809E36DDA3C1F3873BC3.png" width="114.00" height="35.00" transform="matrix(1.00, 0.00, -0.00, -1.00, 392.0, 432.0)"></image><g><clipPath id="clip0x6080030bd0a0"><path d="M 132.7 213.5 L 1610.2 213.5 L 1610.2 550.5 L 132.7 550.5 Z M 132.7 213.5 "></path></clipPath><g clip-path="url(#clip0x6080030bd0a0)"><text xml:space="preserve" font-family="Monaco,Monaco" font-size="26.0" fill="#EAEAEA" transform="matrix(1.00, 0.00, -0.00, -1.00, 394.5, 409.1)">(</text><text xml:space="preserve" font-family="Monaco,Monaco" font-size="26.0" fill="#EAEAEA" transform="matrix(1.00, 0.00, -0.00, -1.00, 410.1, 409.1)">c</text><text xml:space="preserve" font-family="Monaco,Monaco" font-size="26.0" fill="#EAEAEA" transform="matrix(1.00, 0.00, -0.00, -1.00, 425.7, 409.1)">o</text><text xml:space="preserve" font-family="Monaco,Monaco" font-size="26.0" fill="#EAEAEA" transform="matrix(1.00, 0.00, -0.00, -1.00, 441.3, 409.1)">n</text><text xml:space="preserve" font-family="Monaco,Monaco" font-size="26.0" fill="#EAEAEA" transform="matrix(1.00, 0.00, -0.00, -1.00, 456.9, 409.1)">f</text><text xml:space="preserve" font-family="Monaco,Monaco" font-size="26.0" fill="#EAEAEA" transform="matrix(1.00, 0.00, -0.00, -1.00, 472.5, 409.1)">i</text><text xml:space="preserve" font-family="Monaco,Monaco" font-size="26.0" fill="#EAEAEA" transform="matrix(1.00, 0.00, -0.00, -1.00, 488.1, 409.1)">g</text></g></g><image xlink:href="FBD3915D7FC301CF5BB1D0EBDF92DBCA.png" width="20.00" height="34.00" transform="matrix(1.00, 0.00, -0.00, -1.00, 501.0, 432.0)"></image><g><clipPath id="clip0x6080030bd6a0"><path d="M 132.7 213.5 L 1610.2 213.5 L 1610.2 550.5 L 132.7 550.5 Z M 132.7 213.5 "></path></clipPath><g clip-path="url(#clip0x6080030bd6a0)"><text xml:space="preserve" font-family="Monaco,Monaco" font-size="26.0" fill="#EAEAEA" transform="matrix(1.00, 0.00, -0.00, -1.00, 503.7, 409.1)">)</text></g></g><g><clipPath id="clip0x6080030bda00"><path d="M 132.7 213.5 L 1610.2 213.5 L 1610.2 550.5 L 132.7 550.5 Z M 132.7 213.5 "></path></clipPath><g clip-path="url(#clip0x6080030bda00)"><text xml:space="preserve" font-family="Monaco,Monaco" font-size="26.0" fill="#EAEAEA" transform="matrix(1.00, 0.00, -0.00, -1.00, 144.8, 339.1)"> </text><text xml:space="preserve" font-family="Monaco,Monaco" font-size="26.0" fill="#EAEAEA" transform="matrix(1.00, 0.00, -0.00, -1.00, 160.4, 339.1)"> </text></g></g><image xlink:href="E5D5BAB8A5210C578FF0990D4A6BFA9C.png" width="331.00" height="35.00" transform="matrix(1.00, 0.00, -0.00, -1.00, 172.0, 362.0)"></image><g><clipPath id="clip0x6000042a91e0"><path d="M 132.7 213.5 L 1610.2 213.5 L 1610.2 550.5 L 132.7 550.5 Z M 132.7 213.5 "></path></clipPath><g clip-path="url(#clip0x6000042a91e0)"><text xml:space="preserve" font-family="Monaco,Monaco" font-size="26.0" fill="#746F5E" transform="matrix(1.00, 0.00, -0.00, -1.00, 176.0, 339.1)">/</text><text xml:space="preserve" font-family="Monaco,Monaco" font-size="26.0" fill="#746F5E" transform="matrix(1.00, 0.00, -0.00, -1.00, 191.7, 339.1)">/</text><text xml:space="preserve" font-family="Monaco,Monaco" font-size="26.0" fill="#746F5E" transform="matrix(1.00, 0.00, -0.00, -1.00, 207.3, 339.1)"> </text><text xml:space="preserve" font-family="Monaco,Monaco" font-size="26.0" fill="#746F5E" transform="matrix(1.00, 0.00, -0.00, -1.00, 222.9, 339.1)">r</text><text xml:space="preserve" font-family="Monaco,Monaco" font-size="26.0" fill="#746F5E" transform="matrix(1.00, 0.00, -0.00, -1.00, 238.5, 339.1)">e</text><text xml:space="preserve" font-family="Monaco,Monaco" font-size="26.0" fill="#746F5E" transform="matrix(1.00, 0.00, -0.00, -1.00, 254.1, 339.1)">t</text><text xml:space="preserve" font-family="Monaco,Monaco" font-size="26.0" fill="#746F5E" transform="matrix(1.00, 0.00, -0.00, -1.00, 269.7, 339.1)">u</text><text xml:space="preserve" font-family="Monaco,Monaco" font-size="26.0" fill="#746F5E" transform="matrix(1.00, 0.00, -0.00, -1.00, 285.3, 339.1)">r</text><text xml:space="preserve" font-family="Monaco,Monaco" font-size="26.0" fill="#746F5E" transform="matrix(1.00, 0.00, -0.00, -1.00, 300.9, 339.1)">n</text><text xml:space="preserve" font-family="Monaco,Monaco" font-size="26.0" fill="#746F5E" transform="matrix(1.00, 0.00, -0.00, -1.00, 316.5, 339.1)">s</text><text xml:space="preserve" font-family="Monaco,Monaco" font-size="26.0" fill="#746F5E" transform="matrix(1.00, 0.00, -0.00, -1.00, 332.1, 339.1)"> </text><text xml:space="preserve" font-family="Monaco,Monaco" font-size="26.0" fill="#746F5E" transform="matrix(1.00, 0.00, -0.00, -1.00, 347.7, 339.1)">‘</text><text xml:space="preserve" font-family="Monaco,Monaco" font-size="26.0" fill="#746F5E" transform="matrix(1.00, 0.00, -0.00, -1.00, 363.3, 339.1)">Y</text><text xml:space="preserve" font-family="Monaco,Monaco" font-size="26.0" fill="#746F5E" transform="matrix(1.00, 0.00, -0.00, -1.00, 378.9, 339.1)">o</text><text xml:space="preserve" font-family="Monaco,Monaco" font-size="26.0" fill="#746F5E" transform="matrix(1.00, 0.00, -0.00, -1.00, 394.5, 339.1)">,</text><text xml:space="preserve" font-family="Monaco,Monaco" font-size="26.0" fill="#746F5E" transform="matrix(1.00, 0.00, -0.00, -1.00, 410.1, 339.1)"> </text><text xml:space="preserve" font-family="Monaco,Monaco" font-size="26.0" fill="#746F5E" transform="matrix(1.00, 0.00, -0.00, -1.00, 425.7, 339.1)">J</text><text xml:space="preserve" font-family="Monaco,Monaco" font-size="26.0" fill="#746F5E" transform="matrix(1.00, 0.00, -0.00, -1.00, 441.3, 339.1)">o</text><text xml:space="preserve" font-family="Monaco,Monaco" font-size="26.0" fill="#746F5E" transform="matrix(1.00, 0.00, -0.00, -1.00, 456.9, 339.1)">h</text><text xml:space="preserve" font-family="Monaco,Monaco" font-size="26.0" fill="#746F5E" transform="matrix(1.00, 0.00, -0.00, -1.00, 472.5, 339.1)">n</text><text xml:space="preserve" font-family="Monaco,Monaco" font-size="26.0" fill="#746F5E" transform="matrix(1.00, 0.00, -0.00, -1.00, 488.1, 339.1)">’</text></g></g><g><clipPath id="clip0x6000042a9ba0"><path d="M 132.7 213.5 L 1610.2 213.5 L 1610.2 550.5 L 132.7 550.5 Z M 132.7 213.5 "></path></clipPath><g clip-path="url(#clip0x6000042a9ba0)"><text xml:space="preserve" font-family="Monaco,Monaco" font-size="26.0" fill="#EAEAEA" transform="matrix(1.00, 0.00, -0.00, -1.00, 144.8, 304.1)"> </text><text xml:space="preserve" font-family="Monaco,Monaco" font-size="26.0" fill="#EAEAEA" transform="matrix(1.00, 0.00, -0.00, -1.00, 160.4, 304.1)"> </text></g></g><image xlink:href="../../A3A6ACD7-FFFE-47BB-B674-59F7806702E6/assets/BA3A48367CDBCED2DDBF5A337377E457.png" width="54.00" height="24.00" transform="matrix(1.00, 0.00, -0.00, -1.00, 172.0, 321.0)"></image><g><clipPath id="clip0x6000042a9d20"><path d="M 132.7 213.5 L 1610.2 213.5 L 1610.2 550.5 L 132.7 550.5 Z M 132.7 213.5 "></path></clipPath><g clip-path="url(#clip0x6000042a9d20)"><text xml:space="preserve" font-family="Monaco,Monaco" font-size="26.0" fill="#83D6EB" transform="matrix(1.00, 0.00, -0.00, -1.00, 176.0, 304.1)">v</text><text xml:space="preserve" font-family="Monaco,Monaco" font-size="26.0" fill="#83D6EB" transform="matrix(1.00, 0.00, -0.00, -1.00, 191.7, 304.1)">a</text><text xml:space="preserve" font-family="Monaco,Monaco" font-size="26.0" fill="#83D6EB" transform="matrix(1.00, 0.00, -0.00, -1.00, 207.3, 304.1)">r</text></g></g><image xlink:href="A7EC1F17D51DF5A03445529A0A1D2CA4.png" width="98.00" height="30.00" transform="matrix(1.00, 0.00, -0.00, -1.00, 237.0, 327.0)"></image><g><clipPath id="clip0x6000042aa0e0"><path d="M 132.7 213.5 L 1610.2 213.5 L 1610.2 550.5 L 132.7 550.5 Z M 132.7 213.5 "></path></clipPath><g clip-path="url(#clip0x6000042aa0e0)"><text xml:space="preserve" font-family="Monaco,Monaco" font-size="26.0" fill="#EAEAEA" transform="matrix(1.00, 0.00, -0.00, -1.00, 222.9, 304.1)"> </text><text xml:space="preserve" font-family="Monaco,Monaco" font-size="26.0" fill="#EAEAEA" transform="matrix(1.00, 0.00, -0.00, -1.00, 238.5, 304.1)">r</text><text xml:space="preserve" font-family="Monaco,Monaco" font-size="26.0" fill="#EAEAEA" transform="matrix(1.00, 0.00, -0.00, -1.00, 254.1, 304.1)">e</text><text xml:space="preserve" font-family="Monaco,Monaco" font-size="26.0" fill="#EAEAEA" transform="matrix(1.00, 0.00, -0.00, -1.00, 269.7, 304.1)">s</text><text xml:space="preserve" font-family="Monaco,Monaco" font-size="26.0" fill="#EAEAEA" transform="matrix(1.00, 0.00, -0.00, -1.00, 285.3, 304.1)">u</text><text xml:space="preserve" font-family="Monaco,Monaco" font-size="26.0" fill="#EAEAEA" transform="matrix(1.00, 0.00, -0.00, -1.00, 300.9, 304.1)">l</text><text xml:space="preserve" font-family="Monaco,Monaco" font-size="26.0" fill="#EAEAEA" transform="matrix(1.00, 0.00, -0.00, -1.00, 316.5, 304.1)">t</text><text xml:space="preserve" font-family="Monaco,Monaco" font-size="26.0" fill="#EAEAEA" transform="matrix(1.00, 0.00, -0.00, -1.00, 332.1, 304.1)"> </text></g></g><image xlink:href="../../A3A6ACD7-FFFE-47BB-B674-59F7806702E6/assets/A9CA582A6806573F47E2C050D80A86F2.png" width="23.00" height="16.00" transform="matrix(1.00, 0.00, -0.00, -1.00, 344.0, 317.0)"></image><g><clipPath id="clip0x6000042aa740"><path d="M 132.7 213.5 L 1610.2 213.5 L 1610.2 550.5 L 132.7 550.5 Z M 132.7 213.5 "></path></clipPath><g clip-path="url(#clip0x6000042aa740)"><text xml:space="preserve" font-family="Monaco,Monaco" font-size="26.0" fill="#E34D77" transform="matrix(1.00, 0.00, -0.00, -1.00, 347.7, 304.1)">=</text></g></g><g><clipPath id="clip0x6000042aaaa0"><path d="M 132.7 213.5 L 1610.2 213.5 L 1610.2 550.5 L 132.7 550.5 Z M 132.7 213.5 "></path></clipPath><g clip-path="url(#clip0x6000042aaaa0)"><text xml:space="preserve" font-family="Monaco,Monaco" font-size="26.0" fill="#EAEAEA" transform="matrix(1.00, 0.00, -0.00, -1.00, 363.3, 304.1)"> </text></g></g><image xlink:href="5BC7A639F6F2A5E1BB584FDF65FB0B0C.png" width="85.00" height="35.00" transform="matrix(1.00, 0.00, -0.00, -1.00, 375.0, 327.0)"></image><g><clipPath id="clip0x6080030bdc40"><path d="M 132.7 213.5 L 1610.2 213.5 L 1610.2 550.5 L 132.7 550.5 Z M 132.7 213.5 "></path></clipPath><g clip-path="url(#clip0x6080030bdc40)"><text xml:space="preserve" font-family="Monaco,Monaco" font-size="26.0" fill="#E34D77" transform="matrix(1.00, 0.00, -0.00, -1.00, 378.9, 304.1)">y</text><text xml:space="preserve" font-family="Monaco,Monaco" font-size="26.0" fill="#E34D77" transform="matrix(1.00, 0.00, -0.00, -1.00, 394.5, 304.1)">i</text><text xml:space="preserve" font-family="Monaco,Monaco" font-size="26.0" fill="#E34D77" transform="matrix(1.00, 0.00, -0.00, -1.00, 410.1, 304.1)">e</text><text xml:space="preserve" font-family="Monaco,Monaco" font-size="26.0" fill="#E34D77" transform="matrix(1.00, 0.00, -0.00, -1.00, 425.7, 304.1)">l</text><text xml:space="preserve" font-family="Monaco,Monaco" font-size="26.0" fill="#E34D77" transform="matrix(1.00, 0.00, -0.00, -1.00, 441.3, 304.1)">d</text></g></g><g><clipPath id="clip0x6080030be240"><path d="M 132.7 213.5 L 1610.2 213.5 L 1610.2 550.5 L 132.7 550.5 Z M 132.7 213.5 "></path></clipPath><g clip-path="url(#clip0x6080030be240)"><text xml:space="preserve" font-family="Monaco,Monaco" font-size="26.0" fill="#EAEAEA" transform="matrix(1.00, 0.00, -0.00, -1.00, 456.9, 304.1)"> </text></g></g><image xlink:href="AE93545A1D2F8C01F6BB09CFF77AD812.png" width="114.00" height="30.00" transform="matrix(1.00, 0.00, -0.00, -1.00, 470.0, 327.0)"></image><g><clipPath id="clip0x6080030be360"><path d="M 132.7 213.5 L 1610.2 213.5 L 1610.2 550.5 L 132.7 550.5 Z M 132.7 213.5 "></path></clipPath><g clip-path="url(#clip0x6080030be360)"><text xml:space="preserve" font-family="Monaco,Monaco" font-size="26.0" fill="#B7D936" transform="matrix(1.00, 0.00, -0.00, -1.00, 472.5, 304.1)">h</text><text xml:space="preserve" font-family="Monaco,Monaco" font-size="26.0" fill="#B7D936" transform="matrix(1.00, 0.00, -0.00, -1.00, 488.1, 304.1)">a</text><text xml:space="preserve" font-family="Monaco,Monaco" font-size="26.0" fill="#B7D936" transform="matrix(1.00, 0.00, -0.00, -1.00, 503.7, 304.1)">n</text><text xml:space="preserve" font-family="Monaco,Monaco" font-size="26.0" fill="#B7D936" transform="matrix(1.00, 0.00, -0.00, -1.00, 519.3, 304.1)">d</text><text xml:space="preserve" font-family="Monaco,Monaco" font-size="26.0" fill="#B7D936" transform="matrix(1.00, 0.00, -0.00, -1.00, 534.9, 304.1)">l</text><text xml:space="preserve" font-family="Monaco,Monaco" font-size="26.0" fill="#B7D936" transform="matrix(1.00, 0.00, -0.00, -1.00, 550.5, 304.1)">e</text><text xml:space="preserve" font-family="Monaco,Monaco" font-size="26.0" fill="#B7D936" transform="matrix(1.00, 0.00, -0.00, -1.00, 566.1, 304.1)">r</text></g></g><image xlink:href="1C469B72E86DFEC3BB9EC823106BD7CE.png" width="125.00" height="34.00" transform="matrix(1.00, 0.00, -0.00, -1.00, 580.0, 327.0)"></image><g><clipPath id="clip0x6000042aace0"><path d="M 132.7 213.5 L 1610.2 213.5 L 1610.2 550.5 L 132.7 550.5 Z M 132.7 213.5 "></path></clipPath><g clip-path="url(#clip0x6000042aace0)"><text xml:space="preserve" font-family="Monaco,Monaco" font-size="26.0" fill="#EAEAEA" transform="matrix(1.00, 0.00, -0.00, -1.00, 581.7, 304.1)">(</text><text xml:space="preserve" font-family="Monaco,Monaco" font-size="26.0" fill="#EAEAEA" transform="matrix(1.00, 0.00, -0.00, -1.00, 597.3, 304.1)">{</text><text xml:space="preserve" font-family="Monaco,Monaco" font-size="26.0" fill="#EAEAEA" transform="matrix(1.00, 0.00, -0.00, -1.00, 612.9, 304.1)"> </text><text xml:space="preserve" font-family="Monaco,Monaco" font-size="26.0" fill="#EAEAEA" transform="matrix(1.00, 0.00, -0.00, -1.00, 628.5, 304.1)">n</text><text xml:space="preserve" font-family="Monaco,Monaco" font-size="26.0" fill="#EAEAEA" transform="matrix(1.00, 0.00, -0.00, -1.00, 644.1, 304.1)">a</text><text xml:space="preserve" font-family="Monaco,Monaco" font-size="26.0" fill="#EAEAEA" transform="matrix(1.00, 0.00, -0.00, -1.00, 659.7, 304.1)">m</text><text xml:space="preserve" font-family="Monaco,Monaco" font-size="26.0" fill="#EAEAEA" transform="matrix(1.00, 0.00, -0.00, -1.00, 675.3, 304.1)">e</text><text xml:space="preserve" font-family="Monaco,Monaco" font-size="26.0" fill="#EAEAEA" transform="matrix(1.00, 0.00, -0.00, -1.00, 690.9, 304.1)">:</text><text xml:space="preserve" font-family="Monaco,Monaco" font-size="26.0" fill="#EAEAEA" transform="matrix(1.00, 0.00, -0.00, -1.00, 706.6, 304.1)"> </text></g></g><image xlink:href="FFA26526FDDF1F63C9235037B3AD5DE3.png" width="92.00" height="30.00" transform="matrix(1.00, 0.00, -0.00, -1.00, 723.0, 327.0)"></image><g><clipPath id="clip0x6080030bea80"><path d="M 132.7 213.5 L 1610.2 213.5 L 1610.2 550.5 L 132.7 550.5 Z M 132.7 213.5 "></path></clipPath><g clip-path="url(#clip0x6080030bea80)"><text xml:space="preserve" font-family="Monaco,Monaco" font-size="26.0" fill="#E6D679" transform="matrix(1.00, 0.00, -0.00, -1.00, 722.1, 304.1)">'</text><text xml:space="preserve" font-family="Monaco,Monaco" font-size="26.0" fill="#E6D679" transform="matrix(1.00, 0.00, -0.00, -1.00, 737.7, 304.1)">J</text><text xml:space="preserve" font-family="Monaco,Monaco" font-size="26.0" fill="#E6D679" transform="matrix(1.00, 0.00, -0.00, -1.00, 753.3, 304.1)">o</text><text xml:space="preserve" font-family="Monaco,Monaco" font-size="26.0" fill="#E6D679" transform="matrix(1.00, 0.00, -0.00, -1.00, 768.9, 304.1)">h</text><text xml:space="preserve" font-family="Monaco,Monaco" font-size="26.0" fill="#E6D679" transform="matrix(1.00, 0.00, -0.00, -1.00, 784.6, 304.1)">n</text><text xml:space="preserve" font-family="Monaco,Monaco" font-size="26.0" fill="#E6D679" transform="matrix(1.00, 0.00, -0.00, -1.00, 800.2, 304.1)">'</text></g></g><image xlink:href="041BCF594F197DE8C5518390316C3ED7.png" width="37.00" height="34.00" transform="matrix(1.00, 0.00, -0.00, -1.00, 828.0, 327.0)"></image><g><clipPath id="clip0x6000042ab220"><path d="M 132.7 213.5 L 1610.2 213.5 L 1610.2 550.5 L 132.7 550.5 Z M 132.7 213.5 "></path></clipPath><g clip-path="url(#clip0x6000042ab220)"><text xml:space="preserve" font-family="Monaco,Monaco" font-size="26.0" fill="#EAEAEA" transform="matrix(1.00, 0.00, -0.00, -1.00, 815.7, 304.1)"> </text><text xml:space="preserve" font-family="Monaco,Monaco" font-size="26.0" fill="#EAEAEA" transform="matrix(1.00, 0.00, -0.00, -1.00, 831.4, 304.1)">}</text><text xml:space="preserve" font-family="Monaco,Monaco" font-size="26.0" fill="#EAEAEA" transform="matrix(1.00, 0.00, -0.00, -1.00, 847.0, 304.1)">)</text></g></g><image xlink:href="445B7F139585D001FAD974B2C61A0FB7.png" width="36.00" height="34.00" transform="matrix(1.00, 0.00, -0.00, -1.00, 142.0, 292.0)"></image><g><clipPath id="clip0x6080030bf020"><path d="M 132.7 213.5 L 1610.2 213.5 L 1610.2 550.5 L 132.7 550.5 Z M 132.7 213.5 "></path></clipPath><g clip-path="url(#clip0x6080030bf020)"><text xml:space="preserve" font-family="Monaco,Monaco" font-size="26.0" fill="#EAEAEA" transform="matrix(1.00, 0.00, -0.00, -1.00, 144.8, 269.1)">}</text><text xml:space="preserve" font-family="Monaco,Monaco" font-size="26.0" fill="#EAEAEA" transform="matrix(1.00, 0.00, -0.00, -1.00, 160.4, 269.1)">)</text></g></g></g></svg>