<?xml version="1.0" encoding="UTF-8" standalone="no"?><svg xmlns="http://www.w3.org/2000/svg" xmlns:xlink="http://www.w3.org/1999/xlink" clip-rule="evenodd" stroke-miterlimit="10" viewBox="0 0 1024 768"><desc>SVG generated by Keynote</desc><defs></defs><g transform="matrix(1.00, 0.00, -0.00, -1.00, 0.0, 768.0)"><g><clipPath id="clip0x6080018a2be0"><path d="M 0.0 768.0 L 1024.0 768.0 L 1024.0 0.0 L 0.0 0.0 Z M 0.0 768.0 "></path></clipPath><g clip-path="url(#clip0x6080018a2be0)"><image xlink:href="../../384E26B0-0AD0-495F-BA75-267B55ABD0BD/assets/31D284A5C75E14674D2A89FDB99F8048.jpeg" width="2048.00" height="1536.00" transform="matrix(0.50, 0.00, -0.00, -0.50, 0.0, 768.0)"></image></g></g><image xlink:href="2836688EF3A3F5913D5D5CE185152313.png" width="492.00" height="57.00" transform="matrix(1.00, 0.00, -0.00, -1.00, 265.0, 693.0)"></image><text xml:space="preserve" font-family="HelveticaNeue-Bold,Helvetica Neue" font-weight="bold" font-size="64.0" fill="#FEFFFE" transform="matrix(1.00, 0.00, -0.00, -1.00, 267.8, 643.7)">S</text><text xml:space="preserve" font-family="HelveticaNeue-Bold,Helvetica Neue" font-weight="bold" font-size="64.0" fill="#FEFFFE" transform="matrix(1.00, 0.00, -0.00, -1.00, 309.4, 643.7)">t</text><text xml:space="preserve" font-family="HelveticaNeue-Bold,Helvetica Neue" font-weight="bold" font-size="64.0" fill="#FEFFFE" transform="matrix(1.00, 0.00, -0.00, -1.00, 331.9, 643.7)">r</text><text xml:space="preserve" font-family="HelveticaNeue-Bold,Helvetica Neue" font-weight="bold" font-size="64.0" fill="#FEFFFE" transform="matrix(1.00, 0.00, -0.00, -1.00, 355.6, 643.7)">e</text><text xml:space="preserve" font-family="HelveticaNeue-Bold,Helvetica Neue" font-weight="bold" font-size="64.0" fill="#FEFFFE" transform="matrix(1.00, 0.00, -0.00, -1.00, 392.4, 643.7)">a</text><text xml:space="preserve" font-family="HelveticaNeue-Bold,Helvetica Neue" font-weight="bold" font-size="64.0" fill="#FEFFFE" transform="matrix(1.00, 0.00, -0.00, -1.00, 429.1, 643.7)">m</text><text xml:space="preserve" font-family="HelveticaNeue-Bold,Helvetica Neue" font-weight="bold" font-size="64.0" fill="#FEFFFE" transform="matrix(1.00, 0.00, -0.00, -1.00, 487.1, 643.7)"> </text><text xml:space="preserve" font-family="HelveticaNeue-Bold,Helvetica Neue" font-weight="bold" font-size="64.0" fill="#FEFFFE" transform="matrix(1.00, 0.00, -0.00, -1.00, 504.9, 643.7)">C</text><text xml:space="preserve" font-family="HelveticaNeue-Bold,Helvetica Neue" font-weight="bold" font-size="64.0" fill="#FEFFFE" transform="matrix(1.00, 0.00, -0.00, -1.00, 552.3, 643.7)">h</text><text xml:space="preserve" font-family="HelveticaNeue-Bold,Helvetica Neue" font-weight="bold" font-size="64.0" fill="#FEFFFE" transform="matrix(1.00, 0.00, -0.00, -1.00, 590.3, 643.7)">a</text><text xml:space="preserve" font-family="HelveticaNeue-Bold,Helvetica Neue" font-weight="bold" font-size="64.0" fill="#FEFFFE" transform="matrix(1.00, 0.00, -0.00, -1.00, 627.0, 643.7)">n</text><text xml:space="preserve" font-family="HelveticaNeue-Bold,Helvetica Neue" font-weight="bold" font-size="64.0" fill="#FEFFFE" transform="matrix(1.00, 0.00, -0.00, -1.00, 665.0, 643.7)">n</text><text xml:space="preserve" font-family="HelveticaNeue-Bold,Helvetica Neue" font-weight="bold" font-size="64.0" fill="#FEFFFE" transform="matrix(1.00, 0.00, -0.00, -1.00, 702.9, 643.7)">e</text><text xml:space="preserve" font-family="HelveticaNeue-Bold,Helvetica Neue" font-weight="bold" font-size="64.0" fill="#FEFFFE" transform="matrix(1.00, 0.00, -0.00, -1.00, 739.6, 643.7)">l</text><image xlink:href="09FBD49B0373E221AE0BE0139D3B69A0.png" width="16.00" height="16.00" transform="matrix(1.00, 0.00, -0.00, -1.00, 61.0, 549.0)"></image><text xml:space="preserve" font-family="HelveticaNeue-Medium,Helvetica Neue" font-size="20.2" fill="#EBEAEA" transform="matrix(1.00, 0.00, -0.00, -1.00, 64.0, 536.1)">•</text><image xlink:href="97F53022AD9D80C9D1C59E38B20BDD8D.png" width="203.00" height="29.00" transform="matrix(1.00, 0.00, -0.00, -1.00, 86.0, 556.0)"></image><text xml:space="preserve" font-family="HelveticaNeue-Medium,Helvetica Neue" font-size="26.9" fill="#EAEAEA" transform="matrix(1.00, 0.00, -0.00, -1.00, 89.9, 533.6)">C</text><text xml:space="preserve" font-family="HelveticaNeue-Medium,Helvetica Neue" font-size="26.9" fill="#EAEAEA" transform="matrix(1.00, 0.00, -0.00, -1.00, 109.3, 533.6)">o</text><text xml:space="preserve" font-family="HelveticaNeue-Medium,Helvetica Neue" font-size="26.9" fill="#EAEAEA" transform="matrix(1.00, 0.00, -0.00, -1.00, 125.3, 533.6)">m</text><text xml:space="preserve" font-family="HelveticaNeue-Medium,Helvetica Neue" font-size="26.9" fill="#EAEAEA" transform="matrix(1.00, 0.00, -0.00, -1.00, 148.7, 533.6)">m</text><text xml:space="preserve" font-family="HelveticaNeue-Medium,Helvetica Neue" font-size="26.9" fill="#EAEAEA" transform="matrix(1.00, 0.00, -0.00, -1.00, 172.0, 533.6)">u</text><text xml:space="preserve" font-family="HelveticaNeue-Medium,Helvetica Neue" font-size="26.9" fill="#EAEAEA" transform="matrix(1.00, 0.00, -0.00, -1.00, 187.5, 533.6)">n</text><text xml:space="preserve" font-family="HelveticaNeue-Medium,Helvetica Neue" font-size="26.9" fill="#EAEAEA" transform="matrix(1.00, 0.00, -0.00, -1.00, 202.9, 533.6)">i</text><text xml:space="preserve" font-family="HelveticaNeue-Medium,Helvetica Neue" font-size="26.9" fill="#EAEAEA" transform="matrix(1.00, 0.00, -0.00, -1.00, 209.4, 533.6)">c</text><text xml:space="preserve" font-family="HelveticaNeue-Medium,Helvetica Neue" font-size="26.9" fill="#EAEAEA" transform="matrix(1.00, 0.00, -0.00, -1.00, 224.3, 533.6)">a</text><text xml:space="preserve" font-family="HelveticaNeue-Medium,Helvetica Neue" font-size="26.9" fill="#EAEAEA" transform="matrix(1.00, 0.00, -0.00, -1.00, 239.3, 533.6)">t</text><text xml:space="preserve" font-family="HelveticaNeue-Medium,Helvetica Neue" font-size="26.9" fill="#EAEAEA" transform="matrix(1.00, 0.00, -0.00, -1.00, 248.2, 533.6)">i</text><text xml:space="preserve" font-family="HelveticaNeue-Medium,Helvetica Neue" font-size="26.9" fill="#EAEAEA" transform="matrix(1.00, 0.00, -0.00, -1.00, 254.7, 533.6)">o</text><text xml:space="preserve" font-family="HelveticaNeue-Medium,Helvetica Neue" font-size="26.9" fill="#EAEAEA" transform="matrix(1.00, 0.00, -0.00, -1.00, 270.6, 533.6)">n</text><text xml:space="preserve" font-family="HelveticaNeue-Medium,Helvetica Neue" font-size="26.9" fill="#EAEAEA" transform="matrix(1.00, 0.00, -0.00, -1.00, 286.1, 533.6)"> </text><image xlink:href="8DDA737834AEC251B430963684443592.png" width="324.00" height="34.00" transform="matrix(1.00, 0.00, -0.00, -1.00, 86.0, 523.0)"></image><text xml:space="preserve" font-family="HelveticaNeue-Medium,Helvetica Neue" font-size="26.9" fill="#EAEAEA" transform="matrix(1.00, 0.00, -0.00, -1.00, 89.9, 500.6)">S</text><text xml:space="preserve" font-family="HelveticaNeue-Medium,Helvetica Neue" font-size="26.9" fill="#EAEAEA" transform="matrix(1.00, 0.00, -0.00, -1.00, 107.3, 500.6)">e</text><text xml:space="preserve" font-family="HelveticaNeue-Medium,Helvetica Neue" font-size="26.9" fill="#EAEAEA" transform="matrix(1.00, 0.00, -0.00, -1.00, 122.3, 500.6)">q</text><text xml:space="preserve" font-family="HelveticaNeue-Medium,Helvetica Neue" font-size="26.9" fill="#EAEAEA" transform="matrix(1.00, 0.00, -0.00, -1.00, 138.7, 500.6)">u</text><text xml:space="preserve" font-family="HelveticaNeue-Medium,Helvetica Neue" font-size="26.9" fill="#EAEAEA" transform="matrix(1.00, 0.00, -0.00, -1.00, 154.1, 500.6)">e</text><text xml:space="preserve" font-family="HelveticaNeue-Medium,Helvetica Neue" font-size="26.9" fill="#EAEAEA" transform="matrix(1.00, 0.00, -0.00, -1.00, 169.1, 500.6)">n</text><text xml:space="preserve" font-family="HelveticaNeue-Medium,Helvetica Neue" font-size="26.9" fill="#EAEAEA" transform="matrix(1.00, 0.00, -0.00, -1.00, 184.5, 500.6)">t</text><text xml:space="preserve" font-family="HelveticaNeue-Medium,Helvetica Neue" font-size="26.9" fill="#EAEAEA" transform="matrix(1.00, 0.00, -0.00, -1.00, 193.5, 500.6)">i</text><text xml:space="preserve" font-family="HelveticaNeue-Medium,Helvetica Neue" font-size="26.9" fill="#EAEAEA" transform="matrix(1.00, 0.00, -0.00, -1.00, 199.9, 500.6)">a</text><text xml:space="preserve" font-family="HelveticaNeue-Medium,Helvetica Neue" font-size="26.9" fill="#EAEAEA" transform="matrix(1.00, 0.00, -0.00, -1.00, 214.9, 500.6)">l</text><text xml:space="preserve" font-family="HelveticaNeue-Medium,Helvetica Neue" font-size="26.9" fill="#EAEAEA" transform="matrix(1.00, 0.00, -0.00, -1.00, 221.4, 500.6)"> </text><text xml:space="preserve" font-family="HelveticaNeue-Medium,Helvetica Neue" font-size="26.9" fill="#EAEAEA" transform="matrix(1.00, 0.00, -0.00, -1.00, 228.8, 500.6)">P</text><text xml:space="preserve" font-family="HelveticaNeue-Medium,Helvetica Neue" font-size="26.9" fill="#EAEAEA" transform="matrix(1.00, 0.00, -0.00, -1.00, 246.8, 500.6)">r</text><text xml:space="preserve" font-family="HelveticaNeue-Medium,Helvetica Neue" font-size="26.9" fill="#EAEAEA" transform="matrix(1.00, 0.00, -0.00, -1.00, 255.7, 500.6)">o</text><text xml:space="preserve" font-family="HelveticaNeue-Medium,Helvetica Neue" font-size="26.9" fill="#EAEAEA" transform="matrix(1.00, 0.00, -0.00, -1.00, 271.7, 500.6)">c</text><text xml:space="preserve" font-family="HelveticaNeue-Medium,Helvetica Neue" font-size="26.9" fill="#EAEAEA" transform="matrix(1.00, 0.00, -0.00, -1.00, 286.6, 500.6)">e</text><text xml:space="preserve" font-family="HelveticaNeue-Medium,Helvetica Neue" font-size="26.9" fill="#EAEAEA" transform="matrix(1.00, 0.00, -0.00, -1.00, 301.6, 500.6)">s</text><text xml:space="preserve" font-family="HelveticaNeue-Medium,Helvetica Neue" font-size="26.9" fill="#EAEAEA" transform="matrix(1.00, 0.00, -0.00, -1.00, 315.5, 500.6)">s</text><text xml:space="preserve" font-family="HelveticaNeue-Medium,Helvetica Neue" font-size="26.9" fill="#EAEAEA" transform="matrix(1.00, 0.00, -0.00, -1.00, 329.5, 500.6)"> </text><text xml:space="preserve" font-family="HelveticaNeue-Medium,Helvetica Neue" font-size="26.9" fill="#EAEAEA" transform="matrix(1.00, 0.00, -0.00, -1.00, 336.9, 500.6)">(</text><text xml:space="preserve" font-family="HelveticaNeue-Medium,Helvetica Neue" font-size="26.9" fill="#EAEAEA" transform="matrix(1.00, 0.00, -0.00, -1.00, 344.4, 500.6)">C</text><text xml:space="preserve" font-family="HelveticaNeue-Medium,Helvetica Neue" font-size="26.9" fill="#EAEAEA" transform="matrix(1.00, 0.00, -0.00, -1.00, 363.8, 500.6)">S</text><text xml:space="preserve" font-family="HelveticaNeue-Medium,Helvetica Neue" font-size="26.9" fill="#EAEAEA" transform="matrix(1.00, 0.00, -0.00, -1.00, 381.2, 500.6)">P</text><text xml:space="preserve" font-family="HelveticaNeue-Medium,Helvetica Neue" font-size="26.9" fill="#EAEAEA" transform="matrix(1.00, 0.00, -0.00, -1.00, 399.2, 500.6)">)</text><text xml:space="preserve" font-family="HelveticaNeue-Medium,Helvetica Neue" font-size="26.9" fill="#EAEAEA" transform="matrix(1.00, 0.00, -0.00, -1.00, 406.6, 500.6)"> </text><image xlink:href="6EB45CCC43697BD1CD0F6E5900FF1B6F.png" width="16.00" height="17.00" transform="matrix(1.00, 0.00, -0.00, -1.00, 61.0, 453.0)"></image><text xml:space="preserve" font-family="HelveticaNeue-Medium,Helvetica Neue" font-size="20.2" fill="#EBEAEA" transform="matrix(1.00, 0.00, -0.00, -1.00, 64.0, 439.3)">•</text><image xlink:href="F8E99BB06B03B4ED872852216914925D.png" width="204.00" height="29.00" transform="matrix(1.00, 0.00, -0.00, -1.00, 87.0, 459.0)"></image><text xml:space="preserve" font-family="HelveticaNeue-Medium,Helvetica Neue" font-size="26.9" fill="#EAEAEA" transform="matrix(1.00, 0.00, -0.00, -1.00, 89.9, 436.9)">G</text><text xml:space="preserve" font-family="HelveticaNeue-Medium,Helvetica Neue" font-size="26.9" fill="#EAEAEA" transform="matrix(1.00, 0.00, -0.00, -1.00, 110.3, 436.9)">o</text><text xml:space="preserve" font-family="HelveticaNeue-Medium,Helvetica Neue" font-size="26.9" fill="#EAEAEA" transform="matrix(1.00, 0.00, -0.00, -1.00, 126.3, 436.9)">-</text><text xml:space="preserve" font-family="HelveticaNeue-Medium,Helvetica Neue" font-size="26.9" fill="#EAEAEA" transform="matrix(1.00, 0.00, -0.00, -1.00, 136.7, 436.9)">l</text><text xml:space="preserve" font-family="HelveticaNeue-Medium,Helvetica Neue" font-size="26.9" fill="#EAEAEA" transform="matrix(1.00, 0.00, -0.00, -1.00, 143.2, 436.9)">i</text><text xml:space="preserve" font-family="HelveticaNeue-Medium,Helvetica Neue" font-size="26.9" fill="#EAEAEA" transform="matrix(1.00, 0.00, -0.00, -1.00, 149.7, 436.9)">k</text><text xml:space="preserve" font-family="HelveticaNeue-Medium,Helvetica Neue" font-size="26.9" fill="#EAEAEA" transform="matrix(1.00, 0.00, -0.00, -1.00, 164.1, 436.9)">e</text><text xml:space="preserve" font-family="HelveticaNeue-Medium,Helvetica Neue" font-size="26.9" fill="#EAEAEA" transform="matrix(1.00, 0.00, -0.00, -1.00, 179.1, 436.9)"> </text><text xml:space="preserve" font-family="HelveticaNeue-Medium,Helvetica Neue" font-size="26.9" fill="#EAEAEA" transform="matrix(1.00, 0.00, -0.00, -1.00, 186.5, 436.9)">C</text><text xml:space="preserve" font-family="HelveticaNeue-Medium,Helvetica Neue" font-size="26.9" fill="#EAEAEA" transform="matrix(1.00, 0.00, -0.00, -1.00, 205.9, 436.9)">h</text><text xml:space="preserve" font-family="HelveticaNeue-Medium,Helvetica Neue" font-size="26.9" fill="#EAEAEA" transform="matrix(1.00, 0.00, -0.00, -1.00, 221.4, 436.9)">a</text><text xml:space="preserve" font-family="HelveticaNeue-Medium,Helvetica Neue" font-size="26.9" fill="#EAEAEA" transform="matrix(1.00, 0.00, -0.00, -1.00, 236.3, 436.9)">n</text><text xml:space="preserve" font-family="HelveticaNeue-Medium,Helvetica Neue" font-size="26.9" fill="#EAEAEA" transform="matrix(1.00, 0.00, -0.00, -1.00, 251.7, 436.9)">n</text><text xml:space="preserve" font-family="HelveticaNeue-Medium,Helvetica Neue" font-size="26.9" fill="#EAEAEA" transform="matrix(1.00, 0.00, -0.00, -1.00, 267.2, 436.9)">e</text><text xml:space="preserve" font-family="HelveticaNeue-Medium,Helvetica Neue" font-size="26.9" fill="#EAEAEA" transform="matrix(1.00, 0.00, -0.00, -1.00, 282.1, 436.9)">l</text><text xml:space="preserve" font-family="HelveticaNeue-Medium,Helvetica Neue" font-size="26.9" fill="#EAEAEA" transform="matrix(1.00, 0.00, -0.00, -1.00, 288.6, 436.9)"> </text><image xlink:href="6F36C253407DE38C744C8004A8616A64.png" width="16.00" height="16.00" transform="matrix(1.00, 0.00, -0.00, -1.00, 61.0, 389.0)"></image><text xml:space="preserve" font-family="HelveticaNeue-Medium,Helvetica Neue" font-size="20.2" fill="#EBEAEA" transform="matrix(1.00, 0.00, -0.00, -1.00, 64.0, 375.6)">•</text><image xlink:href="3A5B860E7EC546CCEFD29AD146943CB9.png" width="289.00" height="29.00" transform="matrix(1.00, 0.00, -0.00, -1.00, 87.0, 395.0)"></image><text xml:space="preserve" font-family="HelveticaNeue-Medium,Helvetica Neue" font-size="26.9" fill="#EAEAEA" transform="matrix(1.00, 0.00, -0.00, -1.00, 89.9, 373.2)">P</text><text xml:space="preserve" font-family="HelveticaNeue-Medium,Helvetica Neue" font-size="26.9" fill="#EAEAEA" transform="matrix(1.00, 0.00, -0.00, -1.00, 107.8, 373.2)">r</text><text xml:space="preserve" font-family="HelveticaNeue-Medium,Helvetica Neue" font-size="26.9" fill="#EAEAEA" transform="matrix(1.00, 0.00, -0.00, -1.00, 116.8, 373.2)">o</text><text xml:space="preserve" font-family="HelveticaNeue-Medium,Helvetica Neue" font-size="26.9" fill="#EAEAEA" transform="matrix(1.00, 0.00, -0.00, -1.00, 132.8, 373.2)">m</text><text xml:space="preserve" font-family="HelveticaNeue-Medium,Helvetica Neue" font-size="26.9" fill="#EAEAEA" transform="matrix(1.00, 0.00, -0.00, -1.00, 156.2, 373.2)">i</text><text xml:space="preserve" font-family="HelveticaNeue-Medium,Helvetica Neue" font-size="26.9" fill="#EAEAEA" transform="matrix(1.00, 0.00, -0.00, -1.00, 162.6, 373.2)">s</text><text xml:space="preserve" font-family="HelveticaNeue-Medium,Helvetica Neue" font-size="26.9" fill="#EAEAEA" transform="matrix(1.00, 0.00, -0.00, -1.00, 176.6, 373.2)">e</text><text xml:space="preserve" font-family="HelveticaNeue-Medium,Helvetica Neue" font-size="26.9" fill="#EAEAEA" transform="matrix(1.00, 0.00, -0.00, -1.00, 191.5, 373.2)">-</text><text xml:space="preserve" font-family="HelveticaNeue-Medium,Helvetica Neue" font-size="26.9" fill="#EAEAEA" transform="matrix(1.00, 0.00, -0.00, -1.00, 202.0, 373.2)">b</text><text xml:space="preserve" font-family="HelveticaNeue-Medium,Helvetica Neue" font-size="26.9" fill="#EAEAEA" transform="matrix(1.00, 0.00, -0.00, -1.00, 218.4, 373.2)">a</text><text xml:space="preserve" font-family="HelveticaNeue-Medium,Helvetica Neue" font-size="26.9" fill="#EAEAEA" transform="matrix(1.00, 0.00, -0.00, -1.00, 233.4, 373.2)">s</text><text xml:space="preserve" font-family="HelveticaNeue-Medium,Helvetica Neue" font-size="26.9" fill="#EAEAEA" transform="matrix(1.00, 0.00, -0.00, -1.00, 247.3, 373.2)">e</text><text xml:space="preserve" font-family="HelveticaNeue-Medium,Helvetica Neue" font-size="26.9" fill="#EAEAEA" transform="matrix(1.00, 0.00, -0.00, -1.00, 262.2, 373.2)">d</text><text xml:space="preserve" font-family="HelveticaNeue-Medium,Helvetica Neue" font-size="26.9" fill="#EAEAEA" transform="matrix(1.00, 0.00, -0.00, -1.00, 278.7, 373.2)"> </text><text xml:space="preserve" font-family="HelveticaNeue-Medium,Helvetica Neue" font-size="26.9" fill="#EAEAEA" transform="matrix(1.00, 0.00, -0.00, -1.00, 286.1, 373.2)">c</text><text xml:space="preserve" font-family="HelveticaNeue-Medium,Helvetica Neue" font-size="26.9" fill="#EAEAEA" transform="matrix(1.00, 0.00, -0.00, -1.00, 301.1, 373.2)">o</text><text xml:space="preserve" font-family="HelveticaNeue-Medium,Helvetica Neue" font-size="26.9" fill="#EAEAEA" transform="matrix(1.00, 0.00, -0.00, -1.00, 317.0, 373.2)">n</text><text xml:space="preserve" font-family="HelveticaNeue-Medium,Helvetica Neue" font-size="26.9" fill="#EAEAEA" transform="matrix(1.00, 0.00, -0.00, -1.00, 332.5, 373.2)">t</text><text xml:space="preserve" font-family="HelveticaNeue-Medium,Helvetica Neue" font-size="26.9" fill="#EAEAEA" transform="matrix(1.00, 0.00, -0.00, -1.00, 341.4, 373.2)">r</text><text xml:space="preserve" font-family="HelveticaNeue-Medium,Helvetica Neue" font-size="26.9" fill="#EAEAEA" transform="matrix(1.00, 0.00, -0.00, -1.00, 350.4, 373.2)">o</text><text xml:space="preserve" font-family="HelveticaNeue-Medium,Helvetica Neue" font-size="26.9" fill="#EAEAEA" transform="matrix(1.00, 0.00, -0.00, -1.00, 366.3, 373.2)">l</text><text xml:space="preserve" font-family="HelveticaNeue-Medium,Helvetica Neue" font-size="26.9" fill="#EAEAEA" transform="matrix(1.00, 0.00, -0.00, -1.00, 372.8, 373.2)"> </text><image xlink:href="7B59D5AF361E826731F1A5529E4032C8.png" width="60.00" height="29.00" transform="matrix(1.00, 0.00, -0.00, -1.00, 86.0, 362.0)"></image><text xml:space="preserve" font-family="HelveticaNeue-Medium,Helvetica Neue" font-size="26.9" fill="#EAEAEA" transform="matrix(1.00, 0.00, -0.00, -1.00, 89.9, 340.2)">ﬂ</text><text xml:space="preserve" font-family="HelveticaNeue-Medium,Helvetica Neue" font-size="26.9" fill="#EAEAEA" transform="matrix(1.00, 0.00, -0.00, -1.00, 104.9, 340.2)">o</text><text xml:space="preserve" font-family="HelveticaNeue-Medium,Helvetica Neue" font-size="26.9" fill="#EAEAEA" transform="matrix(1.00, 0.00, -0.00, -1.00, 120.8, 340.2)">w</text><text xml:space="preserve" font-family="HelveticaNeue-Medium,Helvetica Neue" font-size="26.9" fill="#EAEAEA" transform="matrix(1.00, 0.00, -0.00, -1.00, 141.7, 340.2)"> </text><image xlink:href="664777DDDEA39EC4F0CE9056DCB53949.png" width="16.00" height="16.00" transform="matrix(1.00, 0.00, -0.00, -1.00, 61.0, 292.0)"></image><text xml:space="preserve" font-family="HelveticaNeue-Medium,Helvetica Neue" font-size="20.2" fill="#EBEAEA" transform="matrix(1.00, 0.00, -0.00, -1.00, 64.0, 278.9)">•</text><image xlink:href="3795402C1F9B21DEBBC247EE0ED1C5F4.png" width="292.00" height="33.00" transform="matrix(1.00, 0.00, -0.00, -1.00, 87.0, 298.0)"></image><text xml:space="preserve" font-family="HelveticaNeue-Medium,Helvetica Neue" font-size="26.9" fill="#EAEAEA" transform="matrix(1.00, 0.00, -0.00, -1.00, 89.9, 276.5)">B</text><text xml:space="preserve" font-family="HelveticaNeue-Medium,Helvetica Neue" font-size="26.9" fill="#EAEAEA" transform="matrix(1.00, 0.00, -0.00, -1.00, 108.8, 276.5)">a</text><text xml:space="preserve" font-family="HelveticaNeue-Medium,Helvetica Neue" font-size="26.9" fill="#EAEAEA" transform="matrix(1.00, 0.00, -0.00, -1.00, 123.8, 276.5)">c</text><text xml:space="preserve" font-family="HelveticaNeue-Medium,Helvetica Neue" font-size="26.9" fill="#EAEAEA" transform="matrix(1.00, 0.00, -0.00, -1.00, 138.7, 276.5)">k</text><text xml:space="preserve" font-family="HelveticaNeue-Medium,Helvetica Neue" font-size="26.9" fill="#EAEAEA" transform="matrix(1.00, 0.00, -0.00, -1.00, 153.2, 276.5)">-</text><text xml:space="preserve" font-family="HelveticaNeue-Medium,Helvetica Neue" font-size="26.9" fill="#EAEAEA" transform="matrix(1.00, 0.00, -0.00, -1.00, 163.6, 276.5)">p</text><text xml:space="preserve" font-family="HelveticaNeue-Medium,Helvetica Neue" font-size="26.9" fill="#EAEAEA" transform="matrix(1.00, 0.00, -0.00, -1.00, 180.0, 276.5)">r</text><text xml:space="preserve" font-family="HelveticaNeue-Medium,Helvetica Neue" font-size="26.9" fill="#EAEAEA" transform="matrix(1.00, 0.00, -0.00, -1.00, 189.0, 276.5)">e</text><text xml:space="preserve" font-family="HelveticaNeue-Medium,Helvetica Neue" font-size="26.9" fill="#EAEAEA" transform="matrix(1.00, 0.00, -0.00, -1.00, 204.0, 276.5)">s</text><text xml:space="preserve" font-family="HelveticaNeue-Medium,Helvetica Neue" font-size="26.9" fill="#EAEAEA" transform="matrix(1.00, 0.00, -0.00, -1.00, 217.9, 276.5)">s</text><text xml:space="preserve" font-family="HelveticaNeue-Medium,Helvetica Neue" font-size="26.9" fill="#EAEAEA" transform="matrix(1.00, 0.00, -0.00, -1.00, 231.9, 276.5)">u</text><text xml:space="preserve" font-family="HelveticaNeue-Medium,Helvetica Neue" font-size="26.9" fill="#EAEAEA" transform="matrix(1.00, 0.00, -0.00, -1.00, 247.3, 276.5)">r</text><text xml:space="preserve" font-family="HelveticaNeue-Medium,Helvetica Neue" font-size="26.9" fill="#EAEAEA" transform="matrix(1.00, 0.00, -0.00, -1.00, 256.3, 276.5)">e</text><text xml:space="preserve" font-family="HelveticaNeue-Medium,Helvetica Neue" font-size="26.9" fill="#EAEAEA" transform="matrix(1.00, 0.00, -0.00, -1.00, 271.2, 276.5)"> </text><text xml:space="preserve" font-family="HelveticaNeue-Medium,Helvetica Neue" font-size="26.9" fill="#EAEAEA" transform="matrix(1.00, 0.00, -0.00, -1.00, 278.7, 276.5)">s</text><text xml:space="preserve" font-family="HelveticaNeue-Medium,Helvetica Neue" font-size="26.9" fill="#EAEAEA" transform="matrix(1.00, 0.00, -0.00, -1.00, 292.6, 276.5)">u</text><text xml:space="preserve" font-family="HelveticaNeue-Medium,Helvetica Neue" font-size="26.9" fill="#EAEAEA" transform="matrix(1.00, 0.00, -0.00, -1.00, 308.1, 276.5)">p</text><text xml:space="preserve" font-family="HelveticaNeue-Medium,Helvetica Neue" font-size="26.9" fill="#EAEAEA" transform="matrix(1.00, 0.00, -0.00, -1.00, 324.5, 276.5)">p</text><text xml:space="preserve" font-family="HelveticaNeue-Medium,Helvetica Neue" font-size="26.9" fill="#EAEAEA" transform="matrix(1.00, 0.00, -0.00, -1.00, 340.9, 276.5)">o</text><text xml:space="preserve" font-family="HelveticaNeue-Medium,Helvetica Neue" font-size="26.9" fill="#EAEAEA" transform="matrix(1.00, 0.00, -0.00, -1.00, 356.9, 276.5)">r</text><text xml:space="preserve" font-family="HelveticaNeue-Medium,Helvetica Neue" font-size="26.9" fill="#EAEAEA" transform="matrix(1.00, 0.00, -0.00, -1.00, 366.3, 276.5)">t</text></g></svg>