<?xml version="1.0" encoding="UTF-8" standalone="no"?><svg xmlns="http://www.w3.org/2000/svg" xmlns:xlink="http://www.w3.org/1999/xlink" clip-rule="evenodd" stroke-miterlimit="10" viewBox="0 0 111 53"><desc>SVG generated by Keynote</desc><defs></defs><g transform="matrix(1.00, 0.00, -0.00, -1.00, 0.0, 53.0)"><image xlink:href="00B15DBDA76E1B34D2C3449CEFDB290C.png" width="108.00" height="45.00" transform="matrix(1.00, 0.00, -0.00, -1.01, 2.0, 47.1)" opacity="0.50"></image><g><clipPath id="clip0x600001eb0ec0"><path d="M 6.0 20.7 L 6.0 32.0 C 6.0 39.2 11.8 45.0 19.1 45.0 L 92.9 45.0 C 100.1 45.0 106.0 39.2 106.0 32.0 L 106.0 20.7 C 106.0 13.5 100.1 8.0 92.9 8.0 L 19.1 8.0 C 11.8 8.0 6.0 13.5 6.0 20.7 Z M 6.0 20.7 "></path></clipPath><g clip-path="url(#clip0x600001eb0ec0)"><image xlink:href="../../82A921EE-8E53-40EE-A95B-4C038CB6B5A6/assets/D80EC8B1EF239560EB871BFEE640DE30.png" width="512.00" height="512.00" transform="matrix(0.50, 0.00, -0.00, -0.50, 6.0, 45.0)"></image></g></g><image xlink:href="1583061D19B3367BB5904CED6A484795.png" width="76.00" height="26.00" transform="matrix(1.00, 0.00, -0.00, -1.00, 19.0, 38.0)"></image><g><clipPath id="clip0x600001eb0f80"><path d="M 6.0 0.4 L 106.0 0.4 L 106.0 50.5 L 6.0 50.5 Z M 6.0 0.4 "></path></clipPath><g clip-path="url(#clip0x600001eb0f80)"><text xml:space="preserve" font-family="HelveticaNeue-Medium,Helvetica Neue" font-size="25.0" fill="#FEFFFE" transform="matrix(1.00, 0.00, -0.00, -1.00, 21.0, 17.2)">B</text><text xml:space="preserve" font-family="HelveticaNeue-Medium,Helvetica Neue" font-size="25.0" fill="#FEFFFE" transform="matrix(1.00, 0.00, -0.00, -1.00, 38.6, 17.2)">u</text><text xml:space="preserve" font-family="HelveticaNeue-Medium,Helvetica Neue" font-size="25.0" fill="#FEFFFE" transform="matrix(1.00, 0.00, -0.00, -1.00, 52.9, 17.2)">f</text><text xml:space="preserve" font-family="HelveticaNeue-Medium,Helvetica Neue" font-size="25.0" fill="#FEFFFE" transform="matrix(1.00, 0.00, -0.00, -1.00, 60.4, 17.2)">f</text><text xml:space="preserve" font-family="HelveticaNeue-Medium,Helvetica Neue" font-size="25.0" fill="#FEFFFE" transform="matrix(1.00, 0.00, -0.00, -1.00, 68.2, 17.2)">e</text><text xml:space="preserve" font-family="HelveticaNeue-Medium,Helvetica Neue" font-size="25.0" fill="#FEFFFE" transform="matrix(1.00, 0.00, -0.00, -1.00, 82.1, 17.2)">r</text></g></g></g></svg>