<?xml version="1.0" encoding="UTF-8" standalone="no"?><svg xmlns="http://www.w3.org/2000/svg" xmlns:xlink="http://www.w3.org/1999/xlink" clip-rule="evenodd" stroke-miterlimit="10" viewBox="0 0 314 42"><desc>SVG generated by Keynote</desc><defs></defs><g transform="matrix(1.00, 0.00, -0.00, -1.00, 0.0, 42.0)"><image xlink:href="../../E2476EF2-0E13-4993-9889-24FEBCEADE24/assets/A8F97CD3183900BD268A89C134954B0E.png" width="311.00" height="38.00" transform="matrix(1.00, 0.00, -0.00, -1.00, 2.0, 40.0)"></image><text xml:space="preserve" font-family="Monaco,Monaco" font-size="30.0" fill="#EAEAEA" transform="matrix(1.00, 0.00, -0.00, -1.00, 5.0, 13.9)">t</text><text xml:space="preserve" font-family="Monaco,Monaco" font-size="30.0" fill="#EAEAEA" transform="matrix(1.00, 0.00, -0.00, -1.00, 23.0, 13.9)">r</text><text xml:space="preserve" font-family="Monaco,Monaco" font-size="30.0" fill="#EAEAEA" transform="matrix(1.00, 0.00, -0.00, -1.00, 41.0, 13.9)">a</text><text xml:space="preserve" font-family="Monaco,Monaco" font-size="30.0" fill="#EAEAEA" transform="matrix(1.00, 0.00, -0.00, -1.00, 59.0, 13.9)">n</text><text xml:space="preserve" font-family="Monaco,Monaco" font-size="30.0" fill="#EAEAEA" transform="matrix(1.00, 0.00, -0.00, -1.00, 77.0, 13.9)">s</text><text xml:space="preserve" font-family="Monaco,Monaco" font-size="30.0" fill="#EAEAEA" transform="matrix(1.00, 0.00, -0.00, -1.00, 95.0, 13.9)">f</text><text xml:space="preserve" font-family="Monaco,Monaco" font-size="30.0" fill="#EAEAEA" transform="matrix(1.00, 0.00, -0.00, -1.00, 113.0, 13.9)">o</text><text xml:space="preserve" font-family="Monaco,Monaco" font-size="30.0" fill="#EAEAEA" transform="matrix(1.00, 0.00, -0.00, -1.00, 131.0, 13.9)">r</text><text xml:space="preserve" font-family="Monaco,Monaco" font-size="30.0" fill="#EAEAEA" transform="matrix(1.00, 0.00, -0.00, -1.00, 149.0, 13.9)">m</text><text xml:space="preserve" font-family="Monaco,Monaco" font-size="30.0" fill="#EAEAEA" transform="matrix(1.00, 0.00, -0.00, -1.00, 167.0, 13.9)">S</text><text xml:space="preserve" font-family="Monaco,Monaco" font-size="30.0" fill="#EAEAEA" transform="matrix(1.00, 0.00, -0.00, -1.00, 185.0, 13.9)">t</text><text xml:space="preserve" font-family="Monaco,Monaco" font-size="30.0" fill="#EAEAEA" transform="matrix(1.00, 0.00, -0.00, -1.00, 203.0, 13.9)">r</text><text xml:space="preserve" font-family="Monaco,Monaco" font-size="30.0" fill="#EAEAEA" transform="matrix(1.00, 0.00, -0.00, -1.00, 221.0, 13.9)">e</text><text xml:space="preserve" font-family="Monaco,Monaco" font-size="30.0" fill="#EAEAEA" transform="matrix(1.00, 0.00, -0.00, -1.00, 239.1, 13.9)">a</text><text xml:space="preserve" font-family="Monaco,Monaco" font-size="30.0" fill="#EAEAEA" transform="matrix(1.00, 0.00, -0.00, -1.00, 257.1, 13.9)">m</text><text xml:space="preserve" font-family="Monaco,Monaco" font-size="30.0" fill="#EAEAEA" transform="matrix(1.00, 0.00, -0.00, -1.00, 275.1, 13.9)">(</text><text xml:space="preserve" font-family="Monaco,Monaco" font-size="30.0" fill="#EAEAEA" transform="matrix(1.00, 0.00, -0.00, -1.00, 293.1, 13.9)">)</text></g></svg>