<?xml version="1.0" encoding="UTF-8" standalone="no"?><svg xmlns="http://www.w3.org/2000/svg" xmlns:xlink="http://www.w3.org/1999/xlink" clip-rule="evenodd" stroke-miterlimit="10" viewBox="0 0 152 75"><desc>SVG generated by Keynote</desc><defs></defs><g transform="matrix(1.00, 0.00, -0.00, -1.00, 0.0, 75.0)"><image xlink:href="157389944E81C883121F3880DF82AD88.png" width="149.00" height="68.00" transform="matrix(1.00, 0.00, -0.00, -1.00, 1.9, 69.5)" opacity="0.50"></image><path d="M 61.0 19.0 L 61.0 7.6 L 5.9 37.5 L 61.0 67.5 L 61.0 56.0 L 147.0 56.0 L 147.0 19.0 Z M 60.9 18.6 " fill="#CE7123"></path><image xlink:href="5B09F761AC05AAD3F69420144EBFBF7C.png" width="93.00" height="22.00" transform="matrix(1.00, 0.00, -0.00, -1.00, 46.0, 47.0)"></image><g><clipPath id="clip0x600001ead200"><path d="M 5.9 7.6 L 149.9 7.6 L 149.9 67.5 L 5.9 67.5 Z M 5.9 7.6 "></path></clipPath><g clip-path="url(#clip0x600001ead200)"><text xml:space="preserve" font-family="Monaco,Monaco" font-size="20.0" fill="#FEFFFE" transform="matrix(1.00, 0.00, -0.00, -1.00, 43.0, 30.9)">.</text><text xml:space="preserve" font-family="Monaco,Monaco" font-size="20.0" fill="#FEFFFE" transform="matrix(1.00, 0.00, -0.00, -1.00, 55.0, 30.9)">w</text><text xml:space="preserve" font-family="Monaco,Monaco" font-size="20.0" fill="#FEFFFE" transform="matrix(1.00, 0.00, -0.00, -1.00, 67.0, 30.9)">r</text><text xml:space="preserve" font-family="Monaco,Monaco" font-size="20.0" fill="#FEFFFE" transform="matrix(1.00, 0.00, -0.00, -1.00, 79.0, 30.9)">i</text><text xml:space="preserve" font-family="Monaco,Monaco" font-size="20.0" fill="#FEFFFE" transform="matrix(1.00, 0.00, -0.00, -1.00, 91.0, 30.9)">t</text><text xml:space="preserve" font-family="Monaco,Monaco" font-size="20.0" fill="#FEFFFE" transform="matrix(1.00, 0.00, -0.00, -1.00, 103.0, 30.9)">e</text><text xml:space="preserve" font-family="Monaco,Monaco" font-size="20.0" fill="#FEFFFE" transform="matrix(1.00, 0.00, -0.00, -1.00, 115.0, 30.9)">(</text><text xml:space="preserve" font-family="Monaco,Monaco" font-size="20.0" fill="#FEFFFE" transform="matrix(1.00, 0.00, -0.00, -1.00, 127.0, 30.9)">)</text></g></g></g></svg>