<?xml version="1.0" encoding="UTF-8" standalone="no"?><svg xmlns="http://www.w3.org/2000/svg" xmlns:xlink="http://www.w3.org/1999/xlink" clip-rule="evenodd" stroke-miterlimit="10" viewBox="0 0 151 75"><desc>SVG generated by Keynote</desc><defs></defs><g transform="matrix(1.00, 0.00, -0.00, -1.00, 0.0, 75.0)"><image xlink:href="A41940FE6E7AF4C40191E4D62327DE47.png" width="149.00" height="68.00" transform="matrix(1.00, 0.00, -0.00, -1.00, 1.1, 69.5)" opacity="0.50"></image><path d="M 60.0 19.0 L 60.0 7.6 L 5.1 37.5 L 60.0 67.5 L 60.0 56.0 L 146.0 56.0 L 146.0 19.0 Z M 60.1 18.6 " fill="#CE7123"></path><image xlink:href="33CB8B6AA937FDA7844D4A922A025D6E.png" width="81.00" height="22.00" transform="matrix(1.00, 0.00, -0.00, -1.00, 51.0, 47.0)"></image><g><clipPath id="clip0x600001eadce0"><path d="M 5.1 7.6 L 149.2 7.6 L 149.2 67.5 L 5.1 67.5 Z M 5.1 7.6 "></path></clipPath><g clip-path="url(#clip0x600001eadce0)"><text xml:space="preserve" font-family="Monaco,Monaco" font-size="20.0" fill="#FEFFFE" transform="matrix(1.00, 0.00, -0.00, -1.00, 48.2, 30.9)">.</text><text xml:space="preserve" font-family="Monaco,Monaco" font-size="20.0" fill="#FEFFFE" transform="matrix(1.00, 0.00, -0.00, -1.00, 60.2, 30.9)">r</text><text xml:space="preserve" font-family="Monaco,Monaco" font-size="20.0" fill="#FEFFFE" transform="matrix(1.00, 0.00, -0.00, -1.00, 72.3, 30.9)">e</text><text xml:space="preserve" font-family="Monaco,Monaco" font-size="20.0" fill="#FEFFFE" transform="matrix(1.00, 0.00, -0.00, -1.00, 84.3, 30.9)">a</text><text xml:space="preserve" font-family="Monaco,Monaco" font-size="20.0" fill="#FEFFFE" transform="matrix(1.00, 0.00, -0.00, -1.00, 96.3, 30.9)">d</text><text xml:space="preserve" font-family="Monaco,Monaco" font-size="20.0" fill="#FEFFFE" transform="matrix(1.00, 0.00, -0.00, -1.00, 108.3, 30.9)">(</text><text xml:space="preserve" font-family="Monaco,Monaco" font-size="20.0" fill="#FEFFFE" transform="matrix(1.00, 0.00, -0.00, -1.00, 120.3, 30.9)">)</text></g></g></g></svg>