<?xml version="1.0" encoding="UTF-8" standalone="no"?><svg xmlns="http://www.w3.org/2000/svg" xmlns:xlink="http://www.w3.org/1999/xlink" clip-rule="evenodd" stroke-miterlimit="10" viewBox="0 0 1024 768"><desc>SVG generated by Keynote</desc><defs></defs><g transform="matrix(1.00, 0.00, -0.00, -1.00, 0.0, 768.0)"><g><clipPath id="clip0x6000020b3860"><path d="M 0.0 768.0 L 1024.0 768.0 L 1024.0 0.0 L 0.0 0.0 Z M 0.0 768.0 "></path></clipPath><g clip-path="url(#clip0x6000020b3860)"><image xlink:href="../../384E26B0-0AD0-495F-BA75-267B55ABD0BD/assets/31D284A5C75E14674D2A89FDB99F8048.jpeg" width="2048.00" height="1536.00" transform="matrix(0.50, 0.00, -0.00, -0.50, 0.0, 768.0)"></image></g></g><image xlink:href="4458EDBD2536C664CF112DBEA5BA6715.png" width="244.00" height="56.00" transform="matrix(1.00, 0.00, -0.00, -1.00, 392.0, 692.0)"></image><text xml:space="preserve" font-family="HelveticaNeue-Bold,Helvetica Neue" font-weight="bold" font-size="64.0" fill="#FEFFFE" transform="matrix(1.00, 0.00, -0.00, -1.00, 392.3, 643.7)">H</text><text xml:space="preserve" font-family="HelveticaNeue-Bold,Helvetica Neue" font-weight="bold" font-size="64.0" fill="#FEFFFE" transform="matrix(1.00, 0.00, -0.00, -1.00, 439.7, 643.7)">a</text><text xml:space="preserve" font-family="HelveticaNeue-Bold,Helvetica Neue" font-weight="bold" font-size="64.0" fill="#FEFFFE" transform="matrix(1.00, 0.00, -0.00, -1.00, 476.5, 643.7)">n</text><text xml:space="preserve" font-family="HelveticaNeue-Bold,Helvetica Neue" font-weight="bold" font-size="64.0" fill="#FEFFFE" transform="matrix(1.00, 0.00, -0.00, -1.00, 514.4, 643.7)">d</text><text xml:space="preserve" font-family="HelveticaNeue-Bold,Helvetica Neue" font-weight="bold" font-size="64.0" fill="#FEFFFE" transform="matrix(1.00, 0.00, -0.00, -1.00, 553.5, 643.7)">l</text><text xml:space="preserve" font-family="HelveticaNeue-Bold,Helvetica Neue" font-weight="bold" font-size="64.0" fill="#FEFFFE" transform="matrix(1.00, 0.00, -0.00, -1.00, 570.0, 643.7)">e</text><text xml:space="preserve" font-family="HelveticaNeue-Bold,Helvetica Neue" font-weight="bold" font-size="64.0" fill="#FEFFFE" transform="matrix(1.00, 0.00, -0.00, -1.00, 606.8, 643.7)">r</text><path d="M 148.0 405.0 L 876.0 405.0 L 876.0 363.0 L 148.0 363.0 Z M 147.7 405.3 " fill="#242424"></path><image xlink:href="C12B76FF53747F7CAD5B56B495E57F11.png" width="140.00" height="32.00" transform="matrix(1.00, 0.00, -0.00, -1.00, 165.0, 399.0)"></image><g><clipPath id="clip0x6000020b3e00"><path d="M 138.9 351.9 L 885.1 351.9 L 885.1 412.1 L 138.9 412.1 Z M 138.9 351.9 "></path></clipPath><g clip-path="url(#clip0x6000020b3e00)"><text xml:space="preserve" font-family="Monaco,Monaco" font-size="28.0" fill="#83D6EB" transform="matrix(1.00, 0.00, -0.00, -1.00, 167.5, 373.7)">f</text><text xml:space="preserve" font-family="Monaco,Monaco" font-size="28.0" fill="#83D6EB" transform="matrix(1.00, 0.00, -0.00, -1.00, 184.3, 373.7)">u</text><text xml:space="preserve" font-family="Monaco,Monaco" font-size="28.0" fill="#83D6EB" transform="matrix(1.00, 0.00, -0.00, -1.00, 201.2, 373.7)">n</text><text xml:space="preserve" font-family="Monaco,Monaco" font-size="28.0" fill="#83D6EB" transform="matrix(1.00, 0.00, -0.00, -1.00, 218.0, 373.7)">c</text><text xml:space="preserve" font-family="Monaco,Monaco" font-size="28.0" fill="#83D6EB" transform="matrix(1.00, 0.00, -0.00, -1.00, 234.8, 373.7)">t</text><text xml:space="preserve" font-family="Monaco,Monaco" font-size="28.0" fill="#83D6EB" transform="matrix(1.00, 0.00, -0.00, -1.00, 251.6, 373.7)">i</text><text xml:space="preserve" font-family="Monaco,Monaco" font-size="28.0" fill="#83D6EB" transform="matrix(1.00, 0.00, -0.00, -1.00, 268.4, 373.7)">o</text><text xml:space="preserve" font-family="Monaco,Monaco" font-size="28.0" fill="#83D6EB" transform="matrix(1.00, 0.00, -0.00, -1.00, 285.2, 373.7)">n</text></g></g><image xlink:href="2CA642DE8C33FF69B5FD11D80C366BA0.png" width="542.00" height="38.00" transform="matrix(1.00, 0.00, -0.00, -1.00, 316.0, 399.0)"></image><g><clipPath id="clip0x6000020b3f80"><path d="M 138.9 351.9 L 885.1 351.9 L 885.1 412.1 L 138.9 412.1 Z M 138.9 351.9 "></path></clipPath><g clip-path="url(#clip0x6000020b3f80)"><text xml:space="preserve" font-family="Monaco,Monaco" font-size="28.0" fill="#EAEAEA" transform="matrix(1.00, 0.00, -0.00, -1.00, 302.0, 373.7)"> </text><text xml:space="preserve" font-family="Monaco,Monaco" font-size="28.0" fill="#EAEAEA" transform="matrix(1.00, 0.00, -0.00, -1.00, 318.8, 373.7)">h</text><text xml:space="preserve" font-family="Monaco,Monaco" font-size="28.0" fill="#EAEAEA" transform="matrix(1.00, 0.00, -0.00, -1.00, 335.6, 373.7)">a</text><text xml:space="preserve" font-family="Monaco,Monaco" font-size="28.0" fill="#EAEAEA" transform="matrix(1.00, 0.00, -0.00, -1.00, 352.4, 373.7)">n</text><text xml:space="preserve" font-family="Monaco,Monaco" font-size="28.0" fill="#EAEAEA" transform="matrix(1.00, 0.00, -0.00, -1.00, 369.2, 373.7)">d</text><text xml:space="preserve" font-family="Monaco,Monaco" font-size="28.0" fill="#EAEAEA" transform="matrix(1.00, 0.00, -0.00, -1.00, 386.0, 373.7)">l</text><text xml:space="preserve" font-family="Monaco,Monaco" font-size="28.0" fill="#EAEAEA" transform="matrix(1.00, 0.00, -0.00, -1.00, 402.8, 373.7)">e</text><text xml:space="preserve" font-family="Monaco,Monaco" font-size="28.0" fill="#EAEAEA" transform="matrix(1.00, 0.00, -0.00, -1.00, 419.6, 373.7)">r</text><text xml:space="preserve" font-family="Monaco,Monaco" font-size="28.0" fill="#EAEAEA" transform="matrix(1.00, 0.00, -0.00, -1.00, 436.4, 373.7)">(</text><text xml:space="preserve" font-family="Monaco,Monaco" font-size="28.0" fill="#EAEAEA" transform="matrix(1.00, 0.00, -0.00, -1.00, 453.2, 373.7)">r</text><text xml:space="preserve" font-family="Monaco,Monaco" font-size="28.0" fill="#EAEAEA" transform="matrix(1.00, 0.00, -0.00, -1.00, 470.0, 373.7)">e</text><text xml:space="preserve" font-family="Monaco,Monaco" font-size="28.0" fill="#EAEAEA" transform="matrix(1.00, 0.00, -0.00, -1.00, 486.8, 373.7)">q</text><text xml:space="preserve" font-family="Monaco,Monaco" font-size="28.0" fill="#EAEAEA" transform="matrix(1.00, 0.00, -0.00, -1.00, 503.6, 373.7)">u</text><text xml:space="preserve" font-family="Monaco,Monaco" font-size="28.0" fill="#EAEAEA" transform="matrix(1.00, 0.00, -0.00, -1.00, 520.4, 373.7)">e</text><text xml:space="preserve" font-family="Monaco,Monaco" font-size="28.0" fill="#EAEAEA" transform="matrix(1.00, 0.00, -0.00, -1.00, 537.2, 373.7)">s</text><text xml:space="preserve" font-family="Monaco,Monaco" font-size="28.0" fill="#EAEAEA" transform="matrix(1.00, 0.00, -0.00, -1.00, 554.0, 373.7)">t</text><text xml:space="preserve" font-family="Monaco,Monaco" font-size="28.0" fill="#EAEAEA" transform="matrix(1.00, 0.00, -0.00, -1.00, 570.9, 373.7)">,</text><text xml:space="preserve" font-family="Monaco,Monaco" font-size="28.0" fill="#EAEAEA" transform="matrix(1.00, 0.00, -0.00, -1.00, 587.7, 373.7)"> </text><text xml:space="preserve" font-family="Monaco,Monaco" font-size="28.0" fill="#EAEAEA" transform="matrix(1.00, 0.00, -0.00, -1.00, 604.5, 373.7)">r</text><text xml:space="preserve" font-family="Monaco,Monaco" font-size="28.0" fill="#EAEAEA" transform="matrix(1.00, 0.00, -0.00, -1.00, 621.3, 373.7)">e</text><text xml:space="preserve" font-family="Monaco,Monaco" font-size="28.0" fill="#EAEAEA" transform="matrix(1.00, 0.00, -0.00, -1.00, 638.1, 373.7)">s</text><text xml:space="preserve" font-family="Monaco,Monaco" font-size="28.0" fill="#EAEAEA" transform="matrix(1.00, 0.00, -0.00, -1.00, 654.9, 373.7)">p</text><text xml:space="preserve" font-family="Monaco,Monaco" font-size="28.0" fill="#EAEAEA" transform="matrix(1.00, 0.00, -0.00, -1.00, 671.7, 373.7)">o</text><text xml:space="preserve" font-family="Monaco,Monaco" font-size="28.0" fill="#EAEAEA" transform="matrix(1.00, 0.00, -0.00, -1.00, 688.5, 373.7)">n</text><text xml:space="preserve" font-family="Monaco,Monaco" font-size="28.0" fill="#EAEAEA" transform="matrix(1.00, 0.00, -0.00, -1.00, 705.3, 373.7)">s</text><text xml:space="preserve" font-family="Monaco,Monaco" font-size="28.0" fill="#EAEAEA" transform="matrix(1.00, 0.00, -0.00, -1.00, 722.1, 373.7)">e</text><text xml:space="preserve" font-family="Monaco,Monaco" font-size="28.0" fill="#EAEAEA" transform="matrix(1.00, 0.00, -0.00, -1.00, 738.9, 373.7)">,</text><text xml:space="preserve" font-family="Monaco,Monaco" font-size="28.0" fill="#EAEAEA" transform="matrix(1.00, 0.00, -0.00, -1.00, 755.7, 373.7)"> </text><text xml:space="preserve" font-family="Monaco,Monaco" font-size="28.0" fill="#EAEAEA" transform="matrix(1.00, 0.00, -0.00, -1.00, 772.5, 373.7)">n</text><text xml:space="preserve" font-family="Monaco,Monaco" font-size="28.0" fill="#EAEAEA" transform="matrix(1.00, 0.00, -0.00, -1.00, 789.3, 373.7)">e</text><text xml:space="preserve" font-family="Monaco,Monaco" font-size="28.0" fill="#EAEAEA" transform="matrix(1.00, 0.00, -0.00, -1.00, 806.1, 373.7)">x</text><text xml:space="preserve" font-family="Monaco,Monaco" font-size="28.0" fill="#EAEAEA" transform="matrix(1.00, 0.00, -0.00, -1.00, 822.9, 373.7)">t</text><text xml:space="preserve" font-family="Monaco,Monaco" font-size="28.0" fill="#EAEAEA" transform="matrix(1.00, 0.00, -0.00, -1.00, 839.7, 373.7)">)</text></g></g><path d="M 148.0 405.0 L 876.0 405.0 L 876.0 363.0 L 148.0 363.0 Z M 147.7 405.3 " fill="#242424"></path><image xlink:href="../../730DAB10-B657-42D1-A8F4-580A57AB2DF2/assets/C12B76FF53747F7CAD5B56B495E57F11.png" width="140.00" height="32.00" transform="matrix(1.00, 0.00, -0.00, -1.00, 165.0, 399.0)"></image><g><clipPath id="clip0x6000020b4f40"><path d="M 138.9 351.9 L 885.1 351.9 L 885.1 412.1 L 138.9 412.1 Z M 138.9 351.9 "></path></clipPath><g clip-path="url(#clip0x6000020b4f40)"><text xml:space="preserve" font-family="Monaco,Monaco" font-size="28.0" fill="#83D6EB" transform="matrix(1.00, 0.00, -0.00, -1.00, 167.5, 373.7)">f</text><text xml:space="preserve" font-family="Monaco,Monaco" font-size="28.0" fill="#83D6EB" transform="matrix(1.00, 0.00, -0.00, -1.00, 184.3, 373.7)">u</text><text xml:space="preserve" font-family="Monaco,Monaco" font-size="28.0" fill="#83D6EB" transform="matrix(1.00, 0.00, -0.00, -1.00, 201.2, 373.7)">n</text><text xml:space="preserve" font-family="Monaco,Monaco" font-size="28.0" fill="#83D6EB" transform="matrix(1.00, 0.00, -0.00, -1.00, 218.0, 373.7)">c</text><text xml:space="preserve" font-family="Monaco,Monaco" font-size="28.0" fill="#83D6EB" transform="matrix(1.00, 0.00, -0.00, -1.00, 234.8, 373.7)">t</text><text xml:space="preserve" font-family="Monaco,Monaco" font-size="28.0" fill="#83D6EB" transform="matrix(1.00, 0.00, -0.00, -1.00, 251.6, 373.7)">i</text><text xml:space="preserve" font-family="Monaco,Monaco" font-size="28.0" fill="#83D6EB" transform="matrix(1.00, 0.00, -0.00, -1.00, 268.4, 373.7)">o</text><text xml:space="preserve" font-family="Monaco,Monaco" font-size="28.0" fill="#83D6EB" transform="matrix(1.00, 0.00, -0.00, -1.00, 285.2, 373.7)">n</text></g></g><image xlink:href="../../730DAB10-B657-42D1-A8F4-580A57AB2DF2/assets/2CA642DE8C33FF69B5FD11D80C366BA0.png" width="542.00" height="38.00" transform="matrix(1.00, 0.00, -0.00, -1.00, 316.0, 399.0)"></image><g><clipPath id="clip0x6000020b54e0"><path d="M 138.9 351.9 L 885.1 351.9 L 885.1 412.1 L 138.9 412.1 Z M 138.9 351.9 "></path></clipPath><g clip-path="url(#clip0x6000020b54e0)"><text xml:space="preserve" font-family="Monaco,Monaco" font-size="28.0" fill="#EAEAEA" transform="matrix(1.00, 0.00, -0.00, -1.00, 302.0, 373.7)"> </text><text xml:space="preserve" font-family="Monaco,Monaco" font-size="28.0" fill="#EAEAEA" transform="matrix(1.00, 0.00, -0.00, -1.00, 318.8, 373.7)">h</text><text xml:space="preserve" font-family="Monaco,Monaco" font-size="28.0" fill="#EAEAEA" transform="matrix(1.00, 0.00, -0.00, -1.00, 335.6, 373.7)">a</text><text xml:space="preserve" font-family="Monaco,Monaco" font-size="28.0" fill="#EAEAEA" transform="matrix(1.00, 0.00, -0.00, -1.00, 352.4, 373.7)">n</text><text xml:space="preserve" font-family="Monaco,Monaco" font-size="28.0" fill="#EAEAEA" transform="matrix(1.00, 0.00, -0.00, -1.00, 369.2, 373.7)">d</text><text xml:space="preserve" font-family="Monaco,Monaco" font-size="28.0" fill="#EAEAEA" transform="matrix(1.00, 0.00, -0.00, -1.00, 386.0, 373.7)">l</text><text xml:space="preserve" font-family="Monaco,Monaco" font-size="28.0" fill="#EAEAEA" transform="matrix(1.00, 0.00, -0.00, -1.00, 402.8, 373.7)">e</text><text xml:space="preserve" font-family="Monaco,Monaco" font-size="28.0" fill="#EAEAEA" transform="matrix(1.00, 0.00, -0.00, -1.00, 419.6, 373.7)">r</text><text xml:space="preserve" font-family="Monaco,Monaco" font-size="28.0" fill="#EAEAEA" transform="matrix(1.00, 0.00, -0.00, -1.00, 436.4, 373.7)">(</text><text xml:space="preserve" font-family="Monaco,Monaco" font-size="28.0" fill="#EAEAEA" transform="matrix(1.00, 0.00, -0.00, -1.00, 453.2, 373.7)">r</text><text xml:space="preserve" font-family="Monaco,Monaco" font-size="28.0" fill="#EAEAEA" transform="matrix(1.00, 0.00, -0.00, -1.00, 470.0, 373.7)">e</text><text xml:space="preserve" font-family="Monaco,Monaco" font-size="28.0" fill="#EAEAEA" transform="matrix(1.00, 0.00, -0.00, -1.00, 486.8, 373.7)">q</text><text xml:space="preserve" font-family="Monaco,Monaco" font-size="28.0" fill="#EAEAEA" transform="matrix(1.00, 0.00, -0.00, -1.00, 503.6, 373.7)">u</text><text xml:space="preserve" font-family="Monaco,Monaco" font-size="28.0" fill="#EAEAEA" transform="matrix(1.00, 0.00, -0.00, -1.00, 520.4, 373.7)">e</text><text xml:space="preserve" font-family="Monaco,Monaco" font-size="28.0" fill="#EAEAEA" transform="matrix(1.00, 0.00, -0.00, -1.00, 537.2, 373.7)">s</text><text xml:space="preserve" font-family="Monaco,Monaco" font-size="28.0" fill="#EAEAEA" transform="matrix(1.00, 0.00, -0.00, -1.00, 554.0, 373.7)">t</text><text xml:space="preserve" font-family="Monaco,Monaco" font-size="28.0" fill="#EAEAEA" transform="matrix(1.00, 0.00, -0.00, -1.00, 570.9, 373.7)">,</text><text xml:space="preserve" font-family="Monaco,Monaco" font-size="28.0" fill="#EAEAEA" transform="matrix(1.00, 0.00, -0.00, -1.00, 587.7, 373.7)"> </text><text xml:space="preserve" font-family="Monaco,Monaco" font-size="28.0" fill="#EAEAEA" transform="matrix(1.00, 0.00, -0.00, -1.00, 604.5, 373.7)">r</text><text xml:space="preserve" font-family="Monaco,Monaco" font-size="28.0" fill="#EAEAEA" transform="matrix(1.00, 0.00, -0.00, -1.00, 621.3, 373.7)">e</text><text xml:space="preserve" font-family="Monaco,Monaco" font-size="28.0" fill="#EAEAEA" transform="matrix(1.00, 0.00, -0.00, -1.00, 638.1, 373.7)">s</text><text xml:space="preserve" font-family="Monaco,Monaco" font-size="28.0" fill="#EAEAEA" transform="matrix(1.00, 0.00, -0.00, -1.00, 654.9, 373.7)">p</text><text xml:space="preserve" font-family="Monaco,Monaco" font-size="28.0" fill="#EAEAEA" transform="matrix(1.00, 0.00, -0.00, -1.00, 671.7, 373.7)">o</text><text xml:space="preserve" font-family="Monaco,Monaco" font-size="28.0" fill="#EAEAEA" transform="matrix(1.00, 0.00, -0.00, -1.00, 688.5, 373.7)">n</text><text xml:space="preserve" font-family="Monaco,Monaco" font-size="28.0" fill="#EAEAEA" transform="matrix(1.00, 0.00, -0.00, -1.00, 705.3, 373.7)">s</text><text xml:space="preserve" font-family="Monaco,Monaco" font-size="28.0" fill="#EAEAEA" transform="matrix(1.00, 0.00, -0.00, -1.00, 722.1, 373.7)">e</text><text xml:space="preserve" font-family="Monaco,Monaco" font-size="28.0" fill="#EAEAEA" transform="matrix(1.00, 0.00, -0.00, -1.00, 738.9, 373.7)">,</text><text xml:space="preserve" font-family="Monaco,Monaco" font-size="28.0" fill="#EAEAEA" transform="matrix(1.00, 0.00, -0.00, -1.00, 755.7, 373.7)"> </text><text xml:space="preserve" font-family="Monaco,Monaco" font-size="28.0" fill="#EAEAEA" transform="matrix(1.00, 0.00, -0.00, -1.00, 772.5, 373.7)">n</text><text xml:space="preserve" font-family="Monaco,Monaco" font-size="28.0" fill="#EAEAEA" transform="matrix(1.00, 0.00, -0.00, -1.00, 789.3, 373.7)">e</text><text xml:space="preserve" font-family="Monaco,Monaco" font-size="28.0" fill="#EAEAEA" transform="matrix(1.00, 0.00, -0.00, -1.00, 806.1, 373.7)">x</text><text xml:space="preserve" font-family="Monaco,Monaco" font-size="28.0" fill="#EAEAEA" transform="matrix(1.00, 0.00, -0.00, -1.00, 822.9, 373.7)">t</text><text xml:space="preserve" font-family="Monaco,Monaco" font-size="28.0" fill="#EAEAEA" transform="matrix(1.00, 0.00, -0.00, -1.00, 839.7, 373.7)">)</text></g></g></g></svg>