<?xml version="1.0" encoding="UTF-8" standalone="no"?><svg xmlns="http://www.w3.org/2000/svg" xmlns:xlink="http://www.w3.org/1999/xlink" clip-rule="evenodd" stroke-miterlimit="10" viewBox="0 0 190 75"><desc>SVG generated by Keynote</desc><defs></defs><g transform="matrix(1.00, 0.00, -0.00, -1.00, 0.0, 75.0)"><image xlink:href="89A041C4BD626391E48C2AC61B95B9A0.png" width="186.00" height="68.00" transform="matrix(1.00, 0.00, -0.00, -1.00, 2.0, 69.3)" opacity="0.50"></image><g><clipPath id="clip0x600001eaa740"><path d="M 6.0 20.5 L 6.0 54.1 C 6.0 61.4 11.8 67.0 19.1 67.0 L 170.9 67.0 C 178.2 67.0 184.0 61.4 184.0 54.1 L 184.0 20.5 C 184.0 13.3 178.2 7.0 170.9 7.0 L 19.1 7.0 C 11.8 7.0 6.0 13.3 6.0 20.5 Z M 6.0 20.5 "></path></clipPath><g clip-path="url(#clip0x600001eaa740)"><image xlink:href="../../AC264CEF-AE8D-43F0-A92B-1A5A6C63C05C/assets/66812298EC73D46BADCACA9889D2977F.png" width="512.00" height="512.00" transform="matrix(0.50, 0.00, -0.00, -0.50, 6.0, 67.0)"></image></g></g><image xlink:href="96259466A12766D9FAC5CE759DF65DE1.png" width="138.00" height="26.00" transform="matrix(1.00, 0.00, -0.00, -1.00, 26.0, 49.0)"></image><g><clipPath id="clip0x600001ea9ea0"><path d="M -0.5 7.4 L 190.5 7.4 L 190.5 67.3 L -0.5 67.3 Z M -0.5 7.4 "></path></clipPath><g clip-path="url(#clip0x600001ea9ea0)"><text xml:space="preserve" font-family="HelveticaNeue-Medium,Helvetica Neue" font-size="25.0" fill="#FEFFFE" transform="matrix(1.00, 0.00, -0.00, -1.00, 28.1, 28.0)">r</text><text xml:space="preserve" font-family="HelveticaNeue-Medium,Helvetica Neue" font-size="25.0" fill="#FEFFFE" transform="matrix(1.00, 0.00, -0.00, -1.00, 36.4, 28.0)">e</text><text xml:space="preserve" font-family="HelveticaNeue-Medium,Helvetica Neue" font-size="25.0" fill="#FEFFFE" transform="matrix(1.00, 0.00, -0.00, -1.00, 50.3, 28.0)">a</text><text xml:space="preserve" font-family="HelveticaNeue-Medium,Helvetica Neue" font-size="25.0" fill="#FEFFFE" transform="matrix(1.00, 0.00, -0.00, -1.00, 64.2, 28.0)">d</text><text xml:space="preserve" font-family="HelveticaNeue-Medium,Helvetica Neue" font-size="25.0" fill="#FEFFFE" transform="matrix(1.00, 0.00, -0.00, -1.00, 79.5, 28.0)">S</text><text xml:space="preserve" font-family="HelveticaNeue-Medium,Helvetica Neue" font-size="25.0" fill="#FEFFFE" transform="matrix(1.00, 0.00, -0.00, -1.00, 95.7, 28.0)">t</text><text xml:space="preserve" font-family="HelveticaNeue-Medium,Helvetica Neue" font-size="25.0" fill="#FEFFFE" transform="matrix(1.00, 0.00, -0.00, -1.00, 104.0, 28.0)">r</text><text xml:space="preserve" font-family="HelveticaNeue-Medium,Helvetica Neue" font-size="25.0" fill="#FEFFFE" transform="matrix(1.00, 0.00, -0.00, -1.00, 112.4, 28.0)">e</text><text xml:space="preserve" font-family="HelveticaNeue-Medium,Helvetica Neue" font-size="25.0" fill="#FEFFFE" transform="matrix(1.00, 0.00, -0.00, -1.00, 126.3, 28.0)">a</text><text xml:space="preserve" font-family="HelveticaNeue-Medium,Helvetica Neue" font-size="25.0" fill="#FEFFFE" transform="matrix(1.00, 0.00, -0.00, -1.00, 140.2, 28.0)">m</text></g></g></g></svg>