<?xml version="1.0" encoding="UTF-8" standalone="no"?><svg xmlns="http://www.w3.org/2000/svg" xmlns:xlink="http://www.w3.org/1999/xlink" clip-rule="evenodd" stroke-miterlimit="10" viewBox="0 0 204 80"><desc>SVG generated by Keynote</desc><defs></defs><g transform="matrix(1.00, 0.00, -0.00, -1.00, 0.0, 80.0)"><image xlink:href="F10937C11FB050601D1EA0D604888FFC.png" width="193.00" height="38.00" transform="matrix(1.00, 0.00, -0.00, -1.00, 6.0, 78.0)"></image><text xml:space="preserve" font-family="HelveticaNeue-Medium,Helvetica Neue" font-size="32.0" fill="#EAEAEA" transform="matrix(1.00, 0.00, -0.00, -1.00, 7.6, 53.0)">D</text><text xml:space="preserve" font-family="HelveticaNeue-Medium,Helvetica Neue" font-size="32.0" fill="#EAEAEA" transform="matrix(1.00, 0.00, -0.00, -1.00, 30.7, 53.0)">e</text><text xml:space="preserve" font-family="HelveticaNeue-Medium,Helvetica Neue" font-size="32.0" fill="#EAEAEA" transform="matrix(1.00, 0.00, -0.00, -1.00, 48.5, 53.0)">p</text><text xml:space="preserve" font-family="HelveticaNeue-Medium,Helvetica Neue" font-size="32.0" fill="#EAEAEA" transform="matrix(1.00, 0.00, -0.00, -1.00, 68.1, 53.0)">e</text><text xml:space="preserve" font-family="HelveticaNeue-Medium,Helvetica Neue" font-size="32.0" fill="#EAEAEA" transform="matrix(1.00, 0.00, -0.00, -1.00, 85.9, 53.0)">n</text><text xml:space="preserve" font-family="HelveticaNeue-Medium,Helvetica Neue" font-size="32.0" fill="#EAEAEA" transform="matrix(1.00, 0.00, -0.00, -1.00, 104.2, 53.0)">d</text><text xml:space="preserve" font-family="HelveticaNeue-Medium,Helvetica Neue" font-size="32.0" fill="#EAEAEA" transform="matrix(1.00, 0.00, -0.00, -1.00, 123.8, 53.0)">e</text><text xml:space="preserve" font-family="HelveticaNeue-Medium,Helvetica Neue" font-size="32.0" fill="#EAEAEA" transform="matrix(1.00, 0.00, -0.00, -1.00, 141.6, 53.0)">n</text><text xml:space="preserve" font-family="HelveticaNeue-Medium,Helvetica Neue" font-size="32.0" fill="#EAEAEA" transform="matrix(1.00, 0.00, -0.00, -1.00, 160.0, 53.0)">c</text><text xml:space="preserve" font-family="HelveticaNeue-Medium,Helvetica Neue" font-size="32.0" fill="#EAEAEA" transform="matrix(1.00, 0.00, -0.00, -1.00, 177.8, 53.0)">y</text><text xml:space="preserve" font-family="HelveticaNeue-Medium,Helvetica Neue" font-size="32.0" fill="#EAEAEA" transform="matrix(1.00, 0.00, -0.00, -1.00, 194.4, 53.0)"> </text><image xlink:href="C1F599D2F02B5F77C3F24A95CD0A035C.png" width="200.00" height="38.00" transform="matrix(1.00, 0.00, -0.00, -1.00, 2.0, 39.0)"></image><text xml:space="preserve" font-family="HelveticaNeue-Medium,Helvetica Neue" font-size="32.0" fill="#EAEAEA" transform="matrix(1.00, 0.00, -0.00, -1.00, 4.1, 14.0)">M</text><text xml:space="preserve" font-family="HelveticaNeue-Medium,Helvetica Neue" font-size="32.0" fill="#EAEAEA" transform="matrix(1.00, 0.00, -0.00, -1.00, 32.5, 14.0)">a</text><text xml:space="preserve" font-family="HelveticaNeue-Medium,Helvetica Neue" font-size="32.0" fill="#EAEAEA" transform="matrix(1.00, 0.00, -0.00, -1.00, 50.3, 14.0)">n</text><text xml:space="preserve" font-family="HelveticaNeue-Medium,Helvetica Neue" font-size="32.0" fill="#EAEAEA" transform="matrix(1.00, 0.00, -0.00, -1.00, 68.7, 14.0)">a</text><text xml:space="preserve" font-family="HelveticaNeue-Medium,Helvetica Neue" font-size="32.0" fill="#EAEAEA" transform="matrix(1.00, 0.00, -0.00, -1.00, 86.5, 14.0)">g</text><text xml:space="preserve" font-family="HelveticaNeue-Medium,Helvetica Neue" font-size="32.0" fill="#EAEAEA" transform="matrix(1.00, 0.00, -0.00, -1.00, 105.5, 14.0)">e</text><text xml:space="preserve" font-family="HelveticaNeue-Medium,Helvetica Neue" font-size="32.0" fill="#EAEAEA" transform="matrix(1.00, 0.00, -0.00, -1.00, 123.3, 14.0)">m</text><text xml:space="preserve" font-family="HelveticaNeue-Medium,Helvetica Neue" font-size="32.0" fill="#EAEAEA" transform="matrix(1.00, 0.00, -0.00, -1.00, 151.1, 14.0)">e</text><text xml:space="preserve" font-family="HelveticaNeue-Medium,Helvetica Neue" font-size="32.0" fill="#EAEAEA" transform="matrix(1.00, 0.00, -0.00, -1.00, 168.9, 14.0)">n</text><text xml:space="preserve" font-family="HelveticaNeue-Medium,Helvetica Neue" font-size="32.0" fill="#EAEAEA" transform="matrix(1.00, 0.00, -0.00, -1.00, 187.3, 14.0)">t</text></g></svg>