<?xml version="1.0" encoding="UTF-8" standalone="no"?><svg xmlns="http://www.w3.org/2000/svg" xmlns:xlink="http://www.w3.org/1999/xlink" clip-rule="evenodd" stroke-miterlimit="10" viewBox="0 0 226 35"><desc>SVG generated by Keynote</desc><defs></defs><g transform="matrix(1.00, 0.00, -0.00, -1.00, 0.0, 35.0)"><image xlink:href="9B3A9945D7A394EFA75619AA5D654927.png" width="222.00" height="32.00" transform="matrix(1.00, 0.00, -0.00, -1.00, 1.0, 34.0)"></image><text xml:space="preserve" font-family="HelveticaNeue-Medium,Helvetica Neue" font-size="32.0" fill="#EAEAEA" transform="matrix(1.00, 0.00, -0.00, -1.00, 5.5, 8.5)">A</text><text xml:space="preserve" font-family="HelveticaNeue-Medium,Helvetica Neue" font-size="32.0" fill="#EAEAEA" transform="matrix(1.00, 0.00, -0.00, -1.00, 26.8, 8.5)">u</text><text xml:space="preserve" font-family="HelveticaNeue-Medium,Helvetica Neue" font-size="32.0" fill="#EAEAEA" transform="matrix(1.00, 0.00, -0.00, -1.00, 45.2, 8.5)">t</text><text xml:space="preserve" font-family="HelveticaNeue-Medium,Helvetica Neue" font-size="32.0" fill="#EAEAEA" transform="matrix(1.00, 0.00, -0.00, -1.00, 55.9, 8.5)">h</text><text xml:space="preserve" font-family="HelveticaNeue-Medium,Helvetica Neue" font-size="32.0" fill="#EAEAEA" transform="matrix(1.00, 0.00, -0.00, -1.00, 74.2, 8.5)">e</text><text xml:space="preserve" font-family="HelveticaNeue-Medium,Helvetica Neue" font-size="32.0" fill="#EAEAEA" transform="matrix(1.00, 0.00, -0.00, -1.00, 92.0, 8.5)">n</text><text xml:space="preserve" font-family="HelveticaNeue-Medium,Helvetica Neue" font-size="32.0" fill="#EAEAEA" transform="matrix(1.00, 0.00, -0.00, -1.00, 110.4, 8.5)">t</text><text xml:space="preserve" font-family="HelveticaNeue-Medium,Helvetica Neue" font-size="32.0" fill="#EAEAEA" transform="matrix(1.00, 0.00, -0.00, -1.00, 121.1, 8.5)">i</text><text xml:space="preserve" font-family="HelveticaNeue-Medium,Helvetica Neue" font-size="32.0" fill="#EAEAEA" transform="matrix(1.00, 0.00, -0.00, -1.00, 128.8, 8.5)">c</text><text xml:space="preserve" font-family="HelveticaNeue-Medium,Helvetica Neue" font-size="32.0" fill="#EAEAEA" transform="matrix(1.00, 0.00, -0.00, -1.00, 146.6, 8.5)">a</text><text xml:space="preserve" font-family="HelveticaNeue-Medium,Helvetica Neue" font-size="32.0" fill="#EAEAEA" transform="matrix(1.00, 0.00, -0.00, -1.00, 164.4, 8.5)">t</text><text xml:space="preserve" font-family="HelveticaNeue-Medium,Helvetica Neue" font-size="32.0" fill="#EAEAEA" transform="matrix(1.00, 0.00, -0.00, -1.00, 175.0, 8.5)">i</text><text xml:space="preserve" font-family="HelveticaNeue-Medium,Helvetica Neue" font-size="32.0" fill="#EAEAEA" transform="matrix(1.00, 0.00, -0.00, -1.00, 182.7, 8.5)">o</text><text xml:space="preserve" font-family="HelveticaNeue-Medium,Helvetica Neue" font-size="32.0" fill="#EAEAEA" transform="matrix(1.00, 0.00, -0.00, -1.00, 201.7, 8.5)">n</text></g></svg>