<?xml version="1.0" encoding="UTF-8" standalone="no"?><svg xmlns="http://www.w3.org/2000/svg" xmlns:xlink="http://www.w3.org/1999/xlink" clip-rule="evenodd" stroke-miterlimit="10" viewBox="0 0 205 41"><desc>SVG generated by Keynote</desc><defs></defs><g transform="matrix(1.00, 0.00, -0.00, -1.00, 0.0, 41.0)"><image xlink:href="2AF18D9665FA49F82FB67CEFE49191B4.png" width="201.00" height="38.00" transform="matrix(1.00, 0.00, -0.00, -1.00, 2.0, 39.0)"></image><text xml:space="preserve" font-family="HelveticaNeue-Medium,Helvetica Neue" font-size="32.0" fill="#EAEAEA" transform="matrix(1.00, 0.00, -0.00, -1.00, 5.5, 14.0)">3</text><text xml:space="preserve" font-family="HelveticaNeue-Medium,Helvetica Neue" font-size="32.0" fill="#EAEAEA" transform="matrix(1.00, 0.00, -0.00, -1.00, 23.3, 14.0)">r</text><text xml:space="preserve" font-family="HelveticaNeue-Medium,Helvetica Neue" font-size="32.0" fill="#EAEAEA" transform="matrix(1.00, 0.00, -0.00, -1.00, 33.9, 14.0)">d</text><text xml:space="preserve" font-family="HelveticaNeue-Medium,Helvetica Neue" font-size="32.0" fill="#EAEAEA" transform="matrix(1.00, 0.00, -0.00, -1.00, 53.5, 14.0)"> </text><text xml:space="preserve" font-family="HelveticaNeue-Medium,Helvetica Neue" font-size="32.0" fill="#EAEAEA" transform="matrix(1.00, 0.00, -0.00, -1.00, 62.4, 14.0)">P</text><text xml:space="preserve" font-family="HelveticaNeue-Medium,Helvetica Neue" font-size="32.0" fill="#EAEAEA" transform="matrix(1.00, 0.00, -0.00, -1.00, 83.7, 14.0)">a</text><text xml:space="preserve" font-family="HelveticaNeue-Medium,Helvetica Neue" font-size="32.0" fill="#EAEAEA" transform="matrix(1.00, 0.00, -0.00, -1.00, 101.5, 14.0)">r</text><text xml:space="preserve" font-family="HelveticaNeue-Medium,Helvetica Neue" font-size="32.0" fill="#EAEAEA" transform="matrix(1.00, 0.00, -0.00, -1.00, 112.8, 14.0)">t</text><text xml:space="preserve" font-family="HelveticaNeue-Medium,Helvetica Neue" font-size="32.0" fill="#EAEAEA" transform="matrix(1.00, 0.00, -0.00, -1.00, 123.4, 14.0)">y</text><text xml:space="preserve" font-family="HelveticaNeue-Medium,Helvetica Neue" font-size="32.0" fill="#EAEAEA" transform="matrix(1.00, 0.00, -0.00, -1.00, 140.1, 14.0)"> </text><text xml:space="preserve" font-family="HelveticaNeue-Medium,Helvetica Neue" font-size="32.0" fill="#EAEAEA" transform="matrix(1.00, 0.00, -0.00, -1.00, 149.0, 14.0)">A</text><text xml:space="preserve" font-family="HelveticaNeue-Medium,Helvetica Neue" font-size="32.0" fill="#EAEAEA" transform="matrix(1.00, 0.00, -0.00, -1.00, 170.3, 14.0)">P</text><text xml:space="preserve" font-family="HelveticaNeue-Medium,Helvetica Neue" font-size="32.0" fill="#EAEAEA" transform="matrix(1.00, 0.00, -0.00, -1.00, 191.6, 14.0)">I</text></g></svg>