<?xml version="1.0" encoding="UTF-8" standalone="no"?><svg xmlns="http://www.w3.org/2000/svg" xmlns:xlink="http://www.w3.org/1999/xlink" clip-rule="evenodd" stroke-miterlimit="10" viewBox="0 0 234 85"><desc>SVG generated by Keynote</desc><defs></defs><g transform="matrix(1.00, 0.00, -0.00, -1.00, 0.0, 85.0)"><image xlink:href="3D127A509C6D9E453E1D7BEC651B32ED.png" width="231.00" height="77.00" transform="matrix(1.00, 0.00, -0.00, -1.01, 1.7, 79.1)" opacity="0.50"></image><g><clipPath id="clip0x6000010a9f60"><path d="M 5.7 19.5 L 6.0 65.2 C 6.0 71.8 11.0 77.0 17.6 77.0 L 216.9 77.0 C 223.5 77.0 229.0 71.8 229.0 65.2 L 229.0 19.5 C 229.0 12.9 223.5 8.0 216.9 8.0 L 17.6 8.0 C 11.0 8.0 5.7 12.9 5.7 19.5 Z M 5.7 19.5 "></path></clipPath><g clip-path="url(#clip0x6000010a9f60)"><image xlink:href="../../AC264CEF-AE8D-43F0-A92B-1A5A6C63C05C/assets/66812298EC73D46BADCACA9889D2977F.png" width="512.00" height="512.00" transform="matrix(0.50, 0.00, -0.00, -0.50, 5.7, 77.0)"></image></g></g><image xlink:href="9FFA5D406A6B6E4DA13E478ED34DF8C8.png" width="132.00" height="34.00" transform="matrix(1.00, 0.00, -0.00, -1.00, 51.0, 67.0)"></image><g><clipPath id="clip0x6000010a9ae0"><path d="M 1.6 7.6 L 232.9 7.6 L 232.9 84.0 L 1.6 84.0 Z M 1.6 7.6 "></path></clipPath><g clip-path="url(#clip0x6000010a9ae0)"><text xml:space="preserve" font-family="HelveticaNeue-Medium,Helvetica Neue" font-size="30.0" fill="#FEFFFE" transform="matrix(1.00, 0.00, -0.00, -1.00, 54.2, 43.5)">T</text><text xml:space="preserve" font-family="HelveticaNeue-Medium,Helvetica Neue" font-size="30.0" fill="#FEFFFE" transform="matrix(1.00, 0.00, -0.00, -1.00, 68.6, 43.5)">e</text><text xml:space="preserve" font-family="HelveticaNeue-Medium,Helvetica Neue" font-size="30.0" fill="#FEFFFE" transform="matrix(1.00, 0.00, -0.00, -1.00, 85.3, 43.5)">m</text><text xml:space="preserve" font-family="HelveticaNeue-Medium,Helvetica Neue" font-size="30.0" fill="#FEFFFE" transform="matrix(1.00, 0.00, -0.00, -1.00, 111.4, 43.5)">p</text><text xml:space="preserve" font-family="HelveticaNeue-Medium,Helvetica Neue" font-size="30.0" fill="#FEFFFE" transform="matrix(1.00, 0.00, -0.00, -1.00, 129.8, 43.5)">l</text><text xml:space="preserve" font-family="HelveticaNeue-Medium,Helvetica Neue" font-size="30.0" fill="#FEFFFE" transform="matrix(1.00, 0.00, -0.00, -1.00, 137.0, 43.5)">a</text><text xml:space="preserve" font-family="HelveticaNeue-Medium,Helvetica Neue" font-size="30.0" fill="#FEFFFE" transform="matrix(1.00, 0.00, -0.00, -1.00, 153.7, 43.5)">t</text><text xml:space="preserve" font-family="HelveticaNeue-Medium,Helvetica Neue" font-size="30.0" fill="#FEFFFE" transform="matrix(1.00, 0.00, -0.00, -1.00, 163.7, 43.5)">e</text><text xml:space="preserve" font-family="HelveticaNeue-Medium,Helvetica Neue" font-size="30.0" fill="#FEFFFE" transform="matrix(1.00, 0.00, -0.00, -1.00, 180.3, 43.5)"> </text></g></g><image xlink:href="28DD819742292D2098C3B86442374CC3.png" width="210.00" height="24.00" transform="matrix(1.00, 0.00, -0.00, -1.00, 12.0, 36.0)"></image><g><clipPath id="clip0x6000010aa560"><path d="M 1.6 7.6 L 232.9 7.6 L 232.9 84.0 L 1.6 84.0 Z M 1.6 7.6 "></path></clipPath><g clip-path="url(#clip0x6000010aa560)"><text xml:space="preserve" font-family="Monaco,Monaco" font-size="14.0" fill="#EAEAEA" transform="matrix(1.00, 0.00, -0.00, -1.00, 16.4, 21.8)">&lt;</text><text xml:space="preserve" font-family="Monaco,Monaco" font-size="14.0" fill="#EAEAEA" transform="matrix(1.00, 0.00, -0.00, -1.00, 24.8, 21.8)">h</text><text xml:space="preserve" font-family="Monaco,Monaco" font-size="14.0" fill="#EAEAEA" transform="matrix(1.00, 0.00, -0.00, -1.00, 33.2, 21.8)">1</text><text xml:space="preserve" font-family="Monaco,Monaco" font-size="14.0" fill="#EAEAEA" transform="matrix(1.00, 0.00, -0.00, -1.00, 41.6, 21.8)">&gt;</text><text xml:space="preserve" font-family="Monaco,Monaco" font-size="14.0" fill="#EAEAEA" transform="matrix(1.00, 0.00, -0.00, -1.00, 50.1, 21.8)">H</text><text xml:space="preserve" font-family="Monaco,Monaco" font-size="14.0" fill="#EAEAEA" transform="matrix(1.00, 0.00, -0.00, -1.00, 58.5, 21.8)">e</text><text xml:space="preserve" font-family="Monaco,Monaco" font-size="14.0" fill="#EAEAEA" transform="matrix(1.00, 0.00, -0.00, -1.00, 66.9, 21.8)">l</text><text xml:space="preserve" font-family="Monaco,Monaco" font-size="14.0" fill="#EAEAEA" transform="matrix(1.00, 0.00, -0.00, -1.00, 75.3, 21.8)">l</text><text xml:space="preserve" font-family="Monaco,Monaco" font-size="14.0" fill="#EAEAEA" transform="matrix(1.00, 0.00, -0.00, -1.00, 83.7, 21.8)">o</text><text xml:space="preserve" font-family="Monaco,Monaco" font-size="14.0" fill="#EAEAEA" transform="matrix(1.00, 0.00, -0.00, -1.00, 92.1, 21.8)">,</text><text xml:space="preserve" font-family="Monaco,Monaco" font-size="14.0" fill="#EAEAEA" transform="matrix(1.00, 0.00, -0.00, -1.00, 100.5, 21.8)"> </text><text xml:space="preserve" font-family="Monaco,Monaco" font-size="14.0" fill="#EAEAEA" transform="matrix(1.00, 0.00, -0.00, -1.00, 108.9, 21.8)">{</text><text xml:space="preserve" font-family="Monaco,Monaco" font-size="14.0" fill="#EAEAEA" transform="matrix(1.00, 0.00, -0.00, -1.00, 117.3, 21.8)">{</text><text xml:space="preserve" font-family="Monaco,Monaco" font-size="14.0" fill="#EAEAEA" transform="matrix(1.00, 0.00, -0.00, -1.00, 125.7, 21.8)">n</text><text xml:space="preserve" font-family="Monaco,Monaco" font-size="14.0" fill="#EAEAEA" transform="matrix(1.00, 0.00, -0.00, -1.00, 134.1, 21.8)">a</text><text xml:space="preserve" font-family="Monaco,Monaco" font-size="14.0" fill="#EAEAEA" transform="matrix(1.00, 0.00, -0.00, -1.00, 142.5, 21.8)">m</text><text xml:space="preserve" font-family="Monaco,Monaco" font-size="14.0" fill="#EAEAEA" transform="matrix(1.00, 0.00, -0.00, -1.00, 150.9, 21.8)">e</text><text xml:space="preserve" font-family="Monaco,Monaco" font-size="14.0" fill="#EAEAEA" transform="matrix(1.00, 0.00, -0.00, -1.00, 159.3, 21.8)">}</text><text xml:space="preserve" font-family="Monaco,Monaco" font-size="14.0" fill="#EAEAEA" transform="matrix(1.00, 0.00, -0.00, -1.00, 167.7, 21.8)">}</text><text xml:space="preserve" font-family="Monaco,Monaco" font-size="14.0" fill="#EAEAEA" transform="matrix(1.00, 0.00, -0.00, -1.00, 176.1, 21.8)">&lt;</text><text xml:space="preserve" font-family="Monaco,Monaco" font-size="14.0" fill="#EAEAEA" transform="matrix(1.00, 0.00, -0.00, -1.00, 184.5, 21.8)">/</text><text xml:space="preserve" font-family="Monaco,Monaco" font-size="14.0" fill="#EAEAEA" transform="matrix(1.00, 0.00, -0.00, -1.00, 192.9, 21.8)">h</text><text xml:space="preserve" font-family="Monaco,Monaco" font-size="14.0" fill="#EAEAEA" transform="matrix(1.00, 0.00, -0.00, -1.00, 201.3, 21.8)">1</text><text xml:space="preserve" font-family="Monaco,Monaco" font-size="14.0" fill="#EAEAEA" transform="matrix(1.00, 0.00, -0.00, -1.00, 209.7, 21.8)">&gt;</text></g></g></g></svg>