<?xml version="1.0" encoding="UTF-8" standalone="no"?><svg xmlns="http://www.w3.org/2000/svg" xmlns:xlink="http://www.w3.org/1999/xlink" clip-rule="evenodd" stroke-miterlimit="10" viewBox="0 0 202 142"><desc>SVG generated by Keynote</desc><defs></defs><g transform="matrix(1.00, 0.00, -0.00, -1.00, 0.0, 142.0)"><image xlink:href="7D0180D3BE2E18AA07266BECF19E279F.png" width="200.00" height="135.00" transform="matrix(1.00, 0.00, -0.00, -1.00, 1.2, 136.4)" opacity="0.50"></image><g><clipPath id="clip0x6000010a7ce0"><path d="M 5.2 19.9 L 5.0 121.7 C 5.0 128.7 10.9 134.0 17.9 134.0 L 184.2 134.0 C 191.2 134.0 197.0 128.7 197.0 121.7 L 197.0 19.9 C 197.0 12.8 191.2 7.0 184.2 7.0 L 17.9 7.0 C 10.9 7.0 5.2 12.8 5.2 19.9 Z M 5.2 19.9 "></path></clipPath><g clip-path="url(#clip0x6000010a7ce0)"><image xlink:href="../../AC264CEF-AE8D-43F0-A92B-1A5A6C63C05C/assets/66812298EC73D46BADCACA9889D2977F.png" width="512.00" height="512.00" transform="matrix(0.50, 0.00, -0.00, -0.50, 5.0, 134.0)"></image></g></g><image xlink:href="F357EB1C9CE6DBB859B96580293EB314.png" width="75.00" height="29.00" transform="matrix(1.00, 0.00, -0.00, -1.00, 63.0, 125.0)"></image><g><clipPath id="clip0x6000010a7920"><path d="M 1.8 7.1 L 200.3 7.1 L 200.3 141.3 L 1.8 141.3 Z M 1.8 7.1 "></path></clipPath><g clip-path="url(#clip0x6000010a7920)"><text xml:space="preserve" font-family="HelveticaNeue-Medium,Helvetica Neue" font-size="30.0" fill="#FEFFFE" transform="matrix(1.00, 0.00, -0.00, -1.00, 65.8, 100.8)">O</text><text xml:space="preserve" font-family="HelveticaNeue-Medium,Helvetica Neue" font-size="30.0" fill="#FEFFFE" transform="matrix(1.00, 0.00, -0.00, -1.00, 88.6, 100.8)">R</text><text xml:space="preserve" font-family="HelveticaNeue-Medium,Helvetica Neue" font-size="30.0" fill="#FEFFFE" transform="matrix(1.00, 0.00, -0.00, -1.00, 109.7, 100.8)">M</text><text xml:space="preserve" font-family="HelveticaNeue-Medium,Helvetica Neue" font-size="30.0" fill="#FEFFFE" transform="matrix(1.00, 0.00, -0.00, -1.00, 136.4, 100.8)"> </text></g></g><image xlink:href="FEBA4867DD365C43688F02BB12B62A33.png" width="106.00" height="19.00" transform="matrix(1.00, 0.00, -0.00, -1.00, 7.0, 93.0)"></image><g><clipPath id="clip0x6000010a7ec0"><path d="M 1.8 7.1 L 200.3 7.1 L 200.3 141.3 L 1.8 141.3 Z M 1.8 7.1 "></path></clipPath><g clip-path="url(#clip0x6000010a7ec0)"><text xml:space="preserve" font-family="Monaco,Monaco" font-size="14.0" fill="#FEFFFE" transform="matrix(1.00, 0.00, -0.00, -1.00, 9.2, 79.1)">c</text><text xml:space="preserve" font-family="Monaco,Monaco" font-size="14.0" fill="#FEFFFE" transform="matrix(1.00, 0.00, -0.00, -1.00, 17.6, 79.1)">l</text><text xml:space="preserve" font-family="Monaco,Monaco" font-size="14.0" fill="#FEFFFE" transform="matrix(1.00, 0.00, -0.00, -1.00, 26.0, 79.1)">a</text><text xml:space="preserve" font-family="Monaco,Monaco" font-size="14.0" fill="#FEFFFE" transform="matrix(1.00, 0.00, -0.00, -1.00, 34.4, 79.1)">s</text><text xml:space="preserve" font-family="Monaco,Monaco" font-size="14.0" fill="#FEFFFE" transform="matrix(1.00, 0.00, -0.00, -1.00, 42.8, 79.1)">s</text><text xml:space="preserve" font-family="Monaco,Monaco" font-size="14.0" fill="#FEFFFE" transform="matrix(1.00, 0.00, -0.00, -1.00, 51.2, 79.1)"> </text><text xml:space="preserve" font-family="Monaco,Monaco" font-size="14.0" fill="#FEFFFE" transform="matrix(1.00, 0.00, -0.00, -1.00, 59.6, 79.1)">U</text><text xml:space="preserve" font-family="Monaco,Monaco" font-size="14.0" fill="#FEFFFE" transform="matrix(1.00, 0.00, -0.00, -1.00, 68.0, 79.1)">s</text><text xml:space="preserve" font-family="Monaco,Monaco" font-size="14.0" fill="#FEFFFE" transform="matrix(1.00, 0.00, -0.00, -1.00, 76.4, 79.1)">e</text><text xml:space="preserve" font-family="Monaco,Monaco" font-size="14.0" fill="#FEFFFE" transform="matrix(1.00, 0.00, -0.00, -1.00, 84.8, 79.1)">r</text><text xml:space="preserve" font-family="Monaco,Monaco" font-size="14.0" fill="#FEFFFE" transform="matrix(1.00, 0.00, -0.00, -1.00, 93.2, 79.1)"> </text><text xml:space="preserve" font-family="Monaco,Monaco" font-size="14.0" fill="#FEFFFE" transform="matrix(1.00, 0.00, -0.00, -1.00, 101.6, 79.1)">&lt;</text><text xml:space="preserve" font-family="Monaco,Monaco" font-size="14.0" fill="#FEFFFE" transform="matrix(1.00, 0.00, -0.00, -1.00, 110.0, 79.1)"> </text></g></g><image xlink:href="28A6C7BF5FF165FC20E6966EEEACF966.png" width="157.00" height="19.00" transform="matrix(1.00, 0.00, -0.00, -1.00, 6.0, 74.0)"></image><g><clipPath id="clip0x6000010a8640"><path d="M 1.8 7.1 L 200.3 7.1 L 200.3 141.3 L 1.8 141.3 Z M 1.8 7.1 "></path></clipPath><g clip-path="url(#clip0x6000010a8640)"><text xml:space="preserve" font-family="Monaco,Monaco" font-size="14.0" fill="#FEFFFE" transform="matrix(1.00, 0.00, -0.00, -1.00, 9.2, 60.1)">A</text><text xml:space="preserve" font-family="Monaco,Monaco" font-size="14.0" fill="#FEFFFE" transform="matrix(1.00, 0.00, -0.00, -1.00, 17.6, 60.1)">c</text><text xml:space="preserve" font-family="Monaco,Monaco" font-size="14.0" fill="#FEFFFE" transform="matrix(1.00, 0.00, -0.00, -1.00, 26.0, 60.1)">t</text><text xml:space="preserve" font-family="Monaco,Monaco" font-size="14.0" fill="#FEFFFE" transform="matrix(1.00, 0.00, -0.00, -1.00, 34.4, 60.1)">i</text><text xml:space="preserve" font-family="Monaco,Monaco" font-size="14.0" fill="#FEFFFE" transform="matrix(1.00, 0.00, -0.00, -1.00, 42.8, 60.1)">v</text><text xml:space="preserve" font-family="Monaco,Monaco" font-size="14.0" fill="#FEFFFE" transform="matrix(1.00, 0.00, -0.00, -1.00, 51.2, 60.1)">e</text><text xml:space="preserve" font-family="Monaco,Monaco" font-size="14.0" fill="#FEFFFE" transform="matrix(1.00, 0.00, -0.00, -1.00, 59.6, 60.1)">R</text><text xml:space="preserve" font-family="Monaco,Monaco" font-size="14.0" fill="#FEFFFE" transform="matrix(1.00, 0.00, -0.00, -1.00, 68.0, 60.1)">e</text><text xml:space="preserve" font-family="Monaco,Monaco" font-size="14.0" fill="#FEFFFE" transform="matrix(1.00, 0.00, -0.00, -1.00, 76.4, 60.1)">c</text><text xml:space="preserve" font-family="Monaco,Monaco" font-size="14.0" fill="#FEFFFE" transform="matrix(1.00, 0.00, -0.00, -1.00, 84.8, 60.1)">o</text><text xml:space="preserve" font-family="Monaco,Monaco" font-size="14.0" fill="#FEFFFE" transform="matrix(1.00, 0.00, -0.00, -1.00, 93.2, 60.1)">r</text><text xml:space="preserve" font-family="Monaco,Monaco" font-size="14.0" fill="#FEFFFE" transform="matrix(1.00, 0.00, -0.00, -1.00, 101.6, 60.1)">d</text><text xml:space="preserve" font-family="Monaco,Monaco" font-size="14.0" fill="#FEFFFE" transform="matrix(1.00, 0.00, -0.00, -1.00, 110.0, 60.1)">:</text><text xml:space="preserve" font-family="Monaco,Monaco" font-size="14.0" fill="#FEFFFE" transform="matrix(1.00, 0.00, -0.00, -1.00, 118.4, 60.1)">:</text><text xml:space="preserve" font-family="Monaco,Monaco" font-size="14.0" fill="#FEFFFE" transform="matrix(1.00, 0.00, -0.00, -1.00, 126.8, 60.1)">B</text><text xml:space="preserve" font-family="Monaco,Monaco" font-size="14.0" fill="#FEFFFE" transform="matrix(1.00, 0.00, -0.00, -1.00, 135.2, 60.1)">a</text><text xml:space="preserve" font-family="Monaco,Monaco" font-size="14.0" fill="#FEFFFE" transform="matrix(1.00, 0.00, -0.00, -1.00, 143.6, 60.1)">s</text><text xml:space="preserve" font-family="Monaco,Monaco" font-size="14.0" fill="#FEFFFE" transform="matrix(1.00, 0.00, -0.00, -1.00, 152.0, 60.1)">e</text></g></g><image xlink:href="EFFF72C8B330EAABC0BE0F100B168E93.png" width="26.00" height="9.00" transform="matrix(1.00, 0.00, -0.00, -1.00, 26.0, 45.0)"></image><g><clipPath id="clip0x6000010a8fa0"><path d="M 1.8 7.1 L 200.3 7.1 L 200.3 141.3 L 1.8 141.3 Z M 1.8 7.1 "></path></clipPath><g clip-path="url(#clip0x6000010a8fa0)"><text xml:space="preserve" font-family="Monaco,Monaco" font-size="14.0" fill="#FEFFFE" transform="matrix(1.00, 0.00, -0.00, -1.00, 9.2, 41.1)"> </text><text xml:space="preserve" font-family="Monaco,Monaco" font-size="14.0" fill="#FEFFFE" transform="matrix(1.00, 0.00, -0.00, -1.00, 17.6, 41.1)"> </text><text xml:space="preserve" font-family="Monaco,Monaco" font-size="14.0" fill="#FEFFFE" transform="matrix(1.00, 0.00, -0.00, -1.00, 26.0, 41.1)">.</text><text xml:space="preserve" font-family="Monaco,Monaco" font-size="14.0" fill="#FEFFFE" transform="matrix(1.00, 0.00, -0.00, -1.00, 34.4, 41.1)">.</text><text xml:space="preserve" font-family="Monaco,Monaco" font-size="14.0" fill="#FEFFFE" transform="matrix(1.00, 0.00, -0.00, -1.00, 42.8, 41.1)">.</text></g></g><image xlink:href="8B974F5FFBF1948DB32E06520B31FD74.png" width="30.00" height="19.00" transform="matrix(1.00, 0.00, -0.00, -1.00, 7.0, 36.0)"></image><g><clipPath id="clip0x6000010a9420"><path d="M 1.8 7.1 L 200.3 7.1 L 200.3 141.3 L 1.8 141.3 Z M 1.8 7.1 "></path></clipPath><g clip-path="url(#clip0x6000010a9420)"><text xml:space="preserve" font-family="Monaco,Monaco" font-size="14.0" fill="#FEFFFE" transform="matrix(1.00, 0.00, -0.00, -1.00, 9.5, 22.1)">e</text><text xml:space="preserve" font-family="Monaco,Monaco" font-size="14.0" fill="#FEFFFE" transform="matrix(1.00, 0.00, -0.00, -1.00, 17.9, 22.1)">n</text><text xml:space="preserve" font-family="Monaco,Monaco" font-size="14.0" fill="#FEFFFE" transform="matrix(1.00, 0.00, -0.00, -1.00, 26.3, 22.1)">d</text></g></g></g></svg>