<?xml version="1.0" encoding="UTF-8" standalone="no"?><svg xmlns="http://www.w3.org/2000/svg" xmlns:xlink="http://www.w3.org/1999/xlink" clip-rule="evenodd" stroke-miterlimit="10" viewBox="0 0 1024 768"><desc>SVG generated by Keynote</desc><defs></defs><g transform="matrix(1.00, 0.00, -0.00, -1.00, 0.0, 768.0)"><g><clipPath id="clip0x6000040a3660"><path d="M 0.0 768.0 L 1024.0 768.0 L 1024.0 0.0 L 0.0 0.0 Z M 0.0 768.0 "></path></clipPath><g clip-path="url(#clip0x6000040a3660)"><image xlink:href="../../384E26B0-0AD0-495F-BA75-267B55ABD0BD/assets/31D284A5C75E14674D2A89FDB99F8048.jpeg" width="2048.00" height="1536.00" transform="matrix(0.50, 0.00, -0.00, -0.50, 0.0, 768.0)"></image></g></g><image xlink:href="2019542D99ECBEDC09733B7BCF21FCD9.png" width="605.00" height="68.00" transform="matrix(1.00, 0.00, -0.00, -1.00, 209.0, 619.0)"></image><text xml:space="preserve" font-family="HelveticaNeue-Bold,Helvetica Neue" font-weight="bold" font-size="64.0" fill="#FEFFFE" transform="matrix(1.00, 0.00, -0.00, -1.00, 211.0, 569.2)">C</text><text xml:space="preserve" font-family="HelveticaNeue-Bold,Helvetica Neue" font-weight="bold" font-size="64.0" fill="#FEFFFE" transform="matrix(1.00, 0.00, -0.00, -1.00, 258.4, 569.2)">o</text><text xml:space="preserve" font-family="HelveticaNeue-Bold,Helvetica Neue" font-weight="bold" font-size="64.0" fill="#FEFFFE" transform="matrix(1.00, 0.00, -0.00, -1.00, 297.5, 569.2)">m</text><text xml:space="preserve" font-family="HelveticaNeue-Bold,Helvetica Neue" font-weight="bold" font-size="64.0" fill="#FEFFFE" transform="matrix(1.00, 0.00, -0.00, -1.00, 355.5, 569.2)">p</text><text xml:space="preserve" font-family="HelveticaNeue-Bold,Helvetica Neue" font-weight="bold" font-size="64.0" fill="#FEFFFE" transform="matrix(1.00, 0.00, -0.00, -1.00, 394.6, 569.2)">o</text><text xml:space="preserve" font-family="HelveticaNeue-Bold,Helvetica Neue" font-weight="bold" font-size="64.0" fill="#FEFFFE" transform="matrix(1.00, 0.00, -0.00, -1.00, 433.7, 569.2)">n</text><text xml:space="preserve" font-family="HelveticaNeue-Bold,Helvetica Neue" font-weight="bold" font-size="64.0" fill="#FEFFFE" transform="matrix(1.00, 0.00, -0.00, -1.00, 471.6, 569.2)">e</text><text xml:space="preserve" font-family="HelveticaNeue-Bold,Helvetica Neue" font-weight="bold" font-size="64.0" fill="#FEFFFE" transform="matrix(1.00, 0.00, -0.00, -1.00, 508.4, 569.2)">n</text><text xml:space="preserve" font-family="HelveticaNeue-Bold,Helvetica Neue" font-weight="bold" font-size="64.0" fill="#FEFFFE" transform="matrix(1.00, 0.00, -0.00, -1.00, 546.3, 569.2)">t</text><text xml:space="preserve" font-family="HelveticaNeue-Bold,Helvetica Neue" font-weight="bold" font-size="64.0" fill="#FEFFFE" transform="matrix(1.00, 0.00, -0.00, -1.00, 568.9, 569.2)"> </text><text xml:space="preserve" font-family="HelveticaNeue-Bold,Helvetica Neue" font-weight="bold" font-size="64.0" fill="#FEFFFE" transform="matrix(1.00, 0.00, -0.00, -1.00, 586.7, 569.2)">S</text><text xml:space="preserve" font-family="HelveticaNeue-Bold,Helvetica Neue" font-weight="bold" font-size="64.0" fill="#FEFFFE" transform="matrix(1.00, 0.00, -0.00, -1.00, 628.2, 569.2)">y</text><text xml:space="preserve" font-family="HelveticaNeue-Bold,Helvetica Neue" font-weight="bold" font-size="64.0" fill="#FEFFFE" transform="matrix(1.00, 0.00, -0.00, -1.00, 661.4, 569.2)">s</text><text xml:space="preserve" font-family="HelveticaNeue-Bold,Helvetica Neue" font-weight="bold" font-size="64.0" fill="#FEFFFE" transform="matrix(1.00, 0.00, -0.00, -1.00, 695.8, 569.2)">t</text><text xml:space="preserve" font-family="HelveticaNeue-Bold,Helvetica Neue" font-weight="bold" font-size="64.0" fill="#FEFFFE" transform="matrix(1.00, 0.00, -0.00, -1.00, 718.3, 569.2)">e</text><text xml:space="preserve" font-family="HelveticaNeue-Bold,Helvetica Neue" font-weight="bold" font-size="64.0" fill="#FEFFFE" transform="matrix(1.00, 0.00, -0.00, -1.00, 755.0, 569.2)">m</text><g><clipPath id="clip0x6000040a3f60"><path d="M 274.4 130.4 L 902.7 130.4 L 902.7 201.8 L 274.4 201.8 Z M 274.4 130.4 "></path></clipPath><g clip-path="url(#clip0x6000040a3f60)"><image xlink:href="26248A8DFAB292AAD49B838F6D9B2243.png" width="626.00" height="69.00" transform="matrix(1.00, 0.00, -0.00, -1.01, 275.4, 200.8)" opacity="0.50"></image><path d="M 279.0 199.0 L 898.0 199.0 L 898.0 137.0 L 279.0 137.0 Z M 279.4 198.8 " fill="#204C7C"></path></g></g><image xlink:href="EC7445AEE17D172E709C1715AECEC6D4.png" width="189.00" height="34.00" transform="matrix(1.00, 0.00, -0.00, -1.00, 494.0, 183.0)"></image><g><clipPath id="clip0x6000040a4020"><path d="M 270.0 132.4 L 907.1 132.4 L 907.1 201.3 L 270.0 201.3 Z M 270.0 132.4 "></path></clipPath><g clip-path="url(#clip0x6000040a4020)"><text xml:space="preserve" font-family="HelveticaNeue-Medium,Helvetica Neue" font-size="35.0" fill="#FEFFFE" transform="matrix(1.00, 0.00, -0.00, -1.00, 496.5, 154.4)">S</text><text xml:space="preserve" font-family="HelveticaNeue-Medium,Helvetica Neue" font-size="35.0" fill="#FEFFFE" transform="matrix(1.00, 0.00, -0.00, -1.00, 519.2, 154.4)">t</text><text xml:space="preserve" font-family="HelveticaNeue-Medium,Helvetica Neue" font-size="35.0" fill="#FEFFFE" transform="matrix(1.00, 0.00, -0.00, -1.00, 530.8, 154.4)">r</text><text xml:space="preserve" font-family="HelveticaNeue-Medium,Helvetica Neue" font-size="35.0" fill="#FEFFFE" transform="matrix(1.00, 0.00, -0.00, -1.00, 542.5, 154.4)">e</text><text xml:space="preserve" font-family="HelveticaNeue-Medium,Helvetica Neue" font-size="35.0" fill="#FEFFFE" transform="matrix(1.00, 0.00, -0.00, -1.00, 562.0, 154.4)">a</text><text xml:space="preserve" font-family="HelveticaNeue-Medium,Helvetica Neue" font-size="35.0" fill="#FEFFFE" transform="matrix(1.00, 0.00, -0.00, -1.00, 581.4, 154.4)">m</text><text xml:space="preserve" font-family="HelveticaNeue-Medium,Helvetica Neue" font-size="35.0" fill="#FEFFFE" transform="matrix(1.00, 0.00, -0.00, -1.00, 611.9, 154.4)">a</text><text xml:space="preserve" font-family="HelveticaNeue-Medium,Helvetica Neue" font-size="35.0" fill="#FEFFFE" transform="matrix(1.00, 0.00, -0.00, -1.00, 631.3, 154.4)">b</text><text xml:space="preserve" font-family="HelveticaNeue-Medium,Helvetica Neue" font-size="35.0" fill="#FEFFFE" transform="matrix(1.00, 0.00, -0.00, -1.00, 652.7, 154.4)">l</text><text xml:space="preserve" font-family="HelveticaNeue-Medium,Helvetica Neue" font-size="35.0" fill="#FEFFFE" transform="matrix(1.00, 0.00, -0.00, -1.00, 661.2, 154.4)">e</text></g></g><g><clipPath id="clip0x608002eb2b40"><path d="M 274.4 191.5 L 902.7 191.5 L 902.7 262.9 L 274.4 262.9 Z M 274.4 191.5 "></path></clipPath><g clip-path="url(#clip0x608002eb2b40)"><image xlink:href="C88E39B95442C9DF3A6058E65E59C11A.png" width="626.00" height="69.00" transform="matrix(1.00, 0.00, -0.00, -1.01, 275.4, 261.9)" opacity="0.50"></image><path d="M 279.0 260.0 L 898.0 260.0 L 898.0 198.0 L 279.0 198.0 Z M 279.4 259.9 " fill="#204C7C"></path></g></g><image xlink:href="A6E19CAF33CCF792D719B6953FAE56FF.png" width="132.00" height="32.00" transform="matrix(1.00, 0.00, -0.00, -1.00, 524.0, 243.0)"></image><g><clipPath id="clip0x6000040a4680"><path d="M 270.0 193.5 L 907.1 193.5 L 907.1 262.3 L 270.0 262.3 Z M 270.0 193.5 "></path></clipPath><g clip-path="url(#clip0x6000040a4680)"><text xml:space="preserve" font-family="HelveticaNeue-Medium,Helvetica Neue" font-size="35.0" fill="#FEFFFE" transform="matrix(1.00, 0.00, -0.00, -1.00, 525.3, 215.5)">H</text><text xml:space="preserve" font-family="HelveticaNeue-Medium,Helvetica Neue" font-size="35.0" fill="#FEFFFE" transform="matrix(1.00, 0.00, -0.00, -1.00, 550.6, 215.5)">a</text><text xml:space="preserve" font-family="HelveticaNeue-Medium,Helvetica Neue" font-size="35.0" fill="#FEFFFE" transform="matrix(1.00, 0.00, -0.00, -1.00, 570.1, 215.5)">n</text><text xml:space="preserve" font-family="HelveticaNeue-Medium,Helvetica Neue" font-size="35.0" fill="#FEFFFE" transform="matrix(1.00, 0.00, -0.00, -1.00, 590.2, 215.5)">d</text><text xml:space="preserve" font-family="HelveticaNeue-Medium,Helvetica Neue" font-size="35.0" fill="#FEFFFE" transform="matrix(1.00, 0.00, -0.00, -1.00, 611.6, 215.5)">l</text><text xml:space="preserve" font-family="HelveticaNeue-Medium,Helvetica Neue" font-size="35.0" fill="#FEFFFE" transform="matrix(1.00, 0.00, -0.00, -1.00, 620.0, 215.5)">e</text><text xml:space="preserve" font-family="HelveticaNeue-Medium,Helvetica Neue" font-size="35.0" fill="#FEFFFE" transform="matrix(1.00, 0.00, -0.00, -1.00, 639.4, 215.5)">r</text></g></g><g><clipPath id="clip0x6000040a4ce0"><path d="M 274.4 252.4 L 902.7 252.4 L 902.7 323.7 L 274.4 323.7 Z M 274.4 252.4 "></path></clipPath><g clip-path="url(#clip0x6000040a4ce0)"><image xlink:href="D6567F49736F0CA2A2996A706403D029.png" width="626.00" height="69.00" transform="matrix(1.00, 0.00, -0.00, -1.00, 275.4, 322.7)" opacity="0.50"></image><path d="M 279.0 321.0 L 898.0 321.0 L 898.0 259.0 L 279.0 259.0 Z M 279.4 320.7 " fill="#204C7C"></path></g></g><image xlink:href="3A76FAFA8C5153ABA42CA4C2339A376F.png" width="120.00" height="33.00" transform="matrix(1.00, 0.00, -0.00, -1.00, 530.0, 304.0)"></image><g><clipPath id="clip0x608002eb2ae0"><path d="M 270.0 254.3 L 907.1 254.3 L 907.1 323.1 L 270.0 323.1 Z M 270.0 254.3 "></path></clipPath><g clip-path="url(#clip0x608002eb2ae0)"><text xml:space="preserve" font-family="HelveticaNeue-Medium,Helvetica Neue" font-size="35.0" fill="#FEFFFE" transform="matrix(1.00, 0.00, -0.00, -1.00, 531.2, 276.3)">B</text><text xml:space="preserve" font-family="HelveticaNeue-Medium,Helvetica Neue" font-size="35.0" fill="#FEFFFE" transform="matrix(1.00, 0.00, -0.00, -1.00, 555.8, 276.3)">u</text><text xml:space="preserve" font-family="HelveticaNeue-Medium,Helvetica Neue" font-size="35.0" fill="#FEFFFE" transform="matrix(1.00, 0.00, -0.00, -1.00, 575.9, 276.3)">i</text><text xml:space="preserve" font-family="HelveticaNeue-Medium,Helvetica Neue" font-size="35.0" fill="#FEFFFE" transform="matrix(1.00, 0.00, -0.00, -1.00, 584.3, 276.3)">l</text><text xml:space="preserve" font-family="HelveticaNeue-Medium,Helvetica Neue" font-size="35.0" fill="#FEFFFE" transform="matrix(1.00, 0.00, -0.00, -1.00, 592.8, 276.3)">d</text><text xml:space="preserve" font-family="HelveticaNeue-Medium,Helvetica Neue" font-size="35.0" fill="#FEFFFE" transform="matrix(1.00, 0.00, -0.00, -1.00, 614.2, 276.3)">e</text><text xml:space="preserve" font-family="HelveticaNeue-Medium,Helvetica Neue" font-size="35.0" fill="#FEFFFE" transform="matrix(1.00, 0.00, -0.00, -1.00, 633.6, 276.3)">r</text></g></g><g><clipPath id="clip0x6000040a5100"><path d="M 274.4 313.0 L 902.7 313.0 L 902.7 385.1 L 274.4 385.1 Z M 274.4 313.0 "></path></clipPath><g clip-path="url(#clip0x6000040a5100)"><image xlink:href="2C4CE67F41DEA76171A6A022AE24FE1B.png" width="626.00" height="70.00" transform="matrix(1.00, 0.00, -0.00, -1.00, 275.4, 384.1)" opacity="0.50"></image><path d="M 279.0 382.0 L 898.0 382.0 L 898.0 320.0 L 279.0 320.0 Z M 279.4 382.1 " fill="#204C7C"></path></g></g><image xlink:href="1535F9CD7DE3BCC51ECC49901554D8C6.png" width="86.00" height="32.00" transform="matrix(1.00, 0.00, -0.00, -1.00, 547.0, 365.0)"></image><g><clipPath id="clip0x6000040a51c0"><path d="M 270.0 315.7 L 907.1 315.7 L 907.1 384.6 L 270.0 384.6 Z M 270.0 315.7 "></path></clipPath><g clip-path="url(#clip0x6000040a51c0)"><text xml:space="preserve" font-family="HelveticaNeue-Medium,Helvetica Neue" font-size="35.0" fill="#FEFFFE" transform="matrix(1.00, 0.00, -0.00, -1.00, 548.0, 337.7)">F</text><text xml:space="preserve" font-family="HelveticaNeue-Medium,Helvetica Neue" font-size="35.0" fill="#FEFFFE" transform="matrix(1.00, 0.00, -0.00, -1.00, 568.8, 337.7)">i</text><text xml:space="preserve" font-family="HelveticaNeue-Medium,Helvetica Neue" font-size="35.0" fill="#FEFFFE" transform="matrix(1.00, 0.00, -0.00, -1.00, 577.2, 337.7)">l</text><text xml:space="preserve" font-family="HelveticaNeue-Medium,Helvetica Neue" font-size="35.0" fill="#FEFFFE" transform="matrix(1.00, 0.00, -0.00, -1.00, 585.7, 337.7)">t</text><text xml:space="preserve" font-family="HelveticaNeue-Medium,Helvetica Neue" font-size="35.0" fill="#FEFFFE" transform="matrix(1.00, 0.00, -0.00, -1.00, 597.3, 337.7)">e</text><text xml:space="preserve" font-family="HelveticaNeue-Medium,Helvetica Neue" font-size="35.0" fill="#FEFFFE" transform="matrix(1.00, 0.00, -0.00, -1.00, 616.8, 337.7)">r</text></g></g><g><clipPath id="clip0x6000040a5820"><path d="M 274.4 375.1 L 902.7 375.1 L 902.7 446.6 L 274.4 446.6 Z M 274.4 375.1 "></path></clipPath><g clip-path="url(#clip0x6000040a5820)"><image xlink:href="62D902EA787F42E3CDA8F92F6C2E5F7F.png" width="626.00" height="69.00" transform="matrix(1.00, 0.00, -0.00, -1.01, 275.4, 445.6)" opacity="0.50"></image><path d="M 279.0 444.0 L 898.0 444.0 L 898.0 382.0 L 279.0 382.0 Z M 279.4 443.6 " fill="#204C7C"></path></g></g><image xlink:href="1655B9D9F01389DB2E3BD142EAE6BF1F.png" width="191.00" height="33.00" transform="matrix(1.00, 0.00, -0.00, -1.00, 494.0, 427.0)"></image><g><clipPath id="clip0x608002eb25a0"><path d="M 270.0 377.2 L 907.1 377.2 L 907.1 446.0 L 270.0 446.0 Z M 270.0 377.2 "></path></clipPath><g clip-path="url(#clip0x608002eb25a0)"><text xml:space="preserve" font-family="HelveticaNeue-Medium,Helvetica Neue" font-size="35.0" fill="#FEFFFE" transform="matrix(1.00, 0.00, -0.00, -1.00, 494.5, 399.2)">M</text><text xml:space="preserve" font-family="HelveticaNeue-Medium,Helvetica Neue" font-size="35.0" fill="#FEFFFE" transform="matrix(1.00, 0.00, -0.00, -1.00, 525.6, 399.2)">i</text><text xml:space="preserve" font-family="HelveticaNeue-Medium,Helvetica Neue" font-size="35.0" fill="#FEFFFE" transform="matrix(1.00, 0.00, -0.00, -1.00, 534.1, 399.2)">d</text><text xml:space="preserve" font-family="HelveticaNeue-Medium,Helvetica Neue" font-size="35.0" fill="#FEFFFE" transform="matrix(1.00, 0.00, -0.00, -1.00, 555.5, 399.2)">d</text><text xml:space="preserve" font-family="HelveticaNeue-Medium,Helvetica Neue" font-size="35.0" fill="#FEFFFE" transform="matrix(1.00, 0.00, -0.00, -1.00, 576.9, 399.2)">l</text><text xml:space="preserve" font-family="HelveticaNeue-Medium,Helvetica Neue" font-size="35.0" fill="#FEFFFE" transform="matrix(1.00, 0.00, -0.00, -1.00, 585.3, 399.2)">e</text><text xml:space="preserve" font-family="HelveticaNeue-Medium,Helvetica Neue" font-size="35.0" fill="#FEFFFE" transform="matrix(1.00, 0.00, -0.00, -1.00, 604.7, 399.2)">w</text><text xml:space="preserve" font-family="HelveticaNeue-Medium,Helvetica Neue" font-size="35.0" fill="#FEFFFE" transform="matrix(1.00, 0.00, -0.00, -1.00, 632.0, 399.2)">a</text><text xml:space="preserve" font-family="HelveticaNeue-Medium,Helvetica Neue" font-size="35.0" fill="#FEFFFE" transform="matrix(1.00, 0.00, -0.00, -1.00, 651.4, 399.2)">r</text><text xml:space="preserve" font-family="HelveticaNeue-Medium,Helvetica Neue" font-size="35.0" fill="#FEFFFE" transform="matrix(1.00, 0.00, -0.00, -1.00, 663.1, 399.2)">e</text></g></g><g><clipPath id="clip0x608002eb32c0"><path d="M 121.3 437.2 L 902.4 437.2 L 902.4 509.3 L 121.3 509.3 Z M 121.3 437.2 "></path></clipPath><g clip-path="url(#clip0x608002eb32c0)"><image xlink:href="0E38ED55B1E333DBD3810942DF307765.png" width="779.00" height="70.00" transform="matrix(1.00, 0.00, -0.00, -1.00, 122.3, 508.3)" opacity="0.50"></image><path d="M 126.0 506.0 L 897.0 506.0 L 897.0 444.0 L 126.0 444.0 Z M 126.3 506.3 " fill="#914613"></path></g></g><image xlink:href="AFE535307EB205A81C8F5A02ECF0FBD4.png" width="323.00" height="40.00" transform="matrix(1.00, 0.00, -0.00, -1.00, 350.0, 490.0)"></image><g><clipPath id="clip0x608002eb3380"><path d="M 116.9 439.9 L 906.9 439.9 L 906.9 508.7 L 116.9 508.7 Z M 116.9 439.9 "></path></clipPath><g clip-path="url(#clip0x608002eb3380)"><text xml:space="preserve" font-family="HelveticaNeue-Medium,Helvetica Neue" font-size="35.0" fill="#FEFFFE" transform="matrix(1.00, 0.00, -0.00, -1.00, 351.8, 461.9)">C</text><text xml:space="preserve" font-family="HelveticaNeue-Medium,Helvetica Neue" font-size="35.0" fill="#FEFFFE" transform="matrix(1.00, 0.00, -0.00, -1.00, 377.0, 461.9)">o</text><text xml:space="preserve" font-family="HelveticaNeue-Medium,Helvetica Neue" font-size="35.0" fill="#FEFFFE" transform="matrix(1.00, 0.00, -0.00, -1.00, 397.8, 461.9)">m</text><text xml:space="preserve" font-family="HelveticaNeue-Medium,Helvetica Neue" font-size="35.0" fill="#FEFFFE" transform="matrix(1.00, 0.00, -0.00, -1.00, 428.2, 461.9)">p</text><text xml:space="preserve" font-family="HelveticaNeue-Medium,Helvetica Neue" font-size="35.0" fill="#FEFFFE" transform="matrix(1.00, 0.00, -0.00, -1.00, 449.6, 461.9)">o</text><text xml:space="preserve" font-family="HelveticaNeue-Medium,Helvetica Neue" font-size="35.0" fill="#FEFFFE" transform="matrix(1.00, 0.00, -0.00, -1.00, 470.4, 461.9)">n</text><text xml:space="preserve" font-family="HelveticaNeue-Medium,Helvetica Neue" font-size="35.0" fill="#FEFFFE" transform="matrix(1.00, 0.00, -0.00, -1.00, 490.5, 461.9)">e</text><text xml:space="preserve" font-family="HelveticaNeue-Medium,Helvetica Neue" font-size="35.0" fill="#FEFFFE" transform="matrix(1.00, 0.00, -0.00, -1.00, 509.9, 461.9)">n</text><text xml:space="preserve" font-family="HelveticaNeue-Medium,Helvetica Neue" font-size="35.0" fill="#FEFFFE" transform="matrix(1.00, 0.00, -0.00, -1.00, 530.0, 461.9)">t</text><text xml:space="preserve" font-family="HelveticaNeue-Medium,Helvetica Neue" font-size="35.0" fill="#FEFFFE" transform="matrix(1.00, 0.00, -0.00, -1.00, 541.7, 461.9)"> </text><text xml:space="preserve" font-family="HelveticaNeue-Medium,Helvetica Neue" font-size="35.0" fill="#FEFFFE" transform="matrix(1.00, 0.00, -0.00, -1.00, 551.4, 461.9)">S</text><text xml:space="preserve" font-family="HelveticaNeue-Medium,Helvetica Neue" font-size="35.0" fill="#FEFFFE" transform="matrix(1.00, 0.00, -0.00, -1.00, 574.1, 461.9)">y</text><text xml:space="preserve" font-family="HelveticaNeue-Medium,Helvetica Neue" font-size="35.0" fill="#FEFFFE" transform="matrix(1.00, 0.00, -0.00, -1.00, 592.2, 461.9)">s</text><text xml:space="preserve" font-family="HelveticaNeue-Medium,Helvetica Neue" font-size="35.0" fill="#FEFFFE" transform="matrix(1.00, 0.00, -0.00, -1.00, 610.4, 461.9)">t</text><text xml:space="preserve" font-family="HelveticaNeue-Medium,Helvetica Neue" font-size="35.0" fill="#FEFFFE" transform="matrix(1.00, 0.00, -0.00, -1.00, 622.1, 461.9)">e</text><text xml:space="preserve" font-family="HelveticaNeue-Medium,Helvetica Neue" font-size="35.0" fill="#FEFFFE" transform="matrix(1.00, 0.00, -0.00, -1.00, 641.5, 461.9)">m</text></g></g><g><clipPath id="clip0x6000040a5dc0"><path d="M 274.4 68.6 L 902.7 68.6 L 902.7 140.0 L 274.4 140.0 Z M 274.4 68.6 "></path></clipPath><g clip-path="url(#clip0x6000040a5dc0)"><image xlink:href="8FC5F027E416FCE4C69F52986C766CCA.png" width="626.00" height="69.00" transform="matrix(1.00, 0.00, -0.00, -1.01, 275.4, 139.0)" opacity="0.50"></image><path d="M 279.0 137.0 L 898.0 137.0 L 898.0 76.0 L 279.0 76.0 Z M 279.4 137.0 " fill="#204C7C"></path></g></g><image xlink:href="E8F76DA7DF3CD03FD4201283CA07B636.png" width="262.00" height="34.00" transform="matrix(1.00, 0.00, -0.00, -1.00, 457.0, 121.0)"></image><g><clipPath id="clip0x6000040a5e20"><path d="M 270.0 70.6 L 907.1 70.6 L 907.1 139.4 L 270.0 139.4 Z M 270.0 70.6 "></path></clipPath><g clip-path="url(#clip0x6000040a5e20)"><text xml:space="preserve" font-family="HelveticaNeue-Medium,Helvetica Neue" font-size="35.0" fill="#FEFFFE" transform="matrix(1.00, 0.00, -0.00, -1.00, 459.5, 92.6)">S</text><text xml:space="preserve" font-family="HelveticaNeue-Medium,Helvetica Neue" font-size="35.0" fill="#FEFFFE" transform="matrix(1.00, 0.00, -0.00, -1.00, 482.2, 92.6)">t</text><text xml:space="preserve" font-family="HelveticaNeue-Medium,Helvetica Neue" font-size="35.0" fill="#FEFFFE" transform="matrix(1.00, 0.00, -0.00, -1.00, 493.9, 92.6)">r</text><text xml:space="preserve" font-family="HelveticaNeue-Medium,Helvetica Neue" font-size="35.0" fill="#FEFFFE" transform="matrix(1.00, 0.00, -0.00, -1.00, 505.6, 92.6)">e</text><text xml:space="preserve" font-family="HelveticaNeue-Medium,Helvetica Neue" font-size="35.0" fill="#FEFFFE" transform="matrix(1.00, 0.00, -0.00, -1.00, 525.0, 92.6)">a</text><text xml:space="preserve" font-family="HelveticaNeue-Medium,Helvetica Neue" font-size="35.0" fill="#FEFFFE" transform="matrix(1.00, 0.00, -0.00, -1.00, 544.5, 92.6)">m</text><text xml:space="preserve" font-family="HelveticaNeue-Medium,Helvetica Neue" font-size="35.0" fill="#FEFFFE" transform="matrix(1.00, 0.00, -0.00, -1.00, 574.9, 92.6)"> </text><text xml:space="preserve" font-family="HelveticaNeue-Medium,Helvetica Neue" font-size="35.0" fill="#FEFFFE" transform="matrix(1.00, 0.00, -0.00, -1.00, 584.7, 92.6)">C</text><text xml:space="preserve" font-family="HelveticaNeue-Medium,Helvetica Neue" font-size="35.0" fill="#FEFFFE" transform="matrix(1.00, 0.00, -0.00, -1.00, 609.9, 92.6)">h</text><text xml:space="preserve" font-family="HelveticaNeue-Medium,Helvetica Neue" font-size="35.0" fill="#FEFFFE" transform="matrix(1.00, 0.00, -0.00, -1.00, 630.0, 92.6)">a</text><text xml:space="preserve" font-family="HelveticaNeue-Medium,Helvetica Neue" font-size="35.0" fill="#FEFFFE" transform="matrix(1.00, 0.00, -0.00, -1.00, 649.5, 92.6)">n</text><text xml:space="preserve" font-family="HelveticaNeue-Medium,Helvetica Neue" font-size="35.0" fill="#FEFFFE" transform="matrix(1.00, 0.00, -0.00, -1.00, 669.6, 92.6)">n</text><text xml:space="preserve" font-family="HelveticaNeue-Medium,Helvetica Neue" font-size="35.0" fill="#FEFFFE" transform="matrix(1.00, 0.00, -0.00, -1.00, 689.7, 92.6)">e</text><text xml:space="preserve" font-family="HelveticaNeue-Medium,Helvetica Neue" font-size="35.0" fill="#FEFFFE" transform="matrix(1.00, 0.00, -0.00, -1.00, 709.1, 92.6)">l</text></g></g><g><clipPath id="clip0x6000040a6720"><path d="M 122.1 73.0 L 122.1 447.4 L 285.3 447.4 L 285.3 73.0 Z M 122.1 73.0 "></path></clipPath><g clip-path="url(#clip0x6000040a6720)"><image xlink:href="1B83B05034EE8B0463BCFF47E2E3D647.png" width="372.00" height="161.00" transform="matrix(0.00, 1.00, 1.00, -0.00, 123.1, 74.0)" opacity="0.50"></image><path d="M 127.0 80.0 L 127.0 444.0 L 280.0 444.0 L 280.0 80.0 Z M 127.1 80.0 " fill="#609AE2"></path></g></g><image xlink:href="CE77B9A2A4D05887E417B04117FACD7E.png" width="33.00" height="185.00" transform="matrix(1.00, 0.00, -0.00, -1.00, 189.0, 354.0)"></image><g><clipPath id="clip0x608002eb3b60"><path d="M 127.1 70.5 L 127.1 453.8 L 280.3 453.8 L 280.3 70.5 Z M 127.1 70.5 "></path></clipPath><g clip-path="url(#clip0x608002eb3b60)"><text xml:space="preserve" font-family="HelveticaNeue-Medium,Helvetica Neue" font-size="35.0" fill="#FEFFFE" transform="matrix(0.00, 1.00, 1.00, -0.00, 217.5, 170.4)">F</text><text xml:space="preserve" font-family="HelveticaNeue-Medium,Helvetica Neue" font-size="35.0" fill="#FEFFFE" transform="matrix(0.00, 1.00, 1.00, -0.00, 217.5, 191.2)">o</text><text xml:space="preserve" font-family="HelveticaNeue-Medium,Helvetica Neue" font-size="35.0" fill="#FEFFFE" transform="matrix(0.00, 1.00, 1.00, -0.00, 217.5, 211.9)">u</text><text xml:space="preserve" font-family="HelveticaNeue-Medium,Helvetica Neue" font-size="35.0" fill="#FEFFFE" transform="matrix(0.00, 1.00, 1.00, -0.00, 217.5, 232.0)">n</text><text xml:space="preserve" font-family="HelveticaNeue-Medium,Helvetica Neue" font-size="35.0" fill="#FEFFFE" transform="matrix(0.00, 1.00, 1.00, -0.00, 217.5, 252.1)">d</text><text xml:space="preserve" font-family="HelveticaNeue-Medium,Helvetica Neue" font-size="35.0" fill="#FEFFFE" transform="matrix(0.00, 1.00, 1.00, -0.00, 217.5, 273.5)">a</text><text xml:space="preserve" font-family="HelveticaNeue-Medium,Helvetica Neue" font-size="35.0" fill="#FEFFFE" transform="matrix(0.00, 1.00, 1.00, -0.00, 217.5, 293.0)">t</text><text xml:space="preserve" font-family="HelveticaNeue-Medium,Helvetica Neue" font-size="35.0" fill="#FEFFFE" transform="matrix(0.00, 1.00, 1.00, -0.00, 217.5, 304.6)">i</text><text xml:space="preserve" font-family="HelveticaNeue-Medium,Helvetica Neue" font-size="35.0" fill="#FEFFFE" transform="matrix(0.00, 1.00, 1.00, -0.00, 217.5, 313.1)">o</text><text xml:space="preserve" font-family="HelveticaNeue-Medium,Helvetica Neue" font-size="35.0" fill="#FEFFFE" transform="matrix(0.00, 1.00, 1.00, -0.00, 217.5, 333.8)">n</text></g></g></g></svg>