<?xml version="1.0" encoding="UTF-8" standalone="no"?><svg xmlns="http://www.w3.org/2000/svg" xmlns:xlink="http://www.w3.org/1999/xlink" clip-rule="evenodd" stroke-miterlimit="10" viewBox="0 0 195 38"><desc>SVG generated by Keynote</desc><defs></defs><g transform="matrix(1.00, 0.00, -0.00, -1.00, 0.0, 38.0)"><image xlink:href="C08D1A4564B222C11C374DDF4D83D2A8.png" width="144.00" height="35.00" transform="matrix(1.00, 0.00, -0.00, -1.00, 1.0, 37.0)"></image><text xml:space="preserve" font-family="Monaco,Monaco" font-size="26.0" fill="#EAEAEA" transform="matrix(1.00, 0.00, -0.00, -1.00, 2.5, 13.5)">r</text><text xml:space="preserve" font-family="Monaco,Monaco" font-size="26.0" fill="#EAEAEA" transform="matrix(1.00, 0.00, -0.00, -1.00, 18.1, 13.5)">e</text><text xml:space="preserve" font-family="Monaco,Monaco" font-size="26.0" fill="#EAEAEA" transform="matrix(1.00, 0.00, -0.00, -1.00, 33.7, 13.5)">a</text><text xml:space="preserve" font-family="Monaco,Monaco" font-size="26.0" fill="#EAEAEA" transform="matrix(1.00, 0.00, -0.00, -1.00, 49.4, 13.5)">m</text><text xml:space="preserve" font-family="Monaco,Monaco" font-size="26.0" fill="#EAEAEA" transform="matrix(1.00, 0.00, -0.00, -1.00, 65.0, 13.5)">a</text><text xml:space="preserve" font-family="Monaco,Monaco" font-size="26.0" fill="#EAEAEA" transform="matrix(1.00, 0.00, -0.00, -1.00, 80.6, 13.5)">b</text><text xml:space="preserve" font-family="Monaco,Monaco" font-size="26.0" fill="#EAEAEA" transform="matrix(1.00, 0.00, -0.00, -1.00, 96.2, 13.5)">l</text><text xml:space="preserve" font-family="Monaco,Monaco" font-size="26.0" fill="#EAEAEA" transform="matrix(1.00, 0.00, -0.00, -1.00, 111.8, 13.5)">e</text><text xml:space="preserve" font-family="Monaco,Monaco" font-size="26.0" fill="#EAEAEA" transform="matrix(1.00, 0.00, -0.00, -1.00, 127.4, 13.5)">)</text><text xml:space="preserve" font-family="Monaco,Monaco" font-size="26.0" fill="#EAEAEA" transform="matrix(1.00, 0.00, -0.00, -1.00, 143.0, 13.5)"> </text><image xlink:href="7F5798CB867B0B9CB032F1CD0B2E8FCD.png" width="38.00" height="23.00" transform="matrix(1.00, 0.00, -0.00, -1.00, 155.0, 30.0)"></image><text xml:space="preserve" font-family="Monaco,Monaco" font-size="26.0" fill="#E34D77" transform="matrix(1.00, 0.00, -0.00, -1.00, 158.6, 13.5)">=</text><text xml:space="preserve" font-family="Monaco,Monaco" font-size="26.0" fill="#E34D77" transform="matrix(1.00, 0.00, -0.00, -1.00, 174.2, 13.5)">&gt;</text></g></svg>